%TF.GenerationSoftware,Altium Limited,Altium Designer,20.1.8 (145)*%
G04 Layer_Color=255*
%FSLAX45Y45*%
%MOMM*%
%TF.SameCoordinates,71AC3D83-D9DD-4B8C-8FBF-A9C29C1C1930*%
%TF.FilePolarity,Positive*%
%TF.FileFunction,Pads,Bot*%
%TF.Part,Single*%
G01*
G75*
%TA.AperFunction,ComponentPad*%
G04:AMPARAMS|DCode=14|XSize=1.8mm|YSize=1.8mm|CornerRadius=0.9mm|HoleSize=0mm|Usage=FLASHONLY|Rotation=90.000|XOffset=0mm|YOffset=0mm|HoleType=Round|Shape=RoundedRectangle|*
%AMROUNDEDRECTD14*
21,1,1.80000,0.00000,0,0,90.0*
21,1,0.00000,1.80000,0,0,90.0*
1,1,1.80000,0.00000,0.00000*
1,1,1.80000,0.00000,0.00000*
1,1,1.80000,0.00000,0.00000*
1,1,1.80000,0.00000,0.00000*
%
%ADD14ROUNDEDRECTD14*%
G04:AMPARAMS|DCode=15|XSize=1.8mm|YSize=1.8mm|CornerRadius=0.18mm|HoleSize=0mm|Usage=FLASHONLY|Rotation=90.000|XOffset=0mm|YOffset=0mm|HoleType=Round|Shape=RoundedRectangle|*
%AMROUNDEDRECTD15*
21,1,1.80000,1.44000,0,0,90.0*
21,1,1.44000,1.80000,0,0,90.0*
1,1,0.36000,0.72000,0.72000*
1,1,0.36000,0.72000,-0.72000*
1,1,0.36000,-0.72000,-0.72000*
1,1,0.36000,-0.72000,0.72000*
%
%ADD15ROUNDEDRECTD15*%
%ADD16O,2.00000X1.50000*%
%ADD17C,2.00000*%
G04:AMPARAMS|DCode=18|XSize=1.5mm|YSize=2mm|CornerRadius=0.75mm|HoleSize=0mm|Usage=FLASHONLY|Rotation=180.000|XOffset=0mm|YOffset=0mm|HoleType=Round|Shape=RoundedRectangle|*
%AMROUNDEDRECTD18*
21,1,1.50000,0.50000,0,0,180.0*
21,1,0.00000,2.00000,0,0,180.0*
1,1,1.50000,0.00000,0.25000*
1,1,1.50000,0.00000,0.25000*
1,1,1.50000,0.00000,-0.25000*
1,1,1.50000,0.00000,-0.25000*
%
%ADD18ROUNDEDRECTD18*%
%ADD19O,3.00000X2.00000*%
%ADD20C,1.50000*%
%TA.AperFunction,ViaPad*%
%ADD21C,5.00000*%
%TA.AperFunction,ComponentPad*%
%ADD22C,1.40000*%
G04:AMPARAMS|DCode=23|XSize=1.4mm|YSize=1.4mm|CornerRadius=0.35mm|HoleSize=0mm|Usage=FLASHONLY|Rotation=315.000|XOffset=0mm|YOffset=0mm|HoleType=Round|Shape=RoundedRectangle|*
%AMROUNDEDRECTD23*
21,1,1.40000,0.70000,0,0,315.0*
21,1,0.70000,1.40000,0,0,315.0*
1,1,0.70000,0.00000,-0.49498*
1,1,0.70000,-0.49498,0.00000*
1,1,0.70000,0.00000,0.49498*
1,1,0.70000,0.49498,0.00000*
%
%ADD23ROUNDEDRECTD23*%
G04:AMPARAMS|DCode=24|XSize=1.4mm|YSize=1.4mm|CornerRadius=0.35mm|HoleSize=0mm|Usage=FLASHONLY|Rotation=90.000|XOffset=0mm|YOffset=0mm|HoleType=Round|Shape=RoundedRectangle|*
%AMROUNDEDRECTD24*
21,1,1.40000,0.70000,0,0,90.0*
21,1,0.70000,1.40000,0,0,90.0*
1,1,0.70000,0.35000,0.35000*
1,1,0.70000,0.35000,-0.35000*
1,1,0.70000,-0.35000,-0.35000*
1,1,0.70000,-0.35000,0.35000*
%
%ADD24ROUNDEDRECTD24*%
G04:AMPARAMS|DCode=25|XSize=1.4mm|YSize=1.4mm|CornerRadius=0.35mm|HoleSize=0mm|Usage=FLASHONLY|Rotation=45.000|XOffset=0mm|YOffset=0mm|HoleType=Round|Shape=RoundedRectangle|*
%AMROUNDEDRECTD25*
21,1,1.40000,0.70000,0,0,45.0*
21,1,0.70000,1.40000,0,0,45.0*
1,1,0.70000,0.49498,0.00000*
1,1,0.70000,0.00000,-0.49498*
1,1,0.70000,-0.49498,0.00000*
1,1,0.70000,0.00000,0.49498*
%
%ADD25ROUNDEDRECTD25*%
%TA.AperFunction,SMDPad,CuDef*%
G04:AMPARAMS|DCode=27|XSize=1.27mm|YSize=0.76mm|CornerRadius=0.0038mm|HoleSize=0mm|Usage=FLASHONLY|Rotation=270.000|XOffset=0mm|YOffset=0mm|HoleType=Round|Shape=RoundedRectangle|*
%AMROUNDEDRECTD27*
21,1,1.27000,0.75240,0,0,270.0*
21,1,1.26240,0.76000,0,0,270.0*
1,1,0.00760,-0.37620,-0.63120*
1,1,0.00760,-0.37620,0.63120*
1,1,0.00760,0.37620,0.63120*
1,1,0.00760,0.37620,-0.63120*
%
%ADD27ROUNDEDRECTD27*%
G04:AMPARAMS|DCode=28|XSize=0.6mm|YSize=0.8mm|CornerRadius=0.003mm|HoleSize=0mm|Usage=FLASHONLY|Rotation=180.000|XOffset=0mm|YOffset=0mm|HoleType=Round|Shape=RoundedRectangle|*
%AMROUNDEDRECTD28*
21,1,0.60000,0.79400,0,0,180.0*
21,1,0.59400,0.80000,0,0,180.0*
1,1,0.00600,-0.29700,0.39700*
1,1,0.00600,0.29700,0.39700*
1,1,0.00600,0.29700,-0.39700*
1,1,0.00600,-0.29700,-0.39700*
%
%ADD28ROUNDEDRECTD28*%
G04:AMPARAMS|DCode=29|XSize=0.95mm|YSize=0.55mm|CornerRadius=0.00275mm|HoleSize=0mm|Usage=FLASHONLY|Rotation=180.000|XOffset=0mm|YOffset=0mm|HoleType=Round|Shape=RoundedRectangle|*
%AMROUNDEDRECTD29*
21,1,0.95000,0.54450,0,0,180.0*
21,1,0.94450,0.55000,0,0,180.0*
1,1,0.00550,-0.47225,0.27225*
1,1,0.00550,0.47225,0.27225*
1,1,0.00550,0.47225,-0.27225*
1,1,0.00550,-0.47225,-0.27225*
%
%ADD29ROUNDEDRECTD29*%
G04:AMPARAMS|DCode=30|XSize=1.65mm|YSize=0.95mm|CornerRadius=0.00475mm|HoleSize=0mm|Usage=FLASHONLY|Rotation=90.000|XOffset=0mm|YOffset=0mm|HoleType=Round|Shape=RoundedRectangle|*
%AMROUNDEDRECTD30*
21,1,1.65000,0.94050,0,0,90.0*
21,1,1.64050,0.95000,0,0,90.0*
1,1,0.00950,0.47025,0.82025*
1,1,0.00950,0.47025,-0.82025*
1,1,0.00950,-0.47025,-0.82025*
1,1,0.00950,-0.47025,0.82025*
%
%ADD30ROUNDEDRECTD30*%
G04:AMPARAMS|DCode=31|XSize=0.5mm|YSize=1.2mm|CornerRadius=0.0025mm|HoleSize=0mm|Usage=FLASHONLY|Rotation=0.000|XOffset=0mm|YOffset=0mm|HoleType=Round|Shape=RoundedRectangle|*
%AMROUNDEDRECTD31*
21,1,0.50000,1.19500,0,0,0.0*
21,1,0.49500,1.20000,0,0,0.0*
1,1,0.00500,0.24750,-0.59750*
1,1,0.00500,-0.24750,-0.59750*
1,1,0.00500,-0.24750,0.59750*
1,1,0.00500,0.24750,0.59750*
%
%ADD31ROUNDEDRECTD31*%
G04:AMPARAMS|DCode=32|XSize=0.95mm|YSize=0.6mm|CornerRadius=0.003mm|HoleSize=0mm|Usage=FLASHONLY|Rotation=225.000|XOffset=0mm|YOffset=0mm|HoleType=Round|Shape=RoundedRectangle|*
%AMROUNDEDRECTD32*
21,1,0.95000,0.59400,0,0,225.0*
21,1,0.94400,0.60000,0,0,225.0*
1,1,0.00600,-0.54377,-0.12374*
1,1,0.00600,0.12374,0.54377*
1,1,0.00600,0.54377,0.12374*
1,1,0.00600,-0.12374,-0.54377*
%
%ADD32ROUNDEDRECTD32*%
G04:AMPARAMS|DCode=33|XSize=0.95mm|YSize=0.6mm|CornerRadius=0.003mm|HoleSize=0mm|Usage=FLASHONLY|Rotation=315.000|XOffset=0mm|YOffset=0mm|HoleType=Round|Shape=RoundedRectangle|*
%AMROUNDEDRECTD33*
21,1,0.95000,0.59400,0,0,315.0*
21,1,0.94400,0.60000,0,0,315.0*
1,1,0.00600,0.12374,-0.54377*
1,1,0.00600,-0.54377,0.12374*
1,1,0.00600,-0.12374,0.54377*
1,1,0.00600,0.54377,-0.12374*
%
%ADD33ROUNDEDRECTD33*%
G04:AMPARAMS|DCode=34|XSize=0.95mm|YSize=0.55mm|CornerRadius=0.00275mm|HoleSize=0mm|Usage=FLASHONLY|Rotation=45.000|XOffset=0mm|YOffset=0mm|HoleType=Round|Shape=RoundedRectangle|*
%AMROUNDEDRECTD34*
21,1,0.95000,0.54450,0,0,45.0*
21,1,0.94450,0.55000,0,0,45.0*
1,1,0.00550,0.52644,0.14142*
1,1,0.00550,-0.14142,-0.52644*
1,1,0.00550,-0.52644,-0.14142*
1,1,0.00550,0.14142,0.52644*
%
%ADD34ROUNDEDRECTD34*%
G04:AMPARAMS|DCode=35|XSize=0.6mm|YSize=0.8mm|CornerRadius=0.003mm|HoleSize=0mm|Usage=FLASHONLY|Rotation=45.000|XOffset=0mm|YOffset=0mm|HoleType=Round|Shape=RoundedRectangle|*
%AMROUNDEDRECTD35*
21,1,0.60000,0.79400,0,0,45.0*
21,1,0.59400,0.80000,0,0,45.0*
1,1,0.00600,0.49073,-0.07071*
1,1,0.00600,0.07071,-0.49073*
1,1,0.00600,-0.49073,0.07071*
1,1,0.00600,-0.07071,0.49073*
%
%ADD35ROUNDEDRECTD35*%
G04:AMPARAMS|DCode=36|XSize=0.95mm|YSize=0.6mm|CornerRadius=0.003mm|HoleSize=0mm|Usage=FLASHONLY|Rotation=180.000|XOffset=0mm|YOffset=0mm|HoleType=Round|Shape=RoundedRectangle|*
%AMROUNDEDRECTD36*
21,1,0.95000,0.59400,0,0,180.0*
21,1,0.94400,0.60000,0,0,180.0*
1,1,0.00600,-0.47200,0.29700*
1,1,0.00600,0.47200,0.29700*
1,1,0.00600,0.47200,-0.29700*
1,1,0.00600,-0.47200,-0.29700*
%
%ADD36ROUNDEDRECTD36*%
G04:AMPARAMS|DCode=37|XSize=0.95mm|YSize=0.6mm|CornerRadius=0.003mm|HoleSize=0mm|Usage=FLASHONLY|Rotation=90.000|XOffset=0mm|YOffset=0mm|HoleType=Round|Shape=RoundedRectangle|*
%AMROUNDEDRECTD37*
21,1,0.95000,0.59400,0,0,90.0*
21,1,0.94400,0.60000,0,0,90.0*
1,1,0.00600,0.29700,0.47200*
1,1,0.00600,0.29700,-0.47200*
1,1,0.00600,-0.29700,-0.47200*
1,1,0.00600,-0.29700,0.47200*
%
%ADD37ROUNDEDRECTD37*%
%ADD38O,0.50000X1.25000*%
%ADD39O,1.25000X0.50000*%
G04:AMPARAMS|DCode=40|XSize=0.95mm|YSize=0.55mm|CornerRadius=0.00275mm|HoleSize=0mm|Usage=FLASHONLY|Rotation=90.000|XOffset=0mm|YOffset=0mm|HoleType=Round|Shape=RoundedRectangle|*
%AMROUNDEDRECTD40*
21,1,0.95000,0.54450,0,0,90.0*
21,1,0.94450,0.55000,0,0,90.0*
1,1,0.00550,0.27225,0.47225*
1,1,0.00550,0.27225,-0.47225*
1,1,0.00550,-0.27225,-0.47225*
1,1,0.00550,-0.27225,0.47225*
%
%ADD40ROUNDEDRECTD40*%
G04:AMPARAMS|DCode=41|XSize=0.95mm|YSize=0.55mm|CornerRadius=0.00275mm|HoleSize=0mm|Usage=FLASHONLY|Rotation=135.000|XOffset=0mm|YOffset=0mm|HoleType=Round|Shape=RoundedRectangle|*
%AMROUNDEDRECTD41*
21,1,0.95000,0.54450,0,0,135.0*
21,1,0.94450,0.55000,0,0,135.0*
1,1,0.00550,-0.14142,0.52644*
1,1,0.00550,0.52644,-0.14142*
1,1,0.00550,0.14142,-0.52644*
1,1,0.00550,-0.52644,0.14142*
%
%ADD41ROUNDEDRECTD41*%
G04:AMPARAMS|DCode=42|XSize=1.65mm|YSize=0.95mm|CornerRadius=0.00475mm|HoleSize=0mm|Usage=FLASHONLY|Rotation=0.000|XOffset=0mm|YOffset=0mm|HoleType=Round|Shape=RoundedRectangle|*
%AMROUNDEDRECTD42*
21,1,1.65000,0.94050,0,0,0.0*
21,1,1.64050,0.95000,0,0,0.0*
1,1,0.00950,0.82025,-0.47025*
1,1,0.00950,-0.82025,-0.47025*
1,1,0.00950,-0.82025,0.47025*
1,1,0.00950,0.82025,0.47025*
%
%ADD42ROUNDEDRECTD42*%
D14*
X1485347Y-2995913D02*
D03*
Y-3249913D02*
D03*
Y-3503913D02*
D03*
Y-3757913D02*
D03*
X4211201Y-127000D02*
D03*
Y127000D02*
D03*
Y381000D02*
D03*
X3957201Y-381000D02*
D03*
Y-127000D02*
D03*
Y127000D02*
D03*
Y381000D02*
D03*
D15*
X1485347Y-4011913D02*
D03*
X4211201Y-381000D02*
D03*
D16*
X0Y-3794310D02*
D03*
Y-3540310D02*
D03*
D17*
X-350000Y3800000D02*
D03*
X350000D02*
D03*
D18*
X-250000Y-4593351D02*
D03*
X0D02*
D03*
X250000D02*
D03*
D19*
X-4710139Y-510000D02*
D03*
Y510000D02*
D03*
D20*
X-3690139Y400000D02*
D03*
Y0D02*
D03*
Y-400000D02*
D03*
D21*
X2400000Y-4400000D02*
D03*
X-2400000D02*
D03*
X4400000Y-2400000D02*
D03*
Y2400000D02*
D03*
X-4400000Y-2400000D02*
D03*
Y2400000D02*
D03*
X-2400000Y4400000D02*
D03*
X2400000D02*
D03*
D22*
X2873682Y-2694077D02*
D03*
X2155261Y-1975656D02*
D03*
X1436841Y-1257236D02*
D03*
X718420Y-538816D02*
D03*
X-127000Y0D02*
D03*
X2694077Y2873682D02*
D03*
X1975656Y2155261D02*
D03*
X538816Y718420D02*
D03*
X1257236Y1436841D02*
D03*
X-718420Y538816D02*
D03*
X-2873682Y2694077D02*
D03*
X-2155261Y1975656D02*
D03*
X-1436841Y1257236D02*
D03*
X-2694077Y-2873682D02*
D03*
X-1975656Y-2155261D02*
D03*
X-538816Y-718420D02*
D03*
X-1257236Y-1436841D02*
D03*
D23*
X2694077Y-2873682D02*
D03*
X1975656Y-2155261D02*
D03*
X1257236Y-1436841D02*
D03*
X538816Y-718420D02*
D03*
X-538816Y718420D02*
D03*
X-2694077Y2873682D02*
D03*
X-1975656Y2155261D02*
D03*
X-1257236Y1436841D02*
D03*
D24*
X127000Y0D02*
D03*
D25*
X2873682Y2694077D02*
D03*
X2155261Y1975656D02*
D03*
X718420Y538816D02*
D03*
X1436841Y1257236D02*
D03*
X-2873682Y-2694077D02*
D03*
X-2155261Y-1975656D02*
D03*
X-718420Y-538816D02*
D03*
X-1436841Y-1257236D02*
D03*
D27*
X653529Y-3647745D02*
D03*
X823529D02*
D03*
D28*
X558529Y-4296948D02*
D03*
X653529Y-4076948D02*
D03*
X463529D02*
D03*
D29*
Y-3944684D02*
D03*
Y-3799684D02*
D03*
X127000Y-360900D02*
D03*
Y-215900D02*
D03*
D30*
X653529Y-3874922D02*
D03*
X933529D02*
D03*
D31*
X1123529Y-3429666D02*
D03*
X973529Y-3429667D02*
D03*
X823529Y-3429666D02*
D03*
D32*
X-723024Y-1213757D02*
D03*
X-825555Y-1111226D02*
D03*
D33*
X-1070051Y-1560796D02*
D03*
X-1172581Y-1663327D02*
D03*
X-1861846Y-2557570D02*
D03*
X-1964377Y-2660101D02*
D03*
X-2430469Y-3117491D02*
D03*
X-2327939Y-3014961D02*
D03*
D34*
X-3022600Y-2562860D02*
D03*
X-3125131Y-2460329D02*
D03*
X853124Y673519D02*
D03*
X955655Y570988D02*
D03*
X1404668Y1020001D02*
D03*
X1302137Y1122532D02*
D03*
X2289965Y2110360D02*
D03*
X2392496Y2007830D02*
D03*
X2841509Y2456842D02*
D03*
X2738978Y2559373D02*
D03*
X-955655Y-570988D02*
D03*
X-853124Y-673519D02*
D03*
X-1302137Y-1122532D02*
D03*
X-1404668Y-1020001D02*
D03*
X-2392496Y-2007830D02*
D03*
X-2289965Y-2110360D02*
D03*
X-2738978Y-2559373D02*
D03*
X-2841509Y-2456842D02*
D03*
D35*
X-1077631Y-1257236D02*
D03*
X-989242Y-1479974D02*
D03*
X-854892Y-1345624D02*
D03*
X-2291733Y-2782465D02*
D03*
X-2426083Y-2916815D02*
D03*
X-2514472Y-2694077D02*
D03*
X-1932523Y-2423255D02*
D03*
X-2066873Y-2557605D02*
D03*
X-2155262Y-2334867D02*
D03*
X-495682Y-986414D02*
D03*
X-630032Y-1120764D02*
D03*
X-718420Y-898026D02*
D03*
D36*
X-308534Y-1566064D02*
D03*
Y-1421064D02*
D03*
D37*
X105479Y-2707709D02*
D03*
X250479D02*
D03*
X509569Y-2543015D02*
D03*
X654569D02*
D03*
D38*
X279979Y-2543016D02*
D03*
X199979D02*
D03*
X119979D02*
D03*
X39979D02*
D03*
X-40021D02*
D03*
X-120021D02*
D03*
X-200021D02*
D03*
X-280021D02*
D03*
Y-1718016D02*
D03*
X-200021D02*
D03*
X-120021D02*
D03*
X-40021D02*
D03*
X39979D02*
D03*
X119979D02*
D03*
X199979D02*
D03*
X279979D02*
D03*
D39*
X-412521Y-2410516D02*
D03*
Y-2330516D02*
D03*
Y-2250516D02*
D03*
Y-2170516D02*
D03*
Y-2090516D02*
D03*
Y-2010516D02*
D03*
Y-1930516D02*
D03*
Y-1850516D02*
D03*
X412479D02*
D03*
Y-1930516D02*
D03*
Y-2010516D02*
D03*
Y-2090516D02*
D03*
Y-2170516D02*
D03*
Y-2250516D02*
D03*
Y-2330516D02*
D03*
Y-2410516D02*
D03*
D40*
X104979Y-2855167D02*
D03*
X-40020D02*
D03*
X750489Y-2330516D02*
D03*
X605489D02*
D03*
D41*
X-673519Y853124D02*
D03*
X-570988Y955655D02*
D03*
X-1020001Y1404668D02*
D03*
X-1122532Y1302137D02*
D03*
X-2110360Y2289965D02*
D03*
X-2007830Y2392496D02*
D03*
X-2456842Y2841509D02*
D03*
X-2559373Y2738978D02*
D03*
X673519Y-853124D02*
D03*
X570988Y-955655D02*
D03*
X1020001Y-1404668D02*
D03*
X1122532Y-1302137D02*
D03*
X2559373Y-2738978D02*
D03*
X2456842Y-2841509D02*
D03*
X1840953Y-2020558D02*
D03*
X1738422Y-2123088D02*
D03*
X-422072Y-601677D02*
D03*
X-319542Y-499147D02*
D03*
X-1476510Y-1656115D02*
D03*
X-1373979Y-1553584D02*
D03*
X-1858913Y-2038518D02*
D03*
X-1756383Y-1935987D02*
D03*
D42*
X570468Y-2995913D02*
D03*
Y-3275913D02*
D03*
%TF.MD5,bfee103cd53a75c009baf71da5d485a3*%
M02*
