%TF.GenerationSoftware,Altium Limited,Altium Designer,20.1.8 (145)*%
G04 Layer_Color=65535*
%FSLAX45Y45*%
%MOMM*%
%TF.SameCoordinates,71AC3D83-D9DD-4B8C-8FBF-A9C29C1C1930*%
%TF.FilePolarity,Positive*%
%TF.FileFunction,Legend,Top*%
%TF.Part,Single*%
G01*
G75*
%TA.AperFunction,NonConductor*%
%ADD45C,0.10160*%
%ADD48C,0.20320*%
%ADD77C,0.02540*%
%ADD78C,0.20000*%
%ADD79C,0.25400*%
D45*
X3137433Y-2614174D02*
G03*
X3208143Y-2543463I35355J35355D01*
G01*
X2419012Y-1895753D02*
G03*
X2489723Y-1825043I35355J35355D01*
G01*
X1700592Y-1177333D02*
G03*
X1771302Y-1106622I35355J35355D01*
G01*
X982171Y-458912D02*
G03*
X1052882Y-388202I35355J35355D01*
G01*
X-370000Y130000D02*
G03*
X-470000Y130000I-50000J0D01*
G01*
X2614174Y3137433D02*
G03*
X2543463Y3208143I-35355J35355D01*
G01*
X1895753Y2419012D02*
G03*
X1825043Y2489723I-35355J35355D01*
G01*
X458912Y982171D02*
G03*
X388202Y1052882I-35355J35355D01*
G01*
X1177333Y1700592D02*
G03*
X1106622Y1771302I-35355J35355D01*
G01*
X-982171Y458912D02*
G03*
X-1052882Y388202I-35355J-35355D01*
G01*
X-3137433Y2614174D02*
G03*
X-3208143Y2543463I-35355J-35355D01*
G01*
X-2419012Y1895753D02*
G03*
X-2489723Y1825043I-35355J-35355D01*
G01*
X-1700592Y1177333D02*
G03*
X-1771302Y1106622I-35355J-35355D01*
G01*
X-2614174Y-3137433D02*
G03*
X-2543463Y-3208143I35355J-35355D01*
G01*
X-1895753Y-2419012D02*
G03*
X-1825043Y-2489723I35355J-35355D01*
G01*
X-458912Y-982171D02*
G03*
X-388202Y-1052882I35355J-35355D01*
G01*
X-1177333Y-1700592D02*
G03*
X-1106622Y-1771302I35355J-35355D01*
G01*
X3041973Y-2532856D02*
X3059651Y-2550534D01*
X3137432Y-2437397D02*
X3155110Y-2455075D01*
X3059651Y-2550534D02*
X3155110Y-2455075D01*
X3041973Y-2532856D02*
X3137432Y-2437397D01*
X3066722Y-2543463D02*
X3137433Y-2614174D01*
X3137432Y-2472752D02*
X3208143Y-2543463D01*
X2974798Y-2324260D02*
X3112684Y-2462146D01*
X2974798Y-2437397D02*
X3056115Y-2518714D01*
X2323553Y-1814436D02*
X2341230Y-1832113D01*
X2419012Y-1718976D02*
X2436690Y-1736654D01*
X2341230Y-1832113D02*
X2436690Y-1736654D01*
X2323553Y-1814436D02*
X2419012Y-1718976D01*
X2348301Y-1825043D02*
X2419012Y-1895753D01*
X2419012Y-1754332D02*
X2489723Y-1825043D01*
X2256378Y-1605840D02*
X2394263Y-1743725D01*
X2256378Y-1718976D02*
X2337695Y-1800294D01*
X1605132Y-1096015D02*
X1622810Y-1113693D01*
X1700591Y-1000556D02*
X1718269Y-1018234D01*
X1622810Y-1113693D02*
X1718269Y-1018234D01*
X1605132Y-1096015D02*
X1700591Y-1000556D01*
X1629881Y-1106622D02*
X1700592Y-1177333D01*
X1700591Y-1035911D02*
X1771302Y-1106622D01*
X1537957Y-887419D02*
X1675843Y-1025305D01*
X1537957Y-1000556D02*
X1619274Y-1081873D01*
X886712Y-377595D02*
X904389Y-395273D01*
X982171Y-282136D02*
X999849Y-299813D01*
X904389Y-395273D02*
X999849Y-299813D01*
X886712Y-377595D02*
X982171Y-282136D01*
X911460Y-388202D02*
X982171Y-458912D01*
X982171Y-317491D02*
X1052882Y-388202D01*
X819537Y-168999D02*
X957422Y-306884D01*
X819537Y-282136D02*
X900854Y-363453D01*
X-360000Y5000D02*
Y30000D01*
X-495000Y5000D02*
Y30000D01*
X-360000D01*
X-495000Y5000D02*
X-360000D01*
X-370000Y30000D02*
Y130000D01*
X-470000Y30000D02*
Y130000D01*
X-460000Y-190000D02*
Y5000D01*
X-380000Y-110000D02*
X-380000Y5000D01*
X2532856Y3041973D02*
X2550534Y3059651D01*
X2437397Y3137432D02*
X2455075Y3155110D01*
X2550534Y3059651D01*
X2437397Y3137432D02*
X2532856Y3041973D01*
X2543463Y3066722D02*
X2614174Y3137433D01*
X2472752Y3137432D02*
X2543463Y3208143D01*
X2324260Y2974798D02*
X2462146Y3112684D01*
X2437397Y2974798D02*
X2518714Y3056115D01*
X1814436Y2323553D02*
X1832113Y2341230D01*
X1718976Y2419012D02*
X1736654Y2436690D01*
X1832113Y2341230D01*
X1718976Y2419012D02*
X1814436Y2323553D01*
X1825043Y2348301D02*
X1895753Y2419012D01*
X1754332Y2419012D02*
X1825043Y2489723D01*
X1605840Y2256378D02*
X1743725Y2394263D01*
X1718976Y2256378D02*
X1800294Y2337695D01*
X377595Y886712D02*
X395273Y904389D01*
X282136Y982171D02*
X299813Y999849D01*
X395273Y904389D01*
X282136Y982171D02*
X377595Y886712D01*
X388202Y911460D02*
X458912Y982171D01*
X317491Y982171D02*
X388202Y1052882D01*
X168999Y819537D02*
X306884Y957422D01*
X282136Y819537D02*
X363453Y900854D01*
X1096015Y1605132D02*
X1113693Y1622810D01*
X1000556Y1700591D02*
X1018234Y1718269D01*
X1113693Y1622810D01*
X1000556Y1700591D02*
X1096015Y1605132D01*
X1106622Y1629881D02*
X1177333Y1700592D01*
X1035911Y1700591D02*
X1106622Y1771302D01*
X887419Y1537957D02*
X1025305Y1675843D01*
X1000556Y1537957D02*
X1081873Y1619274D01*
X-904389Y395273D02*
X-886712Y377595D01*
X-999849Y299813D02*
X-982171Y282136D01*
X-999849Y299813D02*
X-904389Y395273D01*
X-982171Y282136D02*
X-886712Y377595D01*
X-982171Y458912D02*
X-911460Y388202D01*
X-1052882Y388202D02*
X-982171Y317491D01*
X-957422Y306884D02*
X-819537Y168999D01*
X-900854Y363453D02*
X-819537Y282136D01*
X-3059651Y2550534D02*
X-3041973Y2532856D01*
X-3155110Y2455075D02*
X-3137432Y2437397D01*
X-3155110Y2455075D02*
X-3059651Y2550534D01*
X-3137432Y2437397D02*
X-3041973Y2532856D01*
X-3137433Y2614174D02*
X-3066722Y2543463D01*
X-3208143Y2543463D02*
X-3137432Y2472752D01*
X-3112684Y2462146D02*
X-2974798Y2324260D01*
X-3056115Y2518714D02*
X-2974798Y2437397D01*
X-2341230Y1832113D02*
X-2323553Y1814436D01*
X-2436690Y1736654D02*
X-2419012Y1718976D01*
X-2436690Y1736654D02*
X-2341230Y1832113D01*
X-2419012Y1718976D02*
X-2323553Y1814436D01*
X-2419012Y1895753D02*
X-2348301Y1825043D01*
X-2489723Y1825043D02*
X-2419012Y1754332D01*
X-2394263Y1743725D02*
X-2256378Y1605840D01*
X-2337695Y1800294D02*
X-2256378Y1718976D01*
X-1622810Y1113693D02*
X-1605132Y1096015D01*
X-1718269Y1018234D02*
X-1700591Y1000556D01*
X-1718269Y1018234D02*
X-1622810Y1113693D01*
X-1700591Y1000556D02*
X-1605132Y1096015D01*
X-1700592Y1177333D02*
X-1629881Y1106622D01*
X-1771302Y1106622D02*
X-1700591Y1035911D01*
X-1675843Y1025305D02*
X-1537957Y887419D01*
X-1619274Y1081873D02*
X-1537957Y1000556D01*
X-2550534Y-3059651D02*
X-2532856Y-3041973D01*
X-2455075Y-3155110D02*
X-2437397Y-3137432D01*
X-2550534Y-3059651D02*
X-2455075Y-3155110D01*
X-2532856Y-3041973D02*
X-2437397Y-3137432D01*
X-2614174Y-3137433D02*
X-2543463Y-3066722D01*
X-2543463Y-3208143D02*
X-2472752Y-3137432D01*
X-2462146Y-3112684D02*
X-2324260Y-2974798D01*
X-2518714Y-3056115D02*
X-2437397Y-2974798D01*
X-1832113Y-2341230D02*
X-1814436Y-2323553D01*
X-1736654Y-2436690D02*
X-1718976Y-2419012D01*
X-1832113Y-2341230D02*
X-1736654Y-2436690D01*
X-1814436Y-2323553D02*
X-1718976Y-2419012D01*
X-1895753Y-2419012D02*
X-1825043Y-2348301D01*
X-1825043Y-2489723D02*
X-1754332Y-2419012D01*
X-1743725Y-2394263D02*
X-1605840Y-2256378D01*
X-1800294Y-2337695D02*
X-1718976Y-2256378D01*
X-395273Y-904389D02*
X-377595Y-886712D01*
X-299813Y-999849D02*
X-282136Y-982171D01*
X-395273Y-904389D02*
X-299813Y-999849D01*
X-377595Y-886712D02*
X-282136Y-982171D01*
X-458912Y-982171D02*
X-388202Y-911460D01*
X-388202Y-1052882D02*
X-317491Y-982171D01*
X-306884Y-957422D02*
X-168999Y-819537D01*
X-363453Y-900854D02*
X-282136Y-819537D01*
X-1113693Y-1622810D02*
X-1096015Y-1605132D01*
X-1018234Y-1718269D02*
X-1000556Y-1700591D01*
X-1113693Y-1622810D02*
X-1018234Y-1718269D01*
X-1096015Y-1605132D02*
X-1000556Y-1700591D01*
X-1177333Y-1700592D02*
X-1106622Y-1629881D01*
X-1106622Y-1771302D02*
X-1035911Y-1700591D01*
X-1025305Y-1675843D02*
X-887419Y-1537957D01*
X-1081873Y-1619274D02*
X-1000556Y-1537957D01*
D48*
X2510869Y-2864422D02*
X2703130Y-3056683D01*
X1792448Y-2146002D02*
X1984709Y-2338263D01*
X1074028Y-1427581D02*
X1266289Y-1619842D01*
X355607Y-709161D02*
X547868Y-901422D01*
X250000Y-136095D02*
Y135803D01*
X2864422Y2510869D02*
X3056683Y2703130D01*
X2146002Y1792448D02*
X2338263Y1984709D01*
X709161Y355607D02*
X901422Y547868D01*
X1427581Y1074028D02*
X1619842Y1266289D01*
X-547868Y901422D02*
X-355607Y709161D01*
X-2703130Y3056683D02*
X-2510869Y2864422D01*
X-1984709Y2338263D02*
X-1792448Y2146002D01*
X-1266289Y1619842D02*
X-1074028Y1427581D01*
X-3056683Y-2703130D02*
X-2864422Y-2510869D01*
X-2338263Y-1984709D02*
X-2146002Y-1792448D01*
X-901422Y-547868D02*
X-709161Y-355607D01*
X-1619842Y-1266289D02*
X-1427581Y-1074028D01*
D77*
X-2700000Y-3800000D02*
G03*
X-2700000Y-3800000I-1100000J0D01*
G01*
X4900000D02*
G03*
X4900000Y-3800000I-1100000J0D01*
G01*
X-2700000Y3800000D02*
G03*
X-2700000Y3800000I-1100000J0D01*
G01*
X4900000D02*
G03*
X4900000Y3800000I-1100000J0D01*
G01*
D78*
X2545892Y-3019063D02*
G03*
X2545892Y-3019063I-7237J0D01*
G01*
X2704804Y-3057690D02*
G03*
X2510033Y-2862830I79076J273810D01*
G01*
X1827471Y-2300643D02*
G03*
X1827471Y-2300643I-7237J0D01*
G01*
X1986383Y-2339269D02*
G03*
X1791613Y-2144410I79076J273810D01*
G01*
X1109051Y-1582222D02*
G03*
X1109051Y-1582222I-7237J0D01*
G01*
X1267963Y-1620849D02*
G03*
X1073192Y-1425990I79076J273810D01*
G01*
X390630Y-863802D02*
G03*
X390630Y-863802I-7237J0D01*
G01*
X549542Y-902428D02*
G03*
X354772Y-707569I79076J273810D01*
G01*
X346937Y-7100D02*
G03*
X346937Y-7100I-7237J0D01*
G01*
X249528Y137698D02*
G03*
X249465Y-137812I-249528J-137698D01*
G01*
X3026300Y2538655D02*
G03*
X3026300Y2538655I-7237J0D01*
G01*
X3057690Y2704804D02*
G03*
X2862830Y2510033I-273810J79076D01*
G01*
X2307880Y1820234D02*
G03*
X2307880Y1820234I-7237J0D01*
G01*
X2339269Y1986383D02*
G03*
X2144410Y1791613I-273810J79076D01*
G01*
X871039Y383393D02*
G03*
X871039Y383393I-7237J0D01*
G01*
X902428Y549542D02*
G03*
X707569Y354772I-273810J79076D01*
G01*
X1589459Y1101814D02*
G03*
X1589459Y1101814I-7237J0D01*
G01*
X1620849Y1267963D02*
G03*
X1425990Y1073192I-273810J79076D01*
G01*
X-549542Y902428D02*
G03*
X-354772Y707569I-79076J-273810D01*
G01*
X-376156Y863802D02*
G03*
X-376156Y863802I-7237J0D01*
G01*
X-2704804Y3057690D02*
G03*
X-2510033Y2862830I-79076J-273810D01*
G01*
X-2531418Y3019063D02*
G03*
X-2531418Y3019063I-7237J0D01*
G01*
X-1986383Y2339269D02*
G03*
X-1791613Y2144410I-79076J-273810D01*
G01*
X-1812997Y2300643D02*
G03*
X-1812997Y2300643I-7237J0D01*
G01*
X-1267963Y1620849D02*
G03*
X-1073192Y1425990I-79076J-273810D01*
G01*
X-1094577Y1582222D02*
G03*
X-1094577Y1582222I-7237J0D01*
G01*
X-3011826Y-2538655D02*
G03*
X-3011826Y-2538655I-7237J0D01*
G01*
X-3057690Y-2704804D02*
G03*
X-2862830Y-2510033I273810J-79076D01*
G01*
X-2293406Y-1820234D02*
G03*
X-2293406Y-1820234I-7237J0D01*
G01*
X-2339269Y-1986383D02*
G03*
X-2144410Y-1791613I273810J-79076D01*
G01*
X-856565Y-383393D02*
G03*
X-856565Y-383393I-7237J0D01*
G01*
X-902428Y-549542D02*
G03*
X-707569Y-354772I273810J-79076D01*
G01*
X-1574985Y-1101814D02*
G03*
X-1574985Y-1101814I-7237J0D01*
G01*
X-1620849Y-1267963D02*
G03*
X-1425990Y-1073192I273810J-79076D01*
G01*
D79*
X-217307Y-328476D02*
Y-428444D01*
X-183985Y-395121D01*
X-150662Y-428444D01*
Y-328476D01*
X-117340D02*
Y-428444D01*
Y-378460D01*
X-50695D01*
Y-328476D01*
Y-428444D01*
X-17372Y-328476D02*
X15951D01*
X-710D01*
Y-428444D01*
X-17372D01*
X15951D01*
X65935Y-328476D02*
X132580D01*
X99257D01*
Y-428444D01*
X232547Y-328476D02*
X165902D01*
Y-428444D01*
X232547D01*
X165902Y-378460D02*
X199225D01*
X-3170407Y-2601014D02*
X-3241095Y-2530326D01*
X-3205751Y-2494983D01*
X-3182188D01*
X-3158625Y-2518545D01*
Y-2542108D01*
X-3193969Y-2577452D01*
X-3170407Y-2553889D02*
X-3123282D01*
Y-2412513D02*
X-3170407Y-2459638D01*
X-3099719Y-2530326D01*
X-3052594Y-2483201D01*
X-3135063Y-2494983D02*
X-3111500Y-2471420D01*
X-3099719Y-2388951D02*
X-3029031Y-2459638D01*
X-2993687Y-2424295D01*
X-2993687Y-2400732D01*
X-3040812Y-2353607D01*
X-3064375Y-2353607D01*
X-3099719Y-2388951D01*
X2250602Y-2832694D02*
X2238820Y-2844475D01*
Y-2891601D01*
X2285946D01*
X2297727Y-2879819D01*
X2238820Y-2891601D02*
X2203476Y-2926944D01*
X2368415Y-2950507D02*
X2321290Y-2903382D01*
X2250602Y-2974070D01*
X2297727Y-3021195D01*
X2285946Y-2938726D02*
X2309508Y-2962288D01*
X2391978Y-2974070D02*
X2321290Y-3044758D01*
X2368415Y-3091883D01*
X2462665Y-3044758D02*
X2391978Y-3115446D01*
X2439103Y-3162571D01*
X2568697Y-3150789D02*
X2545135Y-3127227D01*
X2521572D01*
X2474447Y-3174352D01*
Y-3197915D01*
X2498009Y-3221477D01*
X2521572Y-3221477D01*
X2568697Y-3174352D01*
X2568697Y-3150789D01*
X2604041Y-3186133D02*
X2533353Y-3256821D01*
X2580478D01*
Y-3303946D01*
X2651166Y-3233258D01*
X2982824Y2328909D02*
X2959262D01*
X2935699Y2305347D01*
Y2281784D01*
X2982824Y2234659D01*
X3006387D01*
X3029949Y2258222D01*
Y2281784D01*
X3006387Y2305347D01*
X2982824Y2281784D01*
X3065293Y2293566D02*
X2994605Y2364254D01*
X3029949Y2399597D01*
X3053512Y2399597D01*
X3077075Y2376035D01*
Y2352472D01*
X3041731Y2317128D01*
X3065293Y2340691D02*
X3112418D01*
Y2482067D02*
X3065293Y2434942D01*
X3135981Y2364254D01*
X3183106Y2411379D01*
X3100637Y2399597D02*
X3124200Y2423160D01*
X3183106Y2552754D02*
X3135981Y2505629D01*
X3206669Y2434942D01*
X3253794Y2482067D01*
X3171325Y2470285D02*
X3194888Y2493848D01*
X3277357Y2505629D02*
X3206669Y2576317D01*
X3324482Y2552754D01*
X3253794Y2623442D01*
X-2525031Y3261198D02*
X-2595718Y3190510D01*
X-2560375Y3155166D01*
X-2536812D01*
X-2525031Y3166948D01*
X-2525031Y3190510D01*
X-2560375Y3225854D01*
X-2525031Y3190510D01*
X-2501468D01*
X-2489687Y3202292D01*
Y3225854D01*
X-2525031Y3261198D01*
X-2454343Y3190510D02*
X-2525031Y3119822D01*
X-2477905Y3072697D01*
X-2383655Y3119822D02*
X-2442561Y3060916D01*
Y3037353D01*
X-2418999Y3013791D01*
X-2395436Y3013791D01*
X-2336529Y3072697D01*
X-2265842Y3002009D02*
X-2312967Y3049134D01*
X-2383655Y2978446D01*
X-2336529Y2931321D01*
X-2348311Y3013791D02*
X-2324748Y2990228D01*
%TF.MD5,ec76c329d9434d2c71e3ede998e320d5*%
M02*
