%TF.GenerationSoftware,Altium Limited,Altium Designer,20.1.8 (145)*%
G04 Layer_Color=255*
%FSLAX45Y45*%
%MOMM*%
%TF.SameCoordinates,71AC3D83-D9DD-4B8C-8FBF-A9C29C1C1930*%
%TF.FilePolarity,Positive*%
%TF.FileFunction,Pads,Top*%
%TF.Part,Single*%
G01*
G75*
%TA.AperFunction,ComponentPad*%
G04:AMPARAMS|DCode=14|XSize=1.8mm|YSize=1.8mm|CornerRadius=0.9mm|HoleSize=0mm|Usage=FLASHONLY|Rotation=90.000|XOffset=0mm|YOffset=0mm|HoleType=Round|Shape=RoundedRectangle|*
%AMROUNDEDRECTD14*
21,1,1.80000,0.00000,0,0,90.0*
21,1,0.00000,1.80000,0,0,90.0*
1,1,1.80000,0.00000,0.00000*
1,1,1.80000,0.00000,0.00000*
1,1,1.80000,0.00000,0.00000*
1,1,1.80000,0.00000,0.00000*
%
%ADD14ROUNDEDRECTD14*%
G04:AMPARAMS|DCode=15|XSize=1.8mm|YSize=1.8mm|CornerRadius=0.18mm|HoleSize=0mm|Usage=FLASHONLY|Rotation=90.000|XOffset=0mm|YOffset=0mm|HoleType=Round|Shape=RoundedRectangle|*
%AMROUNDEDRECTD15*
21,1,1.80000,1.44000,0,0,90.0*
21,1,1.44000,1.80000,0,0,90.0*
1,1,0.36000,0.72000,0.72000*
1,1,0.36000,0.72000,-0.72000*
1,1,0.36000,-0.72000,-0.72000*
1,1,0.36000,-0.72000,0.72000*
%
%ADD15ROUNDEDRECTD15*%
%ADD16O,2.00000X1.50000*%
%ADD17C,2.00000*%
G04:AMPARAMS|DCode=18|XSize=1.5mm|YSize=2mm|CornerRadius=0.75mm|HoleSize=0mm|Usage=FLASHONLY|Rotation=180.000|XOffset=0mm|YOffset=0mm|HoleType=Round|Shape=RoundedRectangle|*
%AMROUNDEDRECTD18*
21,1,1.50000,0.50000,0,0,180.0*
21,1,0.00000,2.00000,0,0,180.0*
1,1,1.50000,0.00000,0.25000*
1,1,1.50000,0.00000,0.25000*
1,1,1.50000,0.00000,-0.25000*
1,1,1.50000,0.00000,-0.25000*
%
%ADD18ROUNDEDRECTD18*%
%ADD19O,3.00000X2.00000*%
%ADD20C,1.50000*%
%TA.AperFunction,ViaPad*%
%ADD21C,5.00000*%
%TA.AperFunction,ComponentPad*%
%ADD22C,1.40000*%
G04:AMPARAMS|DCode=23|XSize=1.4mm|YSize=1.4mm|CornerRadius=0.35mm|HoleSize=0mm|Usage=FLASHONLY|Rotation=315.000|XOffset=0mm|YOffset=0mm|HoleType=Round|Shape=RoundedRectangle|*
%AMROUNDEDRECTD23*
21,1,1.40000,0.70000,0,0,315.0*
21,1,0.70000,1.40000,0,0,315.0*
1,1,0.70000,0.00000,-0.49498*
1,1,0.70000,-0.49498,0.00000*
1,1,0.70000,0.00000,0.49498*
1,1,0.70000,0.49498,0.00000*
%
%ADD23ROUNDEDRECTD23*%
G04:AMPARAMS|DCode=24|XSize=1.4mm|YSize=1.4mm|CornerRadius=0.35mm|HoleSize=0mm|Usage=FLASHONLY|Rotation=90.000|XOffset=0mm|YOffset=0mm|HoleType=Round|Shape=RoundedRectangle|*
%AMROUNDEDRECTD24*
21,1,1.40000,0.70000,0,0,90.0*
21,1,0.70000,1.40000,0,0,90.0*
1,1,0.70000,0.35000,0.35000*
1,1,0.70000,0.35000,-0.35000*
1,1,0.70000,-0.35000,-0.35000*
1,1,0.70000,-0.35000,0.35000*
%
%ADD24ROUNDEDRECTD24*%
G04:AMPARAMS|DCode=25|XSize=1.4mm|YSize=1.4mm|CornerRadius=0.35mm|HoleSize=0mm|Usage=FLASHONLY|Rotation=45.000|XOffset=0mm|YOffset=0mm|HoleType=Round|Shape=RoundedRectangle|*
%AMROUNDEDRECTD25*
21,1,1.40000,0.70000,0,0,45.0*
21,1,0.70000,1.40000,0,0,45.0*
1,1,0.70000,0.49498,0.00000*
1,1,0.70000,0.00000,-0.49498*
1,1,0.70000,-0.49498,0.00000*
1,1,0.70000,0.00000,0.49498*
%
%ADD25ROUNDEDRECTD25*%
D14*
X1485347Y-2995913D02*
D03*
Y-3249913D02*
D03*
Y-3503913D02*
D03*
Y-3757913D02*
D03*
X4211201Y-127000D02*
D03*
Y127000D02*
D03*
Y381000D02*
D03*
X3957201Y-381000D02*
D03*
Y-127000D02*
D03*
Y127000D02*
D03*
Y381000D02*
D03*
D15*
X1485347Y-4011913D02*
D03*
X4211201Y-381000D02*
D03*
D16*
X0Y-3794310D02*
D03*
Y-3540310D02*
D03*
D17*
X-350000Y3800000D02*
D03*
X350000D02*
D03*
D18*
X-250000Y-4593351D02*
D03*
X0D02*
D03*
X250000D02*
D03*
D19*
X-4710139Y-510000D02*
D03*
Y510000D02*
D03*
D20*
X-3690139Y400000D02*
D03*
Y0D02*
D03*
Y-400000D02*
D03*
D21*
X2400000Y-4400000D02*
D03*
X-2400000D02*
D03*
X4400000Y-2400000D02*
D03*
Y2400000D02*
D03*
X-4400000Y-2400000D02*
D03*
Y2400000D02*
D03*
X-2400000Y4400000D02*
D03*
X2400000D02*
D03*
D22*
X2873682Y-2694077D02*
D03*
X2155261Y-1975656D02*
D03*
X1436841Y-1257236D02*
D03*
X718420Y-538816D02*
D03*
X-127000Y0D02*
D03*
X2694077Y2873682D02*
D03*
X1975656Y2155261D02*
D03*
X538816Y718420D02*
D03*
X1257236Y1436841D02*
D03*
X-718420Y538816D02*
D03*
X-2873682Y2694077D02*
D03*
X-2155261Y1975656D02*
D03*
X-1436841Y1257236D02*
D03*
X-2694077Y-2873682D02*
D03*
X-1975656Y-2155261D02*
D03*
X-538816Y-718420D02*
D03*
X-1257236Y-1436841D02*
D03*
D23*
X2694077Y-2873682D02*
D03*
X1975656Y-2155261D02*
D03*
X1257236Y-1436841D02*
D03*
X538816Y-718420D02*
D03*
X-538816Y718420D02*
D03*
X-2694077Y2873682D02*
D03*
X-1975656Y2155261D02*
D03*
X-1257236Y1436841D02*
D03*
D24*
X127000Y0D02*
D03*
D25*
X2873682Y2694077D02*
D03*
X2155261Y1975656D02*
D03*
X718420Y538816D02*
D03*
X1436841Y1257236D02*
D03*
X-2873682Y-2694077D02*
D03*
X-2155261Y-1975656D02*
D03*
X-718420Y-538816D02*
D03*
X-1436841Y-1257236D02*
D03*
%TF.MD5,52913f0555ffea2832309ef6e1f486a4*%
M02*
