%TF.GenerationSoftware,Altium Limited,Altium Designer,20.1.8 (145)*%
G04 Layer_Color=8388736*
%FSLAX45Y45*%
%MOMM*%
%TF.SameCoordinates,71AC3D83-D9DD-4B8C-8FBF-A9C29C1C1930*%
%TF.FilePolarity,Negative*%
%TF.FileFunction,Soldermask,Top*%
%TF.Part,Single*%
G01*
G75*
%TA.AperFunction,ComponentPad*%
%ADD20C,1.50000*%
G04:AMPARAMS|DCode=66|XSize=1.9mm|YSize=1.9mm|CornerRadius=0.95mm|HoleSize=0mm|Usage=FLASHONLY|Rotation=90.000|XOffset=0mm|YOffset=0mm|HoleType=Round|Shape=RoundedRectangle|*
%AMROUNDEDRECTD66*
21,1,1.90000,0.00000,0,0,90.0*
21,1,0.00000,1.90000,0,0,90.0*
1,1,1.90000,0.00000,0.00000*
1,1,1.90000,0.00000,0.00000*
1,1,1.90000,0.00000,0.00000*
1,1,1.90000,0.00000,0.00000*
%
%ADD66ROUNDEDRECTD66*%
G04:AMPARAMS|DCode=67|XSize=1.9mm|YSize=1.9mm|CornerRadius=0.23mm|HoleSize=0mm|Usage=FLASHONLY|Rotation=90.000|XOffset=0mm|YOffset=0mm|HoleType=Round|Shape=RoundedRectangle|*
%AMROUNDEDRECTD67*
21,1,1.90000,1.44000,0,0,90.0*
21,1,1.44000,1.90000,0,0,90.0*
1,1,0.46000,0.72000,0.72000*
1,1,0.46000,0.72000,-0.72000*
1,1,0.46000,-0.72000,-0.72000*
1,1,0.46000,-0.72000,0.72000*
%
%ADD67ROUNDEDRECTD67*%
%ADD68O,2.10000X1.60000*%
%ADD69C,2.10000*%
G04:AMPARAMS|DCode=70|XSize=1.6mm|YSize=2.1mm|CornerRadius=0.8mm|HoleSize=0mm|Usage=FLASHONLY|Rotation=180.000|XOffset=0mm|YOffset=0mm|HoleType=Round|Shape=RoundedRectangle|*
%AMROUNDEDRECTD70*
21,1,1.60000,0.50000,0,0,180.0*
21,1,0.00000,2.10000,0,0,180.0*
1,1,1.60000,0.00000,0.25000*
1,1,1.60000,0.00000,0.25000*
1,1,1.60000,0.00000,-0.25000*
1,1,1.60000,0.00000,-0.25000*
%
%ADD70ROUNDEDRECTD70*%
%ADD71O,3.10000X2.10000*%
%ADD72C,1.60000*%
%TA.AperFunction,ViaPad*%
%ADD73C,5.10000*%
%TA.AperFunction,ComponentPad*%
G04:AMPARAMS|DCode=74|XSize=1.5mm|YSize=1.5mm|CornerRadius=0.4mm|HoleSize=0mm|Usage=FLASHONLY|Rotation=315.000|XOffset=0mm|YOffset=0mm|HoleType=Round|Shape=RoundedRectangle|*
%AMROUNDEDRECTD74*
21,1,1.50000,0.70000,0,0,315.0*
21,1,0.70000,1.50000,0,0,315.0*
1,1,0.80000,0.00000,-0.49498*
1,1,0.80000,-0.49498,0.00000*
1,1,0.80000,0.00000,0.49498*
1,1,0.80000,0.49498,0.00000*
%
%ADD74ROUNDEDRECTD74*%
G04:AMPARAMS|DCode=75|XSize=1.5mm|YSize=1.5mm|CornerRadius=0.4mm|HoleSize=0mm|Usage=FLASHONLY|Rotation=90.000|XOffset=0mm|YOffset=0mm|HoleType=Round|Shape=RoundedRectangle|*
%AMROUNDEDRECTD75*
21,1,1.50000,0.70000,0,0,90.0*
21,1,0.70000,1.50000,0,0,90.0*
1,1,0.80000,0.35000,0.35000*
1,1,0.80000,0.35000,-0.35000*
1,1,0.80000,-0.35000,-0.35000*
1,1,0.80000,-0.35000,0.35000*
%
%ADD75ROUNDEDRECTD75*%
G04:AMPARAMS|DCode=76|XSize=1.5mm|YSize=1.5mm|CornerRadius=0.4mm|HoleSize=0mm|Usage=FLASHONLY|Rotation=45.000|XOffset=0mm|YOffset=0mm|HoleType=Round|Shape=RoundedRectangle|*
%AMROUNDEDRECTD76*
21,1,1.50000,0.70000,0,0,45.0*
21,1,0.70000,1.50000,0,0,45.0*
1,1,0.80000,0.49498,0.00000*
1,1,0.80000,0.00000,-0.49498*
1,1,0.80000,-0.49498,0.00000*
1,1,0.80000,0.00000,0.49498*
%
%ADD76ROUNDEDRECTD76*%
D20*
X2873682Y-2694077D02*
D03*
X2155261Y-1975656D02*
D03*
X1436841Y-1257236D02*
D03*
X718420Y-538816D02*
D03*
X-127000Y0D02*
D03*
X2694077Y2873682D02*
D03*
X1975656Y2155261D02*
D03*
X538816Y718420D02*
D03*
X1257236Y1436841D02*
D03*
X-718420Y538816D02*
D03*
X-2873682Y2694077D02*
D03*
X-2155261Y1975656D02*
D03*
X-1436841Y1257236D02*
D03*
X-2694077Y-2873682D02*
D03*
X-1975656Y-2155261D02*
D03*
X-538816Y-718420D02*
D03*
X-1257236Y-1436841D02*
D03*
D66*
X1485347Y-2995913D02*
D03*
Y-3249913D02*
D03*
Y-3503913D02*
D03*
Y-3757913D02*
D03*
X4211201Y-127000D02*
D03*
Y127000D02*
D03*
Y381000D02*
D03*
X3957201Y-381000D02*
D03*
Y-127000D02*
D03*
Y127000D02*
D03*
Y381000D02*
D03*
D67*
X1485347Y-4011913D02*
D03*
X4211201Y-381000D02*
D03*
D68*
X0Y-3794310D02*
D03*
Y-3540310D02*
D03*
D69*
X-350000Y3800000D02*
D03*
X350000D02*
D03*
D70*
X-250000Y-4593351D02*
D03*
X0D02*
D03*
X250000D02*
D03*
D71*
X-4710139Y-510000D02*
D03*
Y510000D02*
D03*
D72*
X-3690139Y400000D02*
D03*
Y0D02*
D03*
Y-400000D02*
D03*
D73*
X2400000Y-4400000D02*
D03*
X-2400000D02*
D03*
X4400000Y-2400000D02*
D03*
Y2400000D02*
D03*
X-4400000Y-2400000D02*
D03*
Y2400000D02*
D03*
X-2400000Y4400000D02*
D03*
X2400000D02*
D03*
D74*
X2694077Y-2873682D02*
D03*
X1975656Y-2155261D02*
D03*
X1257236Y-1436841D02*
D03*
X538816Y-718420D02*
D03*
X-538816Y718420D02*
D03*
X-2694077Y2873682D02*
D03*
X-1975656Y2155261D02*
D03*
X-1257236Y1436841D02*
D03*
D75*
X127000Y0D02*
D03*
D76*
X2873682Y2694077D02*
D03*
X2155261Y1975656D02*
D03*
X718420Y538816D02*
D03*
X1436841Y1257236D02*
D03*
X-2873682Y-2694077D02*
D03*
X-2155261Y-1975656D02*
D03*
X-718420Y-538816D02*
D03*
X-1436841Y-1257236D02*
D03*
%TF.MD5,6e91642e362b5ed3782678ea38259c18*%
M02*
