%TF.GenerationSoftware,Altium Limited,Altium Designer,20.1.8 (145)*%
G04 Layer_Physical_Order=1*
G04 Layer_Color=255*
%FSLAX45Y45*%
%MOMM*%
%TF.SameCoordinates,71AC3D83-D9DD-4B8C-8FBF-A9C29C1C1930*%
%TF.FilePolarity,Positive*%
%TF.FileFunction,Copper,L1,Top,Signal*%
%TF.Part,Single*%
G01*
G75*
%TA.AperFunction,Conductor*%
%ADD10C,0.15240*%
%ADD11C,0.12700*%
%ADD12C,0.20320*%
%ADD13C,0.25400*%
%TA.AperFunction,ComponentPad*%
G04:AMPARAMS|DCode=14|XSize=1.8mm|YSize=1.8mm|CornerRadius=0.9mm|HoleSize=0mm|Usage=FLASHONLY|Rotation=90.000|XOffset=0mm|YOffset=0mm|HoleType=Round|Shape=RoundedRectangle|*
%AMROUNDEDRECTD14*
21,1,1.80000,0.00000,0,0,90.0*
21,1,0.00000,1.80000,0,0,90.0*
1,1,1.80000,0.00000,0.00000*
1,1,1.80000,0.00000,0.00000*
1,1,1.80000,0.00000,0.00000*
1,1,1.80000,0.00000,0.00000*
%
%ADD14ROUNDEDRECTD14*%
G04:AMPARAMS|DCode=15|XSize=1.8mm|YSize=1.8mm|CornerRadius=0.18mm|HoleSize=0mm|Usage=FLASHONLY|Rotation=90.000|XOffset=0mm|YOffset=0mm|HoleType=Round|Shape=RoundedRectangle|*
%AMROUNDEDRECTD15*
21,1,1.80000,1.44000,0,0,90.0*
21,1,1.44000,1.80000,0,0,90.0*
1,1,0.36000,0.72000,0.72000*
1,1,0.36000,0.72000,-0.72000*
1,1,0.36000,-0.72000,-0.72000*
1,1,0.36000,-0.72000,0.72000*
%
%ADD15ROUNDEDRECTD15*%
%ADD16O,2.00000X1.50000*%
%ADD17C,2.00000*%
G04:AMPARAMS|DCode=18|XSize=1.5mm|YSize=2mm|CornerRadius=0.75mm|HoleSize=0mm|Usage=FLASHONLY|Rotation=180.000|XOffset=0mm|YOffset=0mm|HoleType=Round|Shape=RoundedRectangle|*
%AMROUNDEDRECTD18*
21,1,1.50000,0.50000,0,0,180.0*
21,1,0.00000,2.00000,0,0,180.0*
1,1,1.50000,0.00000,0.25000*
1,1,1.50000,0.00000,0.25000*
1,1,1.50000,0.00000,-0.25000*
1,1,1.50000,0.00000,-0.25000*
%
%ADD18ROUNDEDRECTD18*%
%ADD19O,3.00000X2.00000*%
%ADD20C,1.50000*%
%TA.AperFunction,ViaPad*%
%ADD21C,5.00000*%
%TA.AperFunction,ComponentPad*%
%ADD22C,1.40000*%
G04:AMPARAMS|DCode=23|XSize=1.4mm|YSize=1.4mm|CornerRadius=0.35mm|HoleSize=0mm|Usage=FLASHONLY|Rotation=315.000|XOffset=0mm|YOffset=0mm|HoleType=Round|Shape=RoundedRectangle|*
%AMROUNDEDRECTD23*
21,1,1.40000,0.70000,0,0,315.0*
21,1,0.70000,1.40000,0,0,315.0*
1,1,0.70000,0.00000,-0.49498*
1,1,0.70000,-0.49498,0.00000*
1,1,0.70000,0.00000,0.49498*
1,1,0.70000,0.49498,0.00000*
%
%ADD23ROUNDEDRECTD23*%
G04:AMPARAMS|DCode=24|XSize=1.4mm|YSize=1.4mm|CornerRadius=0.35mm|HoleSize=0mm|Usage=FLASHONLY|Rotation=90.000|XOffset=0mm|YOffset=0mm|HoleType=Round|Shape=RoundedRectangle|*
%AMROUNDEDRECTD24*
21,1,1.40000,0.70000,0,0,90.0*
21,1,0.70000,1.40000,0,0,90.0*
1,1,0.70000,0.35000,0.35000*
1,1,0.70000,0.35000,-0.35000*
1,1,0.70000,-0.35000,-0.35000*
1,1,0.70000,-0.35000,0.35000*
%
%ADD24ROUNDEDRECTD24*%
G04:AMPARAMS|DCode=25|XSize=1.4mm|YSize=1.4mm|CornerRadius=0.35mm|HoleSize=0mm|Usage=FLASHONLY|Rotation=45.000|XOffset=0mm|YOffset=0mm|HoleType=Round|Shape=RoundedRectangle|*
%AMROUNDEDRECTD25*
21,1,1.40000,0.70000,0,0,45.0*
21,1,0.70000,1.40000,0,0,45.0*
1,1,0.70000,0.49498,0.00000*
1,1,0.70000,0.00000,-0.49498*
1,1,0.70000,-0.49498,0.00000*
1,1,0.70000,0.00000,0.49498*
%
%ADD25ROUNDEDRECTD25*%
%TA.AperFunction,ViaPad*%
%ADD26C,0.80000*%
G36*
X3903135Y4978843D02*
X4005486Y4965369D01*
X4106272Y4943025D01*
X4204728Y4911982D01*
X4300104Y4872476D01*
X4391673Y4824808D01*
X4478740Y4769340D01*
X4560640Y4706496D01*
X4636752Y4636752D01*
X4706496Y4560640D01*
X4769340Y4478740D01*
X4824808Y4391673D01*
X4872476Y4300104D01*
X4911982Y4204728D01*
X4943025Y4106272D01*
X4965369Y4005486D01*
X4978843Y3903135D01*
X4982684Y3815158D01*
X4983166Y3800000D01*
X4983166Y3800000D01*
X4983167Y3784969D01*
X4983165Y-3800000D01*
X4983313Y-3800749D01*
X4978843Y-3903135D01*
X4965369Y-4005486D01*
X4943025Y-4106272D01*
X4911982Y-4204728D01*
X4872476Y-4300104D01*
X4824808Y-4391673D01*
X4769340Y-4478740D01*
X4706496Y-4560640D01*
X4636752Y-4636752D01*
X4560640Y-4706496D01*
X4478740Y-4769340D01*
X4391673Y-4824808D01*
X4300104Y-4872476D01*
X4204728Y-4911982D01*
X4106272Y-4943025D01*
X4005486Y-4965369D01*
X3903135Y-4978843D01*
X3800740Y-4983314D01*
X3800000Y-4983167D01*
X-3784773Y-4983167D01*
X-3800000Y-4983166D01*
X-3815042Y-4982689D01*
X-3903135Y-4978843D01*
X-4005486Y-4965369D01*
X-4106272Y-4943025D01*
X-4204728Y-4911982D01*
X-4300104Y-4872476D01*
X-4391673Y-4824808D01*
X-4478740Y-4769340D01*
X-4560640Y-4706496D01*
X-4636752Y-4636752D01*
X-4706496Y-4560640D01*
X-4769340Y-4478740D01*
X-4824808Y-4391673D01*
X-4872476Y-4300104D01*
X-4911982Y-4204728D01*
X-4943025Y-4106272D01*
X-4965369Y-4005486D01*
X-4978843Y-3903135D01*
X-4982689Y-3815042D01*
X-4983166Y-3800000D01*
X-4983167D01*
X-4983169Y-3799990D01*
X-4983166Y3800000D01*
X-4983314Y3800741D01*
X-4978843Y3903135D01*
X-4965369Y4005486D01*
X-4943025Y4106272D01*
X-4911982Y4204728D01*
X-4872476Y4300104D01*
X-4824808Y4391673D01*
X-4769340Y4478740D01*
X-4706496Y4560640D01*
X-4636752Y4636752D01*
X-4560640Y4706496D01*
X-4478740Y4769340D01*
X-4391673Y4824808D01*
X-4300104Y4872476D01*
X-4204728Y4911982D01*
X-4106272Y4943025D01*
X-4005486Y4965369D01*
X-3903135Y4978843D01*
X-3800743Y4983314D01*
X-3800000Y4983166D01*
X3800000Y4983167D01*
X3800740Y4983314D01*
X3903135Y4978843D01*
D02*
G37*
%LPC*%
G36*
X3800000Y4717615D02*
X3777209Y4716496D01*
X3755786D01*
X3754991Y4716167D01*
X3754169Y4716416D01*
X3732850Y4714316D01*
X3710058Y4713197D01*
X3687486Y4709849D01*
X3666166Y4707749D01*
X3665408Y4707344D01*
X3664565Y4707511D01*
X3643555Y4703332D01*
X3620982Y4699984D01*
X3598844Y4694438D01*
X3577836Y4690260D01*
X3577121Y4689782D01*
X3576266Y4689866D01*
X3555765Y4683648D01*
X3533630Y4678103D01*
X3512147Y4670416D01*
X3491645Y4664197D01*
X3490980Y4663652D01*
X3490121D01*
X3470332Y4655455D01*
X3448844Y4647766D01*
X3428211Y4638008D01*
X3408424Y4629811D01*
X3407816Y4629204D01*
X3406960Y4629120D01*
X3388068Y4619021D01*
X3367439Y4609265D01*
X3347867Y4597534D01*
X3328974Y4587435D01*
X3328428Y4586770D01*
X3327585Y4586602D01*
X3309771Y4574700D01*
X3290200Y4562969D01*
X3271874Y4549378D01*
X3254059Y4537474D01*
X3253582Y4536759D01*
X3252759Y4536510D01*
X3236199Y4522919D01*
X3217871Y4509326D01*
X3200962Y4494001D01*
X3184403Y4480411D01*
X3183998Y4479653D01*
X3183204Y4479325D01*
X3168056Y4464176D01*
X3151148Y4448852D01*
X3135822Y4431943D01*
X3120675Y4416796D01*
X3120347Y4416002D01*
X3119588Y4415597D01*
X3105998Y4399037D01*
X3090674Y4382129D01*
X3077081Y4363802D01*
X3063490Y4347241D01*
X3063241Y4346418D01*
X3062525Y4345941D01*
X3050622Y4328125D01*
X3037031Y4309800D01*
X3025301Y4290230D01*
X3013397Y4272415D01*
X3013230Y4271572D01*
X3012565Y4271026D01*
X3002465Y4252131D01*
X2990735Y4232561D01*
X2980979Y4211934D01*
X2970880Y4193039D01*
X2970796Y4192184D01*
X2970188Y4191576D01*
X2961991Y4171786D01*
X2952234Y4151156D01*
X2944546Y4129671D01*
X2936348Y4109879D01*
Y4109019D01*
X2935803Y4108355D01*
X2929584Y4087854D01*
X2921897Y4066370D01*
X2916353Y4044237D01*
X2910133Y4023734D01*
X2910218Y4022878D01*
X2909740Y4022164D01*
X2905561Y4001152D01*
X2900016Y3979018D01*
X2896669Y3956449D01*
X2892488Y3935435D01*
X2892656Y3934592D01*
X2892251Y3933833D01*
X2890151Y3912512D01*
X2886803Y3889942D01*
X2885684Y3867151D01*
X2883584Y3845831D01*
X2883833Y3845008D01*
X2883504Y3844214D01*
Y3822791D01*
X2882385Y3800000D01*
X2883504Y3777209D01*
Y3755786D01*
X2883833Y3754991D01*
X2883584Y3754169D01*
X2885684Y3732848D01*
X2886803Y3710058D01*
X2890151Y3687489D01*
X2892251Y3666166D01*
X2892656Y3665408D01*
X2892488Y3664565D01*
X2896669Y3643550D01*
X2900016Y3620982D01*
X2905560Y3598849D01*
X2909740Y3577836D01*
X2910218Y3577121D01*
X2910133Y3576266D01*
X2916354Y3555760D01*
X2921897Y3533630D01*
X2929582Y3512151D01*
X2935803Y3491645D01*
X2936348Y3490980D01*
Y3490121D01*
X2944547Y3470327D01*
X2952234Y3448844D01*
X2961990Y3428215D01*
X2970188Y3408424D01*
X2970796Y3407816D01*
X2970880Y3406960D01*
X2980981Y3388064D01*
X2990735Y3367439D01*
X3002464Y3347871D01*
X3012565Y3328974D01*
X3013230Y3328428D01*
X3013397Y3327585D01*
X3025303Y3309767D01*
X3037031Y3290200D01*
X3050620Y3271878D01*
X3062525Y3254059D01*
X3063241Y3253582D01*
X3063490Y3252759D01*
X3077083Y3236195D01*
X3090674Y3217871D01*
X3105996Y3200965D01*
X3119588Y3184403D01*
X3120346Y3183998D01*
X3120675Y3183204D01*
X3135826Y3168053D01*
X3151148Y3151148D01*
X3168054Y3135825D01*
X3183204Y3120675D01*
X3183998Y3120347D01*
X3184403Y3119588D01*
X3200965Y3105996D01*
X3217871Y3090674D01*
X3236195Y3077083D01*
X3252759Y3063490D01*
X3253582Y3063241D01*
X3254059Y3062525D01*
X3271878Y3050620D01*
X3290200Y3037031D01*
X3309767Y3025303D01*
X3327585Y3013397D01*
X3328428Y3013230D01*
X3328974Y3012565D01*
X3347871Y3002464D01*
X3367439Y2990735D01*
X3388064Y2980981D01*
X3406960Y2970880D01*
X3407816Y2970796D01*
X3408424Y2970188D01*
X3428215Y2961990D01*
X3448844Y2952234D01*
X3470327Y2944547D01*
X3490121Y2936348D01*
X3490981D01*
X3491645Y2935803D01*
X3512148Y2929583D01*
X3533630Y2921897D01*
X3555761Y2916353D01*
X3576266Y2910133D01*
X3577121Y2910218D01*
X3577836Y2909740D01*
X3598849Y2905560D01*
X3620982Y2900016D01*
X3643550Y2896669D01*
X3664565Y2892488D01*
X3665408Y2892656D01*
X3666166Y2892251D01*
X3687489Y2890151D01*
X3710058Y2886803D01*
X3732849Y2885684D01*
X3754169Y2883584D01*
X3754991Y2883833D01*
X3755786Y2883504D01*
X3777209D01*
X3800000Y2882385D01*
X3822791Y2883504D01*
X3844214D01*
X3845008Y2883833D01*
X3845831Y2883584D01*
X3867151Y2885684D01*
X3889942Y2886803D01*
X3912512Y2890151D01*
X3933833Y2892251D01*
X3934592Y2892656D01*
X3935435Y2892488D01*
X3956449Y2896669D01*
X3979018Y2900016D01*
X4001152Y2905561D01*
X4022164Y2909740D01*
X4022878Y2910218D01*
X4023734Y2910133D01*
X4044238Y2916353D01*
X4066370Y2921897D01*
X4087850Y2929583D01*
X4108355Y2935803D01*
X4109019Y2936348D01*
X4109879D01*
X4129671Y2944546D01*
X4151156Y2952234D01*
X4171786Y2961991D01*
X4191576Y2970188D01*
X4192184Y2970796D01*
X4193039Y2970880D01*
X4211934Y2980979D01*
X4232561Y2990735D01*
X4252131Y3002465D01*
X4271026Y3012565D01*
X4271572Y3013230D01*
X4272415Y3013397D01*
X4290230Y3025301D01*
X4309800Y3037031D01*
X4328125Y3050622D01*
X4345941Y3062525D01*
X4346418Y3063241D01*
X4347241Y3063490D01*
X4363802Y3077081D01*
X4382129Y3090674D01*
X4399037Y3105998D01*
X4415597Y3119588D01*
X4416002Y3120346D01*
X4416796Y3120675D01*
X4431944Y3135824D01*
X4448852Y3151148D01*
X4464178Y3168057D01*
X4479324Y3183204D01*
X4479653Y3183998D01*
X4480411Y3184403D01*
X4494001Y3200962D01*
X4509326Y3217871D01*
X4522919Y3236199D01*
X4536510Y3252759D01*
X4536759Y3253582D01*
X4537474Y3254059D01*
X4549378Y3271874D01*
X4562969Y3290200D01*
X4574700Y3309771D01*
X4586602Y3327585D01*
X4586770Y3328428D01*
X4587435Y3328974D01*
X4597534Y3347867D01*
X4609265Y3367439D01*
X4619021Y3388068D01*
X4629120Y3406960D01*
X4629204Y3407816D01*
X4629811Y3408424D01*
X4638008Y3428211D01*
X4647766Y3448844D01*
X4655455Y3470332D01*
X4663652Y3490121D01*
Y3490981D01*
X4664197Y3491645D01*
X4670415Y3512143D01*
X4678103Y3533630D01*
X4683648Y3555766D01*
X4689866Y3576266D01*
X4689782Y3577121D01*
X4690260Y3577836D01*
X4694438Y3598844D01*
X4699984Y3620982D01*
X4703332Y3643555D01*
X4707511Y3664565D01*
X4707344Y3665408D01*
X4707749Y3666166D01*
X4709849Y3687485D01*
X4713197Y3710058D01*
X4714316Y3732850D01*
X4716416Y3754169D01*
X4716167Y3754991D01*
X4716496Y3755786D01*
Y3777209D01*
X4717615Y3800000D01*
X4716496Y3822791D01*
Y3844214D01*
X4716167Y3845008D01*
X4716416Y3845831D01*
X4714316Y3867150D01*
X4713197Y3889942D01*
X4709849Y3912515D01*
X4707749Y3933834D01*
X4707344Y3934592D01*
X4707511Y3935435D01*
X4703332Y3956444D01*
X4699984Y3979018D01*
X4694438Y4001157D01*
X4690260Y4022164D01*
X4689782Y4022878D01*
X4689866Y4023734D01*
X4683648Y4044233D01*
X4678103Y4066370D01*
X4670416Y4087855D01*
X4664197Y4108355D01*
X4663652Y4109019D01*
Y4109879D01*
X4655456Y4129666D01*
X4647766Y4151156D01*
X4638007Y4171791D01*
X4629811Y4191576D01*
X4629204Y4192184D01*
X4629120Y4193039D01*
X4619023Y4211930D01*
X4609265Y4232561D01*
X4597532Y4252135D01*
X4587435Y4271026D01*
X4586770Y4271572D01*
X4586602Y4272415D01*
X4574701Y4290226D01*
X4562969Y4309800D01*
X4549376Y4328128D01*
X4537474Y4345941D01*
X4536759Y4346418D01*
X4536510Y4347241D01*
X4522921Y4363799D01*
X4509326Y4382129D01*
X4493999Y4399040D01*
X4480411Y4415597D01*
X4479653Y4416002D01*
X4479325Y4416796D01*
X4464179Y4431942D01*
X4448852Y4448852D01*
X4431940Y4464180D01*
X4416796Y4479324D01*
X4416002Y4479653D01*
X4415597Y4480411D01*
X4399040Y4493999D01*
X4382129Y4509326D01*
X4363799Y4522921D01*
X4347241Y4536510D01*
X4346418Y4536759D01*
X4345941Y4537474D01*
X4328128Y4549376D01*
X4309800Y4562969D01*
X4290226Y4574701D01*
X4272415Y4586602D01*
X4271572Y4586770D01*
X4271026Y4587435D01*
X4252135Y4597532D01*
X4232561Y4609265D01*
X4211930Y4619023D01*
X4193039Y4629120D01*
X4192184Y4629204D01*
X4191576Y4629811D01*
X4171791Y4638007D01*
X4151156Y4647766D01*
X4129666Y4655456D01*
X4109879Y4663652D01*
X4109019D01*
X4108355Y4664197D01*
X4087858Y4670414D01*
X4066370Y4678103D01*
X4044232Y4683648D01*
X4023734Y4689866D01*
X4022878Y4689782D01*
X4022164Y4690260D01*
X4001157Y4694438D01*
X3979018Y4699984D01*
X3956444Y4703332D01*
X3935435Y4707511D01*
X3934592Y4707344D01*
X3933833Y4707749D01*
X3912515Y4709848D01*
X3889942Y4713197D01*
X3867150Y4714316D01*
X3845831Y4716416D01*
X3845008Y4716167D01*
X3844214Y4716496D01*
X3822791D01*
X3800000Y4717615D01*
D02*
G37*
G36*
X-3800000D02*
X-3822791Y4716496D01*
X-3844214D01*
X-3845009Y4716167D01*
X-3845831Y4716416D01*
X-3867151Y4714316D01*
X-3889942Y4713197D01*
X-3912514Y4709849D01*
X-3933834Y4707749D01*
X-3934592Y4707344D01*
X-3935435Y4707511D01*
X-3956445Y4703332D01*
X-3979018Y4699984D01*
X-4001156Y4694438D01*
X-4022164Y4690260D01*
X-4022879Y4689782D01*
X-4023734Y4689866D01*
X-4044235Y4683648D01*
X-4066370Y4678103D01*
X-4087853Y4670416D01*
X-4108355Y4664197D01*
X-4109020Y4663652D01*
X-4109879D01*
X-4129668Y4655455D01*
X-4151156Y4647766D01*
X-4171789Y4638008D01*
X-4191576Y4629811D01*
X-4192184Y4629204D01*
X-4193040Y4629120D01*
X-4211932Y4619021D01*
X-4232561Y4609265D01*
X-4252133Y4597534D01*
X-4271027Y4587435D01*
X-4271572Y4586770D01*
X-4272415Y4586602D01*
X-4290229Y4574700D01*
X-4309800Y4562969D01*
X-4328126Y4549378D01*
X-4345941Y4537474D01*
X-4346419Y4536759D01*
X-4347241Y4536510D01*
X-4363801Y4522919D01*
X-4382129Y4509326D01*
X-4399038Y4494001D01*
X-4415597Y4480411D01*
X-4416002Y4479653D01*
X-4416796Y4479325D01*
X-4431944Y4464176D01*
X-4448852Y4448852D01*
X-4464178Y4431943D01*
X-4479325Y4416796D01*
X-4479653Y4416002D01*
X-4480412Y4415597D01*
X-4494002Y4399037D01*
X-4509326Y4382129D01*
X-4522919Y4363802D01*
X-4536510Y4347241D01*
X-4536760Y4346418D01*
X-4537475Y4345941D01*
X-4549379Y4328125D01*
X-4562969Y4309800D01*
X-4574699Y4290230D01*
X-4586603Y4272415D01*
X-4586770Y4271572D01*
X-4587435Y4271026D01*
X-4597535Y4252131D01*
X-4609265Y4232561D01*
X-4619021Y4211934D01*
X-4629120Y4193039D01*
X-4629204Y4192184D01*
X-4629812Y4191576D01*
X-4638009Y4171786D01*
X-4647766Y4151156D01*
X-4655454Y4129671D01*
X-4663652Y4109879D01*
Y4109019D01*
X-4664197Y4108355D01*
X-4670416Y4087854D01*
X-4678103Y4066370D01*
X-4683647Y4044237D01*
X-4689867Y4023734D01*
X-4689782Y4022878D01*
X-4690260Y4022164D01*
X-4694439Y4001152D01*
X-4699984Y3979018D01*
X-4703331Y3956449D01*
X-4707512Y3935435D01*
X-4707344Y3934592D01*
X-4707749Y3933833D01*
X-4709849Y3912512D01*
X-4713197Y3889942D01*
X-4714316Y3867151D01*
X-4716416Y3845831D01*
X-4716167Y3845008D01*
X-4716496Y3844214D01*
Y3822791D01*
X-4717615Y3800000D01*
X-4716496Y3777209D01*
Y3755786D01*
X-4716167Y3754991D01*
X-4716416Y3754169D01*
X-4714316Y3732848D01*
X-4713197Y3710058D01*
X-4709849Y3687489D01*
X-4707749Y3666166D01*
X-4707344Y3665408D01*
X-4707512Y3664565D01*
X-4703331Y3643550D01*
X-4699984Y3620982D01*
X-4694440Y3598849D01*
X-4690260Y3577836D01*
X-4689782Y3577121D01*
X-4689867Y3576266D01*
X-4683646Y3555760D01*
X-4678103Y3533630D01*
X-4670418Y3512151D01*
X-4664197Y3491645D01*
X-4663652Y3490980D01*
Y3490121D01*
X-4655453Y3470327D01*
X-4647766Y3448844D01*
X-4638010Y3428215D01*
X-4629812Y3408424D01*
X-4629204Y3407816D01*
X-4629120Y3406960D01*
X-4619019Y3388064D01*
X-4609265Y3367439D01*
X-4597536Y3347871D01*
X-4587435Y3328974D01*
X-4586770Y3328428D01*
X-4586603Y3327585D01*
X-4574697Y3309767D01*
X-4562969Y3290200D01*
X-4549380Y3271878D01*
X-4537475Y3254059D01*
X-4536760Y3253582D01*
X-4536510Y3252759D01*
X-4522917Y3236195D01*
X-4509326Y3217871D01*
X-4494004Y3200965D01*
X-4480412Y3184403D01*
X-4479654Y3183998D01*
X-4479325Y3183204D01*
X-4464174Y3168053D01*
X-4448852Y3151148D01*
X-4431946Y3135825D01*
X-4416796Y3120675D01*
X-4416002Y3120347D01*
X-4415597Y3119588D01*
X-4399035Y3105996D01*
X-4382129Y3090674D01*
X-4363805Y3077083D01*
X-4347241Y3063490D01*
X-4346419Y3063241D01*
X-4345941Y3062525D01*
X-4328122Y3050620D01*
X-4309800Y3037031D01*
X-4290233Y3025303D01*
X-4272415Y3013397D01*
X-4271572Y3013230D01*
X-4271027Y3012565D01*
X-4252129Y3002464D01*
X-4232561Y2990735D01*
X-4211936Y2980981D01*
X-4193040Y2970880D01*
X-4192184Y2970796D01*
X-4191576Y2970188D01*
X-4171785Y2961990D01*
X-4151156Y2952234D01*
X-4129673Y2944547D01*
X-4109879Y2936348D01*
X-4109019D01*
X-4108355Y2935803D01*
X-4087852Y2929583D01*
X-4066370Y2921897D01*
X-4044239Y2916353D01*
X-4023734Y2910133D01*
X-4022879Y2910218D01*
X-4022164Y2909740D01*
X-4001151Y2905560D01*
X-3979018Y2900016D01*
X-3956450Y2896669D01*
X-3935435Y2892488D01*
X-3934592Y2892656D01*
X-3933834Y2892251D01*
X-3912511Y2890151D01*
X-3889942Y2886803D01*
X-3867151Y2885684D01*
X-3845831Y2883584D01*
X-3845009Y2883833D01*
X-3844214Y2883504D01*
X-3822791D01*
X-3800000Y2882385D01*
X-3777209Y2883504D01*
X-3755786D01*
X-3754992Y2883833D01*
X-3754169Y2883584D01*
X-3732849Y2885684D01*
X-3710058Y2886803D01*
X-3687488Y2890151D01*
X-3666167Y2892251D01*
X-3665408Y2892656D01*
X-3664565Y2892488D01*
X-3643551Y2896669D01*
X-3620982Y2900016D01*
X-3598848Y2905561D01*
X-3577836Y2909740D01*
X-3577122Y2910218D01*
X-3576266Y2910133D01*
X-3555762Y2916353D01*
X-3533630Y2921897D01*
X-3512150Y2929583D01*
X-3491645Y2935803D01*
X-3490981Y2936348D01*
X-3490121D01*
X-3470329Y2944546D01*
X-3448844Y2952234D01*
X-3428214Y2961991D01*
X-3408424Y2970188D01*
X-3407816Y2970796D01*
X-3406961Y2970880D01*
X-3388066Y2980979D01*
X-3367439Y2990735D01*
X-3347869Y3002465D01*
X-3328974Y3012565D01*
X-3328428Y3013230D01*
X-3327585Y3013397D01*
X-3309770Y3025301D01*
X-3290200Y3037031D01*
X-3271875Y3050622D01*
X-3254060Y3062525D01*
X-3253582Y3063241D01*
X-3252759Y3063490D01*
X-3236198Y3077081D01*
X-3217871Y3090674D01*
X-3200963Y3105998D01*
X-3184403Y3119588D01*
X-3183998Y3120346D01*
X-3183204Y3120675D01*
X-3168056Y3135824D01*
X-3151148Y3151148D01*
X-3135822Y3168057D01*
X-3120676Y3183204D01*
X-3120347Y3183998D01*
X-3119589Y3184403D01*
X-3105999Y3200962D01*
X-3090674Y3217871D01*
X-3077081Y3236199D01*
X-3063490Y3252759D01*
X-3063241Y3253582D01*
X-3062526Y3254059D01*
X-3050622Y3271874D01*
X-3037031Y3290200D01*
X-3025300Y3309771D01*
X-3013398Y3327585D01*
X-3013230Y3328428D01*
X-3012565Y3328974D01*
X-3002466Y3347867D01*
X-2990735Y3367439D01*
X-2980979Y3388068D01*
X-2970881Y3406960D01*
X-2970796Y3407816D01*
X-2970189Y3408424D01*
X-2961992Y3428211D01*
X-2952234Y3448844D01*
X-2944545Y3470332D01*
X-2936348Y3490121D01*
Y3490981D01*
X-2935803Y3491645D01*
X-2929585Y3512143D01*
X-2921897Y3533630D01*
X-2916352Y3555766D01*
X-2910134Y3576266D01*
X-2910218Y3577121D01*
X-2909740Y3577836D01*
X-2905562Y3598844D01*
X-2900016Y3620982D01*
X-2896668Y3643555D01*
X-2892489Y3664565D01*
X-2892656Y3665408D01*
X-2892251Y3666166D01*
X-2890151Y3687485D01*
X-2886803Y3710058D01*
X-2885684Y3732850D01*
X-2883584Y3754169D01*
X-2883833Y3754991D01*
X-2883504Y3755786D01*
Y3777209D01*
X-2882385Y3800000D01*
X-2883504Y3822791D01*
Y3844214D01*
X-2883833Y3845008D01*
X-2883584Y3845831D01*
X-2885684Y3867150D01*
X-2886803Y3889942D01*
X-2890151Y3912515D01*
X-2892251Y3933834D01*
X-2892656Y3934592D01*
X-2892489Y3935435D01*
X-2896668Y3956444D01*
X-2900016Y3979018D01*
X-2905562Y4001157D01*
X-2909740Y4022164D01*
X-2910218Y4022878D01*
X-2910134Y4023734D01*
X-2916352Y4044233D01*
X-2921897Y4066370D01*
X-2929584Y4087855D01*
X-2935803Y4108355D01*
X-2936348Y4109019D01*
Y4109879D01*
X-2944545Y4129666D01*
X-2952234Y4151156D01*
X-2961993Y4171791D01*
X-2970189Y4191576D01*
X-2970796Y4192184D01*
X-2970881Y4193039D01*
X-2980978Y4211930D01*
X-2990735Y4232561D01*
X-3002468Y4252135D01*
X-3012565Y4271026D01*
X-3013230Y4271572D01*
X-3013398Y4272415D01*
X-3025299Y4290226D01*
X-3037031Y4309800D01*
X-3050624Y4328128D01*
X-3062526Y4345941D01*
X-3063241Y4346418D01*
X-3063490Y4347241D01*
X-3077079Y4363799D01*
X-3090674Y4382129D01*
X-3106001Y4399040D01*
X-3119589Y4415597D01*
X-3120347Y4416002D01*
X-3120675Y4416796D01*
X-3135821Y4431942D01*
X-3151148Y4448852D01*
X-3168060Y4464180D01*
X-3183204Y4479324D01*
X-3183998Y4479653D01*
X-3184403Y4480411D01*
X-3200960Y4493999D01*
X-3217871Y4509326D01*
X-3236201Y4522921D01*
X-3252759Y4536510D01*
X-3253582Y4536759D01*
X-3254060Y4537474D01*
X-3271872Y4549376D01*
X-3290200Y4562969D01*
X-3309774Y4574701D01*
X-3327585Y4586602D01*
X-3328428Y4586770D01*
X-3328974Y4587435D01*
X-3347865Y4597532D01*
X-3367439Y4609265D01*
X-3388070Y4619023D01*
X-3406961Y4629120D01*
X-3407816Y4629204D01*
X-3408424Y4629811D01*
X-3428209Y4638007D01*
X-3448844Y4647766D01*
X-3470334Y4655456D01*
X-3490121Y4663652D01*
X-3490981D01*
X-3491645Y4664197D01*
X-3512142Y4670414D01*
X-3533630Y4678103D01*
X-3555768Y4683648D01*
X-3576266Y4689866D01*
X-3577122Y4689782D01*
X-3577836Y4690260D01*
X-3598843Y4694438D01*
X-3620982Y4699984D01*
X-3643556Y4703332D01*
X-3664565Y4707511D01*
X-3665408Y4707344D01*
X-3666167Y4707749D01*
X-3687485Y4709848D01*
X-3710058Y4713197D01*
X-3732850Y4714316D01*
X-3754169Y4716416D01*
X-3754992Y4716167D01*
X-3755786Y4716496D01*
X-3777209D01*
X-3800000Y4717615D01*
D02*
G37*
G36*
X-350000Y3916234D02*
X-380084Y3912274D01*
X-408117Y3900662D01*
X-432190Y3882190D01*
X-450662Y3858117D01*
X-462274Y3830084D01*
X-466235Y3800000D01*
X-462274Y3769916D01*
X-450662Y3741883D01*
X-432190Y3717810D01*
X-408117Y3699338D01*
X-380084Y3687726D01*
X-350000Y3683766D01*
X-319916Y3687726D01*
X-291883Y3699338D01*
X-267810Y3717810D01*
X-249338Y3741883D01*
X-237726Y3769916D01*
X-233766Y3800000D01*
X-237726Y3830084D01*
X-249338Y3858117D01*
X-267810Y3882190D01*
X-291883Y3900662D01*
X-319916Y3912274D01*
X-350000Y3916234D01*
D02*
G37*
G36*
X2694077Y2959657D02*
X2671825Y2956728D01*
X2651089Y2948139D01*
X2633283Y2934476D01*
X2619620Y2916669D01*
X2611031Y2895934D01*
X2608101Y2873682D01*
X2611031Y2851430D01*
X2619620Y2830694D01*
X2633283Y2812888D01*
X2651089Y2799225D01*
X2671825Y2790636D01*
X2694077Y2787706D01*
X2716329Y2790636D01*
X2737064Y2799225D01*
X2754871Y2812888D01*
X2768534Y2830694D01*
X2777123Y2851430D01*
X2780052Y2873682D01*
X2777123Y2895934D01*
X2768534Y2916669D01*
X2754871Y2934476D01*
X2737064Y2948139D01*
X2716329Y2956728D01*
X2694077Y2959657D01*
D02*
G37*
G36*
X-2694077Y2974403D02*
X-2713680Y2970504D01*
X-2730298Y2959400D01*
X-2779795Y2909903D01*
X-2790899Y2893285D01*
X-2794798Y2873682D01*
X-2790899Y2854079D01*
X-2779795Y2837461D01*
X-2730298Y2787963D01*
X-2713680Y2776859D01*
X-2694077Y2772960D01*
X-2674474Y2776859D01*
X-2657856Y2787963D01*
X-2608359Y2837461D01*
X-2597254Y2854079D01*
X-2593355Y2873682D01*
X-2597254Y2893285D01*
X-2608359Y2909903D01*
X-2657856Y2959400D01*
X-2674474Y2970504D01*
X-2694077Y2974403D01*
D02*
G37*
G36*
X-2873682Y2780052D02*
X-2895934Y2777123D01*
X-2916669Y2768534D01*
X-2934476Y2754871D01*
X-2948139Y2737064D01*
X-2956728Y2716329D01*
X-2959657Y2694077D01*
X-2956728Y2671825D01*
X-2948139Y2651089D01*
X-2934476Y2633283D01*
X-2916669Y2619620D01*
X-2895934Y2611031D01*
X-2873682Y2608101D01*
X-2851430Y2611031D01*
X-2830694Y2619620D01*
X-2812888Y2633283D01*
X-2799225Y2651089D01*
X-2790636Y2671825D01*
X-2787706Y2694077D01*
X-2790636Y2716329D01*
X-2799225Y2737064D01*
X-2812888Y2754871D01*
X-2830694Y2768534D01*
X-2851430Y2777123D01*
X-2873682Y2780052D01*
D02*
G37*
G36*
X2873682Y2794798D02*
X2854079Y2790899D01*
X2837461Y2779795D01*
X2787963Y2730298D01*
X2776859Y2713680D01*
X2772960Y2694077D01*
X2776859Y2674474D01*
X2787963Y2657856D01*
X2837461Y2608359D01*
X2854079Y2597254D01*
X2873682Y2593355D01*
X2893285Y2597254D01*
X2909903Y2608359D01*
X2959400Y2657856D01*
X2970504Y2674474D01*
X2974403Y2694077D01*
X2970504Y2713680D01*
X2959400Y2730298D01*
X2909903Y2779795D01*
X2893285Y2790899D01*
X2873682Y2794798D01*
D02*
G37*
G36*
X-1616446Y2211584D02*
X-1638000Y2207297D01*
X-1656272Y2195088D01*
X-1668481Y2176815D01*
X-1672768Y2155262D01*
X-1670108Y2141887D01*
X-1755736Y2056259D01*
X-1769110Y2058919D01*
X-1790664Y2054632D01*
X-1808936Y2042423D01*
X-1821145Y2024151D01*
X-1825432Y2002597D01*
X-1821145Y1981044D01*
X-1808936Y1962771D01*
X-1790664Y1950562D01*
X-1769110Y1946275D01*
X-1747557Y1950562D01*
X-1729284Y1962771D01*
X-1717075Y1981044D01*
X-1712788Y2002597D01*
X-1715448Y2015972D01*
X-1629820Y2101600D01*
X-1616446Y2098939D01*
X-1594892Y2103227D01*
X-1576620Y2115436D01*
X-1564411Y2133708D01*
X-1560124Y2155262D01*
X-1564411Y2176815D01*
X-1576620Y2195088D01*
X-1594892Y2207297D01*
X-1616446Y2211584D01*
D02*
G37*
G36*
X1975656Y2241237D02*
X1953405Y2238307D01*
X1932669Y2229718D01*
X1914863Y2216055D01*
X1901200Y2198249D01*
X1892611Y2177513D01*
X1889681Y2155261D01*
X1892611Y2133009D01*
X1901200Y2112274D01*
X1914863Y2094467D01*
X1932669Y2080805D01*
X1953405Y2072216D01*
X1975656Y2069286D01*
X1997908Y2072216D01*
X2018644Y2080805D01*
X2036450Y2094467D01*
X2050113Y2112274D01*
X2058702Y2133009D01*
X2061632Y2155261D01*
X2058702Y2177513D01*
X2050113Y2198249D01*
X2036450Y2216055D01*
X2018644Y2229718D01*
X1997908Y2238307D01*
X1975656Y2241237D01*
D02*
G37*
G36*
X-1975656Y2255983D02*
X-1995259Y2252084D01*
X-2011877Y2240980D01*
X-2061375Y2191482D01*
X-2072479Y2174864D01*
X-2076378Y2155261D01*
X-2072479Y2135659D01*
X-2061375Y2119040D01*
X-2011877Y2069543D01*
X-1995259Y2058439D01*
X-1975656Y2054540D01*
X-1956054Y2058439D01*
X-1939436Y2069543D01*
X-1889938Y2119040D01*
X-1878834Y2135659D01*
X-1874935Y2155261D01*
X-1878834Y2174864D01*
X-1889938Y2191482D01*
X-1939436Y2240980D01*
X-1956054Y2252084D01*
X-1975656Y2255983D01*
D02*
G37*
G36*
X-2155261Y2061632D02*
X-2177513Y2058702D01*
X-2198249Y2050113D01*
X-2216055Y2036450D01*
X-2229718Y2018644D01*
X-2238307Y1997908D01*
X-2241237Y1975656D01*
X-2238307Y1953405D01*
X-2229718Y1932669D01*
X-2216055Y1914863D01*
X-2198249Y1901200D01*
X-2177513Y1892611D01*
X-2155261Y1889681D01*
X-2133009Y1892611D01*
X-2112274Y1901200D01*
X-2094467Y1914863D01*
X-2080805Y1932669D01*
X-2072216Y1953405D01*
X-2069286Y1975656D01*
X-2072216Y1997908D01*
X-2080805Y2018644D01*
X-2094467Y2036450D01*
X-2112274Y2050113D01*
X-2133009Y2058702D01*
X-2155261Y2061632D01*
D02*
G37*
G36*
X2155261Y2076378D02*
X2135659Y2072479D01*
X2119040Y2061375D01*
X2069543Y2011877D01*
X2058439Y1995259D01*
X2054540Y1975656D01*
X2058439Y1956054D01*
X2069543Y1939436D01*
X2119040Y1889938D01*
X2135659Y1878834D01*
X2155261Y1874935D01*
X2174864Y1878834D01*
X2191482Y1889938D01*
X2240980Y1939436D01*
X2252084Y1956054D01*
X2255983Y1975656D01*
X2252084Y1995259D01*
X2240980Y2011877D01*
X2191482Y2061375D01*
X2174864Y2072479D01*
X2155261Y2076378D01*
D02*
G37*
G36*
X1998849Y1829180D02*
X1977296Y1824893D01*
X1959023Y1812684D01*
X1946814Y1794412D01*
X1942527Y1772858D01*
X1946814Y1751305D01*
X1959023Y1733032D01*
X1977296Y1720823D01*
X1998849Y1716536D01*
X2012224Y1719196D01*
X2101600Y1629820D01*
X2098939Y1616446D01*
X2103227Y1594892D01*
X2115436Y1576620D01*
X2133708Y1564411D01*
X2155262Y1560124D01*
X2176815Y1564411D01*
X2195088Y1576620D01*
X2207297Y1594892D01*
X2211584Y1616446D01*
X2207297Y1638000D01*
X2195088Y1656272D01*
X2176815Y1668481D01*
X2155262Y1672768D01*
X2141887Y1670108D01*
X2052511Y1759484D01*
X2055171Y1772858D01*
X2050884Y1794412D01*
X2038675Y1812684D01*
X2020403Y1824893D01*
X1998849Y1829180D01*
D02*
G37*
G36*
X1257236Y1522816D02*
X1234984Y1519887D01*
X1214249Y1511298D01*
X1196442Y1497635D01*
X1182779Y1479828D01*
X1174190Y1459093D01*
X1171261Y1436841D01*
X1174190Y1414589D01*
X1182779Y1393853D01*
X1196442Y1376047D01*
X1214249Y1362384D01*
X1234984Y1353795D01*
X1257236Y1350865D01*
X1279488Y1353795D01*
X1300223Y1362384D01*
X1318030Y1376047D01*
X1331693Y1393853D01*
X1340282Y1414589D01*
X1343211Y1436841D01*
X1340282Y1459093D01*
X1331693Y1479828D01*
X1318030Y1497635D01*
X1300223Y1511298D01*
X1279488Y1519887D01*
X1257236Y1522816D01*
D02*
G37*
G36*
X-1257236Y1537562D02*
X-1276839Y1533663D01*
X-1293457Y1522559D01*
X-1342954Y1473062D01*
X-1354059Y1456444D01*
X-1357957Y1436841D01*
X-1354059Y1417238D01*
X-1342954Y1400620D01*
X-1293457Y1351123D01*
X-1276839Y1340018D01*
X-1257236Y1336120D01*
X-1237633Y1340018D01*
X-1221015Y1351123D01*
X-1171518Y1400620D01*
X-1160413Y1417238D01*
X-1156515Y1436841D01*
X-1160413Y1456444D01*
X-1171518Y1473062D01*
X-1221015Y1522559D01*
X-1237633Y1533663D01*
X-1257236Y1537562D01*
D02*
G37*
G36*
X-1436841Y1343211D02*
X-1459093Y1340282D01*
X-1479828Y1331693D01*
X-1497635Y1318030D01*
X-1511298Y1300223D01*
X-1519887Y1279488D01*
X-1522816Y1257236D01*
X-1519887Y1234984D01*
X-1511298Y1214249D01*
X-1497635Y1196442D01*
X-1479828Y1182779D01*
X-1459093Y1174190D01*
X-1436841Y1171261D01*
X-1414589Y1174190D01*
X-1393853Y1182779D01*
X-1376047Y1196442D01*
X-1362384Y1214249D01*
X-1353795Y1234984D01*
X-1350865Y1257236D01*
X-1353795Y1279488D01*
X-1362384Y1300223D01*
X-1376047Y1318030D01*
X-1393853Y1331693D01*
X-1414589Y1340282D01*
X-1436841Y1343211D01*
D02*
G37*
G36*
X1436841Y1357957D02*
X1417238Y1354059D01*
X1400620Y1342954D01*
X1351123Y1293457D01*
X1340018Y1276839D01*
X1336120Y1257236D01*
X1340018Y1237633D01*
X1351123Y1221015D01*
X1400620Y1171518D01*
X1417238Y1160413D01*
X1436841Y1156515D01*
X1456444Y1160413D01*
X1473062Y1171518D01*
X1522559Y1221015D01*
X1533663Y1237633D01*
X1537562Y1257236D01*
X1533663Y1276839D01*
X1522559Y1293457D01*
X1473062Y1342954D01*
X1456444Y1354059D01*
X1436841Y1357957D01*
D02*
G37*
G36*
X-867337Y1308326D02*
X-888891Y1304038D01*
X-907163Y1291829D01*
X-919372Y1273557D01*
X-923659Y1252003D01*
X-919372Y1230450D01*
X-907163Y1212177D01*
X-888891Y1199968D01*
X-867337Y1195681D01*
X-850907Y1198949D01*
X-722826Y1070867D01*
X-726094Y1054438D01*
X-721806Y1032884D01*
X-709597Y1014612D01*
X-691325Y1002403D01*
X-669771Y998116D01*
X-648218Y1002403D01*
X-629945Y1014612D01*
X-617736Y1032884D01*
X-613449Y1054438D01*
X-617736Y1075991D01*
X-629945Y1094264D01*
X-648218Y1106473D01*
X-669771Y1110760D01*
X-686201Y1107492D01*
X-814283Y1235574D01*
X-811015Y1252003D01*
X-815302Y1273557D01*
X-827511Y1291829D01*
X-845783Y1304038D01*
X-867337Y1308326D01*
D02*
G37*
G36*
X1321125Y992781D02*
X1299571Y988493D01*
X1281299Y976284D01*
X1269090Y958012D01*
X1264803Y936458D01*
X1267463Y923084D01*
X1136934Y792555D01*
X1123559Y795215D01*
X1102006Y790928D01*
X1083733Y778719D01*
X1071524Y760447D01*
X1067237Y738893D01*
X1071524Y717339D01*
X1083733Y699067D01*
X1102006Y686858D01*
X1123559Y682571D01*
X1145113Y686858D01*
X1163385Y699067D01*
X1175594Y717339D01*
X1179882Y738893D01*
X1177221Y752267D01*
X1307750Y882797D01*
X1321125Y880136D01*
X1342679Y884423D01*
X1360951Y896632D01*
X1373160Y914905D01*
X1377447Y936458D01*
X1373160Y958012D01*
X1360951Y976284D01*
X1342679Y988493D01*
X1321125Y992781D01*
D02*
G37*
G36*
X538816Y804396D02*
X516564Y801466D01*
X495828Y792877D01*
X478022Y779214D01*
X464359Y761408D01*
X455770Y740672D01*
X452840Y718420D01*
X455770Y696169D01*
X464359Y675433D01*
X478022Y657627D01*
X495828Y643964D01*
X516564Y635375D01*
X538816Y632445D01*
X561067Y635375D01*
X581803Y643964D01*
X599609Y657627D01*
X613272Y675433D01*
X621861Y696169D01*
X624791Y718420D01*
X621861Y740672D01*
X613272Y761408D01*
X599609Y779214D01*
X581803Y792877D01*
X561067Y801466D01*
X538816Y804396D01*
D02*
G37*
G36*
X-538816Y819142D02*
X-558418Y815243D01*
X-575036Y804139D01*
X-624534Y754641D01*
X-635638Y738023D01*
X-639537Y718420D01*
X-635638Y698818D01*
X-624534Y682200D01*
X-575036Y632702D01*
X-558418Y621598D01*
X-538816Y617699D01*
X-519213Y621598D01*
X-502595Y632702D01*
X-453097Y682200D01*
X-441993Y698818D01*
X-438094Y718420D01*
X-441993Y738023D01*
X-453097Y754641D01*
X-502595Y804139D01*
X-519213Y815243D01*
X-538816Y819142D01*
D02*
G37*
G36*
X-718420Y624791D02*
X-740672Y621861D01*
X-761408Y613272D01*
X-779214Y599609D01*
X-792877Y581803D01*
X-801466Y561067D01*
X-804396Y538816D01*
X-801466Y516564D01*
X-792877Y495828D01*
X-779214Y478022D01*
X-761408Y464359D01*
X-740672Y455770D01*
X-718420Y452840D01*
X-696169Y455770D01*
X-675433Y464359D01*
X-657627Y478022D01*
X-643964Y495828D01*
X-635375Y516564D01*
X-632445Y538816D01*
X-635375Y561067D01*
X-643964Y581803D01*
X-657627Y599609D01*
X-675433Y613272D01*
X-696169Y621861D01*
X-718420Y624791D01*
D02*
G37*
G36*
X718420Y639537D02*
X698818Y635638D01*
X682200Y624534D01*
X632702Y575036D01*
X621598Y558418D01*
X617699Y538816D01*
X621598Y519213D01*
X632702Y502595D01*
X682200Y453097D01*
X698818Y441993D01*
X718420Y438094D01*
X738023Y441993D01*
X754641Y453097D01*
X804139Y502595D01*
X815243Y519213D01*
X819142Y538816D01*
X815243Y558418D01*
X804139Y575036D01*
X754641Y624534D01*
X738023Y635638D01*
X718420Y639537D01*
D02*
G37*
G36*
X-4660139Y626234D02*
X-4760139D01*
X-4790222Y622274D01*
X-4818256Y610662D01*
X-4842329Y592190D01*
X-4860801Y568117D01*
X-4872412Y540084D01*
X-4876373Y510000D01*
X-4872412Y479916D01*
X-4860801Y451883D01*
X-4842329Y427810D01*
X-4818256Y409338D01*
X-4790222Y397726D01*
X-4760139Y393766D01*
X-4660139D01*
X-4630055Y397726D01*
X-4602022Y409338D01*
X-4577949Y427810D01*
X-4559477Y451883D01*
X-4547865Y479916D01*
X-4543904Y510000D01*
X-4547865Y540084D01*
X-4559477Y568117D01*
X-4577949Y592190D01*
X-4602022Y610662D01*
X-4630055Y622274D01*
X-4660139Y626234D01*
D02*
G37*
G36*
X4211201Y487148D02*
X4183727Y483531D01*
X4158127Y472927D01*
X4136143Y456058D01*
X4119274Y434074D01*
X4108670Y408473D01*
X4105053Y381000D01*
X4108670Y353527D01*
X4119274Y327926D01*
X4136143Y305942D01*
X4158127Y289073D01*
X4183727Y278469D01*
X4211201Y274852D01*
X4238674Y278469D01*
X4264274Y289073D01*
X4286258Y305942D01*
X4303127Y327926D01*
X4313732Y353527D01*
X4317348Y381000D01*
X4313732Y408473D01*
X4303127Y434074D01*
X4286258Y456058D01*
X4264274Y472927D01*
X4238674Y483531D01*
X4211201Y487148D01*
D02*
G37*
G36*
Y233148D02*
X4183727Y229531D01*
X4158127Y218927D01*
X4136143Y202058D01*
X4119274Y180074D01*
X4108670Y154473D01*
X4105053Y127000D01*
X4108670Y99527D01*
X4119274Y73926D01*
X4136143Y51942D01*
X4158127Y35073D01*
X4183727Y24469D01*
X4211201Y20852D01*
X4238674Y24469D01*
X4264274Y35073D01*
X4286258Y51942D01*
X4303127Y73926D01*
X4313732Y99527D01*
X4317348Y127000D01*
X4313732Y154473D01*
X4303127Y180074D01*
X4286258Y202058D01*
X4264274Y218927D01*
X4238674Y229531D01*
X4211201Y233148D01*
D02*
G37*
G36*
X-127000Y85975D02*
X-149252Y83046D01*
X-169988Y74457D01*
X-187794Y60794D01*
X-201457Y42988D01*
X-210046Y22252D01*
X-212975Y0D01*
X-210046Y-22252D01*
X-201457Y-42988D01*
X-187794Y-60794D01*
X-169988Y-74457D01*
X-149252Y-83046D01*
X-127000Y-85975D01*
X-104748Y-83046D01*
X-84012Y-74457D01*
X-66206Y-60794D01*
X-52543Y-42988D01*
X-43954Y-22252D01*
X-41025Y0D01*
X-43954Y22252D01*
X-52543Y42988D01*
X-66206Y60794D01*
X-84012Y74457D01*
X-104748Y83046D01*
X-127000Y85975D01*
D02*
G37*
G36*
X162000Y86224D02*
X92000D01*
X72397Y82325D01*
X55779Y71221D01*
X44675Y54603D01*
X40776Y35000D01*
Y-35000D01*
X44675Y-54603D01*
X55779Y-71221D01*
X72397Y-82325D01*
X92000Y-86224D01*
X162000D01*
X181603Y-82325D01*
X198221Y-71221D01*
X209325Y-54603D01*
X213224Y-35000D01*
Y35000D01*
X209325Y54603D01*
X198221Y71221D01*
X181603Y82325D01*
X162000Y86224D01*
D02*
G37*
G36*
X-3690139Y91019D02*
X-3713696Y87917D01*
X-3735648Y78824D01*
X-3754498Y64360D01*
X-3768963Y45509D01*
X-3778056Y23557D01*
X-3781157Y0D01*
X-3778056Y-23557D01*
X-3768963Y-45509D01*
X-3754498Y-64360D01*
X-3735648Y-78824D01*
X-3713696Y-87917D01*
X-3690139Y-91019D01*
X-3666581Y-87917D01*
X-3644629Y-78824D01*
X-3625779Y-64360D01*
X-3611314Y-45509D01*
X-3602221Y-23557D01*
X-3599120Y0D01*
X-3602221Y23557D01*
X-3611314Y45509D01*
X-3625779Y64360D01*
X-3644629Y78824D01*
X-3666581Y87917D01*
X-3690139Y91019D01*
D02*
G37*
G36*
X4211201Y-20852D02*
X4183727Y-24469D01*
X4158127Y-35073D01*
X4136143Y-51942D01*
X4119274Y-73926D01*
X4108670Y-99527D01*
X4105053Y-127000D01*
X4108670Y-154473D01*
X4119274Y-180074D01*
X4136143Y-202058D01*
X4158127Y-218927D01*
X4183727Y-229531D01*
X4211201Y-233148D01*
X4238674Y-229531D01*
X4264274Y-218927D01*
X4286258Y-202058D01*
X4303127Y-180074D01*
X4313732Y-154473D01*
X4317348Y-127000D01*
X4313732Y-99527D01*
X4303127Y-73926D01*
X4286258Y-51942D01*
X4264274Y-35073D01*
X4238674Y-24469D01*
X4211201Y-20852D01*
D02*
G37*
G36*
X4283200Y-275109D02*
X4139201D01*
X4126231Y-277689D01*
X4115236Y-285035D01*
X4107889Y-296031D01*
X4105310Y-309000D01*
Y-453000D01*
X4107889Y-465969D01*
X4115236Y-476965D01*
X4126231Y-484311D01*
X4139201Y-486891D01*
X4283200D01*
X4296170Y-484311D01*
X4307165Y-476965D01*
X4314512Y-465969D01*
X4317092Y-453000D01*
Y-309000D01*
X4314512Y-296031D01*
X4307165Y-285035D01*
X4296170Y-277689D01*
X4283200Y-275109D01*
D02*
G37*
G36*
X-3690139Y-308981D02*
X-3713696Y-312083D01*
X-3735648Y-321176D01*
X-3754498Y-335640D01*
X-3768963Y-354491D01*
X-3778056Y-376443D01*
X-3781157Y-400000D01*
X-3778056Y-423557D01*
X-3768963Y-445509D01*
X-3754498Y-464360D01*
X-3735648Y-478824D01*
X-3713696Y-487917D01*
X-3690139Y-491019D01*
X-3666581Y-487917D01*
X-3644629Y-478824D01*
X-3625779Y-464360D01*
X-3611314Y-445509D01*
X-3602221Y-423557D01*
X-3599120Y-400000D01*
X-3602221Y-376443D01*
X-3611314Y-354491D01*
X-3625779Y-335640D01*
X-3644629Y-321176D01*
X-3666581Y-312083D01*
X-3690139Y-308981D01*
D02*
G37*
G36*
X718420Y-452840D02*
X696169Y-455770D01*
X675433Y-464359D01*
X657627Y-478022D01*
X643964Y-495828D01*
X635375Y-516564D01*
X632445Y-538816D01*
X635375Y-561067D01*
X643964Y-581803D01*
X657627Y-599609D01*
X675433Y-613272D01*
X696169Y-621861D01*
X718420Y-624791D01*
X740672Y-621861D01*
X761408Y-613272D01*
X779214Y-599609D01*
X792877Y-581803D01*
X801466Y-561067D01*
X804396Y-538816D01*
X801466Y-516564D01*
X792877Y-495828D01*
X779214Y-478022D01*
X761408Y-464359D01*
X740672Y-455770D01*
X718420Y-452840D01*
D02*
G37*
G36*
X-4660139Y-393766D02*
X-4760139D01*
X-4790222Y-397726D01*
X-4818256Y-409338D01*
X-4842329Y-427810D01*
X-4860801Y-451883D01*
X-4872412Y-479916D01*
X-4876373Y-510000D01*
X-4872412Y-540084D01*
X-4860801Y-568117D01*
X-4842329Y-592190D01*
X-4818256Y-610662D01*
X-4790222Y-622274D01*
X-4760139Y-626234D01*
X-4660139D01*
X-4630055Y-622274D01*
X-4602022Y-610662D01*
X-4577949Y-592190D01*
X-4559477Y-568117D01*
X-4547865Y-540084D01*
X-4543904Y-510000D01*
X-4547865Y-479916D01*
X-4559477Y-451883D01*
X-4577949Y-427810D01*
X-4602022Y-409338D01*
X-4630055Y-397726D01*
X-4660139Y-393766D01*
D02*
G37*
G36*
X-718420Y-438094D02*
X-738023Y-441993D01*
X-754641Y-453097D01*
X-804139Y-502595D01*
X-815243Y-519213D01*
X-819142Y-538816D01*
X-815243Y-558418D01*
X-804139Y-575036D01*
X-754641Y-624534D01*
X-738023Y-635638D01*
X-718420Y-639537D01*
X-698818Y-635638D01*
X-682200Y-624534D01*
X-632702Y-575036D01*
X-621598Y-558418D01*
X-617699Y-538816D01*
X-621598Y-519213D01*
X-632702Y-502595D01*
X-682200Y-453097D01*
X-698818Y-441993D01*
X-718420Y-438094D01*
D02*
G37*
G36*
X-1086639Y-645650D02*
X-1108193Y-649938D01*
X-1126465Y-662147D01*
X-1138674Y-680419D01*
X-1142961Y-701973D01*
X-1139693Y-718402D01*
X-1267775Y-846484D01*
X-1284205Y-843216D01*
X-1305758Y-847503D01*
X-1324031Y-859712D01*
X-1336240Y-877985D01*
X-1340527Y-899538D01*
X-1336240Y-921092D01*
X-1324031Y-939364D01*
X-1305758Y-951573D01*
X-1284205Y-955860D01*
X-1262651Y-951573D01*
X-1244379Y-939364D01*
X-1232170Y-921092D01*
X-1227882Y-899538D01*
X-1231150Y-883109D01*
X-1103069Y-755027D01*
X-1086639Y-758295D01*
X-1065085Y-754008D01*
X-1046813Y-741799D01*
X-1034604Y-723526D01*
X-1030317Y-701973D01*
X-1034604Y-680419D01*
X-1046813Y-662147D01*
X-1065085Y-649938D01*
X-1086639Y-645650D01*
D02*
G37*
G36*
X-538816Y-632445D02*
X-561067Y-635375D01*
X-581803Y-643964D01*
X-599609Y-657627D01*
X-613272Y-675433D01*
X-621861Y-696169D01*
X-624791Y-718420D01*
X-621861Y-740672D01*
X-613272Y-761408D01*
X-599609Y-779214D01*
X-581803Y-792877D01*
X-561067Y-801466D01*
X-538816Y-804396D01*
X-516564Y-801466D01*
X-495828Y-792877D01*
X-478022Y-779214D01*
X-464359Y-761408D01*
X-455770Y-740672D01*
X-452840Y-718420D01*
X-455770Y-696169D01*
X-464359Y-675433D01*
X-478022Y-657627D01*
X-495828Y-643964D01*
X-516564Y-635375D01*
X-538816Y-632445D01*
D02*
G37*
G36*
X538816Y-617699D02*
X519213Y-621598D01*
X502595Y-632702D01*
X453097Y-682200D01*
X441993Y-698818D01*
X438094Y-718420D01*
X441993Y-738023D01*
X453097Y-754641D01*
X502595Y-804139D01*
X519213Y-815243D01*
X538816Y-819142D01*
X558418Y-815243D01*
X575036Y-804139D01*
X624534Y-754641D01*
X635638Y-738023D01*
X639537Y-718420D01*
X635638Y-698818D01*
X624534Y-682200D01*
X575036Y-632702D01*
X558418Y-621598D01*
X538816Y-617699D01*
D02*
G37*
G36*
X384694Y-1033029D02*
X363140Y-1037316D01*
X344868Y-1049525D01*
X333831Y-1066043D01*
X-19343D01*
X-30380Y-1049525D01*
X-48652Y-1037316D01*
X-70206Y-1033029D01*
X-91759Y-1037316D01*
X-110032Y-1049525D01*
X-122241Y-1067797D01*
X-126528Y-1089351D01*
X-122241Y-1110905D01*
X-110032Y-1129177D01*
X-91759Y-1141386D01*
X-70206Y-1145673D01*
X-48652Y-1141386D01*
X-30380Y-1129177D01*
X-19343Y-1112659D01*
X333831D01*
X344868Y-1129177D01*
X363140Y-1141386D01*
X384694Y-1145673D01*
X406248Y-1141386D01*
X424520Y-1129177D01*
X436729Y-1110905D01*
X441016Y-1089351D01*
X436729Y-1067797D01*
X424520Y-1049525D01*
X406248Y-1037316D01*
X384694Y-1033029D01*
D02*
G37*
G36*
X1436841Y-1171261D02*
X1414589Y-1174190D01*
X1393853Y-1182779D01*
X1376047Y-1196442D01*
X1362384Y-1214249D01*
X1353795Y-1234984D01*
X1350865Y-1257236D01*
X1353795Y-1279488D01*
X1362384Y-1300223D01*
X1376047Y-1318030D01*
X1393853Y-1331693D01*
X1414589Y-1340282D01*
X1436841Y-1343211D01*
X1459093Y-1340282D01*
X1479828Y-1331693D01*
X1497635Y-1318030D01*
X1511298Y-1300223D01*
X1519887Y-1279488D01*
X1522816Y-1257236D01*
X1519887Y-1234984D01*
X1511298Y-1214249D01*
X1497635Y-1196442D01*
X1479828Y-1182779D01*
X1459093Y-1174190D01*
X1436841Y-1171261D01*
D02*
G37*
G36*
X-1436841Y-1156515D02*
X-1456444Y-1160413D01*
X-1473062Y-1171518D01*
X-1522559Y-1221015D01*
X-1533663Y-1237633D01*
X-1537562Y-1257236D01*
X-1533663Y-1276839D01*
X-1522559Y-1293457D01*
X-1473062Y-1342954D01*
X-1456444Y-1354059D01*
X-1436841Y-1357957D01*
X-1417238Y-1354059D01*
X-1400620Y-1342954D01*
X-1351123Y-1293457D01*
X-1340018Y-1276839D01*
X-1336120Y-1257236D01*
X-1340018Y-1237633D01*
X-1351123Y-1221015D01*
X-1400620Y-1171518D01*
X-1417238Y-1160413D01*
X-1436841Y-1156515D01*
D02*
G37*
G36*
X-1257236Y-1350865D02*
X-1279488Y-1353795D01*
X-1300223Y-1362384D01*
X-1318030Y-1376047D01*
X-1331693Y-1393853D01*
X-1340282Y-1414589D01*
X-1343211Y-1436841D01*
X-1340282Y-1459093D01*
X-1331693Y-1479828D01*
X-1318030Y-1497635D01*
X-1300223Y-1511298D01*
X-1279488Y-1519887D01*
X-1257236Y-1522816D01*
X-1234984Y-1519887D01*
X-1214249Y-1511298D01*
X-1196442Y-1497635D01*
X-1182779Y-1479828D01*
X-1174190Y-1459093D01*
X-1171261Y-1436841D01*
X-1174190Y-1414589D01*
X-1182779Y-1393853D01*
X-1196442Y-1376047D01*
X-1214249Y-1362384D01*
X-1234984Y-1353795D01*
X-1257236Y-1350865D01*
D02*
G37*
G36*
X1257236Y-1336120D02*
X1237633Y-1340018D01*
X1221015Y-1351123D01*
X1171518Y-1400620D01*
X1160413Y-1417238D01*
X1156515Y-1436841D01*
X1160413Y-1456444D01*
X1171518Y-1473062D01*
X1221015Y-1522559D01*
X1237633Y-1533663D01*
X1257236Y-1537562D01*
X1276839Y-1533663D01*
X1293457Y-1522559D01*
X1342954Y-1473062D01*
X1354059Y-1456444D01*
X1357957Y-1436841D01*
X1354059Y-1417238D01*
X1342954Y-1400620D01*
X1293457Y-1351123D01*
X1276839Y-1340018D01*
X1257236Y-1336120D01*
D02*
G37*
G36*
X-569102Y-1294052D02*
X-590656Y-1298339D01*
X-608928Y-1310548D01*
X-621137Y-1328820D01*
X-625424Y-1350374D01*
X-621137Y-1371927D01*
X-608928Y-1390200D01*
X-590656Y-1402409D01*
X-578988Y-1404729D01*
X-552738Y-1516890D01*
X-559567Y-1521453D01*
X-571776Y-1539725D01*
X-576063Y-1561279D01*
X-571776Y-1582833D01*
X-559567Y-1601105D01*
X-541295Y-1613314D01*
X-519741Y-1617601D01*
X-498187Y-1613314D01*
X-479915Y-1601105D01*
X-467706Y-1582833D01*
X-463419Y-1561279D01*
X-467706Y-1539725D01*
X-479915Y-1521453D01*
X-498187Y-1509244D01*
X-509855Y-1506923D01*
X-536105Y-1394763D01*
X-529276Y-1390200D01*
X-517067Y-1371927D01*
X-512780Y-1350374D01*
X-517067Y-1328820D01*
X-529276Y-1310548D01*
X-547549Y-1298339D01*
X-569102Y-1294052D01*
D02*
G37*
G36*
X-907178Y-1734004D02*
X-928732Y-1738291D01*
X-947004Y-1750500D01*
X-959213Y-1768772D01*
X-963500Y-1790326D01*
X-959213Y-1811880D01*
X-947004Y-1830152D01*
X-928732Y-1842361D01*
X-907178Y-1846648D01*
X-886166Y-1842469D01*
X-815637Y-1912998D01*
X-819816Y-1934010D01*
X-815529Y-1955564D01*
X-803320Y-1973836D01*
X-785048Y-1986045D01*
X-763494Y-1990332D01*
X-741941Y-1986045D01*
X-723668Y-1973836D01*
X-711459Y-1955564D01*
X-707172Y-1934010D01*
X-711459Y-1912456D01*
X-723668Y-1894184D01*
X-741941Y-1881975D01*
X-763494Y-1877688D01*
X-784506Y-1881867D01*
X-855036Y-1811338D01*
X-850856Y-1790326D01*
X-855143Y-1768772D01*
X-867352Y-1750500D01*
X-885625Y-1738291D01*
X-907178Y-1734004D01*
D02*
G37*
G36*
X2155261Y-1889681D02*
X2133009Y-1892611D01*
X2112274Y-1901200D01*
X2094467Y-1914863D01*
X2080805Y-1932669D01*
X2072216Y-1953405D01*
X2069286Y-1975656D01*
X2072216Y-1997908D01*
X2080805Y-2018644D01*
X2094467Y-2036450D01*
X2112274Y-2050113D01*
X2133009Y-2058702D01*
X2155261Y-2061632D01*
X2177513Y-2058702D01*
X2198249Y-2050113D01*
X2216055Y-2036450D01*
X2229718Y-2018644D01*
X2238307Y-1997908D01*
X2241237Y-1975656D01*
X2238307Y-1953405D01*
X2229718Y-1932669D01*
X2216055Y-1914863D01*
X2198249Y-1901200D01*
X2177513Y-1892611D01*
X2155261Y-1889681D01*
D02*
G37*
G36*
X-2155261Y-1874935D02*
X-2174864Y-1878834D01*
X-2191482Y-1889938D01*
X-2240980Y-1939436D01*
X-2252084Y-1956054D01*
X-2255983Y-1975656D01*
X-2252084Y-1995259D01*
X-2240980Y-2011877D01*
X-2191482Y-2061375D01*
X-2174864Y-2072479D01*
X-2155261Y-2076378D01*
X-2135659Y-2072479D01*
X-2119040Y-2061375D01*
X-2069543Y-2011877D01*
X-2058439Y-1995259D01*
X-2054540Y-1975656D01*
X-2058439Y-1956054D01*
X-2069543Y-1939436D01*
X-2119040Y-1889938D01*
X-2135659Y-1878834D01*
X-2155261Y-1874935D01*
D02*
G37*
G36*
X-2507699Y-2066710D02*
X-2529252Y-2070997D01*
X-2547524Y-2083206D01*
X-2559734Y-2101478D01*
X-2564021Y-2123032D01*
X-2560753Y-2139462D01*
X-2688835Y-2267543D01*
X-2705264Y-2264275D01*
X-2726818Y-2268563D01*
X-2745090Y-2280772D01*
X-2757299Y-2299044D01*
X-2761586Y-2320598D01*
X-2757299Y-2342151D01*
X-2745090Y-2360424D01*
X-2726818Y-2372633D01*
X-2705264Y-2376920D01*
X-2683710Y-2372633D01*
X-2665438Y-2360424D01*
X-2653229Y-2342151D01*
X-2648942Y-2320598D01*
X-2652210Y-2304168D01*
X-2524128Y-2176086D01*
X-2507699Y-2179354D01*
X-2486145Y-2175067D01*
X-2467873Y-2162858D01*
X-2455664Y-2144586D01*
X-2451376Y-2123032D01*
X-2455664Y-2101478D01*
X-2467873Y-2083206D01*
X-2486145Y-2070997D01*
X-2507699Y-2066710D01*
D02*
G37*
G36*
X-1975656Y-2069286D02*
X-1997908Y-2072216D01*
X-2018644Y-2080805D01*
X-2036450Y-2094467D01*
X-2050113Y-2112274D01*
X-2058702Y-2133009D01*
X-2061632Y-2155261D01*
X-2058702Y-2177513D01*
X-2050113Y-2198249D01*
X-2036450Y-2216055D01*
X-2018644Y-2229718D01*
X-1997908Y-2238307D01*
X-1975656Y-2241237D01*
X-1953405Y-2238307D01*
X-1932669Y-2229718D01*
X-1914863Y-2216055D01*
X-1901200Y-2198249D01*
X-1892611Y-2177513D01*
X-1889681Y-2155261D01*
X-1892611Y-2133009D01*
X-1901200Y-2112274D01*
X-1914863Y-2094467D01*
X-1932669Y-2080805D01*
X-1953405Y-2072216D01*
X-1975656Y-2069286D01*
D02*
G37*
G36*
X1975656Y-2054540D02*
X1956054Y-2058439D01*
X1939436Y-2069543D01*
X1889938Y-2119040D01*
X1878834Y-2135659D01*
X1874935Y-2155261D01*
X1878834Y-2174864D01*
X1889938Y-2191482D01*
X1939436Y-2240980D01*
X1956054Y-2252084D01*
X1975656Y-2255983D01*
X1995259Y-2252084D01*
X2011877Y-2240980D01*
X2061375Y-2191482D01*
X2072479Y-2174864D01*
X2076378Y-2155261D01*
X2072479Y-2135659D01*
X2061375Y-2119040D01*
X2011877Y-2069543D01*
X1995259Y-2058439D01*
X1975656Y-2054540D01*
D02*
G37*
G36*
X-1327420Y-2153522D02*
X-1348974Y-2157810D01*
X-1367246Y-2170019D01*
X-1379455Y-2188291D01*
X-1383742Y-2209845D01*
X-1379455Y-2231398D01*
X-1367246Y-2249671D01*
X-1348974Y-2261880D01*
X-1327420Y-2266167D01*
X-1305867Y-2261880D01*
X-1291887Y-2252539D01*
X-1187889Y-2305261D01*
X-1188589Y-2308779D01*
X-1184302Y-2330332D01*
X-1172093Y-2348605D01*
X-1153821Y-2360814D01*
X-1132267Y-2365101D01*
X-1110713Y-2360814D01*
X-1092441Y-2348605D01*
X-1080232Y-2330332D01*
X-1075945Y-2308779D01*
X-1080232Y-2287225D01*
X-1092441Y-2268953D01*
X-1110713Y-2256744D01*
X-1132267Y-2252457D01*
X-1153821Y-2256744D01*
X-1167801Y-2266085D01*
X-1271798Y-2213363D01*
X-1271098Y-2209845D01*
X-1275385Y-2188291D01*
X-1287594Y-2170019D01*
X-1305867Y-2157810D01*
X-1327420Y-2153522D01*
D02*
G37*
G36*
X2873682Y-2608101D02*
X2851430Y-2611031D01*
X2830694Y-2619620D01*
X2812888Y-2633283D01*
X2799225Y-2651089D01*
X2790636Y-2671825D01*
X2787706Y-2694077D01*
X2790636Y-2716329D01*
X2799225Y-2737064D01*
X2812888Y-2754871D01*
X2830694Y-2768534D01*
X2851430Y-2777123D01*
X2873682Y-2780052D01*
X2895934Y-2777123D01*
X2916669Y-2768534D01*
X2934476Y-2754871D01*
X2948139Y-2737064D01*
X2956728Y-2716329D01*
X2959657Y-2694077D01*
X2956728Y-2671825D01*
X2948139Y-2651089D01*
X2934476Y-2633283D01*
X2916669Y-2619620D01*
X2895934Y-2611031D01*
X2873682Y-2608101D01*
D02*
G37*
G36*
X-2873682Y-2593355D02*
X-2893285Y-2597254D01*
X-2909903Y-2608359D01*
X-2959400Y-2657856D01*
X-2970504Y-2674474D01*
X-2974403Y-2694077D01*
X-2970504Y-2713680D01*
X-2959400Y-2730298D01*
X-2909903Y-2779795D01*
X-2893285Y-2790899D01*
X-2873682Y-2794798D01*
X-2854079Y-2790899D01*
X-2837461Y-2779795D01*
X-2787963Y-2730298D01*
X-2776859Y-2713680D01*
X-2772960Y-2694077D01*
X-2776859Y-2674474D01*
X-2787963Y-2657856D01*
X-2837461Y-2608359D01*
X-2854079Y-2597254D01*
X-2873682Y-2593355D01*
D02*
G37*
G36*
X3800000Y-2882385D02*
X3777209Y-2883504D01*
X3755786D01*
X3754991Y-2883833D01*
X3754169Y-2883584D01*
X3732850Y-2885684D01*
X3710058Y-2886803D01*
X3687486Y-2890151D01*
X3666166Y-2892251D01*
X3665408Y-2892656D01*
X3664565Y-2892489D01*
X3643555Y-2896668D01*
X3620982Y-2900016D01*
X3598844Y-2905562D01*
X3577836Y-2909740D01*
X3577121Y-2910218D01*
X3576266Y-2910134D01*
X3555765Y-2916352D01*
X3533630Y-2921897D01*
X3512147Y-2929584D01*
X3491645Y-2935803D01*
X3490980Y-2936348D01*
X3490121D01*
X3470332Y-2944545D01*
X3448844Y-2952234D01*
X3428211Y-2961992D01*
X3408424Y-2970189D01*
X3407816Y-2970796D01*
X3406960Y-2970881D01*
X3388068Y-2980979D01*
X3367439Y-2990735D01*
X3347867Y-3002466D01*
X3328974Y-3012565D01*
X3328428Y-3013230D01*
X3327585Y-3013398D01*
X3309771Y-3025300D01*
X3290200Y-3037031D01*
X3271874Y-3050622D01*
X3254059Y-3062526D01*
X3253582Y-3063241D01*
X3252759Y-3063490D01*
X3236199Y-3077081D01*
X3217871Y-3090674D01*
X3200962Y-3105999D01*
X3184403Y-3119589D01*
X3183998Y-3120347D01*
X3183204Y-3120675D01*
X3168056Y-3135824D01*
X3151148Y-3151148D01*
X3135822Y-3168057D01*
X3120675Y-3183204D01*
X3120347Y-3183998D01*
X3119588Y-3184403D01*
X3105998Y-3200963D01*
X3090674Y-3217871D01*
X3077081Y-3236198D01*
X3063490Y-3252759D01*
X3063241Y-3253582D01*
X3062525Y-3254060D01*
X3050622Y-3271875D01*
X3037031Y-3290200D01*
X3025301Y-3309770D01*
X3013397Y-3327585D01*
X3013230Y-3328428D01*
X3012565Y-3328974D01*
X3002465Y-3347869D01*
X2990735Y-3367439D01*
X2980979Y-3388066D01*
X2970880Y-3406961D01*
X2970796Y-3407816D01*
X2970188Y-3408424D01*
X2961991Y-3428214D01*
X2952234Y-3448844D01*
X2944546Y-3470329D01*
X2936348Y-3490121D01*
Y-3490981D01*
X2935803Y-3491645D01*
X2929584Y-3512146D01*
X2921897Y-3533630D01*
X2916353Y-3555763D01*
X2910133Y-3576266D01*
X2910218Y-3577122D01*
X2909740Y-3577836D01*
X2905561Y-3598848D01*
X2900016Y-3620982D01*
X2896669Y-3643551D01*
X2892488Y-3664565D01*
X2892656Y-3665408D01*
X2892251Y-3666167D01*
X2890151Y-3687488D01*
X2886803Y-3710058D01*
X2885684Y-3732849D01*
X2883584Y-3754169D01*
X2883833Y-3754992D01*
X2883504Y-3755786D01*
Y-3777209D01*
X2882385Y-3800000D01*
X2883504Y-3822791D01*
Y-3844214D01*
X2883833Y-3845009D01*
X2883584Y-3845831D01*
X2885684Y-3867152D01*
X2886803Y-3889942D01*
X2890151Y-3912511D01*
X2892251Y-3933834D01*
X2892656Y-3934592D01*
X2892488Y-3935435D01*
X2896669Y-3956450D01*
X2900016Y-3979018D01*
X2905560Y-4001151D01*
X2909740Y-4022164D01*
X2910218Y-4022879D01*
X2910133Y-4023734D01*
X2916354Y-4044240D01*
X2921897Y-4066370D01*
X2929582Y-4087849D01*
X2935803Y-4108355D01*
X2936348Y-4109020D01*
Y-4109879D01*
X2944547Y-4129673D01*
X2952234Y-4151156D01*
X2961990Y-4171785D01*
X2970188Y-4191576D01*
X2970796Y-4192184D01*
X2970880Y-4193040D01*
X2980981Y-4211936D01*
X2990735Y-4232561D01*
X3002464Y-4252129D01*
X3012565Y-4271027D01*
X3013230Y-4271572D01*
X3013397Y-4272415D01*
X3025303Y-4290233D01*
X3037031Y-4309800D01*
X3050620Y-4328122D01*
X3062525Y-4345941D01*
X3063241Y-4346419D01*
X3063490Y-4347241D01*
X3077083Y-4363805D01*
X3090674Y-4382129D01*
X3105996Y-4399035D01*
X3119588Y-4415597D01*
X3120346Y-4416002D01*
X3120675Y-4416796D01*
X3135826Y-4431947D01*
X3151148Y-4448852D01*
X3168054Y-4464175D01*
X3183204Y-4479325D01*
X3183998Y-4479653D01*
X3184403Y-4480412D01*
X3200965Y-4494004D01*
X3217871Y-4509326D01*
X3236195Y-4522917D01*
X3252759Y-4536510D01*
X3253582Y-4536760D01*
X3254059Y-4537475D01*
X3271878Y-4549380D01*
X3290200Y-4562969D01*
X3309767Y-4574697D01*
X3327585Y-4586603D01*
X3328428Y-4586770D01*
X3328974Y-4587435D01*
X3347871Y-4597536D01*
X3367439Y-4609265D01*
X3388064Y-4619019D01*
X3406960Y-4629120D01*
X3407816Y-4629204D01*
X3408424Y-4629812D01*
X3428215Y-4638010D01*
X3448844Y-4647766D01*
X3470327Y-4655453D01*
X3490121Y-4663652D01*
X3490981D01*
X3491645Y-4664197D01*
X3512148Y-4670417D01*
X3533630Y-4678103D01*
X3555761Y-4683647D01*
X3576266Y-4689867D01*
X3577121Y-4689782D01*
X3577836Y-4690260D01*
X3598849Y-4694440D01*
X3620982Y-4699984D01*
X3643550Y-4703331D01*
X3664565Y-4707512D01*
X3665408Y-4707344D01*
X3666166Y-4707749D01*
X3687489Y-4709849D01*
X3710058Y-4713197D01*
X3732849Y-4714316D01*
X3754169Y-4716416D01*
X3754991Y-4716167D01*
X3755786Y-4716496D01*
X3777209D01*
X3800000Y-4717615D01*
X3822791Y-4716496D01*
X3844214D01*
X3845008Y-4716167D01*
X3845831Y-4716416D01*
X3867151Y-4714316D01*
X3889942Y-4713197D01*
X3912512Y-4709849D01*
X3933833Y-4707749D01*
X3934592Y-4707344D01*
X3935435Y-4707512D01*
X3956449Y-4703331D01*
X3979018Y-4699984D01*
X4001152Y-4694439D01*
X4022164Y-4690260D01*
X4022878Y-4689782D01*
X4023734Y-4689867D01*
X4044238Y-4683647D01*
X4066370Y-4678103D01*
X4087850Y-4670417D01*
X4108355Y-4664197D01*
X4109019Y-4663652D01*
X4109879D01*
X4129671Y-4655454D01*
X4151156Y-4647766D01*
X4171786Y-4638009D01*
X4191576Y-4629812D01*
X4192184Y-4629204D01*
X4193039Y-4629120D01*
X4211934Y-4619021D01*
X4232561Y-4609265D01*
X4252131Y-4597535D01*
X4271026Y-4587435D01*
X4271572Y-4586770D01*
X4272415Y-4586603D01*
X4290230Y-4574699D01*
X4309800Y-4562969D01*
X4328125Y-4549379D01*
X4345941Y-4537475D01*
X4346418Y-4536760D01*
X4347241Y-4536510D01*
X4363802Y-4522919D01*
X4382129Y-4509326D01*
X4399037Y-4494002D01*
X4415597Y-4480412D01*
X4416002Y-4479654D01*
X4416796Y-4479325D01*
X4431944Y-4464176D01*
X4448852Y-4448852D01*
X4464178Y-4431943D01*
X4479324Y-4416796D01*
X4479653Y-4416002D01*
X4480411Y-4415597D01*
X4494001Y-4399038D01*
X4509326Y-4382129D01*
X4522919Y-4363801D01*
X4536510Y-4347241D01*
X4536759Y-4346419D01*
X4537474Y-4345941D01*
X4549378Y-4328126D01*
X4562969Y-4309800D01*
X4574700Y-4290229D01*
X4586602Y-4272415D01*
X4586770Y-4271572D01*
X4587435Y-4271027D01*
X4597534Y-4252133D01*
X4609265Y-4232561D01*
X4619021Y-4211932D01*
X4629120Y-4193040D01*
X4629204Y-4192184D01*
X4629811Y-4191576D01*
X4638008Y-4171789D01*
X4647766Y-4151156D01*
X4655455Y-4129668D01*
X4663652Y-4109879D01*
Y-4109019D01*
X4664197Y-4108355D01*
X4670415Y-4087857D01*
X4678103Y-4066370D01*
X4683648Y-4044234D01*
X4689866Y-4023734D01*
X4689782Y-4022879D01*
X4690260Y-4022164D01*
X4694438Y-4001156D01*
X4699984Y-3979018D01*
X4703332Y-3956445D01*
X4707511Y-3935435D01*
X4707344Y-3934592D01*
X4707749Y-3933834D01*
X4709849Y-3912515D01*
X4713197Y-3889942D01*
X4714316Y-3867151D01*
X4716416Y-3845831D01*
X4716167Y-3845009D01*
X4716496Y-3844214D01*
Y-3822791D01*
X4717615Y-3800000D01*
X4716496Y-3777209D01*
Y-3755786D01*
X4716167Y-3754992D01*
X4716416Y-3754169D01*
X4714316Y-3732850D01*
X4713197Y-3710058D01*
X4709849Y-3687485D01*
X4707749Y-3666166D01*
X4707344Y-3665408D01*
X4707511Y-3664565D01*
X4703332Y-3643556D01*
X4699984Y-3620982D01*
X4694438Y-3598843D01*
X4690260Y-3577836D01*
X4689782Y-3577122D01*
X4689866Y-3576266D01*
X4683648Y-3555767D01*
X4678103Y-3533630D01*
X4670416Y-3512145D01*
X4664197Y-3491645D01*
X4663652Y-3490981D01*
Y-3490121D01*
X4655456Y-3470334D01*
X4647766Y-3448844D01*
X4638007Y-3428209D01*
X4629811Y-3408424D01*
X4629204Y-3407816D01*
X4629120Y-3406961D01*
X4619023Y-3388070D01*
X4609265Y-3367439D01*
X4597532Y-3347865D01*
X4587435Y-3328974D01*
X4586770Y-3328428D01*
X4586602Y-3327585D01*
X4574701Y-3309774D01*
X4562969Y-3290200D01*
X4549376Y-3271872D01*
X4537474Y-3254060D01*
X4536759Y-3253582D01*
X4536510Y-3252759D01*
X4522921Y-3236201D01*
X4509326Y-3217871D01*
X4493999Y-3200960D01*
X4480411Y-3184403D01*
X4479653Y-3183998D01*
X4479325Y-3183204D01*
X4464179Y-3168058D01*
X4448852Y-3151148D01*
X4431940Y-3135820D01*
X4416796Y-3120676D01*
X4416002Y-3120347D01*
X4415597Y-3119589D01*
X4399040Y-3106001D01*
X4382129Y-3090674D01*
X4363799Y-3077079D01*
X4347241Y-3063490D01*
X4346418Y-3063241D01*
X4345941Y-3062526D01*
X4328128Y-3050624D01*
X4309800Y-3037031D01*
X4290226Y-3025299D01*
X4272415Y-3013398D01*
X4271572Y-3013230D01*
X4271026Y-3012565D01*
X4252135Y-3002468D01*
X4232561Y-2990735D01*
X4211930Y-2980978D01*
X4193039Y-2970881D01*
X4192184Y-2970796D01*
X4191576Y-2970189D01*
X4171791Y-2961993D01*
X4151156Y-2952234D01*
X4129666Y-2944545D01*
X4109879Y-2936348D01*
X4109019D01*
X4108355Y-2935803D01*
X4087858Y-2929586D01*
X4066370Y-2921897D01*
X4044232Y-2916352D01*
X4023734Y-2910134D01*
X4022878Y-2910218D01*
X4022164Y-2909740D01*
X4001157Y-2905562D01*
X3979018Y-2900016D01*
X3956444Y-2896668D01*
X3935435Y-2892489D01*
X3934592Y-2892656D01*
X3933833Y-2892251D01*
X3912515Y-2890152D01*
X3889942Y-2886803D01*
X3867150Y-2885684D01*
X3845831Y-2883584D01*
X3845008Y-2883833D01*
X3844214Y-2883504D01*
X3822791D01*
X3800000Y-2882385D01*
D02*
G37*
G36*
X-3800000D02*
X-3822791Y-2883504D01*
X-3844214D01*
X-3845009Y-2883833D01*
X-3845831Y-2883584D01*
X-3867151Y-2885684D01*
X-3889942Y-2886803D01*
X-3912514Y-2890151D01*
X-3933834Y-2892251D01*
X-3934592Y-2892656D01*
X-3935435Y-2892489D01*
X-3956445Y-2896668D01*
X-3979018Y-2900016D01*
X-4001156Y-2905562D01*
X-4022164Y-2909740D01*
X-4022879Y-2910218D01*
X-4023734Y-2910134D01*
X-4044235Y-2916352D01*
X-4066370Y-2921897D01*
X-4087853Y-2929584D01*
X-4108355Y-2935803D01*
X-4109020Y-2936348D01*
X-4109879D01*
X-4129668Y-2944545D01*
X-4151156Y-2952234D01*
X-4171789Y-2961992D01*
X-4191576Y-2970189D01*
X-4192184Y-2970796D01*
X-4193040Y-2970881D01*
X-4211932Y-2980979D01*
X-4232561Y-2990735D01*
X-4252133Y-3002466D01*
X-4271027Y-3012565D01*
X-4271572Y-3013230D01*
X-4272415Y-3013398D01*
X-4290229Y-3025300D01*
X-4309800Y-3037031D01*
X-4328126Y-3050622D01*
X-4345941Y-3062526D01*
X-4346419Y-3063241D01*
X-4347241Y-3063490D01*
X-4363801Y-3077081D01*
X-4382129Y-3090674D01*
X-4399038Y-3105999D01*
X-4415597Y-3119589D01*
X-4416002Y-3120347D01*
X-4416796Y-3120675D01*
X-4431944Y-3135824D01*
X-4448852Y-3151148D01*
X-4464178Y-3168057D01*
X-4479325Y-3183204D01*
X-4479653Y-3183998D01*
X-4480412Y-3184403D01*
X-4494002Y-3200963D01*
X-4509326Y-3217871D01*
X-4522919Y-3236198D01*
X-4536510Y-3252759D01*
X-4536760Y-3253582D01*
X-4537475Y-3254060D01*
X-4549379Y-3271875D01*
X-4562969Y-3290200D01*
X-4574699Y-3309770D01*
X-4586603Y-3327585D01*
X-4586770Y-3328428D01*
X-4587435Y-3328974D01*
X-4597535Y-3347869D01*
X-4609265Y-3367439D01*
X-4619021Y-3388066D01*
X-4629120Y-3406961D01*
X-4629204Y-3407816D01*
X-4629812Y-3408424D01*
X-4638009Y-3428214D01*
X-4647766Y-3448844D01*
X-4655454Y-3470329D01*
X-4663652Y-3490121D01*
Y-3490981D01*
X-4664197Y-3491645D01*
X-4670416Y-3512146D01*
X-4678103Y-3533630D01*
X-4683647Y-3555763D01*
X-4689867Y-3576266D01*
X-4689782Y-3577122D01*
X-4690260Y-3577836D01*
X-4694439Y-3598848D01*
X-4699984Y-3620982D01*
X-4703331Y-3643551D01*
X-4707512Y-3664565D01*
X-4707344Y-3665408D01*
X-4707749Y-3666167D01*
X-4709849Y-3687488D01*
X-4713197Y-3710058D01*
X-4714316Y-3732849D01*
X-4716416Y-3754169D01*
X-4716167Y-3754992D01*
X-4716496Y-3755786D01*
Y-3777209D01*
X-4717615Y-3800000D01*
X-4716496Y-3822791D01*
Y-3844214D01*
X-4716167Y-3845009D01*
X-4716416Y-3845831D01*
X-4714316Y-3867152D01*
X-4713197Y-3889942D01*
X-4709849Y-3912511D01*
X-4707749Y-3933834D01*
X-4707344Y-3934592D01*
X-4707512Y-3935435D01*
X-4703331Y-3956450D01*
X-4699984Y-3979018D01*
X-4694440Y-4001151D01*
X-4690260Y-4022164D01*
X-4689782Y-4022879D01*
X-4689867Y-4023734D01*
X-4683646Y-4044240D01*
X-4678103Y-4066370D01*
X-4670418Y-4087849D01*
X-4664197Y-4108355D01*
X-4663652Y-4109020D01*
Y-4109879D01*
X-4655453Y-4129673D01*
X-4647766Y-4151156D01*
X-4638010Y-4171785D01*
X-4629812Y-4191576D01*
X-4629204Y-4192184D01*
X-4629120Y-4193040D01*
X-4619019Y-4211936D01*
X-4609265Y-4232561D01*
X-4597536Y-4252129D01*
X-4587435Y-4271027D01*
X-4586770Y-4271572D01*
X-4586603Y-4272415D01*
X-4574697Y-4290233D01*
X-4562969Y-4309800D01*
X-4549380Y-4328122D01*
X-4537475Y-4345941D01*
X-4536760Y-4346419D01*
X-4536510Y-4347241D01*
X-4522917Y-4363805D01*
X-4509326Y-4382129D01*
X-4494004Y-4399035D01*
X-4480412Y-4415597D01*
X-4479654Y-4416002D01*
X-4479325Y-4416796D01*
X-4464174Y-4431947D01*
X-4448852Y-4448852D01*
X-4431946Y-4464175D01*
X-4416796Y-4479325D01*
X-4416002Y-4479653D01*
X-4415597Y-4480412D01*
X-4399035Y-4494004D01*
X-4382129Y-4509326D01*
X-4363805Y-4522917D01*
X-4347241Y-4536510D01*
X-4346419Y-4536760D01*
X-4345941Y-4537475D01*
X-4328122Y-4549380D01*
X-4309800Y-4562969D01*
X-4290233Y-4574697D01*
X-4272415Y-4586603D01*
X-4271572Y-4586770D01*
X-4271027Y-4587435D01*
X-4252129Y-4597536D01*
X-4232561Y-4609265D01*
X-4211936Y-4619019D01*
X-4193040Y-4629120D01*
X-4192184Y-4629204D01*
X-4191576Y-4629812D01*
X-4171785Y-4638010D01*
X-4151156Y-4647766D01*
X-4129673Y-4655453D01*
X-4109879Y-4663652D01*
X-4109019D01*
X-4108355Y-4664197D01*
X-4087852Y-4670417D01*
X-4066370Y-4678103D01*
X-4044239Y-4683647D01*
X-4023734Y-4689867D01*
X-4022879Y-4689782D01*
X-4022164Y-4690260D01*
X-4001151Y-4694440D01*
X-3979018Y-4699984D01*
X-3956450Y-4703331D01*
X-3935435Y-4707512D01*
X-3934592Y-4707344D01*
X-3933834Y-4707749D01*
X-3912511Y-4709849D01*
X-3889942Y-4713197D01*
X-3867151Y-4714316D01*
X-3845831Y-4716416D01*
X-3845009Y-4716167D01*
X-3844214Y-4716496D01*
X-3822791D01*
X-3800000Y-4717615D01*
X-3777209Y-4716496D01*
X-3755786D01*
X-3754992Y-4716167D01*
X-3754169Y-4716416D01*
X-3732849Y-4714316D01*
X-3710058Y-4713197D01*
X-3687488Y-4709849D01*
X-3666167Y-4707749D01*
X-3665408Y-4707344D01*
X-3664565Y-4707512D01*
X-3643551Y-4703331D01*
X-3620982Y-4699984D01*
X-3598848Y-4694439D01*
X-3577836Y-4690260D01*
X-3577122Y-4689782D01*
X-3576266Y-4689867D01*
X-3555762Y-4683647D01*
X-3533630Y-4678103D01*
X-3512150Y-4670417D01*
X-3491645Y-4664197D01*
X-3490981Y-4663652D01*
X-3490121D01*
X-3470329Y-4655454D01*
X-3448844Y-4647766D01*
X-3428214Y-4638009D01*
X-3408424Y-4629812D01*
X-3407816Y-4629204D01*
X-3406961Y-4629120D01*
X-3388066Y-4619021D01*
X-3367439Y-4609265D01*
X-3347869Y-4597535D01*
X-3328974Y-4587435D01*
X-3328428Y-4586770D01*
X-3327585Y-4586603D01*
X-3309770Y-4574699D01*
X-3290200Y-4562969D01*
X-3271875Y-4549379D01*
X-3254060Y-4537475D01*
X-3253582Y-4536760D01*
X-3252759Y-4536510D01*
X-3236198Y-4522919D01*
X-3217871Y-4509326D01*
X-3200963Y-4494002D01*
X-3184403Y-4480412D01*
X-3183998Y-4479654D01*
X-3183204Y-4479325D01*
X-3168056Y-4464176D01*
X-3151148Y-4448852D01*
X-3135822Y-4431943D01*
X-3120676Y-4416796D01*
X-3120347Y-4416002D01*
X-3119589Y-4415597D01*
X-3105999Y-4399038D01*
X-3090674Y-4382129D01*
X-3077081Y-4363801D01*
X-3063490Y-4347241D01*
X-3063241Y-4346419D01*
X-3062526Y-4345941D01*
X-3050622Y-4328126D01*
X-3037031Y-4309800D01*
X-3025300Y-4290229D01*
X-3013398Y-4272415D01*
X-3013230Y-4271572D01*
X-3012565Y-4271027D01*
X-3002466Y-4252133D01*
X-2990735Y-4232561D01*
X-2980979Y-4211932D01*
X-2970881Y-4193040D01*
X-2970796Y-4192184D01*
X-2970189Y-4191576D01*
X-2961992Y-4171789D01*
X-2952234Y-4151156D01*
X-2944545Y-4129668D01*
X-2936348Y-4109879D01*
Y-4109019D01*
X-2935803Y-4108355D01*
X-2929585Y-4087857D01*
X-2921897Y-4066370D01*
X-2916352Y-4044234D01*
X-2910134Y-4023734D01*
X-2910218Y-4022879D01*
X-2909740Y-4022164D01*
X-2905562Y-4001156D01*
X-2900016Y-3979018D01*
X-2896668Y-3956445D01*
X-2892489Y-3935435D01*
X-2892656Y-3934592D01*
X-2892251Y-3933834D01*
X-2890151Y-3912515D01*
X-2886803Y-3889942D01*
X-2885684Y-3867151D01*
X-2883584Y-3845831D01*
X-2883833Y-3845009D01*
X-2883504Y-3844214D01*
Y-3822791D01*
X-2882385Y-3800000D01*
X-2883504Y-3777209D01*
Y-3755786D01*
X-2883833Y-3754992D01*
X-2883584Y-3754169D01*
X-2885684Y-3732850D01*
X-2886803Y-3710058D01*
X-2890151Y-3687485D01*
X-2892251Y-3666166D01*
X-2892656Y-3665408D01*
X-2892489Y-3664565D01*
X-2896668Y-3643556D01*
X-2900016Y-3620982D01*
X-2905562Y-3598843D01*
X-2909740Y-3577836D01*
X-2910218Y-3577122D01*
X-2910134Y-3576266D01*
X-2916352Y-3555767D01*
X-2921897Y-3533630D01*
X-2929584Y-3512145D01*
X-2935803Y-3491645D01*
X-2936348Y-3490981D01*
Y-3490121D01*
X-2944545Y-3470334D01*
X-2952234Y-3448844D01*
X-2961993Y-3428209D01*
X-2970189Y-3408424D01*
X-2970796Y-3407816D01*
X-2970881Y-3406961D01*
X-2980978Y-3388070D01*
X-2990735Y-3367439D01*
X-3002468Y-3347865D01*
X-3012565Y-3328974D01*
X-3013230Y-3328428D01*
X-3013398Y-3327585D01*
X-3025299Y-3309774D01*
X-3037031Y-3290200D01*
X-3050624Y-3271872D01*
X-3062526Y-3254060D01*
X-3063241Y-3253582D01*
X-3063490Y-3252759D01*
X-3077079Y-3236201D01*
X-3090674Y-3217871D01*
X-3106001Y-3200960D01*
X-3119589Y-3184403D01*
X-3120347Y-3183998D01*
X-3120675Y-3183204D01*
X-3135821Y-3168058D01*
X-3151148Y-3151148D01*
X-3168060Y-3135820D01*
X-3183204Y-3120676D01*
X-3183998Y-3120347D01*
X-3184403Y-3119589D01*
X-3200960Y-3106001D01*
X-3217871Y-3090674D01*
X-3236201Y-3077079D01*
X-3252759Y-3063490D01*
X-3253582Y-3063241D01*
X-3254060Y-3062526D01*
X-3271872Y-3050624D01*
X-3290200Y-3037031D01*
X-3309774Y-3025299D01*
X-3327585Y-3013398D01*
X-3328428Y-3013230D01*
X-3328974Y-3012565D01*
X-3347865Y-3002468D01*
X-3367439Y-2990735D01*
X-3388070Y-2980978D01*
X-3406961Y-2970881D01*
X-3407816Y-2970796D01*
X-3408424Y-2970189D01*
X-3428209Y-2961993D01*
X-3448844Y-2952234D01*
X-3470334Y-2944545D01*
X-3490121Y-2936348D01*
X-3490981D01*
X-3491645Y-2935803D01*
X-3512142Y-2929586D01*
X-3533630Y-2921897D01*
X-3555768Y-2916352D01*
X-3576266Y-2910134D01*
X-3577122Y-2910218D01*
X-3577836Y-2909740D01*
X-3598843Y-2905562D01*
X-3620982Y-2900016D01*
X-3643556Y-2896668D01*
X-3664565Y-2892489D01*
X-3665408Y-2892656D01*
X-3666167Y-2892251D01*
X-3687485Y-2890152D01*
X-3710058Y-2886803D01*
X-3732850Y-2885684D01*
X-3754169Y-2883584D01*
X-3754992Y-2883833D01*
X-3755786Y-2883504D01*
X-3777209D01*
X-3800000Y-2882385D01*
D02*
G37*
G36*
X-2694077Y-2787706D02*
X-2716329Y-2790636D01*
X-2737064Y-2799225D01*
X-2754871Y-2812888D01*
X-2768534Y-2830694D01*
X-2777123Y-2851430D01*
X-2780052Y-2873682D01*
X-2777123Y-2895934D01*
X-2768534Y-2916669D01*
X-2754871Y-2934476D01*
X-2737064Y-2948139D01*
X-2716329Y-2956728D01*
X-2694077Y-2959657D01*
X-2671825Y-2956728D01*
X-2651089Y-2948139D01*
X-2633283Y-2934476D01*
X-2619620Y-2916669D01*
X-2611031Y-2895934D01*
X-2608101Y-2873682D01*
X-2611031Y-2851430D01*
X-2619620Y-2830694D01*
X-2633283Y-2812888D01*
X-2651089Y-2799225D01*
X-2671825Y-2790636D01*
X-2694077Y-2787706D01*
D02*
G37*
G36*
X-1336040Y-2811338D02*
X-1357594Y-2815625D01*
X-1375866Y-2827834D01*
X-1388075Y-2846106D01*
X-1392362Y-2867660D01*
X-1388075Y-2889214D01*
X-1375866Y-2907486D01*
X-1357594Y-2919695D01*
X-1336040Y-2923982D01*
X-1314486Y-2919695D01*
X-1296214Y-2907486D01*
X-1290955Y-2899615D01*
X-1184407Y-2921977D01*
X-1182335Y-2932394D01*
X-1170126Y-2950666D01*
X-1151854Y-2962875D01*
X-1130300Y-2967162D01*
X-1108746Y-2962875D01*
X-1090474Y-2950666D01*
X-1078265Y-2932394D01*
X-1073978Y-2910840D01*
X-1078265Y-2889286D01*
X-1090474Y-2871014D01*
X-1108746Y-2858805D01*
X-1130300Y-2854518D01*
X-1151854Y-2858805D01*
X-1170126Y-2871014D01*
X-1175385Y-2878885D01*
X-1281933Y-2856523D01*
X-1284005Y-2846106D01*
X-1296214Y-2827834D01*
X-1314486Y-2815625D01*
X-1336040Y-2811338D01*
D02*
G37*
G36*
X2694077Y-2772960D02*
X2674474Y-2776859D01*
X2657856Y-2787963D01*
X2608359Y-2837461D01*
X2597254Y-2854079D01*
X2593355Y-2873682D01*
X2597254Y-2893285D01*
X2608359Y-2909903D01*
X2657856Y-2959400D01*
X2674474Y-2970504D01*
X2694077Y-2974403D01*
X2713680Y-2970504D01*
X2730298Y-2959400D01*
X2779795Y-2909903D01*
X2790899Y-2893285D01*
X2794798Y-2873682D01*
X2790899Y-2854079D01*
X2779795Y-2837461D01*
X2730298Y-2787963D01*
X2713680Y-2776859D01*
X2694077Y-2772960D01*
D02*
G37*
G36*
X1485347Y-2889765D02*
X1457874Y-2893382D01*
X1432273Y-2903986D01*
X1410290Y-2920855D01*
X1393421Y-2942839D01*
X1382816Y-2968440D01*
X1379199Y-2995913D01*
X1382816Y-3023386D01*
X1393421Y-3048987D01*
X1410290Y-3070971D01*
X1432273Y-3087840D01*
X1457874Y-3098444D01*
X1485347Y-3102061D01*
X1512820Y-3098444D01*
X1538421Y-3087840D01*
X1560405Y-3070971D01*
X1577274Y-3048987D01*
X1587878Y-3023386D01*
X1591495Y-2995913D01*
X1587878Y-2968440D01*
X1577274Y-2942839D01*
X1560405Y-2920855D01*
X1538421Y-2903986D01*
X1512820Y-2893382D01*
X1485347Y-2889765D01*
D02*
G37*
G36*
X246632Y-2833503D02*
X225078Y-2837790D01*
X206806Y-2849999D01*
X194597Y-2868271D01*
X190310Y-2889825D01*
X194597Y-2911379D01*
X206806Y-2929651D01*
X223324Y-2940688D01*
Y-3045909D01*
X206806Y-3056946D01*
X194597Y-3075218D01*
X190310Y-3096772D01*
X194597Y-3118326D01*
X206806Y-3136598D01*
X225078Y-3148807D01*
X246632Y-3153094D01*
X268186Y-3148807D01*
X286458Y-3136598D01*
X298667Y-3118326D01*
X302954Y-3096772D01*
X298667Y-3075218D01*
X286458Y-3056946D01*
X269940Y-3045909D01*
Y-2940688D01*
X286458Y-2929651D01*
X298667Y-2911379D01*
X302954Y-2889825D01*
X298667Y-2868271D01*
X286458Y-2849999D01*
X268186Y-2837790D01*
X246632Y-2833503D01*
D02*
G37*
G36*
X1485347Y-3143765D02*
X1457874Y-3147382D01*
X1432273Y-3157986D01*
X1410290Y-3174855D01*
X1393421Y-3196839D01*
X1382816Y-3222440D01*
X1379199Y-3249913D01*
X1382816Y-3277386D01*
X1393421Y-3302987D01*
X1410290Y-3324971D01*
X1432273Y-3341840D01*
X1457874Y-3352444D01*
X1485347Y-3356061D01*
X1512820Y-3352444D01*
X1538421Y-3341840D01*
X1560405Y-3324971D01*
X1577274Y-3302987D01*
X1587878Y-3277386D01*
X1591495Y-3249913D01*
X1587878Y-3222440D01*
X1577274Y-3196839D01*
X1560405Y-3174855D01*
X1538421Y-3157986D01*
X1512820Y-3147382D01*
X1485347Y-3143765D01*
D02*
G37*
G36*
X-430245Y-3330953D02*
X-451798Y-3335240D01*
X-470071Y-3347449D01*
X-479377Y-3361378D01*
X-756966D01*
X-766273Y-3347449D01*
X-784545Y-3335240D01*
X-806098Y-3330953D01*
X-827652Y-3335240D01*
X-845924Y-3347449D01*
X-858133Y-3365721D01*
X-862421Y-3387275D01*
X-858133Y-3408829D01*
X-845924Y-3427101D01*
X-827652Y-3439310D01*
X-806098Y-3443597D01*
X-784545Y-3439310D01*
X-766273Y-3427101D01*
X-756966Y-3413173D01*
X-479377D01*
X-470071Y-3427101D01*
X-451798Y-3439310D01*
X-430245Y-3443597D01*
X-408691Y-3439310D01*
X-390419Y-3427101D01*
X-378210Y-3408829D01*
X-373923Y-3387275D01*
X-378210Y-3365721D01*
X-390419Y-3347449D01*
X-408691Y-3335240D01*
X-430245Y-3330953D01*
D02*
G37*
G36*
X1485347Y-3651765D02*
X1457874Y-3655382D01*
X1432273Y-3665986D01*
X1410290Y-3682855D01*
X1393421Y-3704839D01*
X1382816Y-3730440D01*
X1379199Y-3757913D01*
X1382816Y-3785386D01*
X1393421Y-3810987D01*
X1410290Y-3832971D01*
X1432273Y-3849840D01*
X1457874Y-3860444D01*
X1485347Y-3864061D01*
X1512820Y-3860444D01*
X1538421Y-3849840D01*
X1560405Y-3832971D01*
X1577274Y-3810987D01*
X1587878Y-3785386D01*
X1591495Y-3757913D01*
X1587878Y-3730440D01*
X1577274Y-3704839D01*
X1560405Y-3682855D01*
X1538421Y-3665986D01*
X1512820Y-3655382D01*
X1485347Y-3651765D01*
D02*
G37*
G36*
X25000Y-3703291D02*
X-25000D01*
X-48557Y-3706393D01*
X-70509Y-3715486D01*
X-89360Y-3729950D01*
X-103825Y-3748801D01*
X-112917Y-3770753D01*
X-116019Y-3794310D01*
X-112917Y-3817867D01*
X-103825Y-3839819D01*
X-89360Y-3858670D01*
X-70509Y-3873134D01*
X-48557Y-3882227D01*
X-25000Y-3885329D01*
X25000D01*
X48557Y-3882227D01*
X70509Y-3873134D01*
X89360Y-3858670D01*
X103825Y-3839819D01*
X112917Y-3817867D01*
X116019Y-3794310D01*
X112917Y-3770753D01*
X103825Y-3748801D01*
X89360Y-3729950D01*
X70509Y-3715486D01*
X48557Y-3706393D01*
X25000Y-3703291D01*
D02*
G37*
G36*
X1557347Y-3906022D02*
X1413347D01*
X1400378Y-3908602D01*
X1389383Y-3915948D01*
X1382036Y-3926944D01*
X1379456Y-3939913D01*
Y-4083913D01*
X1382036Y-4096882D01*
X1389383Y-4107877D01*
X1400378Y-4115224D01*
X1413347Y-4117804D01*
X1557347D01*
X1570317Y-4115224D01*
X1581312Y-4107877D01*
X1588658Y-4096882D01*
X1591238Y-4083913D01*
Y-3939913D01*
X1588658Y-3926944D01*
X1581312Y-3915948D01*
X1570317Y-3908602D01*
X1557347Y-3906022D01*
D02*
G37*
G36*
X250000Y-4477332D02*
X226443Y-4480434D01*
X204491Y-4489526D01*
X185640Y-4503991D01*
X171176Y-4522841D01*
X162083Y-4544794D01*
X158981Y-4568351D01*
Y-4618351D01*
X162083Y-4641908D01*
X171176Y-4663861D01*
X185640Y-4682711D01*
X204491Y-4697176D01*
X226443Y-4706268D01*
X250000Y-4709370D01*
X273557Y-4706268D01*
X295509Y-4697176D01*
X314360Y-4682711D01*
X328824Y-4663861D01*
X337917Y-4641908D01*
X341019Y-4618351D01*
Y-4568351D01*
X337917Y-4544794D01*
X328824Y-4522841D01*
X314360Y-4503991D01*
X295509Y-4489526D01*
X273557Y-4480434D01*
X250000Y-4477332D01*
D02*
G37*
G36*
X0D02*
X-23557Y-4480434D01*
X-45509Y-4489526D01*
X-64360Y-4503991D01*
X-78824Y-4522841D01*
X-87917Y-4544794D01*
X-91019Y-4568351D01*
Y-4618351D01*
X-87917Y-4641908D01*
X-78824Y-4663861D01*
X-64360Y-4682711D01*
X-45509Y-4697176D01*
X-23557Y-4706268D01*
X0Y-4709370D01*
X23557Y-4706268D01*
X45509Y-4697176D01*
X64360Y-4682711D01*
X78824Y-4663861D01*
X87917Y-4641908D01*
X91019Y-4618351D01*
Y-4568351D01*
X87917Y-4544794D01*
X78824Y-4522841D01*
X64360Y-4503991D01*
X45509Y-4489526D01*
X23557Y-4480434D01*
X0Y-4477332D01*
D02*
G37*
G36*
X-250000D02*
X-273557Y-4480434D01*
X-295509Y-4489526D01*
X-314360Y-4503991D01*
X-328824Y-4522841D01*
X-337917Y-4544794D01*
X-341019Y-4568351D01*
Y-4618351D01*
X-337917Y-4641908D01*
X-328824Y-4663861D01*
X-314360Y-4682711D01*
X-295509Y-4697176D01*
X-273557Y-4706268D01*
X-250000Y-4709370D01*
X-226443Y-4706268D01*
X-204491Y-4697176D01*
X-185640Y-4682711D01*
X-171176Y-4663861D01*
X-162083Y-4641908D01*
X-158981Y-4618351D01*
Y-4568351D01*
X-162083Y-4544794D01*
X-171176Y-4522841D01*
X-185640Y-4503991D01*
X-204491Y-4489526D01*
X-226443Y-4480434D01*
X-250000Y-4477332D01*
D02*
G37*
%LPD*%
D10*
X-70206Y-1089351D02*
X384694D01*
X246632Y-3096772D02*
Y-2889825D01*
D11*
X-569102Y-1350374D02*
X-519741Y-1561279D01*
X-1336040Y-2867660D02*
X-1130300Y-2910840D01*
X-1327420Y-2209845D02*
X-1132267Y-2308779D01*
X-907178Y-1790326D02*
X-763494Y-1934010D01*
D12*
X-806098Y-3387275D02*
X-430245D01*
X-2705264Y-2320598D02*
X-2507699Y-2123032D01*
X-1284205Y-899538D02*
X-1086639Y-701973D01*
X-867337Y1252003D02*
X-669771Y1054438D01*
D13*
X1123559Y738893D02*
X1321125Y936458D01*
X1998849Y1772858D02*
X1998849D01*
X2155262Y1616446D01*
X-1769110Y2002597D02*
X-1616446Y2155262D01*
X-1769110Y2002597D02*
Y2002597D01*
D14*
X1485347Y-2995913D02*
D03*
Y-3249913D02*
D03*
Y-3503913D02*
D03*
Y-3757913D02*
D03*
X4211201Y-127000D02*
D03*
Y127000D02*
D03*
Y381000D02*
D03*
X3957201Y-381000D02*
D03*
Y-127000D02*
D03*
Y127000D02*
D03*
Y381000D02*
D03*
D15*
X1485347Y-4011913D02*
D03*
X4211201Y-381000D02*
D03*
D16*
X0Y-3794310D02*
D03*
Y-3540310D02*
D03*
D17*
X-350000Y3800000D02*
D03*
X350000D02*
D03*
D18*
X-250000Y-4593351D02*
D03*
X0D02*
D03*
X250000D02*
D03*
D19*
X-4710139Y-510000D02*
D03*
Y510000D02*
D03*
D20*
X-3690139Y400000D02*
D03*
Y0D02*
D03*
Y-400000D02*
D03*
D21*
X2400000Y-4400000D02*
D03*
X-2400000D02*
D03*
X4400000Y-2400000D02*
D03*
Y2400000D02*
D03*
X-4400000Y-2400000D02*
D03*
Y2400000D02*
D03*
X-2400000Y4400000D02*
D03*
X2400000D02*
D03*
D22*
X2873682Y-2694077D02*
D03*
X2155261Y-1975656D02*
D03*
X1436841Y-1257236D02*
D03*
X718420Y-538816D02*
D03*
X-127000Y0D02*
D03*
X2694077Y2873682D02*
D03*
X1975656Y2155261D02*
D03*
X538816Y718420D02*
D03*
X1257236Y1436841D02*
D03*
X-718420Y538816D02*
D03*
X-2873682Y2694077D02*
D03*
X-2155261Y1975656D02*
D03*
X-1436841Y1257236D02*
D03*
X-2694077Y-2873682D02*
D03*
X-1975656Y-2155261D02*
D03*
X-538816Y-718420D02*
D03*
X-1257236Y-1436841D02*
D03*
D23*
X2694077Y-2873682D02*
D03*
X1975656Y-2155261D02*
D03*
X1257236Y-1436841D02*
D03*
X538816Y-718420D02*
D03*
X-538816Y718420D02*
D03*
X-2694077Y2873682D02*
D03*
X-1975656Y2155261D02*
D03*
X-1257236Y1436841D02*
D03*
D24*
X127000Y0D02*
D03*
D25*
X2873682Y2694077D02*
D03*
X2155261Y1975656D02*
D03*
X718420Y538816D02*
D03*
X1436841Y1257236D02*
D03*
X-2873682Y-2694077D02*
D03*
X-2155261Y-1975656D02*
D03*
X-718420Y-538816D02*
D03*
X-1436841Y-1257236D02*
D03*
D26*
X349267Y-1000946D02*
D03*
X268718Y-896218D02*
D03*
X691919Y-5869D02*
D03*
X568625Y272275D02*
D03*
X463525Y28092D02*
D03*
X228336Y-400532D02*
D03*
X337018Y-1584996D02*
D03*
X-134621Y-1315369D02*
D03*
X-54621Y-1420348D02*
D03*
X25379Y-1525328D02*
D03*
X250465Y-1493753D02*
D03*
X-70206Y-1089351D02*
D03*
X384694D02*
D03*
X246632Y-3096772D02*
D03*
Y-2889825D02*
D03*
X1203753Y-3429666D02*
D03*
X3171574Y1780510D02*
D03*
Y1062089D02*
D03*
Y343668D02*
D03*
Y-374754D02*
D03*
Y-1093175D02*
D03*
Y-1811596D02*
D03*
Y-2530017D02*
D03*
X2453153Y3217352D02*
D03*
Y2498931D02*
D03*
Y1780510D02*
D03*
Y1062089D02*
D03*
Y343668D02*
D03*
Y-374754D02*
D03*
Y-1093175D02*
D03*
Y-1811596D02*
D03*
Y-2530017D02*
D03*
Y-3248439D02*
D03*
X1734731Y3217352D02*
D03*
Y2498931D02*
D03*
Y1780510D02*
D03*
Y1062089D02*
D03*
Y343668D02*
D03*
Y-374754D02*
D03*
Y-1093175D02*
D03*
Y-1811596D02*
D03*
Y-2530017D02*
D03*
Y-3248439D02*
D03*
X1016310Y3217352D02*
D03*
Y2498931D02*
D03*
Y1780510D02*
D03*
Y1062089D02*
D03*
Y343668D02*
D03*
Y-374754D02*
D03*
Y-1093175D02*
D03*
Y-1811596D02*
D03*
Y-2530017D02*
D03*
X297889Y3217352D02*
D03*
Y2498931D02*
D03*
Y1780510D02*
D03*
Y1062089D02*
D03*
Y343668D02*
D03*
Y-3248439D02*
D03*
X-420532Y3217352D02*
D03*
Y2498931D02*
D03*
Y1780510D02*
D03*
Y1062089D02*
D03*
Y343668D02*
D03*
Y-374754D02*
D03*
Y-1093175D02*
D03*
Y-2530017D02*
D03*
Y-3248439D02*
D03*
X-1138954Y3217352D02*
D03*
Y2498931D02*
D03*
Y1780510D02*
D03*
Y1062089D02*
D03*
Y343668D02*
D03*
Y-374754D02*
D03*
Y-1093175D02*
D03*
Y-1811596D02*
D03*
Y-2530017D02*
D03*
Y-3248439D02*
D03*
X-1857375Y3217352D02*
D03*
Y2498931D02*
D03*
Y1780510D02*
D03*
Y1062089D02*
D03*
Y343668D02*
D03*
Y-374754D02*
D03*
Y-1093175D02*
D03*
Y-1811596D02*
D03*
Y-3248439D02*
D03*
X-2575796Y3217352D02*
D03*
Y2498931D02*
D03*
Y1780510D02*
D03*
Y1062089D02*
D03*
Y343668D02*
D03*
Y-374754D02*
D03*
Y-1093175D02*
D03*
Y-1811596D02*
D03*
Y-2530017D02*
D03*
Y-3248439D02*
D03*
X-3294217Y2498931D02*
D03*
Y1780510D02*
D03*
Y1062089D02*
D03*
Y343668D02*
D03*
Y-374754D02*
D03*
Y-1093175D02*
D03*
Y-1811596D02*
D03*
Y-2530017D02*
D03*
X840728Y-3873484D02*
D03*
X933529Y-4001752D02*
D03*
X1026753Y-3873484D02*
D03*
X570468Y-3369702D02*
D03*
X1123529Y-3316106D02*
D03*
X-3052288Y-2387889D02*
D03*
X-569102Y-1350374D02*
D03*
X-519741Y-1561279D02*
D03*
X-884582Y-1049906D02*
D03*
X-1789879Y-2628900D02*
D03*
X-1800063Y-2497275D02*
D03*
X-1336040Y-2867660D02*
D03*
X-1327420Y-2209845D02*
D03*
X-763494Y-1934010D02*
D03*
X-907178Y-1790326D02*
D03*
X-1132267Y-2308779D02*
D03*
X-1232290Y-1723628D02*
D03*
X-409615Y-1421064D02*
D03*
X-308534Y-1337239D02*
D03*
X-906369Y1051472D02*
D03*
X-430245Y-3387275D02*
D03*
X-1130300Y-2910840D02*
D03*
X-806098Y-3387275D02*
D03*
X1123529Y-3543487D02*
D03*
X334926Y-2707709D02*
D03*
X738271Y-2543150D02*
D03*
X654463Y-2644262D02*
D03*
X833856Y-2330516D02*
D03*
X294994Y-2410516D02*
D03*
X528105D02*
D03*
X-298424Y-1850579D02*
D03*
X-526292Y-1850506D02*
D03*
X-2503237Y-3046049D02*
D03*
X302729Y-3718467D02*
D03*
X-2358713Y-3192150D02*
D03*
X-897969Y-1184847D02*
D03*
X-2318857Y-2484498D02*
D03*
X-1230295Y-978052D02*
D03*
X-1099495Y-889291D02*
D03*
X-1009981Y-758490D02*
D03*
X-2829052Y-2827044D02*
D03*
X-260427Y-440032D02*
D03*
X-1535624Y-1715229D02*
D03*
X-1697269Y-1876874D02*
D03*
X-2696852Y-2094028D02*
D03*
X1356634Y848085D02*
D03*
X1301740Y718000D02*
D03*
X1089611Y930900D02*
D03*
X1321125Y936458D02*
D03*
X1231900Y972820D02*
D03*
X1049020Y800100D02*
D03*
X1123559Y738893D02*
D03*
X1170940Y655320D02*
D03*
X-1707150Y2184306D02*
D03*
X-2641840Y-2392530D02*
D03*
X-2435860Y-2186940D02*
D03*
X-2743200Y-2232660D02*
D03*
X-2565400Y-2047240D02*
D03*
X-2510044Y-2319370D02*
D03*
X-1122680Y-612140D02*
D03*
X-1323340Y-810260D02*
D03*
X-1257300Y-685800D02*
D03*
X-1678940Y1971040D02*
D03*
X-1803400Y2092960D02*
D03*
X-1584960Y2065020D02*
D03*
X-934720Y1183640D02*
D03*
X-756920Y1016000D02*
D03*
X-601980Y1122680D02*
D03*
X-624840Y1257300D02*
D03*
X-779780Y1290320D02*
D03*
X2062480Y1572260D02*
D03*
X1955800Y1678940D02*
D03*
X2197100Y1709420D02*
D03*
X2090420Y1818640D02*
D03*
X1998849Y1772858D02*
D03*
X-2705264Y-2320598D02*
D03*
X-1284205Y-899538D02*
D03*
X-1086639Y-701973D02*
D03*
X-867337Y1252003D02*
D03*
X-669771Y1054438D02*
D03*
X-1769110Y2002597D02*
D03*
X2155262Y1616446D02*
D03*
X-1616446Y2155262D02*
D03*
X-2507699Y-2123032D02*
D03*
X698752Y-3275913D02*
D03*
X442484D02*
D03*
%TF.MD5,b4f025e1aa85ba8aca8805ea8ede3e71*%
M02*
