%TF.GenerationSoftware,Altium Limited,Altium Designer,20.1.8 (145)*%
G04 Layer_Color=32768*
%FSLAX45Y45*%
%MOMM*%
%TF.SameCoordinates,71AC3D83-D9DD-4B8C-8FBF-A9C29C1C1930*%
%TF.FilePolarity,Positive*%
%TF.FileFunction,Other,Top_Assembly*%
%TF.Part,Single*%
G01*
G75*
%TA.AperFunction,NonConductor*%
%ADD48C,0.20320*%
%ADD78C,0.20000*%
D48*
X2509164Y-2859751D02*
X2707318Y-3057905D01*
X1790743Y-2141330D02*
X1988898Y-2339485D01*
X1072323Y-1422910D02*
X1270477Y-1621064D01*
X353903Y-704489D02*
X552057Y-902644D01*
X247902Y-140604D02*
Y139628D01*
X2859751Y2509164D02*
X3057905Y2707318D01*
X2141330Y1790743D02*
X2339485Y1988898D01*
X704489Y353903D02*
X902644Y552057D01*
X1422910Y1072323D02*
X1621064Y1270477D01*
X-552057Y902644D02*
X-353903Y704489D01*
X-2707318Y3057905D02*
X-2509164Y2859751D01*
X-1988898Y2339485D02*
X-1790743Y2141330D01*
X-1270477Y1621064D02*
X-1072323Y1422910D01*
X-3057905Y-2707318D02*
X-2859751Y-2509164D01*
X-2339485Y-1988898D02*
X-2141330Y-1790743D01*
X-902644Y-552057D02*
X-704489Y-353903D01*
X-1621064Y-1270477D02*
X-1422910Y-1072323D01*
D78*
X2706929Y-3058294D02*
G03*
X2509164Y-2859751I76951J274415D01*
G01*
X1988508Y-2339874D02*
G03*
X1790744Y-2141330I76951J274415D01*
G01*
X1270088Y-1621453D02*
G03*
X1072323Y-1422910I76951J274415D01*
G01*
X551667Y-903033D02*
G03*
X353903Y-704489I76951J274415D01*
G01*
X248453Y139628D02*
G03*
X247902Y-140604I-248453J-139628D01*
G01*
X3058294Y2706929D02*
G03*
X2859751Y2509164I-274415J76951D01*
G01*
X2339874Y1988508D02*
G03*
X2141330Y1790744I-274415J76951D01*
G01*
X903033Y551667D02*
G03*
X704489Y353903I-274415J76951D01*
G01*
X1621453Y1270088D02*
G03*
X1422910Y1072323I-274415J76951D01*
G01*
X-551667Y903033D02*
G03*
X-353903Y704489I-76951J-274415D01*
G01*
X-2706929Y3058294D02*
G03*
X-2509164Y2859751I-76951J-274415D01*
G01*
X-1988508Y2339874D02*
G03*
X-1790744Y2141330I-76951J-274415D01*
G01*
X-1270088Y1621453D02*
G03*
X-1072323Y1422910I-76951J-274415D01*
G01*
X-3058294Y-2706929D02*
G03*
X-2859751Y-2509164I274415J-76951D01*
G01*
X-2339874Y-1988508D02*
G03*
X-2141330Y-1790744I274415J-76951D01*
G01*
X-903033Y-551667D02*
G03*
X-704489Y-353903I274415J-76951D01*
G01*
X-1621453Y-1270088D02*
G03*
X-1422910Y-1072323I274415J-76951D01*
G01*
%TF.MD5,88b90941054cc7c2fd2eb8dc9f8d0ac9*%
M02*
