M48
;Layer_Color=0
;FILE_FORMAT=4:4
METRIC
;TYPE=PLATED
T1F00S00C0.5000
T2F00S00C0.7500
T4F00S00C0.8000
T5F00S00C0.9500
T6F00S00C1.0000
T7F00S00C3.0000
%
T01
X00030273Y-00371847
X00084073Y-00387348
X00102675Y-00387348
X00093353Y-00400175
X00112353Y-00354349
X00120375Y-00342967
X00112353Y-00331611
X00069875Y-00327591
X00057047Y-00336970
X00044248Y-00327591
X00029789Y-00324844
X00024663Y-00309677
X00024663Y-00288983
X00033493Y-00270771
X00029499Y-00241052
X00052811Y-00241052
X00073827Y-00254315
X00065446Y-00264426
X00101631Y-00253002
X00083386Y-00233052
X00101631Y-00181160
X00173473Y-00181160
X00245315Y-00181160
X00317157Y-00181160
X00317157Y-00109318
X00317157Y-00037475
X00317157Y00034367
X00245315Y00034367
X00245315Y-00037475
X00245315Y-00109318
X00173473Y-00109318
X00173473Y-00037475
X00173473Y00034367
X00101631Y00034367
X00056863Y00027227
X00029789Y00034367
X00046353Y00002809
X00069192Y-00000587
X00101631Y-00037475
X00101631Y-00109318
X00038469Y-00108935
X00034927Y-00100095
X00026872Y-00089622
X-00007021Y-00108935
X-00005462Y-00142035
X00002538Y-00152533
X00025047Y-00149375
X00033702Y-00158500
X00022834Y-00040053
X00173473Y-00253002
X00245315Y-00253002
X00317157Y-00253002
X00245315Y-00324844
X00173473Y-00324844
X-00042053Y-00324844
X-00043025Y-00338727
X-00080610Y-00338727
X-00113895Y-00324844
X-00113030Y-00291084
X-00133604Y-00286766
X-00113895Y-00253002
X-00113227Y-00230878
X-00132742Y-00220984
X-00123229Y-00172363
X-00113895Y-00181160
X-00090718Y-00179033
X-00076349Y-00193401
X-00052629Y-00185051
X-00029842Y-00185058
X-00051974Y-00156128
X-00040961Y-00142106
X-00030853Y-00133724
X-00013462Y-00131537
X-00056910Y-00135037
X-00042053Y-00109318
X-00088458Y-00104991
X-00089797Y-00118485
X-00113895Y-00109318
X-00123029Y-00097805
X-00128420Y-00089954
X-00132334Y-00081026
X-00125730Y-00068580
X-00108664Y-00070197
X-00112268Y-00061214
X-00113895Y-00037475
X-00100998Y-00075849
X-00109950Y-00088929
X-00185737Y-00109318
X-00185737Y-00037475
X-00185737Y00034367
X-00113895Y00034367
X-00042053Y00034367
X-00042053Y-00037475
X-00026043Y-00044003
X-00042053Y-00253002
X-00180006Y-00249727
X-00178988Y-00262890
X-00231886Y-00248450
X-00257580Y-00253002
X-00264184Y-00239253
X-00270526Y-00232060
X-00274320Y-00223266
X-00269685Y-00209403
X-00256540Y-00204724
X-00250770Y-00212303
X-00243586Y-00218694
X-00251004Y-00231937
X-00257580Y-00181160
X-00185737Y-00181160
X-00169727Y-00187687
X-00153562Y-00171523
X-00257580Y-00109318
X-00257580Y-00037475
X-00257580Y00034367
X-00329422Y00034367
X-00329422Y-00037475
X-00329422Y-00109318
X-00329422Y-00181160
X-00329422Y-00253002
X-00305229Y-00238789
X-00282905Y-00282704
X-00250324Y-00304605
X-00257580Y-00324844
X-00235871Y-00319215
X-00185737Y-00324844
X-00185737Y00106209
X-00113895Y00106209
X-00090637Y00105147
X-00093472Y00118364
X-00086734Y00125200
X-00077978Y00129032
X-00062484Y00125730
X-00060198Y00112268
X-00066977Y00105444
X-00075692Y00101600
X-00042053Y00106209
X-00042053Y00178051
X-00042053Y00249893
X-00042053Y00321735
X-00113895Y00321735
X-00113895Y00249893
X-00113895Y00178051
X-00185737Y00178051
X-00176911Y00200260
X-00167894Y00197104
X-00158496Y00206502
X-00161645Y00215526
X-00170715Y00218431
X-00180340Y00209296
X-00185737Y00249893
X-00185737Y00321735
X-00257580Y00321735
X-00257580Y00249893
X-00257580Y00178051
X-00257580Y00106209
X-00329422Y00106209
X-00329422Y00178051
X-00329422Y00249893
X00029789Y00249893
X00101631Y00249893
X00173473Y00249893
X00245315Y00249893
X00245315Y00321735
X00173473Y00321735
X00101631Y00321735
X00029789Y00321735
X00029789Y00178051
X00101631Y00178051
X00173473Y00178051
X00199885Y00177286
X00195580Y00167894
X00206248Y00157226
X00215526Y00161645
X00219710Y00170942
X00209042Y00181864
X00245315Y00178051
X00317157Y00178051
X00317157Y00106209
X00245315Y00106209
X00173473Y00106209
X00132113Y00093646
X00135663Y00084809
X00130174Y00071800
X00117094Y00065532
X00112356Y00073889
X00104902Y00080010
X00108961Y00093090
X00123190Y00097282
X00101631Y00106209
X00029789Y00106209
T02
X00269408Y-00287368
X00287368Y-00269408
X00215526Y-00197566
X00197566Y-00215526
X00143684Y-00125724
X00125724Y-00143684
X00071842Y-00053882
X00053882Y-00071842
X00012700Y00000000
X-00012700Y00000000
X-00053882Y-00071842
X-00071842Y-00053882
X-00125724Y-00143684
X-00143684Y-00125724
X-00197566Y-00215526
X-00215526Y-00197566
X-00269408Y-00287368
X-00287368Y-00269408
X-00071842Y00053882
X-00053882Y00071842
X-00125724Y00143684
X-00143684Y00125724
X-00197566Y00215526
X-00215526Y00197566
X-00269408Y00287368
X-00287368Y00269408
X00197566Y00215526
X00215526Y00197566
X00269408Y00287368
X00287368Y00269408
X00125724Y00143684
X00143684Y00125724
X00053882Y00071842
X00071842Y00053882
T04
X-00025000Y-00459335
X00000000Y-00459335
X00025000Y-00459335
X-00369014Y-00040000
X-00369014Y00000000
X-00369014Y00040000
T05
X00148535Y-00401191
X00148535Y-00375791
X00395720Y-00038100
X00421120Y-00038100
X00421120Y-00012700
X00421120Y00012700
X00421120Y00038100
X00395720Y00038100
X00395720Y00012700
X00395720Y-00012700
X00148535Y-00299591
X00148535Y-00324991
X00148535Y-00350391
T06
X00000000Y-00379431
X00000000Y-00354031
X-00035000Y00380000
X00035000Y00380000
T07
X-00240000Y-00440000
X00240000Y-00440000
X00440000Y-00240000
X-00440000Y-00240000
X-00440000Y00240000
X-00240000Y00440000
X00240000Y00440000
X00440000Y00240000
M30
