%TF.GenerationSoftware,Altium Limited,Altium Designer,20.1.8 (145)*%
G04 Layer_Color=32768*
%FSLAX45Y45*%
%MOMM*%
%TF.SameCoordinates,5961E689-EF10-4C47-967A-3E799B42680D*%
%TF.FilePolarity,Positive*%
%TF.FileFunction,Other,Bottom_Assembly*%
%TF.Part,Single*%
G01*
G75*
%TA.AperFunction,NonConductor*%
%ADD80C,0.10000*%
D80*
X309979Y-2390516D02*
G03*
X309979Y-2390516I-50000J0D01*
G01*
X1183929Y-3287817D02*
G03*
X1183929Y-3287817I-50000J0D01*
G01*
X-443254Y-1580664D02*
X-283253D01*
X-443254Y-1500664D02*
X-283253D01*
X-443254Y-1580664D02*
Y-1500664D01*
X-283253Y-1580664D02*
Y-1500664D01*
X97978Y-2667709D02*
X257979D01*
X97978Y-2747709D02*
X257979D01*
Y-2667709D01*
X97978Y-2747709D02*
Y-2667709D01*
X476969Y-2503016D02*
X636970D01*
X476969Y-2583015D02*
X636970D01*
Y-2503016D01*
X476969Y-2583015D02*
Y-2503016D01*
X-350021Y-2480516D02*
X349979D01*
X-350021Y-1780516D02*
X349979D01*
Y-2480516D02*
Y-1780516D01*
X-350021Y-2480516D02*
Y-1780516D01*
X-47521Y-2815167D02*
X112480D01*
X-47521Y-2895167D02*
Y-2815167D01*
X112480Y-2895167D02*
Y-2815167D01*
X-47521Y-2895167D02*
X112480D01*
X597989Y-2290516D02*
X757989D01*
X597989Y-2370516D02*
Y-2290516D01*
X757989Y-2370516D02*
Y-2290516D01*
X597989Y-2370516D02*
X757989D01*
X753849Y-3939807D02*
X933849D01*
X753849Y-3599808D02*
X933849D01*
Y-3939807D02*
Y-3599808D01*
X753849Y-3939807D02*
Y-3599808D01*
X528271Y-3930807D02*
X688271Y-3930808D01*
X528271Y-3610808D02*
X688271D01*
Y-3930808D02*
Y-3610808D01*
X528271Y-3930807D02*
Y-3610808D01*
X768929Y-3382817D02*
Y-3122817D01*
X1228929Y-3382817D02*
Y-3122817D01*
X768929D02*
X1228929D01*
X768929Y-3382817D02*
X1228929D01*
X363271Y-4068611D02*
X663271D01*
X363271Y-4208611D02*
X663271D01*
X363271D02*
Y-4068611D01*
X663271Y-4208611D02*
Y-4068611D01*
X-2493258Y-2927422D02*
X-2281127Y-2715290D01*
X-2592253Y-2828427D02*
X-2380121Y-2616295D01*
X-2281127Y-2715290D01*
X-2592253Y-2828427D02*
X-2493258Y-2927422D01*
X-2134048Y-2568212D02*
X-1921916Y-2356080D01*
X-2233043Y-2469217D02*
X-2020911Y-2257085D01*
X-1921916Y-2356080D01*
X-2233043Y-2469217D02*
X-2134048Y-2568212D01*
X-1056417Y-1490581D02*
X-844286Y-1278449D01*
X-1155412Y-1391586D02*
X-943281Y-1179454D01*
X-844286Y-1278449D01*
X-1155412Y-1391586D02*
X-1056417Y-1490581D01*
X-697207Y-1131371D02*
X-485075Y-919239D01*
X-796202Y-1032376D02*
X-584070Y-820244D01*
X-485075Y-919239D01*
X-796202Y-1032376D02*
X-697207Y-1131371D01*
X-650538Y819537D02*
X-537401Y932674D01*
X-593970Y989243D02*
X-537401Y932674D01*
X-707107Y876105D02*
X-650538Y819537D01*
X-707107Y876105D02*
X-593970Y989243D01*
X-1156120Y1325118D02*
X-1042982Y1438255D01*
X-1156120Y1325118D02*
X-1099551Y1268550D01*
X-1042982Y1438255D02*
X-986414Y1381687D01*
X-1099551Y1268550D02*
X-986414Y1381687D01*
X-2087379Y2256378D02*
X-1974242Y2369515D01*
X-2030811Y2426084D02*
X-1974242Y2369515D01*
X-2143948Y2312946D02*
X-2087379Y2256378D01*
X-2143948Y2312946D02*
X-2030811Y2426084D01*
X-2592961Y2761959D02*
X-2479824Y2875096D01*
X-2592961Y2761959D02*
X-2536392Y2705391D01*
X-2479824Y2875096D02*
X-2423255Y2818528D01*
X-2536392Y2705391D02*
X-2423255Y2818528D01*
X819537Y650538D02*
X932674Y537401D01*
X989243Y593970D01*
X819537Y650538D02*
X876105Y707107D01*
X989243Y593970D01*
X1325118Y1156120D02*
X1438255Y1042982D01*
X1268550Y1099551D02*
X1325118Y1156120D01*
X1381687Y986414D02*
X1438255Y1042982D01*
X1268550Y1099551D02*
X1381687Y986414D01*
X2256378Y2087379D02*
X2369515Y1974242D01*
X2426084Y2030811D01*
X2256378Y2087379D02*
X2312946Y2143948D01*
X2426084Y2030811D01*
X2761959Y2592961D02*
X2875096Y2479824D01*
X2705391Y2536392D02*
X2761959Y2592961D01*
X2818528Y2423255D02*
X2875096Y2479824D01*
X2705391Y2536392D02*
X2818528Y2423255D01*
X537401Y-932674D02*
X650538Y-819537D01*
X537401Y-932674D02*
X593970Y-989243D01*
X650538Y-819537D02*
X707107Y-876105D01*
X593970Y-989243D02*
X707107Y-876105D01*
X1042982Y-1438255D02*
X1156120Y-1325118D01*
X1099551Y-1268550D02*
X1156120Y-1325118D01*
X986414Y-1381687D02*
X1042982Y-1438255D01*
X986414Y-1381687D02*
X1099551Y-1268550D01*
X2423255Y-2818528D02*
X2536392Y-2705391D01*
X2423255Y-2818528D02*
X2479824Y-2875096D01*
X2536392Y-2705391D02*
X2592961Y-2761959D01*
X2479824Y-2875096D02*
X2592961Y-2761959D01*
X-989243Y-593970D02*
X-876105Y-707107D01*
X-819537Y-650538D01*
X-989243Y-593970D02*
X-932674Y-537401D01*
X-819537Y-650538D01*
X-1381687Y-986414D02*
X-1268550Y-1099551D01*
X-1438255Y-1042982D02*
X-1381687Y-986414D01*
X-1325118Y-1156120D02*
X-1268550Y-1099551D01*
X-1438255Y-1042982D02*
X-1325118Y-1156120D01*
X-2426084Y-2030811D02*
X-2312946Y-2143948D01*
X-2256378Y-2087379D01*
X-2426084Y-2030811D02*
X-2369515Y-1974242D01*
X-2256378Y-2087379D01*
X-2818528Y-2423255D02*
X-2705391Y-2536392D01*
X-2875096Y-2479824D02*
X-2818528Y-2423255D01*
X-2761959Y-2592961D02*
X-2705391Y-2536392D01*
X-2875096Y-2479824D02*
X-2761959Y-2592961D01*
X167000Y-368400D02*
Y-208400D01*
X87000D02*
X167000D01*
X87000Y-368400D02*
X167000D01*
X87000D02*
Y-208400D01*
X1704835Y-2100107D02*
X1817972Y-1986970D01*
X1704835Y-2100107D02*
X1761403Y-2156676D01*
X1817972Y-1986970D02*
X1874540Y-2043539D01*
X1761403Y-2156676D02*
X1874540Y-2043539D01*
X-399091Y-635265D02*
X-285954Y-522128D01*
X-342523Y-465559D02*
X-285954Y-522128D01*
X-455660Y-578696D02*
X-399091Y-635265D01*
X-455660Y-578696D02*
X-342523Y-465559D01*
X-1453529Y-1689702D02*
X-1340392Y-1576565D01*
X-1396961Y-1519997D02*
X-1340392Y-1576565D01*
X-1510098Y-1633134D02*
X-1453529Y-1689702D01*
X-1510098Y-1633134D02*
X-1396961Y-1519997D01*
X-1835932Y-2072106D02*
X-1722795Y-1958969D01*
X-1779363Y-1902400D02*
X-1722795Y-1958969D01*
X-1892501Y-2015537D02*
X-1835932Y-2072106D01*
X-1892501Y-2015537D02*
X-1779363Y-1902400D01*
X-2679793Y-3118766D02*
X-2566656Y-3231903D01*
X-2736361Y-3175335D02*
X-2679793Y-3118766D01*
X-2623224Y-3288472D02*
X-2566656Y-3231903D01*
X-2736361Y-3175335D02*
X-2623224Y-3288472D01*
X378271Y-3745597D02*
X378271Y-3905597D01*
X458271D01*
X378271Y-3745597D02*
X458271D01*
X458271Y-3905597D02*
X458271Y-3745597D01*
X720696Y-3295913D02*
Y-2975913D01*
X560696Y-3295913D02*
Y-2975913D01*
Y-3295913D02*
X720696D01*
X560696Y-2975913D02*
X720696D01*
X-2268787Y-2613781D02*
X-2212219Y-2557213D01*
X-2155650Y-2726918D02*
X-2099082Y-2670350D01*
X-2268787Y-2613781D02*
X-2155650Y-2726918D01*
X-2212219Y-2557213D02*
X-2099082Y-2670350D01*
X-1278187Y-1623181D02*
X-1221619Y-1566613D01*
X-1165050Y-1736318D02*
X-1108482Y-1679750D01*
X-1278187Y-1623181D02*
X-1165050Y-1736318D01*
X-1221619Y-1566613D02*
X-1108482Y-1679750D01*
X-833687Y-1178681D02*
X-777119Y-1122113D01*
X-720550Y-1291818D02*
X-663982Y-1235250D01*
X-833687Y-1178681D02*
X-720550Y-1291818D01*
X-777119Y-1122113D02*
X-663982Y-1235250D01*
X-2558454Y-3038579D02*
X-2501885Y-2982011D01*
X-2445316Y-3151716D02*
X-2388748Y-3095148D01*
X-2558454Y-3038579D02*
X-2445316Y-3151716D01*
X-2501885Y-2982011D02*
X-2388748Y-3095148D01*
%TF.MD5,2a1ddaae14968cc1ac0cb2956d27c2eb*%
M02*
