%TF.GenerationSoftware,Altium Limited,Altium Designer,20.1.8 (145)*%
G04 Layer_Color=128*
%FSLAX45Y45*%
%MOMM*%
%TF.SameCoordinates,5961E689-EF10-4C47-967A-3E799B42680D*%
%TF.FilePolarity,Positive*%
%TF.FileFunction,Paste,Bot*%
%TF.Part,Single*%
G01*
G75*
%TA.AperFunction,SMDPad,CuDef*%
G04:AMPARAMS|DCode=10|XSize=1.25mm|YSize=3mm|CornerRadius=0.625mm|HoleSize=0mm|Usage=FLASHONLY|Rotation=0.000|XOffset=0mm|YOffset=0mm|HoleType=Round|Shape=RoundedRectangle|*
%AMROUNDEDRECTD10*
21,1,1.25000,1.75000,0,0,0.0*
21,1,0.00000,3.00000,0,0,0.0*
1,1,1.25000,0.00000,-0.87500*
1,1,1.25000,0.00000,-0.87500*
1,1,1.25000,0.00000,0.87500*
1,1,1.25000,0.00000,0.87500*
%
%ADD10ROUNDEDRECTD10*%
G04:AMPARAMS|DCode=29|XSize=0.95mm|YSize=0.6mm|CornerRadius=0.003mm|HoleSize=0mm|Usage=FLASHONLY|Rotation=270.000|XOffset=0mm|YOffset=0mm|HoleType=Round|Shape=RoundedRectangle|*
%AMROUNDEDRECTD29*
21,1,0.95000,0.59400,0,0,270.0*
21,1,0.94400,0.60000,0,0,270.0*
1,1,0.00600,-0.29700,-0.47200*
1,1,0.00600,-0.29700,0.47200*
1,1,0.00600,0.29700,0.47200*
1,1,0.00600,0.29700,-0.47200*
%
%ADD29ROUNDEDRECTD29*%
%ADD30O,0.50000X1.25000*%
%ADD31O,1.25000X0.50000*%
G04:AMPARAMS|DCode=32|XSize=0.95mm|YSize=0.55mm|CornerRadius=0.00275mm|HoleSize=0mm|Usage=FLASHONLY|Rotation=90.000|XOffset=0mm|YOffset=0mm|HoleType=Round|Shape=RoundedRectangle|*
%AMROUNDEDRECTD32*
21,1,0.95000,0.54450,0,0,90.0*
21,1,0.94450,0.55000,0,0,90.0*
1,1,0.00550,0.27225,0.47225*
1,1,0.00550,0.27225,-0.47225*
1,1,0.00550,-0.27225,-0.47225*
1,1,0.00550,-0.27225,0.47225*
%
%ADD32ROUNDEDRECTD32*%
G04:AMPARAMS|DCode=33|XSize=1.9mm|YSize=0.9mm|CornerRadius=0.0045mm|HoleSize=0mm|Usage=FLASHONLY|Rotation=0.000|XOffset=0mm|YOffset=0mm|HoleType=Round|Shape=RoundedRectangle|*
%AMROUNDEDRECTD33*
21,1,1.90000,0.89100,0,0,0.0*
21,1,1.89100,0.90000,0,0,0.0*
1,1,0.00900,0.94550,-0.44550*
1,1,0.00900,-0.94550,-0.44550*
1,1,0.00900,-0.94550,0.44550*
1,1,0.00900,0.94550,0.44550*
%
%ADD33ROUNDEDRECTD33*%
G04:AMPARAMS|DCode=34|XSize=1.65mm|YSize=0.95mm|CornerRadius=0.00475mm|HoleSize=0mm|Usage=FLASHONLY|Rotation=180.000|XOffset=0mm|YOffset=0mm|HoleType=Round|Shape=RoundedRectangle|*
%AMROUNDEDRECTD34*
21,1,1.65000,0.94050,0,0,180.0*
21,1,1.64050,0.95000,0,0,180.0*
1,1,0.00950,-0.82025,0.47025*
1,1,0.00950,0.82025,0.47025*
1,1,0.00950,0.82025,-0.47025*
1,1,0.00950,-0.82025,-0.47025*
%
%ADD34ROUNDEDRECTD34*%
G04:AMPARAMS|DCode=35|XSize=0.5mm|YSize=1.2mm|CornerRadius=0.0025mm|HoleSize=0mm|Usage=FLASHONLY|Rotation=0.000|XOffset=0mm|YOffset=0mm|HoleType=Round|Shape=RoundedRectangle|*
%AMROUNDEDRECTD35*
21,1,0.50000,1.19500,0,0,0.0*
21,1,0.49500,1.20000,0,0,0.0*
1,1,0.00500,0.24750,-0.59750*
1,1,0.00500,-0.24750,-0.59750*
1,1,0.00500,-0.24750,0.59750*
1,1,0.00500,0.24750,0.59750*
%
%ADD35ROUNDEDRECTD35*%
G04:AMPARAMS|DCode=36|XSize=0.6mm|YSize=0.8mm|CornerRadius=0.003mm|HoleSize=0mm|Usage=FLASHONLY|Rotation=180.000|XOffset=0mm|YOffset=0mm|HoleType=Round|Shape=RoundedRectangle|*
%AMROUNDEDRECTD36*
21,1,0.60000,0.79400,0,0,180.0*
21,1,0.59400,0.80000,0,0,180.0*
1,1,0.00600,-0.29700,0.39700*
1,1,0.00600,0.29700,0.39700*
1,1,0.00600,0.29700,-0.39700*
1,1,0.00600,-0.29700,-0.39700*
%
%ADD36ROUNDEDRECTD36*%
G04:AMPARAMS|DCode=37|XSize=0.6mm|YSize=0.8mm|CornerRadius=0.003mm|HoleSize=0mm|Usage=FLASHONLY|Rotation=45.000|XOffset=0mm|YOffset=0mm|HoleType=Round|Shape=RoundedRectangle|*
%AMROUNDEDRECTD37*
21,1,0.60000,0.79400,0,0,45.0*
21,1,0.59400,0.80000,0,0,45.0*
1,1,0.00600,0.49073,-0.07071*
1,1,0.00600,0.07071,-0.49073*
1,1,0.00600,-0.49073,0.07071*
1,1,0.00600,-0.07071,0.49073*
%
%ADD37ROUNDEDRECTD37*%
G04:AMPARAMS|DCode=38|XSize=0.95mm|YSize=0.55mm|CornerRadius=0.00275mm|HoleSize=0mm|Usage=FLASHONLY|Rotation=135.000|XOffset=0mm|YOffset=0mm|HoleType=Round|Shape=RoundedRectangle|*
%AMROUNDEDRECTD38*
21,1,0.95000,0.54450,0,0,135.0*
21,1,0.94450,0.55000,0,0,135.0*
1,1,0.00550,-0.14142,0.52644*
1,1,0.00550,0.52644,-0.14142*
1,1,0.00550,0.14142,-0.52644*
1,1,0.00550,-0.52644,0.14142*
%
%ADD38ROUNDEDRECTD38*%
G04:AMPARAMS|DCode=39|XSize=0.95mm|YSize=0.55mm|CornerRadius=0.00275mm|HoleSize=0mm|Usage=FLASHONLY|Rotation=45.000|XOffset=0mm|YOffset=0mm|HoleType=Round|Shape=RoundedRectangle|*
%AMROUNDEDRECTD39*
21,1,0.95000,0.54450,0,0,45.0*
21,1,0.94450,0.55000,0,0,45.0*
1,1,0.00550,0.52644,0.14142*
1,1,0.00550,-0.14142,-0.52644*
1,1,0.00550,-0.52644,-0.14142*
1,1,0.00550,0.14142,0.52644*
%
%ADD39ROUNDEDRECTD39*%
G04:AMPARAMS|DCode=40|XSize=0.95mm|YSize=0.55mm|CornerRadius=0.00275mm|HoleSize=0mm|Usage=FLASHONLY|Rotation=0.000|XOffset=0mm|YOffset=0mm|HoleType=Round|Shape=RoundedRectangle|*
%AMROUNDEDRECTD40*
21,1,0.95000,0.54450,0,0,0.0*
21,1,0.94450,0.55000,0,0,0.0*
1,1,0.00550,0.47225,-0.27225*
1,1,0.00550,-0.47225,-0.27225*
1,1,0.00550,-0.47225,0.27225*
1,1,0.00550,0.47225,0.27225*
%
%ADD40ROUNDEDRECTD40*%
G04:AMPARAMS|DCode=41|XSize=0.95mm|YSize=0.6mm|CornerRadius=0.003mm|HoleSize=0mm|Usage=FLASHONLY|Rotation=45.000|XOffset=0mm|YOffset=0mm|HoleType=Round|Shape=RoundedRectangle|*
%AMROUNDEDRECTD41*
21,1,0.95000,0.59400,0,0,45.0*
21,1,0.94400,0.60000,0,0,45.0*
1,1,0.00600,0.54377,0.12374*
1,1,0.00600,-0.12374,-0.54377*
1,1,0.00600,-0.54377,-0.12374*
1,1,0.00600,0.12374,0.54377*
%
%ADD41ROUNDEDRECTD41*%
G36*
X1078929Y-3140067D02*
Y-3350067D01*
X1023300Y-3405696D01*
X974558D01*
X918929Y-3350067D01*
Y-3140067D01*
X973929Y-3085067D01*
X1023929D01*
X1078929Y-3140067D01*
D02*
G37*
D10*
X1760929Y-4513351D02*
D03*
X1506929D02*
D03*
X1252929D02*
D03*
X998929D02*
D03*
D29*
X-290754Y-1540664D02*
D03*
X-435754D02*
D03*
X105479Y-2707709D02*
D03*
X250479D02*
D03*
X484469Y-2543015D02*
D03*
X629469D02*
D03*
D30*
X279979Y-2543016D02*
D03*
X199979D02*
D03*
X119979D02*
D03*
X39979D02*
D03*
X-40021D02*
D03*
X-120021D02*
D03*
X-200021D02*
D03*
X-280021D02*
D03*
Y-1718016D02*
D03*
X-200021D02*
D03*
X-120021D02*
D03*
X-40021D02*
D03*
X39979D02*
D03*
X119979D02*
D03*
X199979D02*
D03*
X279979D02*
D03*
D31*
X-412521Y-2410516D02*
D03*
Y-2330516D02*
D03*
Y-2250516D02*
D03*
Y-2170516D02*
D03*
Y-2090516D02*
D03*
Y-2010516D02*
D03*
Y-1930516D02*
D03*
Y-1850516D02*
D03*
X412479D02*
D03*
Y-1930516D02*
D03*
Y-2010516D02*
D03*
Y-2090516D02*
D03*
Y-2170516D02*
D03*
Y-2250516D02*
D03*
Y-2330516D02*
D03*
Y-2410516D02*
D03*
D32*
X104979Y-2855167D02*
D03*
X-40020D02*
D03*
X750489Y-2330516D02*
D03*
X605489D02*
D03*
D33*
X843849Y-3910808D02*
D03*
Y-3628808D02*
D03*
D34*
X608271Y-3630807D02*
D03*
Y-3910808D02*
D03*
X640696Y-2995913D02*
D03*
Y-3275913D02*
D03*
D35*
X848929Y-3455066D02*
D03*
X998929Y-3455067D02*
D03*
X1148929Y-3455066D02*
D03*
D36*
X418271Y-4028611D02*
D03*
X608271D02*
D03*
X513271Y-4248611D02*
D03*
D37*
X-2291733Y-2782465D02*
D03*
X-2426083Y-2916815D02*
D03*
X-2514472Y-2694077D02*
D03*
X-1932523Y-2423255D02*
D03*
X-2066873Y-2557605D02*
D03*
X-2155262Y-2334867D02*
D03*
X-854892Y-1345624D02*
D03*
X-989242Y-1479974D02*
D03*
X-1077631Y-1257236D02*
D03*
X-495682Y-986414D02*
D03*
X-630032Y-1120764D02*
D03*
X-718420Y-898026D02*
D03*
D38*
X-673519Y853124D02*
D03*
X-570988Y955655D02*
D03*
X-1020001Y1404668D02*
D03*
X-1122532Y1302137D02*
D03*
X-2110360Y2289965D02*
D03*
X-2007830Y2392496D02*
D03*
X-2456842Y2841509D02*
D03*
X-2559373Y2738978D02*
D03*
X673519Y-853124D02*
D03*
X570988Y-955655D02*
D03*
X1020001Y-1404668D02*
D03*
X1122532Y-1302137D02*
D03*
X2559373Y-2738978D02*
D03*
X2456842Y-2841509D02*
D03*
X1840953Y-2020558D02*
D03*
X1738422Y-2123088D02*
D03*
X-422072Y-601677D02*
D03*
X-319542Y-499147D02*
D03*
X-1476510Y-1656115D02*
D03*
X-1373979Y-1553584D02*
D03*
X-1858913Y-2038518D02*
D03*
X-1756383Y-1935987D02*
D03*
D39*
X853124Y673519D02*
D03*
X955655Y570988D02*
D03*
X1404668Y1020001D02*
D03*
X1302137Y1122532D02*
D03*
X2289965Y2110360D02*
D03*
X2392496Y2007830D02*
D03*
X2841509Y2456842D02*
D03*
X2738978Y2559373D02*
D03*
X-955655Y-570988D02*
D03*
X-853124Y-673519D02*
D03*
X-1302137Y-1122532D02*
D03*
X-1404668Y-1020001D02*
D03*
X-2392496Y-2007830D02*
D03*
X-2289965Y-2110360D02*
D03*
X-2738978Y-2559373D02*
D03*
X-2841509Y-2456842D02*
D03*
X-2600243Y-3254884D02*
D03*
X-2702774Y-3152354D02*
D03*
D40*
X127000Y-360900D02*
D03*
Y-215900D02*
D03*
X418271Y-3753097D02*
D03*
Y-3898097D02*
D03*
D41*
X-2132669Y-2693331D02*
D03*
X-2235200Y-2590800D02*
D03*
X-1142069Y-1702731D02*
D03*
X-1244600Y-1600200D02*
D03*
X-697569Y-1258231D02*
D03*
X-800100Y-1155700D02*
D03*
X-2422336Y-3118129D02*
D03*
X-2524866Y-3015598D02*
D03*
%TF.MD5,76554823e5102090df8629b9e249ecbf*%
M02*
