%TF.GenerationSoftware,Altium Limited,Altium Designer,20.1.8 (145)*%
G04 Layer_Color=16711935*
%FSLAX45Y45*%
%MOMM*%
%TF.SameCoordinates,5961E689-EF10-4C47-967A-3E799B42680D*%
%TF.FilePolarity,Negative*%
%TF.FileFunction,Soldermask,Bot*%
%TF.Part,Single*%
G01*
G75*
%TA.AperFunction,ComponentPad*%
%ADD14C,1.50000*%
%TA.AperFunction,SMDPad,CuDef*%
G04:AMPARAMS|DCode=51|XSize=1.05mm|YSize=0.7mm|CornerRadius=0.053mm|HoleSize=0mm|Usage=FLASHONLY|Rotation=270.000|XOffset=0mm|YOffset=0mm|HoleType=Round|Shape=RoundedRectangle|*
%AMROUNDEDRECTD51*
21,1,1.05000,0.59400,0,0,270.0*
21,1,0.94400,0.70000,0,0,270.0*
1,1,0.10600,-0.29700,-0.47200*
1,1,0.10600,-0.29700,0.47200*
1,1,0.10600,0.29700,0.47200*
1,1,0.10600,0.29700,-0.47200*
%
%ADD51ROUNDEDRECTD51*%
%ADD52O,0.60000X1.35000*%
%ADD53O,1.35000X0.60000*%
G04:AMPARAMS|DCode=54|XSize=1.05mm|YSize=0.65mm|CornerRadius=0.05275mm|HoleSize=0mm|Usage=FLASHONLY|Rotation=90.000|XOffset=0mm|YOffset=0mm|HoleType=Round|Shape=RoundedRectangle|*
%AMROUNDEDRECTD54*
21,1,1.05000,0.54450,0,0,90.0*
21,1,0.94450,0.65000,0,0,90.0*
1,1,0.10550,0.27225,0.47225*
1,1,0.10550,0.27225,-0.47225*
1,1,0.10550,-0.27225,-0.47225*
1,1,0.10550,-0.27225,0.47225*
%
%ADD54ROUNDEDRECTD54*%
G04:AMPARAMS|DCode=55|XSize=2mm|YSize=1mm|CornerRadius=0.0545mm|HoleSize=0mm|Usage=FLASHONLY|Rotation=0.000|XOffset=0mm|YOffset=0mm|HoleType=Round|Shape=RoundedRectangle|*
%AMROUNDEDRECTD55*
21,1,2.00000,0.89100,0,0,0.0*
21,1,1.89100,1.00000,0,0,0.0*
1,1,0.10900,0.94550,-0.44550*
1,1,0.10900,-0.94550,-0.44550*
1,1,0.10900,-0.94550,0.44550*
1,1,0.10900,0.94550,0.44550*
%
%ADD55ROUNDEDRECTD55*%
G04:AMPARAMS|DCode=56|XSize=1.75mm|YSize=1.05mm|CornerRadius=0.05475mm|HoleSize=0mm|Usage=FLASHONLY|Rotation=180.000|XOffset=0mm|YOffset=0mm|HoleType=Round|Shape=RoundedRectangle|*
%AMROUNDEDRECTD56*
21,1,1.75000,0.94050,0,0,180.0*
21,1,1.64050,1.05000,0,0,180.0*
1,1,0.10950,-0.82025,0.47025*
1,1,0.10950,0.82025,0.47025*
1,1,0.10950,0.82025,-0.47025*
1,1,0.10950,-0.82025,-0.47025*
%
%ADD56ROUNDEDRECTD56*%
G04:AMPARAMS|DCode=57|XSize=0.6mm|YSize=1.3mm|CornerRadius=0.0525mm|HoleSize=0mm|Usage=FLASHONLY|Rotation=0.000|XOffset=0mm|YOffset=0mm|HoleType=Round|Shape=RoundedRectangle|*
%AMROUNDEDRECTD57*
21,1,0.60000,1.19500,0,0,0.0*
21,1,0.49500,1.30000,0,0,0.0*
1,1,0.10500,0.24750,-0.59750*
1,1,0.10500,-0.24750,-0.59750*
1,1,0.10500,-0.24750,0.59750*
1,1,0.10500,0.24750,0.59750*
%
%ADD57ROUNDEDRECTD57*%
G04:AMPARAMS|DCode=58|XSize=0.7mm|YSize=0.9mm|CornerRadius=0.053mm|HoleSize=0mm|Usage=FLASHONLY|Rotation=180.000|XOffset=0mm|YOffset=0mm|HoleType=Round|Shape=RoundedRectangle|*
%AMROUNDEDRECTD58*
21,1,0.70000,0.79400,0,0,180.0*
21,1,0.59400,0.90000,0,0,180.0*
1,1,0.10600,-0.29700,0.39700*
1,1,0.10600,0.29700,0.39700*
1,1,0.10600,0.29700,-0.39700*
1,1,0.10600,-0.29700,-0.39700*
%
%ADD58ROUNDEDRECTD58*%
G04:AMPARAMS|DCode=59|XSize=0.7mm|YSize=0.9mm|CornerRadius=0.053mm|HoleSize=0mm|Usage=FLASHONLY|Rotation=45.000|XOffset=0mm|YOffset=0mm|HoleType=Round|Shape=RoundedRectangle|*
%AMROUNDEDRECTD59*
21,1,0.70000,0.79400,0,0,45.0*
21,1,0.59400,0.90000,0,0,45.0*
1,1,0.10600,0.49073,-0.07071*
1,1,0.10600,0.07071,-0.49073*
1,1,0.10600,-0.49073,0.07071*
1,1,0.10600,-0.07071,0.49073*
%
%ADD59ROUNDEDRECTD59*%
G04:AMPARAMS|DCode=60|XSize=1.35mm|YSize=3.1mm|CornerRadius=0.675mm|HoleSize=0mm|Usage=FLASHONLY|Rotation=0.000|XOffset=0mm|YOffset=0mm|HoleType=Round|Shape=RoundedRectangle|*
%AMROUNDEDRECTD60*
21,1,1.35000,1.75000,0,0,0.0*
21,1,0.00000,3.10000,0,0,0.0*
1,1,1.35000,0.00000,-0.87500*
1,1,1.35000,0.00000,-0.87500*
1,1,1.35000,0.00000,0.87500*
1,1,1.35000,0.00000,0.87500*
%
%ADD60ROUNDEDRECTD60*%
G04:AMPARAMS|DCode=61|XSize=1.05mm|YSize=0.65mm|CornerRadius=0.05275mm|HoleSize=0mm|Usage=FLASHONLY|Rotation=135.000|XOffset=0mm|YOffset=0mm|HoleType=Round|Shape=RoundedRectangle|*
%AMROUNDEDRECTD61*
21,1,1.05000,0.54450,0,0,135.0*
21,1,0.94450,0.65000,0,0,135.0*
1,1,0.10550,-0.14142,0.52644*
1,1,0.10550,0.52644,-0.14142*
1,1,0.10550,0.14142,-0.52644*
1,1,0.10550,-0.52644,0.14142*
%
%ADD61ROUNDEDRECTD61*%
G04:AMPARAMS|DCode=62|XSize=1.05mm|YSize=0.65mm|CornerRadius=0.05275mm|HoleSize=0mm|Usage=FLASHONLY|Rotation=45.000|XOffset=0mm|YOffset=0mm|HoleType=Round|Shape=RoundedRectangle|*
%AMROUNDEDRECTD62*
21,1,1.05000,0.54450,0,0,45.0*
21,1,0.94450,0.65000,0,0,45.0*
1,1,0.10550,0.52644,0.14142*
1,1,0.10550,-0.14142,-0.52644*
1,1,0.10550,-0.52644,-0.14142*
1,1,0.10550,0.14142,0.52644*
%
%ADD62ROUNDEDRECTD62*%
G04:AMPARAMS|DCode=63|XSize=1.05mm|YSize=0.65mm|CornerRadius=0.05275mm|HoleSize=0mm|Usage=FLASHONLY|Rotation=0.000|XOffset=0mm|YOffset=0mm|HoleType=Round|Shape=RoundedRectangle|*
%AMROUNDEDRECTD63*
21,1,1.05000,0.54450,0,0,0.0*
21,1,0.94450,0.65000,0,0,0.0*
1,1,0.10550,0.47225,-0.27225*
1,1,0.10550,-0.47225,-0.27225*
1,1,0.10550,-0.47225,0.27225*
1,1,0.10550,0.47225,0.27225*
%
%ADD63ROUNDEDRECTD63*%
G04:AMPARAMS|DCode=64|XSize=1.05mm|YSize=0.7mm|CornerRadius=0.053mm|HoleSize=0mm|Usage=FLASHONLY|Rotation=45.000|XOffset=0mm|YOffset=0mm|HoleType=Round|Shape=RoundedRectangle|*
%AMROUNDEDRECTD64*
21,1,1.05000,0.59400,0,0,45.0*
21,1,0.94400,0.70000,0,0,45.0*
1,1,0.10600,0.54377,0.12374*
1,1,0.10600,-0.12374,-0.54377*
1,1,0.10600,-0.54377,-0.12374*
1,1,0.10600,0.12374,0.54377*
%
%ADD64ROUNDEDRECTD64*%
%TA.AperFunction,ComponentPad*%
%ADD65O,3.10000X2.10000*%
%ADD66C,1.60000*%
G04:AMPARAMS|DCode=67|XSize=1.9mm|YSize=1.9mm|CornerRadius=0.95mm|HoleSize=0mm|Usage=FLASHONLY|Rotation=90.000|XOffset=0mm|YOffset=0mm|HoleType=Round|Shape=RoundedRectangle|*
%AMROUNDEDRECTD67*
21,1,1.90000,0.00000,0,0,90.0*
21,1,0.00000,1.90000,0,0,90.0*
1,1,1.90000,0.00000,0.00000*
1,1,1.90000,0.00000,0.00000*
1,1,1.90000,0.00000,0.00000*
1,1,1.90000,0.00000,0.00000*
%
%ADD67ROUNDEDRECTD67*%
G04:AMPARAMS|DCode=68|XSize=1.9mm|YSize=1.9mm|CornerRadius=0.23mm|HoleSize=0mm|Usage=FLASHONLY|Rotation=90.000|XOffset=0mm|YOffset=0mm|HoleType=Round|Shape=RoundedRectangle|*
%AMROUNDEDRECTD68*
21,1,1.90000,1.44000,0,0,90.0*
21,1,1.44000,1.90000,0,0,90.0*
1,1,0.46000,0.72000,0.72000*
1,1,0.46000,0.72000,-0.72000*
1,1,0.46000,-0.72000,-0.72000*
1,1,0.46000,-0.72000,0.72000*
%
%ADD68ROUNDEDRECTD68*%
%TA.AperFunction,ViaPad*%
%ADD69C,5.10000*%
%TA.AperFunction,ComponentPad*%
G04:AMPARAMS|DCode=70|XSize=1.6mm|YSize=2.1mm|CornerRadius=0.8mm|HoleSize=0mm|Usage=FLASHONLY|Rotation=180.000|XOffset=0mm|YOffset=0mm|HoleType=Round|Shape=RoundedRectangle|*
%AMROUNDEDRECTD70*
21,1,1.60000,0.50000,0,0,180.0*
21,1,0.00000,2.10000,0,0,180.0*
1,1,1.60000,0.00000,0.25000*
1,1,1.60000,0.00000,0.25000*
1,1,1.60000,0.00000,-0.25000*
1,1,1.60000,0.00000,-0.25000*
%
%ADD70ROUNDEDRECTD70*%
G04:AMPARAMS|DCode=71|XSize=1.9mm|YSize=1.9mm|CornerRadius=0.23mm|HoleSize=0mm|Usage=FLASHONLY|Rotation=0.000|XOffset=0mm|YOffset=0mm|HoleType=Round|Shape=RoundedRectangle|*
%AMROUNDEDRECTD71*
21,1,1.90000,1.44000,0,0,0.0*
21,1,1.44000,1.90000,0,0,0.0*
1,1,0.46000,0.72000,-0.72000*
1,1,0.46000,-0.72000,-0.72000*
1,1,0.46000,-0.72000,0.72000*
1,1,0.46000,0.72000,0.72000*
%
%ADD71ROUNDEDRECTD71*%
G04:AMPARAMS|DCode=72|XSize=1.9mm|YSize=1.9mm|CornerRadius=0.95mm|HoleSize=0mm|Usage=FLASHONLY|Rotation=0.000|XOffset=0mm|YOffset=0mm|HoleType=Round|Shape=RoundedRectangle|*
%AMROUNDEDRECTD72*
21,1,1.90000,0.00000,0,0,0.0*
21,1,0.00000,1.90000,0,0,0.0*
1,1,1.90000,0.00000,0.00000*
1,1,1.90000,0.00000,0.00000*
1,1,1.90000,0.00000,0.00000*
1,1,1.90000,0.00000,0.00000*
%
%ADD72ROUNDEDRECTD72*%
%ADD73C,2.50000*%
%ADD74C,2.10000*%
G04:AMPARAMS|DCode=75|XSize=1.5mm|YSize=1.5mm|CornerRadius=0.4mm|HoleSize=0mm|Usage=FLASHONLY|Rotation=315.000|XOffset=0mm|YOffset=0mm|HoleType=Round|Shape=RoundedRectangle|*
%AMROUNDEDRECTD75*
21,1,1.50000,0.70000,0,0,315.0*
21,1,0.70000,1.50000,0,0,315.0*
1,1,0.80000,0.00000,-0.49498*
1,1,0.80000,-0.49498,0.00000*
1,1,0.80000,0.00000,0.49498*
1,1,0.80000,0.49498,0.00000*
%
%ADD75ROUNDEDRECTD75*%
G04:AMPARAMS|DCode=76|XSize=1.5mm|YSize=1.5mm|CornerRadius=0.4mm|HoleSize=0mm|Usage=FLASHONLY|Rotation=90.000|XOffset=0mm|YOffset=0mm|HoleType=Round|Shape=RoundedRectangle|*
%AMROUNDEDRECTD76*
21,1,1.50000,0.70000,0,0,90.0*
21,1,0.70000,1.50000,0,0,90.0*
1,1,0.80000,0.35000,0.35000*
1,1,0.80000,0.35000,-0.35000*
1,1,0.80000,-0.35000,-0.35000*
1,1,0.80000,-0.35000,0.35000*
%
%ADD76ROUNDEDRECTD76*%
G04:AMPARAMS|DCode=77|XSize=1.5mm|YSize=1.5mm|CornerRadius=0.4mm|HoleSize=0mm|Usage=FLASHONLY|Rotation=45.000|XOffset=0mm|YOffset=0mm|HoleType=Round|Shape=RoundedRectangle|*
%AMROUNDEDRECTD77*
21,1,1.50000,0.70000,0,0,45.0*
21,1,0.70000,1.50000,0,0,45.0*
1,1,0.80000,0.49498,0.00000*
1,1,0.80000,0.00000,-0.49498*
1,1,0.80000,-0.49498,0.00000*
1,1,0.80000,0.00000,0.49498*
%
%ADD77ROUNDEDRECTD77*%
G36*
X973932Y-3080043D02*
X1023929D01*
X1024909Y-3080139D01*
X1025851Y-3080425D01*
X1026720Y-3080889D01*
X1027482Y-3081514D01*
X1027483Y-3081516D01*
X1082481Y-3136514D01*
X1083106Y-3137276D01*
X1083570Y-3138144D01*
X1083637Y-3138364D01*
X1083856Y-3139087D01*
X1083905Y-3139577D01*
X1083953Y-3140067D01*
X1083953Y-3140069D01*
Y-3350067D01*
X1083856Y-3351047D01*
X1083637Y-3351770D01*
X1083570Y-3351989D01*
X1083106Y-3352858D01*
X1082481Y-3353619D01*
X1082480Y-3353621D01*
X1026853Y-3409248D01*
X1026091Y-3409873D01*
X1025223Y-3410337D01*
X1025003Y-3410404D01*
X1024280Y-3410623D01*
X1023790Y-3410671D01*
X1023300Y-3410720D01*
X1023297Y-3410720D01*
X974558D01*
X973577Y-3410623D01*
X972854Y-3410404D01*
X972635Y-3410337D01*
X971766Y-3409873D01*
X971005Y-3409248D01*
X971004Y-3409247D01*
X915376Y-3353619D01*
X914751Y-3352858D01*
X914287Y-3351989D01*
X914221Y-3351770D01*
X914001Y-3351047D01*
X913953Y-3350557D01*
X913904Y-3350067D01*
X913905Y-3350064D01*
Y-3140067D01*
X914001Y-3139086D01*
X914287Y-3138144D01*
X914752Y-3137275D01*
X915376Y-3136514D01*
X915378Y-3136513D01*
X970376Y-3081514D01*
X971138Y-3080889D01*
X972006Y-3080425D01*
X972226Y-3080359D01*
X972949Y-3080139D01*
X973439Y-3080091D01*
X973929Y-3080042D01*
X973932Y-3080043D01*
D02*
G37*
D14*
X2873682Y-2694077D02*
D03*
X2155261Y-1975656D02*
D03*
X1436841Y-1257236D02*
D03*
X718420Y-538816D02*
D03*
X-127000Y0D02*
D03*
X2694077Y2873682D02*
D03*
X1975656Y2155261D02*
D03*
X538816Y718420D02*
D03*
X1257236Y1436841D02*
D03*
X-718420Y538816D02*
D03*
X-2873682Y2694077D02*
D03*
X-2155261Y1975656D02*
D03*
X-1436841Y1257236D02*
D03*
X-2694077Y-2873682D02*
D03*
X-1975656Y-2155261D02*
D03*
X-538816Y-718420D02*
D03*
X-1257236Y-1436841D02*
D03*
D51*
X-290754Y-1540664D02*
D03*
X-435754D02*
D03*
X105479Y-2707709D02*
D03*
X250479D02*
D03*
X484469Y-2543015D02*
D03*
X629469D02*
D03*
D52*
X279979Y-2543016D02*
D03*
X199979D02*
D03*
X119979D02*
D03*
X39979D02*
D03*
X-40021D02*
D03*
X-120021D02*
D03*
X-200021D02*
D03*
X-280021D02*
D03*
Y-1718016D02*
D03*
X-200021D02*
D03*
X-120021D02*
D03*
X-40021D02*
D03*
X39979D02*
D03*
X119979D02*
D03*
X199979D02*
D03*
X279979D02*
D03*
D53*
X-412521Y-2410516D02*
D03*
Y-2330516D02*
D03*
Y-2250516D02*
D03*
Y-2170516D02*
D03*
Y-2090516D02*
D03*
Y-2010516D02*
D03*
Y-1930516D02*
D03*
Y-1850516D02*
D03*
X412479D02*
D03*
Y-1930516D02*
D03*
Y-2010516D02*
D03*
Y-2090516D02*
D03*
Y-2170516D02*
D03*
Y-2250516D02*
D03*
Y-2330516D02*
D03*
Y-2410516D02*
D03*
D54*
X104979Y-2855167D02*
D03*
X-40020D02*
D03*
X750489Y-2330516D02*
D03*
X605489D02*
D03*
D55*
X843849Y-3910808D02*
D03*
Y-3628808D02*
D03*
D56*
X608271Y-3630807D02*
D03*
Y-3910808D02*
D03*
X640696Y-2995913D02*
D03*
Y-3275913D02*
D03*
D57*
X848929Y-3455066D02*
D03*
X998929Y-3455067D02*
D03*
X1148929Y-3455066D02*
D03*
D58*
X418271Y-4028611D02*
D03*
X608271D02*
D03*
X513271Y-4248611D02*
D03*
D59*
X-2291733Y-2782465D02*
D03*
X-2426083Y-2916815D02*
D03*
X-2514472Y-2694077D02*
D03*
X-1932523Y-2423255D02*
D03*
X-2066873Y-2557605D02*
D03*
X-2155262Y-2334867D02*
D03*
X-854892Y-1345624D02*
D03*
X-989242Y-1479974D02*
D03*
X-1077631Y-1257236D02*
D03*
X-495682Y-986414D02*
D03*
X-630032Y-1120764D02*
D03*
X-718420Y-898026D02*
D03*
D60*
X1760929Y-4513351D02*
D03*
X1506929D02*
D03*
X1252929D02*
D03*
X998929D02*
D03*
D61*
X-673519Y853124D02*
D03*
X-570988Y955655D02*
D03*
X-1020001Y1404668D02*
D03*
X-1122532Y1302137D02*
D03*
X-2110360Y2289965D02*
D03*
X-2007830Y2392496D02*
D03*
X-2456842Y2841509D02*
D03*
X-2559373Y2738978D02*
D03*
X673519Y-853124D02*
D03*
X570988Y-955655D02*
D03*
X1020001Y-1404668D02*
D03*
X1122532Y-1302137D02*
D03*
X2559373Y-2738978D02*
D03*
X2456842Y-2841509D02*
D03*
X1840953Y-2020558D02*
D03*
X1738422Y-2123088D02*
D03*
X-422072Y-601677D02*
D03*
X-319542Y-499147D02*
D03*
X-1476510Y-1656115D02*
D03*
X-1373979Y-1553584D02*
D03*
X-1858913Y-2038518D02*
D03*
X-1756383Y-1935987D02*
D03*
D62*
X853124Y673519D02*
D03*
X955655Y570988D02*
D03*
X1404668Y1020001D02*
D03*
X1302137Y1122532D02*
D03*
X2289965Y2110360D02*
D03*
X2392496Y2007830D02*
D03*
X2841509Y2456842D02*
D03*
X2738978Y2559373D02*
D03*
X-955655Y-570988D02*
D03*
X-853124Y-673519D02*
D03*
X-1302137Y-1122532D02*
D03*
X-1404668Y-1020001D02*
D03*
X-2392496Y-2007830D02*
D03*
X-2289965Y-2110360D02*
D03*
X-2738978Y-2559373D02*
D03*
X-2841509Y-2456842D02*
D03*
X-2600243Y-3254884D02*
D03*
X-2702774Y-3152354D02*
D03*
D63*
X127000Y-360900D02*
D03*
Y-215900D02*
D03*
X418271Y-3753097D02*
D03*
Y-3898097D02*
D03*
D64*
X-2132669Y-2693331D02*
D03*
X-2235200Y-2590800D02*
D03*
X-1142069Y-1702731D02*
D03*
X-1244600Y-1600200D02*
D03*
X-697569Y-1258231D02*
D03*
X-800100Y-1155700D02*
D03*
X-2422336Y-3118129D02*
D03*
X-2524866Y-3015598D02*
D03*
D65*
X-4710139Y-510000D02*
D03*
Y510000D02*
D03*
D66*
X-3690139Y400000D02*
D03*
Y0D02*
D03*
Y-400000D02*
D03*
D67*
X3673000Y339494D02*
D03*
Y85494D02*
D03*
X3673000Y-168506D02*
D03*
X3673000Y-422506D02*
D03*
X3927000Y339494D02*
D03*
Y85494D02*
D03*
Y-168506D02*
D03*
D68*
Y-422506D02*
D03*
D69*
X2400000Y-4400000D02*
D03*
X-2400000D02*
D03*
X4400000Y-2400000D02*
D03*
Y2400000D02*
D03*
X-4400000Y-2400000D02*
D03*
Y2400000D02*
D03*
X-2400000Y4400000D02*
D03*
X2400000D02*
D03*
D70*
X250000Y-4593351D02*
D03*
X0D02*
D03*
X-250000D02*
D03*
D71*
X998929D02*
D03*
D72*
X1252929D02*
D03*
X1506929D02*
D03*
X1760929D02*
D03*
D73*
X0Y-3544310D02*
D03*
Y-4044310D02*
D03*
D74*
X-350000Y3800000D02*
D03*
X350000D02*
D03*
D75*
X2694077Y-2873682D02*
D03*
X1975656Y-2155261D02*
D03*
X1257236Y-1436841D02*
D03*
X538816Y-718420D02*
D03*
X-538816Y718420D02*
D03*
X-2694077Y2873682D02*
D03*
X-1975656Y2155261D02*
D03*
X-1257236Y1436841D02*
D03*
D76*
X127000Y0D02*
D03*
D77*
X2873682Y2694077D02*
D03*
X2155261Y1975656D02*
D03*
X718420Y538816D02*
D03*
X1436841Y1257236D02*
D03*
X-2873682Y-2694077D02*
D03*
X-2155261Y-1975656D02*
D03*
X-718420Y-538816D02*
D03*
X-1436841Y-1257236D02*
D03*
%TF.MD5,faef5f29d3b15421c015da0aa5b3e66b*%
M02*
