%TF.GenerationSoftware,Altium Limited,Altium Designer,20.1.8 (145)*%
G04 Layer_Color=32896*
%FSLAX45Y45*%
%MOMM*%
%TF.SameCoordinates,5961E689-EF10-4C47-967A-3E799B42680D*%
%TF.FilePolarity,Positive*%
%TF.FileFunction,Other,Bottom_Courtyard*%
%TF.Part,Single*%
G01*
G75*
%TA.AperFunction,NonConductor*%
%ADD80C,0.10000*%
%ADD81C,0.05000*%
%ADD82C,0.05080*%
D80*
X-363254Y-1580664D02*
Y-1500664D01*
X-403253Y-1540664D02*
X-323254D01*
X177979Y-2747709D02*
Y-2667709D01*
X137979Y-2707709D02*
X217978D01*
X556969Y-2583015D02*
Y-2503016D01*
X516970Y-2543015D02*
X596969D01*
X-21Y-2180516D02*
Y-2080516D01*
X-50021Y-2130516D02*
X49979D01*
X-7520Y-2855167D02*
X72479D01*
X32479Y-2895167D02*
Y-2815167D01*
X677989Y-2370516D02*
Y-2290516D01*
X637989Y-2330516D02*
X717989D01*
X843849Y-3819807D02*
Y-3719807D01*
X793849Y-3769808D02*
X893849D01*
X608271Y-3820807D02*
Y-3720808D01*
X558271Y-3770808D02*
X658271D01*
X948929Y-3252817D02*
X1048929Y-3252816D01*
X998929Y-3302817D02*
Y-3202817D01*
X513271Y-4188611D02*
Y-4088611D01*
X463271Y-4138611D02*
X563271D01*
X-2472045Y-2736503D02*
X-2401335Y-2807214D01*
X-2472045Y-2807214D02*
X-2401335Y-2736503D01*
X-2112835Y-2377293D02*
X-2042124Y-2448004D01*
X-2112835Y-2448003D02*
X-2042124Y-2377293D01*
X-1035204Y-1299662D02*
X-964494Y-1370373D01*
X-1035204Y-1370373D02*
X-964494Y-1299662D01*
X-675994Y-940452D02*
X-605283Y-1011163D01*
X-675994Y-1011163D02*
X-605283Y-940452D01*
X-650538Y932674D02*
X-593970Y876105D01*
X-650538D02*
X-593970Y932674D01*
X-1099551Y1325118D02*
X-1042982Y1381687D01*
X-1099551Y1381687D02*
X-1042982Y1325118D01*
X-2087379Y2369515D02*
X-2030811Y2312946D01*
X-2087379D02*
X-2030811Y2369515D01*
X-2536392Y2761959D02*
X-2479824Y2818528D01*
X-2536392Y2818528D02*
X-2479824Y2761959D01*
X876105Y593970D02*
X932674Y650538D01*
X876105Y650538D02*
X932674Y593970D01*
X1325118Y1099551D02*
X1381687Y1042982D01*
X1325118D02*
X1381687Y1099551D01*
X2312946Y2030811D02*
X2369515Y2087379D01*
X2312946Y2087379D02*
X2369515Y2030811D01*
X2761959Y2536392D02*
X2818528Y2479824D01*
X2761959D02*
X2818528Y2536392D01*
X593970Y-876105D02*
X650538Y-932674D01*
X593970Y-932674D02*
X650538Y-876105D01*
X1042982Y-1381687D02*
X1099551Y-1325118D01*
X1042982D02*
X1099551Y-1381687D01*
X2479824Y-2761959D02*
X2536392Y-2818528D01*
X2479824Y-2818528D02*
X2536392Y-2761959D01*
X-932674Y-593970D02*
X-876105Y-650538D01*
X-932674Y-650538D02*
X-876105Y-593970D01*
X-1381687Y-1099551D02*
X-1325118Y-1042982D01*
X-1381687D02*
X-1325118Y-1099551D01*
X-2369515Y-2030811D02*
X-2312946Y-2087379D01*
X-2369515Y-2087379D02*
X-2312946Y-2030811D01*
X-2818528Y-2536392D02*
X-2761959Y-2479824D01*
X-2818528D02*
X-2761959Y-2536392D01*
X127000Y-328400D02*
Y-248400D01*
X87000Y-288400D02*
X167000D01*
X1761403Y-2043539D02*
X1817972Y-2100107D01*
X1761403Y-2100107D02*
X1817971Y-2043539D01*
X-399091Y-578696D02*
X-342523Y-522128D01*
X-399091D02*
X-342523Y-578696D01*
X-1453529Y-1576565D02*
X-1396961Y-1633134D01*
X-1453529D02*
X-1396961Y-1576566D01*
X-1835932Y-2015537D02*
X-1779364Y-1958969D01*
X-1835932D02*
X-1779363Y-2015537D01*
X-2679793Y-3231903D02*
X-2623224Y-3175335D01*
X-2679792D02*
X-2623224Y-3231903D01*
X418271Y-3865597D02*
Y-3785597D01*
X378271Y-3825597D02*
X458271D01*
X590696Y-3135913D02*
X690696D01*
X640696Y-3185913D02*
Y-3085913D01*
X-2212219Y-2613781D02*
X-2155651Y-2670349D01*
X-2212219D02*
X-2155651Y-2613781D01*
X-1221619Y-1623181D02*
X-1165051Y-1679749D01*
X-1221619D02*
X-1165051Y-1623181D01*
X-777119Y-1178681D02*
X-720551Y-1235249D01*
X-777119D02*
X-720551Y-1178681D01*
X-2501885Y-3038579D02*
X-2445317Y-3095148D01*
X-2501885D02*
X-2445317Y-3038579D01*
D81*
X-248254Y-1595664D02*
Y-1485664D01*
X-478254D02*
X-248254D01*
X-478254Y-1595664D02*
X-248254D01*
X-478254D02*
Y-1485664D01*
X-248254Y-1595664D02*
Y-1485664D01*
X-478254D02*
X-248254D01*
X-478254Y-1595664D02*
X-248254D01*
X-478254D02*
Y-1485664D01*
X62979Y-2762709D02*
Y-2652709D01*
Y-2762709D02*
X292979D01*
X62979Y-2652709D02*
X292979D01*
Y-2762709D02*
Y-2652709D01*
X62979Y-2762709D02*
Y-2652709D01*
Y-2762709D02*
X292979D01*
X62979Y-2652709D02*
X292979D01*
Y-2762709D02*
Y-2652709D01*
X441969Y-2598015D02*
Y-2488015D01*
Y-2598015D02*
X671969D01*
X441969Y-2488015D02*
X671969D01*
Y-2598015D02*
Y-2488015D01*
X441969Y-2598015D02*
Y-2488015D01*
Y-2598015D02*
X671969D01*
X441969Y-2488015D02*
X671969D01*
Y-2598015D02*
Y-2488015D01*
X-485021Y-2615516D02*
X484979D01*
X-485021Y-1645516D02*
X484979D01*
Y-2615516D02*
Y-1645516D01*
X-485021Y-2615516D02*
Y-1645516D01*
X743849Y-3964807D02*
X943849D01*
X743849Y-3574807D02*
X943849D01*
Y-3964807D02*
Y-3574807D01*
X743849Y-3964807D02*
Y-3574807D01*
X513271Y-3965808D02*
Y-3575808D01*
X703271Y-3965808D02*
Y-3575808D01*
X513271Y-3965808D02*
X703271D01*
X513271Y-3575808D02*
X703271D01*
X758929Y-3505067D02*
Y-3075067D01*
X1238929Y-3505067D02*
X1238929Y-3075067D01*
X758929D02*
X1238929D01*
X758929Y-3505067D02*
X1238929D01*
X353271Y-3981111D02*
X673271D01*
X353271Y-4296111D02*
X673271D01*
X353271D02*
Y-3981111D01*
X673271Y-4296111D02*
Y-3981111D01*
X-2438458Y-2996365D02*
X-2212184Y-2770091D01*
X-2661196Y-2773626D02*
X-2434922Y-2547352D01*
X-2212184Y-2770091D01*
X-2661196Y-2773626D02*
X-2438458Y-2996365D01*
X-2079248Y-2637154D02*
X-1852973Y-2410880D01*
X-2301986Y-2414416D02*
X-2075712Y-2188142D01*
X-1852973Y-2410880D01*
X-2301986Y-2414416D02*
X-2079248Y-2637154D01*
X-1001617Y-1559524D02*
X-775343Y-1333250D01*
X-1224355Y-1336785D02*
X-998081Y-1110511D01*
X-775343Y-1333250D01*
X-1224355Y-1336785D02*
X-1001617Y-1559524D01*
X-642406Y-1200314D02*
X-416132Y-974039D01*
X-865145Y-977575D02*
X-638871Y-751301D01*
X-416132Y-974039D01*
X-865145Y-977575D02*
X-642406Y-1200314D01*
X545696Y-3330913D02*
X735696D01*
X545696Y-2940913D02*
X735696D01*
X545696Y-3330913D02*
Y-2940913D01*
X735696Y-3330913D02*
Y-2940913D01*
X-2141508Y-2762273D02*
X-2063726Y-2684492D01*
X-2226361Y-2521857D02*
X-2063726Y-2684492D01*
X-2304143Y-2599639D02*
X-2141508Y-2762273D01*
X-2304143Y-2599639D02*
X-2226361Y-2521857D01*
X-2141508Y-2762273D02*
X-2063726Y-2684492D01*
X-2226361Y-2521857D02*
X-2063726Y-2684492D01*
X-2304143Y-2599639D02*
X-2141508Y-2762273D01*
X-2304143Y-2599639D02*
X-2226361Y-2521857D01*
X-1150908Y-1771673D02*
X-1073126Y-1693892D01*
X-1235761Y-1531257D02*
X-1073126Y-1693892D01*
X-1313543Y-1609039D02*
X-1150908Y-1771673D01*
X-1313543Y-1609039D02*
X-1235761Y-1531257D01*
X-1150908Y-1771673D02*
X-1073126Y-1693892D01*
X-1235761Y-1531257D02*
X-1073126Y-1693892D01*
X-1313543Y-1609039D02*
X-1150908Y-1771673D01*
X-1313543Y-1609039D02*
X-1235761Y-1531257D01*
X-706408Y-1327173D02*
X-628626Y-1249392D01*
X-791261Y-1086757D02*
X-628626Y-1249392D01*
X-869043Y-1164539D02*
X-706408Y-1327173D01*
X-869043Y-1164539D02*
X-791261Y-1086757D01*
X-706408Y-1327173D02*
X-628626Y-1249392D01*
X-791261Y-1086757D02*
X-628626Y-1249392D01*
X-869043Y-1164539D02*
X-706408Y-1327173D01*
X-869043Y-1164539D02*
X-791261Y-1086757D01*
X-2431174Y-3187072D02*
X-2353393Y-3109290D01*
X-2516027Y-2946655D02*
X-2353393Y-3109290D01*
X-2593809Y-3024437D02*
X-2431174Y-3187072D01*
X-2593809Y-3024437D02*
X-2516027Y-2946655D01*
X-2431174Y-3187072D02*
X-2353393Y-3109290D01*
X-2516027Y-2946655D02*
X-2353393Y-3109290D01*
X-2593809Y-3024437D02*
X-2431174Y-3187072D01*
X-2593809Y-3024437D02*
X-2516027Y-2946655D01*
D82*
X-77521Y-2805167D02*
X142480D01*
X-77521Y-2905167D02*
X142480D01*
X-77521D02*
Y-2805167D01*
X142480Y-2905167D02*
Y-2805167D01*
X567989Y-2380516D02*
Y-2280516D01*
X787989Y-2380516D02*
Y-2280516D01*
X567989D02*
X787989D01*
X567989Y-2380516D02*
X787989D01*
X-579827Y1017527D02*
X-509117Y946816D01*
X-735391Y861963D02*
X-664680Y791253D01*
X-509117Y946816D01*
X-735391Y861963D02*
X-579827Y1017527D01*
X-1184404Y1310976D02*
X-1028840Y1466540D01*
X-1113693Y1240265D02*
X-958130Y1395829D01*
X-1184404Y1310976D02*
X-1113693Y1240265D01*
X-1028840Y1466540D02*
X-958130Y1395829D01*
X-2016669Y2454368D02*
X-1945958Y2383657D01*
X-2172232Y2298804D02*
X-2101521Y2228094D01*
X-1945958Y2383657D01*
X-2172232Y2298804D02*
X-2016669Y2454368D01*
X-2621245Y2747817D02*
X-2465681Y2903381D01*
X-2550534Y2677106D02*
X-2394971Y2832670D01*
X-2621245Y2747817D02*
X-2550534Y2677106D01*
X-2465681Y2903381D02*
X-2394971Y2832670D01*
X946816Y509117D02*
X1017527Y579827D01*
X791253Y664680D02*
X861963Y735391D01*
X791253Y664680D02*
X946816Y509117D01*
X861963Y735391D02*
X1017527Y579827D01*
X1310976Y1184404D02*
X1466540Y1028840D01*
X1240265Y1113693D02*
X1395829Y958130D01*
X1240265Y1113693D02*
X1310976Y1184404D01*
X1395829Y958130D02*
X1466540Y1028840D01*
X2383657Y1945958D02*
X2454368Y2016669D01*
X2228094Y2101521D02*
X2298804Y2172232D01*
X2228094Y2101521D02*
X2383657Y1945958D01*
X2298804Y2172232D02*
X2454368Y2016669D01*
X2747817Y2621245D02*
X2903381Y2465681D01*
X2677106Y2550534D02*
X2832670Y2394971D01*
X2677106Y2550534D02*
X2747817Y2621245D01*
X2832670Y2394971D02*
X2903381Y2465681D01*
X509117Y-946816D02*
X579827Y-1017527D01*
X664680Y-791253D02*
X735391Y-861963D01*
X509117Y-946816D02*
X664680Y-791253D01*
X579827Y-1017527D02*
X735391Y-861963D01*
X1028840Y-1466540D02*
X1184404Y-1310976D01*
X958130Y-1395829D02*
X1113693Y-1240265D01*
X1184404Y-1310976D01*
X958130Y-1395829D02*
X1028840Y-1466540D01*
X2394971Y-2832670D02*
X2465681Y-2903381D01*
X2550534Y-2677106D02*
X2621245Y-2747817D01*
X2394971Y-2832670D02*
X2550534Y-2677106D01*
X2465681Y-2903381D02*
X2621245Y-2747817D01*
X-1017527Y-579827D02*
X-861963Y-735391D01*
X-946816Y-509117D02*
X-791253Y-664680D01*
X-861963Y-735391D02*
X-791253Y-664680D01*
X-1017527Y-579827D02*
X-946816Y-509117D01*
X-1466540Y-1028840D02*
X-1395829Y-958130D01*
X-1310976Y-1184404D02*
X-1240265Y-1113693D01*
X-1395829Y-958130D02*
X-1240265Y-1113693D01*
X-1466540Y-1028840D02*
X-1310976Y-1184404D01*
X-2454368Y-2016669D02*
X-2298804Y-2172232D01*
X-2383657Y-1945958D02*
X-2228094Y-2101521D01*
X-2298804Y-2172232D02*
X-2228094Y-2101521D01*
X-2454368Y-2016669D02*
X-2383657Y-1945958D01*
X-2903381Y-2465681D02*
X-2832670Y-2394971D01*
X-2747817Y-2621245D02*
X-2677106Y-2550534D01*
X-2832670Y-2394971D02*
X-2677106Y-2550534D01*
X-2903381Y-2465681D02*
X-2747817Y-2621245D01*
X177000Y-398400D02*
Y-178400D01*
X77000Y-398400D02*
Y-178400D01*
X177000D01*
X77000Y-398400D02*
X177000D01*
X1676550Y-2114249D02*
X1747261Y-2184960D01*
X1832114Y-1958686D02*
X1902824Y-2029397D01*
X1676550Y-2114249D02*
X1832114Y-1958686D01*
X1747261Y-2184960D02*
X1902824Y-2029397D01*
X-413233Y-663549D02*
X-257670Y-507986D01*
X-483944Y-592838D02*
X-328381Y-437275D01*
X-257670Y-507986D01*
X-483944Y-592838D02*
X-413233Y-663549D01*
X-1382818Y-1491713D02*
X-1312108Y-1562423D01*
X-1538382Y-1647276D02*
X-1467671Y-1717987D01*
X-1312108Y-1562423D01*
X-1538382Y-1647276D02*
X-1382818Y-1491713D01*
X-1850074Y-2100390D02*
X-1694511Y-1944826D01*
X-1920785Y-2029679D02*
X-1765222Y-1874116D01*
X-1694511Y-1944826D01*
X-1920785Y-2029679D02*
X-1850074Y-2100390D01*
X-2764646Y-3161193D02*
X-2693935Y-3090482D01*
X-2609082Y-3316756D02*
X-2538371Y-3246045D01*
X-2693935Y-3090482D02*
X-2538371Y-3246045D01*
X-2764646Y-3161193D02*
X-2609082Y-3316756D01*
X368271Y-3935597D02*
Y-3715597D01*
X468271Y-3935597D02*
X468271Y-3715597D01*
X368271Y-3935597D02*
X468271D01*
X368271Y-3715597D02*
X468271Y-3715597D01*
%TF.MD5,b4a353567976f04c9adf65b69adb721f*%
M02*
