M48
;Layer_Color=0
;FILE_FORMAT=4:4
METRIC
;TYPE=PLATED
T1F00S00C0.5000
T2F00S00C0.7500
T4F00S00C0.8000
T5F00S00C0.9500
T6F00S00C1.0000
T7F00S00C1.2500
T8F00S00C3.0000
%
T01
X-00181242Y-00359324
X-00142926Y-00359324
X00041827Y-00367099
X00060827Y-00353075
X00064070Y-00337358
X00077350Y-00327618
X00050786Y-00327618
X00029789Y-00324844
X00025048Y-00280967
X00029499Y-00241052
X00052811Y-00241052
X00062947Y-00243757
X00071425Y-00254301
X00062947Y-00264849
X00101631Y-00253002
X00083386Y-00233052
X00101631Y-00181160
X00173473Y-00181160
X00245315Y-00181160
X00317157Y-00181160
X00317157Y-00109318
X00317157Y-00037475
X00317157Y00034367
X00245315Y00034367
X00245315Y-00037475
X00245315Y-00109318
X00173473Y-00109318
X00173473Y-00037475
X00173473Y00034367
X00101631Y00034367
X00101631Y-00037475
X00064198Y-00043961
X00044994Y-00048433
X00054055Y-00057870
X00026917Y-00054468
X00018663Y-00044224
X00042917Y-00078589
X00029789Y-00109318
X00002538Y-00118070
X-00005462Y-00107572
X00010538Y-00132877
X00101631Y-00109318
X00173473Y-00253002
X00245315Y-00253002
X00317157Y-00253002
X00245315Y-00324844
X00173473Y-00324844
X00029789Y00034367
X-00042053Y00034367
X-00042053Y-00037475
X-00026043Y-00044003
X-00026288Y-00091365
X-00013716Y-00097329
X-00043575Y-00143639
X-00052542Y-00154066
X-00043575Y-00164566
X-00041252Y-00176907
X-00052877Y-00185052
X-00064701Y-00194765
X-00074828Y-00202766
X-00062620Y-00215338
X-00052841Y-00223338
X-00042053Y-00253002
X-00042053Y-00324844
X-00113895Y-00324844
X-00113895Y-00253002
X-00185737Y-00253002
X-00207211Y-00274994
X-00234950Y-00304546
X-00236474Y-00318008
X-00254214Y-00331435
X-00185737Y-00324844
X-00185737Y-00181160
X-00169727Y-00187687
X-00153562Y-00171523
X-00108428Y-00176211
X-00029537Y-00185052
X-00063471Y-00132109
X-00109950Y-00088929
X-00128420Y-00089954
X-00132334Y-00081026
X-00125730Y-00068580
X-00108664Y-00070197
X-00112268Y-00061214
X-00113895Y-00037475
X-00100998Y-00075849
X-00123029Y-00097805
X-00185737Y-00109318
X-00185737Y-00037475
X-00185737Y00034367
X-00113895Y00034367
X-00257580Y00034367
X-00257580Y-00037475
X-00257580Y-00109318
X-00257580Y-00181160
X-00256540Y-00204724
X-00250770Y-00212303
X-00243586Y-00218694
X-00251004Y-00231937
X-00270526Y-00232060
X-00274320Y-00223266
X-00269685Y-00209403
X-00264184Y-00239253
X-00329422Y-00253002
X-00299941Y-00285572
X-00329422Y-00181160
X-00329422Y-00109318
X-00329422Y-00037475
X-00329422Y00034367
X-00329422Y00106209
X-00257580Y00106209
X-00185737Y00106209
X-00185737Y00178051
X-00176911Y00200260
X-00167894Y00197104
X-00158496Y00206502
X-00161645Y00215526
X-00170715Y00218431
X-00180340Y00209296
X-00185737Y00249893
X-00113895Y00249893
X-00042053Y00249893
X-00042053Y00321735
X-00113895Y00321735
X-00185737Y00321735
X-00257580Y00321735
X-00257580Y00249893
X-00257580Y00178051
X-00329422Y00178051
X-00329422Y00249893
X-00113895Y00178051
X-00042053Y00178051
X-00042053Y00106209
X-00060198Y00112268
X-00066977Y00105444
X-00075692Y00101600
X-00089006Y00105147
X-00093472Y00118364
X-00086734Y00125200
X-00077978Y00129032
X-00062484Y00125730
X00029789Y00106209
X00101631Y00106209
X00108961Y00093090
X00104902Y00080010
X00112356Y00073889
X00117094Y00065532
X00130174Y00071800
X00135663Y00084809
X00132113Y00093646
X00123190Y00097282
X00173473Y00106209
X00245315Y00106209
X00317157Y00106209
X00317157Y00178051
X00245315Y00178051
X00219710Y00170942
X00215526Y00161645
X00206248Y00157226
X00195580Y00167894
X00199885Y00177286
X00209042Y00181864
X00173473Y00178051
X00173473Y00249893
X00245315Y00249893
X00245315Y00321735
X00173473Y00321735
X00101631Y00321735
X00101631Y00249893
X00101631Y00178051
X00029789Y00178051
X00029789Y00249893
X00029789Y00321735
T02
X00269408Y-00287368
X00287368Y-00269408
X00215526Y-00197566
X00197566Y-00215526
X00143684Y-00125724
X00125724Y-00143684
X00071842Y-00053882
X00053882Y-00071842
X00012700Y00000000
X-00012700Y00000000
X-00053882Y-00071842
X-00071842Y-00053882
X-00125724Y-00143684
X-00143684Y-00125724
X-00197566Y-00215526
X-00215526Y-00197566
X-00269408Y-00287368
X-00287368Y-00269408
X-00071842Y00053882
X-00053882Y00071842
X-00125724Y00143684
X-00143684Y00125724
X-00197566Y00215526
X-00215526Y00197566
X-00269408Y00287368
X-00287368Y00269408
X00197566Y00215526
X00215526Y00197566
X00269408Y00287368
X00287368Y00269408
X00125724Y00143684
X00143684Y00125724
X00053882Y00071842
X00071842Y00053882
T04
X-00025000Y-00459335
X00000000Y-00459335
X00025000Y-00459335
X-00369014Y-00040000
X-00369014Y00000000
X-00369014Y00040000
T05
X00099893Y-00459335
X00125293Y-00459335
X00150693Y-00459335
X00176093Y-00459335
X00392700Y-00042251
X00392700Y-00016851
X00392700Y00008549
X00392700Y00033949
X00367300Y00033949
X00367300Y00008549
X00367300Y-00016851
X00367300Y-00042251
T06
X-00035000Y00380000
X00035000Y00380000
T07
X00000000Y-00404431
X00000000Y-00354431
T08
X-00240000Y-00440000
X00240000Y-00440000
X00440000Y-00240000
X-00440000Y-00240000
X-00440000Y00240000
X-00240000Y00440000
X00240000Y00440000
X00440000Y00240000
M30
