%TF.GenerationSoftware,Altium Limited,Altium Designer,20.1.8 (145)*%
G04 Layer_Color=255*
%FSLAX45Y45*%
%MOMM*%
%TF.SameCoordinates,793C4F5F-A07E-474B-A886-B682DA88F124*%
%TF.FilePolarity,Positive*%
%TF.FileFunction,Pads,Bot*%
%TF.Part,Single*%
G01*
G75*
%TA.AperFunction,ComponentPad*%
%ADD13C,2.50000*%
G04:AMPARAMS|DCode=14|XSize=1.5mm|YSize=2mm|CornerRadius=0.75mm|HoleSize=0mm|Usage=FLASHONLY|Rotation=0.000|XOffset=0mm|YOffset=0mm|HoleType=Round|Shape=RoundedRectangle|*
%AMROUNDEDRECTD14*
21,1,1.50000,0.50000,0,0,0.0*
21,1,0.00000,2.00000,0,0,0.0*
1,1,1.50000,0.00000,-0.25000*
1,1,1.50000,0.00000,-0.25000*
1,1,1.50000,0.00000,0.25000*
1,1,1.50000,0.00000,0.25000*
%
%ADD14ROUNDEDRECTD14*%
G04:AMPARAMS|DCode=15|XSize=1.5mm|YSize=2mm|CornerRadius=0.15mm|HoleSize=0mm|Usage=FLASHONLY|Rotation=0.000|XOffset=0mm|YOffset=0mm|HoleType=Round|Shape=RoundedRectangle|*
%AMROUNDEDRECTD15*
21,1,1.50000,1.70000,0,0,0.0*
21,1,1.20000,2.00000,0,0,0.0*
1,1,0.30000,0.60000,-0.85000*
1,1,0.30000,-0.60000,-0.85000*
1,1,0.30000,-0.60000,0.85000*
1,1,0.30000,0.60000,0.85000*
%
%ADD15ROUNDEDRECTD15*%
G04:AMPARAMS|DCode=16|XSize=3mm|YSize=8mm|CornerRadius=1.5mm|HoleSize=0mm|Usage=FLASHONLY|Rotation=45.000|XOffset=0mm|YOffset=0mm|HoleType=Round|Shape=RoundedRectangle|*
%AMROUNDEDRECTD16*
21,1,3.00000,5.00000,0,0,45.0*
21,1,0.00000,8.00000,0,0,45.0*
1,1,3.00000,1.76777,-1.76777*
1,1,3.00000,1.76777,-1.76777*
1,1,3.00000,-1.76777,1.76777*
1,1,3.00000,-1.76777,1.76777*
%
%ADD16ROUNDEDRECTD16*%
%ADD17C,2.00000*%
G04:AMPARAMS|DCode=18|XSize=3mm|YSize=8mm|CornerRadius=1.5mm|HoleSize=0mm|Usage=FLASHONLY|Rotation=315.000|XOffset=0mm|YOffset=0mm|HoleType=Round|Shape=RoundedRectangle|*
%AMROUNDEDRECTD18*
21,1,3.00000,5.00000,0,0,315.0*
21,1,0.00000,8.00000,0,0,315.0*
1,1,3.00000,-1.76777,-1.76777*
1,1,3.00000,-1.76777,-1.76777*
1,1,3.00000,1.76777,1.76777*
1,1,3.00000,1.76777,1.76777*
%
%ADD18ROUNDEDRECTD18*%
%ADD19C,1.58000*%
G04:AMPARAMS|DCode=20|XSize=1.58mm|YSize=1.58mm|CornerRadius=0.158mm|HoleSize=0mm|Usage=FLASHONLY|Rotation=135.000|XOffset=0mm|YOffset=0mm|HoleType=Round|Shape=RoundedRectangle|*
%AMROUNDEDRECTD20*
21,1,1.58000,1.26400,0,0,135.0*
21,1,1.26400,1.58000,0,0,135.0*
1,1,0.31600,0.00000,0.89378*
1,1,0.31600,0.89378,0.00000*
1,1,0.31600,0.00000,-0.89378*
1,1,0.31600,-0.89378,0.00000*
%
%ADD20ROUNDEDRECTD20*%
G04:AMPARAMS|DCode=21|XSize=1.58mm|YSize=1.58mm|CornerRadius=0.158mm|HoleSize=0mm|Usage=FLASHONLY|Rotation=0.000|XOffset=0mm|YOffset=0mm|HoleType=Round|Shape=RoundedRectangle|*
%AMROUNDEDRECTD21*
21,1,1.58000,1.26400,0,0,0.0*
21,1,1.26400,1.58000,0,0,0.0*
1,1,0.31600,0.63200,-0.63200*
1,1,0.31600,-0.63200,-0.63200*
1,1,0.31600,-0.63200,0.63200*
1,1,0.31600,0.63200,0.63200*
%
%ADD21ROUNDEDRECTD21*%
G04:AMPARAMS|DCode=22|XSize=1.58mm|YSize=1.58mm|CornerRadius=0.158mm|HoleSize=0mm|Usage=FLASHONLY|Rotation=45.000|XOffset=0mm|YOffset=0mm|HoleType=Round|Shape=RoundedRectangle|*
%AMROUNDEDRECTD22*
21,1,1.58000,1.26400,0,0,45.0*
21,1,1.26400,1.58000,0,0,45.0*
1,1,0.31600,0.89378,0.00000*
1,1,0.31600,0.00000,-0.89378*
1,1,0.31600,-0.89378,0.00000*
1,1,0.31600,0.00000,0.89378*
%
%ADD22ROUNDEDRECTD22*%
%TA.AperFunction,SMDPad,CuDef*%
%ADD24R,0.60000X0.80000*%
G04:AMPARAMS|DCode=25|XSize=1.65mm|YSize=0.95mm|CornerRadius=0.00475mm|HoleSize=0mm|Usage=FLASHONLY|Rotation=180.000|XOffset=0mm|YOffset=0mm|HoleType=Round|Shape=RoundedRectangle|*
%AMROUNDEDRECTD25*
21,1,1.65000,0.94050,0,0,180.0*
21,1,1.64050,0.95000,0,0,180.0*
1,1,0.00950,-0.82025,0.47025*
1,1,0.00950,0.82025,0.47025*
1,1,0.00950,0.82025,-0.47025*
1,1,0.00950,-0.82025,-0.47025*
%
%ADD25ROUNDEDRECTD25*%
%ADD26O,1.25000X0.50000*%
%ADD27O,0.50000X1.25000*%
G04:AMPARAMS|DCode=28|XSize=0.75mm|YSize=0.55mm|CornerRadius=0.00275mm|HoleSize=0mm|Usage=FLASHONLY|Rotation=135.000|XOffset=0mm|YOffset=0mm|HoleType=Round|Shape=RoundedRectangle|*
%AMROUNDEDRECTD28*
21,1,0.75000,0.54450,0,0,135.0*
21,1,0.74450,0.55000,0,0,135.0*
1,1,0.00550,-0.07071,0.45573*
1,1,0.00550,0.45573,-0.07071*
1,1,0.00550,0.07071,-0.45573*
1,1,0.00550,-0.45573,0.07071*
%
%ADD28ROUNDEDRECTD28*%
G04:AMPARAMS|DCode=29|XSize=0.75mm|YSize=0.55mm|CornerRadius=0.00275mm|HoleSize=0mm|Usage=FLASHONLY|Rotation=225.000|XOffset=0mm|YOffset=0mm|HoleType=Round|Shape=RoundedRectangle|*
%AMROUNDEDRECTD29*
21,1,0.75000,0.54450,0,0,225.0*
21,1,0.74450,0.55000,0,0,225.0*
1,1,0.00550,-0.45573,-0.07071*
1,1,0.00550,0.07071,0.45573*
1,1,0.00550,0.45573,0.07071*
1,1,0.00550,-0.07071,-0.45573*
%
%ADD29ROUNDEDRECTD29*%
G04:AMPARAMS|DCode=30|XSize=0.5mm|YSize=1.2mm|CornerRadius=0.0025mm|HoleSize=0mm|Usage=FLASHONLY|Rotation=0.000|XOffset=0mm|YOffset=0mm|HoleType=Round|Shape=RoundedRectangle|*
%AMROUNDEDRECTD30*
21,1,0.50000,1.19500,0,0,0.0*
21,1,0.49500,1.20000,0,0,0.0*
1,1,0.00500,0.24750,-0.59750*
1,1,0.00500,-0.24750,-0.59750*
1,1,0.00500,-0.24750,0.59750*
1,1,0.00500,0.24750,0.59750*
%
%ADD30ROUNDEDRECTD30*%
G04:AMPARAMS|DCode=31|XSize=0.5mm|YSize=0.9mm|CornerRadius=0.0025mm|HoleSize=0mm|Usage=FLASHONLY|Rotation=0.000|XOffset=0mm|YOffset=0mm|HoleType=Round|Shape=RoundedRectangle|*
%AMROUNDEDRECTD31*
21,1,0.50000,0.89500,0,0,0.0*
21,1,0.49500,0.90000,0,0,0.0*
1,1,0.00500,0.24750,-0.44750*
1,1,0.00500,-0.24750,-0.44750*
1,1,0.00500,-0.24750,0.44750*
1,1,0.00500,0.24750,0.44750*
%
%ADD31ROUNDEDRECTD31*%
G04:AMPARAMS|DCode=32|XSize=0.75mm|YSize=0.55mm|CornerRadius=0.00275mm|HoleSize=0mm|Usage=FLASHONLY|Rotation=0.000|XOffset=0mm|YOffset=0mm|HoleType=Round|Shape=RoundedRectangle|*
%AMROUNDEDRECTD32*
21,1,0.75000,0.54450,0,0,0.0*
21,1,0.74450,0.55000,0,0,0.0*
1,1,0.00550,0.37225,-0.27225*
1,1,0.00550,-0.37225,-0.27225*
1,1,0.00550,-0.37225,0.27225*
1,1,0.00550,0.37225,0.27225*
%
%ADD32ROUNDEDRECTD32*%
G04:AMPARAMS|DCode=33|XSize=0.75mm|YSize=0.55mm|CornerRadius=0.00275mm|HoleSize=0mm|Usage=FLASHONLY|Rotation=270.000|XOffset=0mm|YOffset=0mm|HoleType=Round|Shape=RoundedRectangle|*
%AMROUNDEDRECTD33*
21,1,0.75000,0.54450,0,0,270.0*
21,1,0.74450,0.55000,0,0,270.0*
1,1,0.00550,-0.27225,-0.37225*
1,1,0.00550,-0.27225,0.37225*
1,1,0.00550,0.27225,0.37225*
1,1,0.00550,0.27225,-0.37225*
%
%ADD33ROUNDEDRECTD33*%
G04:AMPARAMS|DCode=34|XSize=0.85mm|YSize=0.6mm|CornerRadius=0.003mm|HoleSize=0mm|Usage=FLASHONLY|Rotation=0.000|XOffset=0mm|YOffset=0mm|HoleType=Round|Shape=RoundedRectangle|*
%AMROUNDEDRECTD34*
21,1,0.85000,0.59400,0,0,0.0*
21,1,0.84400,0.60000,0,0,0.0*
1,1,0.00600,0.42200,-0.29700*
1,1,0.00600,-0.42200,-0.29700*
1,1,0.00600,-0.42200,0.29700*
1,1,0.00600,0.42200,0.29700*
%
%ADD34ROUNDEDRECTD34*%
G04:AMPARAMS|DCode=35|XSize=0.85mm|YSize=0.6mm|CornerRadius=0.003mm|HoleSize=0mm|Usage=FLASHONLY|Rotation=270.000|XOffset=0mm|YOffset=0mm|HoleType=Round|Shape=RoundedRectangle|*
%AMROUNDEDRECTD35*
21,1,0.85000,0.59400,0,0,270.0*
21,1,0.84400,0.60000,0,0,270.0*
1,1,0.00600,-0.29700,-0.42200*
1,1,0.00600,-0.29700,0.42200*
1,1,0.00600,0.29700,0.42200*
1,1,0.00600,0.29700,-0.42200*
%
%ADD35ROUNDEDRECTD35*%
%ADD36R,1.72000X0.89000*%
D13*
X-2603500Y-3683000D02*
D03*
X2596500D02*
D03*
D14*
X71120Y-4752340D02*
D03*
X-182880D02*
D03*
X-436880D02*
D03*
X-2394840Y-4638040D02*
D03*
X-2144840D02*
D03*
X-1894840D02*
D03*
D15*
X-690880Y-4752340D02*
D03*
D16*
X3183570Y-3816431D02*
D03*
X3816431Y-3183570D02*
D03*
X-3816431Y3183570D02*
D03*
X-3183570Y3816431D02*
D03*
D17*
X-1982122Y-3613D02*
D03*
X-1222122D02*
D03*
D18*
X3816431Y3183570D02*
D03*
X3183570Y3816431D02*
D03*
X-3816431Y-3183570D02*
D03*
X-3183570Y-3816431D02*
D03*
D19*
X2172939Y-2352544D02*
D03*
X1607254Y-1786859D02*
D03*
X1041568Y-1221173D02*
D03*
X475883Y-655488D02*
D03*
X0Y127000D02*
D03*
X2172939Y2352544D02*
D03*
X1607254Y1786859D02*
D03*
X475883Y655488D02*
D03*
X1041568Y1221173D02*
D03*
X-655488Y475883D02*
D03*
X-2352544Y2172939D02*
D03*
X-1786859Y1607254D02*
D03*
X-1221173Y1041568D02*
D03*
X-2146300Y-2336800D02*
D03*
X-1607254Y-1786859D02*
D03*
X-475883Y-655488D02*
D03*
X-1041568Y-1221173D02*
D03*
D20*
X2352544Y-2172939D02*
D03*
X1786859Y-1607254D02*
D03*
X1221173Y-1041568D02*
D03*
X655488Y-475883D02*
D03*
X-475883Y655488D02*
D03*
X-2172939Y2352544D02*
D03*
X-1607254Y1786859D02*
D03*
X-1041568Y1221173D02*
D03*
D21*
X0Y-127000D02*
D03*
D22*
X2352544Y2172939D02*
D03*
X1786859Y1607254D02*
D03*
X655488Y475883D02*
D03*
X1221173Y1041568D02*
D03*
X-2325905Y-2157195D02*
D03*
X-1786859Y-1607254D02*
D03*
X-655488Y-475883D02*
D03*
X-1221173Y-1041568D02*
D03*
D24*
X1607254Y-2030479D02*
D03*
X1512254Y-2250479D02*
D03*
X1702254D02*
D03*
X2267939Y-2827800D02*
D03*
X2077939D02*
D03*
X2172939Y-2607800D02*
D03*
X570883Y-1119088D02*
D03*
X380883D02*
D03*
X475883Y-899088D02*
D03*
X1136568Y-1684800D02*
D03*
X946569D02*
D03*
X1041568Y-1464800D02*
D03*
D25*
X-1404620Y-1884680D02*
D03*
Y-1604680D02*
D03*
X-1869440Y-2786680D02*
D03*
Y-2506680D02*
D03*
D26*
X-453140Y-1884080D02*
D03*
Y-1964080D02*
D03*
Y-2044080D02*
D03*
Y-2124080D02*
D03*
Y-2204080D02*
D03*
Y-2284080D02*
D03*
Y-2364080D02*
D03*
Y-2444080D02*
D03*
X371860D02*
D03*
Y-2364080D02*
D03*
Y-2284080D02*
D03*
Y-2204080D02*
D03*
Y-2124080D02*
D03*
Y-2044080D02*
D03*
Y-1964080D02*
D03*
Y-1884080D02*
D03*
D27*
X-320640Y-2576580D02*
D03*
X-240640D02*
D03*
X-160640D02*
D03*
X-80640D02*
D03*
X-640D02*
D03*
X79360D02*
D03*
X159360D02*
D03*
X239360D02*
D03*
Y-1751580D02*
D03*
X159360D02*
D03*
X79360D02*
D03*
X-640D02*
D03*
X-80640D02*
D03*
X-160640D02*
D03*
X-240640D02*
D03*
X-320640D02*
D03*
D28*
X-1914229Y2612051D02*
D03*
X-2016760Y2509520D02*
D03*
X-214969Y915331D02*
D03*
X-317500Y812800D02*
D03*
X-773769Y1474131D02*
D03*
X-876300Y1371600D02*
D03*
X-1345269Y2045631D02*
D03*
X-1447800Y1943100D02*
D03*
X900091Y-230209D02*
D03*
X797560Y-332740D02*
D03*
X1463971Y-796629D02*
D03*
X1361440Y-899160D02*
D03*
X2027851Y-1363049D02*
D03*
X1925320Y-1465580D02*
D03*
X2591731Y-1929469D02*
D03*
X2489200Y-2032000D02*
D03*
D29*
X-2604431Y-1916769D02*
D03*
X-2501900Y-2019300D02*
D03*
X915331Y214969D02*
D03*
X812800Y317500D02*
D03*
X1474131Y773769D02*
D03*
X1371600Y876300D02*
D03*
X2045631Y1345269D02*
D03*
X1943100Y1447800D02*
D03*
X2604431Y1916769D02*
D03*
X2501900Y2019300D02*
D03*
X-915331Y-214969D02*
D03*
X-812800Y-317500D02*
D03*
X-1474131Y-773769D02*
D03*
X-1371600Y-876300D02*
D03*
X-2045631Y-1345269D02*
D03*
X-1943100Y-1447800D02*
D03*
D30*
X-1694320Y-2334480D02*
D03*
X-1394320D02*
D03*
D31*
X-1544320Y-2349480D02*
D03*
D32*
X0Y-465340D02*
D03*
Y-320340D02*
D03*
D33*
X-830690Y-2302510D02*
D03*
X-685690D02*
D03*
X-830690Y-2157110D02*
D03*
X-685690D02*
D03*
X-104140Y-1465580D02*
D03*
X40860D02*
D03*
X-685690Y-2010410D02*
D03*
X-830690D02*
D03*
D34*
X471060Y-2576580D02*
D03*
Y-2721580D02*
D03*
X-551115Y-1750452D02*
D03*
Y-1605452D02*
D03*
D35*
X-104140Y-1595120D02*
D03*
X-249140D02*
D03*
D36*
X-1645920Y-2787680D02*
D03*
Y-2505680D02*
D03*
%TF.MD5,52fc916e48cf353e2d145d2d82495cea*%
M02*
