%TF.GenerationSoftware,Altium Limited,Altium Designer,20.1.8 (145)*%
G04 Layer_Color=32896*
%FSLAX45Y45*%
%MOMM*%
%TF.SameCoordinates,793C4F5F-A07E-474B-A886-B682DA88F124*%
%TF.FilePolarity,Positive*%
%TF.FileFunction,Legend,Bot*%
%TF.Part,Single*%
G01*
G75*
%TA.AperFunction,NonConductor*%
%ADD37C,0.25000*%
%ADD38C,0.60000*%
%ADD39C,0.30480*%
%ADD40C,0.10160*%
%ADD41C,0.15240*%
%ADD42C,0.25400*%
G36*
X2227277Y-3201914D02*
X2232782Y-3202561D01*
X2237316Y-3203533D01*
X2241526Y-3204504D01*
X2244765Y-3205476D01*
X2247032Y-3206447D01*
X2248327Y-3207095D01*
X2248975Y-3207419D01*
X2253185Y-3209686D01*
X2256747Y-3212277D01*
X2259986Y-3215191D01*
X2262576Y-3217782D01*
X2264843Y-3220049D01*
X2266463Y-3221992D01*
X2267434Y-3223288D01*
X2267758Y-3223612D01*
X2270349Y-3227822D01*
X2272940Y-3232032D01*
X2274883Y-3236242D01*
X2276826Y-3240128D01*
X2278445Y-3243690D01*
X2279417Y-3246281D01*
X2280064Y-3248224D01*
X2280388Y-3248548D01*
Y-3248872D01*
X2283950Y-3260207D01*
X2285570Y-3265712D01*
X2287189Y-3270894D01*
X2288161Y-3275428D01*
X2289132Y-3278666D01*
X2289456Y-3279961D01*
Y-3280933D01*
X2289780Y-3281581D01*
Y-3281905D01*
X2291075Y-3287086D01*
X2292047Y-3291296D01*
X2293018Y-3294859D01*
X2293990Y-3297773D01*
X2294638Y-3300040D01*
X2294961Y-3301659D01*
X2295285Y-3302631D01*
Y-3302955D01*
X2296904Y-3307489D01*
X2298524Y-3311699D01*
X2299495Y-3313318D01*
X2299819Y-3314613D01*
X2300467Y-3315261D01*
Y-3315585D01*
X2303381Y-3319795D01*
X2305972Y-3322710D01*
X2307915Y-3324653D01*
X2308239Y-3324977D01*
X2308563Y-3325300D01*
X2312449Y-3327244D01*
X2316012Y-3328215D01*
X2317631D01*
X2318926Y-3328539D01*
X2319574D01*
X2319898D01*
X2323784Y-3328215D01*
X2327346Y-3326920D01*
X2330261Y-3325300D01*
X2332852Y-3323357D01*
X2335119Y-3321414D01*
X2336738Y-3319795D01*
X2337710Y-3318500D01*
X2338033Y-3318176D01*
X2340624Y-3313966D01*
X2342243Y-3309432D01*
X2343539Y-3304898D01*
X2344510Y-3300688D01*
X2345158Y-3296802D01*
X2345482Y-3293887D01*
Y-3290972D01*
X2345158Y-3284495D01*
X2344510Y-3279314D01*
X2343215Y-3274780D01*
X2341920Y-3270894D01*
X2340624Y-3268303D01*
X2339329Y-3266360D01*
X2338681Y-3265064D01*
X2338357Y-3264740D01*
X2335766Y-3261826D01*
X2332528Y-3258911D01*
X2329289Y-3256320D01*
X2326375Y-3254377D01*
X2323784Y-3252434D01*
X2321517Y-3251139D01*
X2320222Y-3250491D01*
X2319574Y-3250167D01*
X2316659Y-3248548D01*
X2314069Y-3246929D01*
X2311802Y-3245633D01*
X2309858Y-3244338D01*
X2308563Y-3243366D01*
X2307592Y-3242395D01*
X2307268Y-3242071D01*
X2306944Y-3241747D01*
X2305648Y-3240128D01*
X2305001Y-3238185D01*
X2303705Y-3234622D01*
Y-3233003D01*
X2303381Y-3231708D01*
Y-3230412D01*
X2303705Y-3227498D01*
X2304353Y-3224907D01*
X2305325Y-3222640D01*
X2306620Y-3220697D01*
X2307592Y-3219078D01*
X2308563Y-3217782D01*
X2309211Y-3217135D01*
X2309535Y-3216811D01*
X2311802Y-3214868D01*
X2314392Y-3213572D01*
X2316659Y-3212601D01*
X2318926Y-3211953D01*
X2320869Y-3211629D01*
X2322489Y-3211305D01*
X2323460D01*
X2323784D01*
X2327023Y-3211629D01*
X2329937Y-3211953D01*
X2332852Y-3212601D01*
X2335443Y-3213572D01*
X2337710Y-3214544D01*
X2339329Y-3215191D01*
X2340624Y-3215515D01*
X2340948Y-3215839D01*
X2344187Y-3217782D01*
X2347425Y-3219725D01*
X2350340Y-3221992D01*
X2352931Y-3224259D01*
X2355197Y-3226526D01*
X2356817Y-3228145D01*
X2357788Y-3229441D01*
X2358112Y-3229765D01*
X2361027Y-3233327D01*
X2363618Y-3237537D01*
X2365885Y-3241423D01*
X2367828Y-3245309D01*
X2369447Y-3248548D01*
X2370418Y-3251139D01*
X2371066Y-3253082D01*
X2371390Y-3253406D01*
Y-3253730D01*
X2373009Y-3259235D01*
X2374305Y-3265388D01*
X2375276Y-3270894D01*
X2375924Y-3276399D01*
X2376248Y-3280933D01*
X2376572Y-3284819D01*
Y-3288058D01*
X2376248Y-3297125D01*
X2375276Y-3305222D01*
X2374305Y-3312670D01*
X2373009Y-3319147D01*
X2372038Y-3321738D01*
X2371390Y-3324329D01*
X2370742Y-3326272D01*
X2370418Y-3328215D01*
X2369771Y-3329510D01*
X2369447Y-3330482D01*
X2369123Y-3331130D01*
Y-3331454D01*
X2366208Y-3337931D01*
X2362646Y-3343436D01*
X2359084Y-3348294D01*
X2355521Y-3352180D01*
X2352607Y-3355418D01*
X2350016Y-3357362D01*
X2348397Y-3358981D01*
X2348073Y-3359305D01*
X2347749D01*
X2342243Y-3362543D01*
X2337062Y-3364810D01*
X2331556Y-3366753D01*
X2326699Y-3367725D01*
X2322489Y-3368372D01*
X2318926Y-3368696D01*
X2317631Y-3369020D01*
X2316659D01*
X2316335D01*
X2316012D01*
X2309211Y-3368696D01*
X2303058Y-3367725D01*
X2297876Y-3366106D01*
X2293342Y-3364486D01*
X2289456Y-3362867D01*
X2286865Y-3361248D01*
X2285246Y-3360276D01*
X2284598Y-3359952D01*
X2280064Y-3356390D01*
X2276178Y-3352180D01*
X2272616Y-3348294D01*
X2269701Y-3344084D01*
X2267434Y-3340845D01*
X2265815Y-3337931D01*
X2264843Y-3335987D01*
X2264519Y-3335664D01*
Y-3335340D01*
X2261929Y-3329187D01*
X2259662Y-3322386D01*
X2257395Y-3315909D01*
X2255452Y-3309756D01*
X2254156Y-3304250D01*
X2253509Y-3301983D01*
X2252861Y-3300040D01*
X2252537Y-3298421D01*
X2252213Y-3297125D01*
X2251889Y-3296478D01*
Y-3296154D01*
X2250594Y-3290001D01*
X2248975Y-3284495D01*
X2247679Y-3279638D01*
X2246708Y-3275751D01*
X2245736Y-3272513D01*
X2245088Y-3270246D01*
X2244765Y-3268627D01*
X2244441Y-3268303D01*
X2242822Y-3264740D01*
X2241202Y-3261178D01*
X2239583Y-3258263D01*
X2237964Y-3255997D01*
X2236345Y-3254053D01*
X2235049Y-3252758D01*
X2234401Y-3251786D01*
X2234078Y-3251463D01*
X2231487Y-3249196D01*
X2228572Y-3247576D01*
X2225657Y-3246281D01*
X2223067Y-3245633D01*
X2220476Y-3244986D01*
X2218533Y-3244662D01*
X2217237D01*
X2216590D01*
X2211732Y-3245309D01*
X2207522Y-3246605D01*
X2203636Y-3248548D01*
X2200397Y-3250815D01*
X2197806Y-3253082D01*
X2195863Y-3255025D01*
X2194568Y-3256320D01*
X2194244Y-3256968D01*
X2191329Y-3261826D01*
X2189062Y-3267007D01*
X2187443Y-3272513D01*
X2186472Y-3277371D01*
X2185824Y-3281905D01*
X2185176Y-3285467D01*
Y-3288705D01*
X2185500Y-3293563D01*
X2185824Y-3298097D01*
X2186472Y-3301983D01*
X2187443Y-3305222D01*
X2188091Y-3307813D01*
X2188739Y-3309756D01*
X2189062Y-3311051D01*
X2189386Y-3311375D01*
X2191329Y-3314613D01*
X2192949Y-3317204D01*
X2194892Y-3319471D01*
X2196835Y-3321414D01*
X2198454Y-3323033D01*
X2199749Y-3324005D01*
X2200397Y-3324653D01*
X2200721Y-3324977D01*
X2206550Y-3328539D01*
X2209465Y-3329834D01*
X2212056Y-3331130D01*
X2214647Y-3332101D01*
X2216590Y-3333073D01*
X2217885Y-3333397D01*
X2218209Y-3333721D01*
X2221447Y-3335016D01*
X2224038Y-3336635D01*
X2226305Y-3337931D01*
X2227924Y-3339226D01*
X2229220Y-3340521D01*
X2230515Y-3341169D01*
X2230839Y-3341817D01*
X2231163Y-3342141D01*
X2232782Y-3344084D01*
X2233754Y-3345703D01*
X2235049Y-3349589D01*
X2235373Y-3351208D01*
X2235697Y-3352504D01*
Y-3353799D01*
X2235373Y-3356714D01*
X2234725Y-3359629D01*
X2233754Y-3361895D01*
X2232782Y-3363839D01*
X2231811Y-3365458D01*
X2230839Y-3366753D01*
X2230191Y-3367401D01*
X2229868Y-3367725D01*
X2227601Y-3369668D01*
X2225334Y-3370963D01*
X2223391Y-3371935D01*
X2221124Y-3372583D01*
X2219504Y-3372906D01*
X2217885Y-3373230D01*
X2216914D01*
X2216590D01*
X2211408Y-3372906D01*
X2206226Y-3371935D01*
X2201369Y-3370316D01*
X2197159Y-3368696D01*
X2193596Y-3367077D01*
X2190682Y-3365458D01*
X2188739Y-3364486D01*
X2188415Y-3364162D01*
X2188091D01*
X2182909Y-3360276D01*
X2178375Y-3356390D01*
X2174489Y-3352504D01*
X2171251Y-3348618D01*
X2168660Y-3345379D01*
X2166717Y-3342464D01*
X2165421Y-3340845D01*
X2165098Y-3340198D01*
X2161211Y-3332101D01*
X2158297Y-3323033D01*
X2156030Y-3314290D01*
X2154734Y-3305869D01*
X2154087Y-3302307D01*
X2153763Y-3298745D01*
X2153439Y-3295506D01*
Y-3292592D01*
X2153115Y-3290648D01*
Y-3287410D01*
X2153439Y-3277694D01*
X2154410Y-3268951D01*
X2156030Y-3261178D01*
X2157649Y-3254377D01*
X2158297Y-3251463D01*
X2158944Y-3248872D01*
X2159916Y-3246605D01*
X2160564Y-3244986D01*
X2161211Y-3243366D01*
X2161535Y-3242395D01*
X2161859Y-3241747D01*
Y-3241423D01*
X2165421Y-3234622D01*
X2169308Y-3228469D01*
X2173518Y-3223612D01*
X2177404Y-3219401D01*
X2180642Y-3216163D01*
X2183557Y-3213896D01*
X2185500Y-3212277D01*
X2185824Y-3211953D01*
X2186148D01*
X2192301Y-3208391D01*
X2198454Y-3205800D01*
X2204283Y-3204181D01*
X2209789Y-3202885D01*
X2214323Y-3202237D01*
X2218209Y-3201590D01*
X2219504D01*
X2220476D01*
X2221124D01*
X2221447D01*
X2227277Y-3201914D01*
D02*
G37*
G36*
X2354550Y-3413711D02*
X2358760Y-3414359D01*
X2361998Y-3415331D01*
X2364913Y-3416302D01*
X2367180Y-3417598D01*
X2368475Y-3418569D01*
X2369447Y-3419217D01*
X2369771Y-3419541D01*
X2372038Y-3422132D01*
X2373657Y-3424722D01*
X2374952Y-3427313D01*
X2375600Y-3429904D01*
X2376248Y-3432171D01*
X2376572Y-3434114D01*
Y-3435733D01*
X2376248Y-3439296D01*
X2375600Y-3442210D01*
X2374305Y-3444801D01*
X2373333Y-3447068D01*
X2372038Y-3449011D01*
X2370742Y-3450307D01*
X2370095Y-3450954D01*
X2369771Y-3451278D01*
X2367180Y-3453221D01*
X2363941Y-3454517D01*
X2360703Y-3455812D01*
X2357464Y-3456460D01*
X2354550Y-3456784D01*
X2352283Y-3457107D01*
X2350664D01*
X2350016D01*
X2242498D01*
X2237640D01*
X2232782Y-3457431D01*
X2228572Y-3458079D01*
X2224362Y-3458727D01*
X2220800Y-3459698D01*
X2217237Y-3460346D01*
X2211732Y-3462289D01*
X2207198Y-3464556D01*
X2203960Y-3466175D01*
X2202016Y-3467471D01*
X2201369Y-3467794D01*
X2199102Y-3470061D01*
X2196835Y-3472328D01*
X2193596Y-3477834D01*
X2191006Y-3483987D01*
X2189386Y-3489816D01*
X2188415Y-3495322D01*
X2188091Y-3497912D01*
Y-3499856D01*
X2187767Y-3501475D01*
Y-3504066D01*
X2188091Y-3510543D01*
X2188739Y-3516372D01*
X2189710Y-3521554D01*
X2191006Y-3525764D01*
X2192301Y-3529002D01*
X2193272Y-3531269D01*
X2193920Y-3532564D01*
X2194244Y-3533212D01*
X2197159Y-3536774D01*
X2200073Y-3539689D01*
X2203312Y-3542280D01*
X2206226Y-3544223D01*
X2208817Y-3545518D01*
X2211084Y-3546490D01*
X2212380Y-3547138D01*
X2213027Y-3547462D01*
X2217885Y-3548757D01*
X2223067Y-3549728D01*
X2227924Y-3550376D01*
X2232782Y-3550700D01*
X2236992Y-3551024D01*
X2240555Y-3551348D01*
X2241850D01*
X2242822D01*
X2243145D01*
X2243469D01*
X2350016D01*
X2354550Y-3551672D01*
X2358760Y-3552319D01*
X2361998Y-3553291D01*
X2364913Y-3554262D01*
X2367180Y-3555558D01*
X2368475Y-3556529D01*
X2369447Y-3557177D01*
X2369771Y-3557501D01*
X2372038Y-3559768D01*
X2373657Y-3562359D01*
X2374952Y-3565273D01*
X2375600Y-3567864D01*
X2376248Y-3570131D01*
X2376572Y-3572074D01*
Y-3573693D01*
X2376248Y-3577256D01*
X2375600Y-3580170D01*
X2374305Y-3582761D01*
X2373333Y-3585028D01*
X2372038Y-3586971D01*
X2370742Y-3588267D01*
X2370095Y-3588914D01*
X2369771Y-3589238D01*
X2367180Y-3591181D01*
X2363941Y-3592477D01*
X2360703Y-3593772D01*
X2357464Y-3594420D01*
X2354550Y-3594744D01*
X2352283Y-3595067D01*
X2350664D01*
X2350016D01*
X2246060D01*
X2237316Y-3594744D01*
X2229220Y-3594096D01*
X2221771Y-3593448D01*
X2215618Y-3592477D01*
X2210437Y-3591505D01*
X2208493Y-3591181D01*
X2206874Y-3590534D01*
X2205579Y-3590210D01*
X2204607D01*
X2203960Y-3589886D01*
X2203636D01*
X2197483Y-3587619D01*
X2191653Y-3585028D01*
X2186795Y-3582437D01*
X2182585Y-3579523D01*
X2179347Y-3577256D01*
X2176756Y-3575313D01*
X2175461Y-3574017D01*
X2174813Y-3573370D01*
X2170927Y-3568836D01*
X2167688Y-3563978D01*
X2164774Y-3559120D01*
X2162507Y-3554586D01*
X2160564Y-3550376D01*
X2159268Y-3547138D01*
X2158944Y-3545842D01*
X2158621Y-3544871D01*
X2158297Y-3544547D01*
Y-3544223D01*
X2156677Y-3537098D01*
X2155382Y-3529974D01*
X2154410Y-3522525D01*
X2153763Y-3515724D01*
X2153439Y-3509895D01*
Y-3507628D01*
X2153115Y-3505361D01*
Y-3501151D01*
X2153439Y-3493379D01*
X2153763Y-3486578D01*
X2154734Y-3480425D01*
X2155706Y-3474919D01*
X2156354Y-3470709D01*
X2157325Y-3467147D01*
X2157649Y-3466175D01*
Y-3465204D01*
X2157973Y-3464880D01*
Y-3464556D01*
X2159916Y-3459050D01*
X2162507Y-3453545D01*
X2165098Y-3449011D01*
X2167688Y-3444801D01*
X2169955Y-3441563D01*
X2171898Y-3438972D01*
X2173518Y-3437676D01*
X2173841Y-3437029D01*
X2178699Y-3432171D01*
X2183881Y-3428285D01*
X2188739Y-3425046D01*
X2193272Y-3422779D01*
X2197483Y-3420836D01*
X2200397Y-3419541D01*
X2201693Y-3419217D01*
X2202664Y-3418893D01*
X2202988Y-3418569D01*
X2203312D01*
X2210113Y-3416950D01*
X2217237Y-3415655D01*
X2224362Y-3414683D01*
X2231163Y-3414035D01*
X2236992Y-3413711D01*
X2239583Y-3413388D01*
X2241850D01*
X2243469D01*
X2245088D01*
X2245736D01*
X2246060D01*
X2350016D01*
X2354550Y-3413711D01*
D02*
G37*
G36*
X2094628Y-3642673D02*
X2097219Y-3643321D01*
X2099486Y-3643969D01*
X2101105Y-3644940D01*
X2102724Y-3646236D01*
X2103696Y-3646883D01*
X2104343Y-3647531D01*
X2104667Y-3647855D01*
X2106286Y-3650122D01*
X2107582Y-3652713D01*
X2108553Y-3655304D01*
X2109201Y-3657894D01*
X2109525Y-3660485D01*
X2109849Y-3662428D01*
Y-3710682D01*
X2109525Y-3714568D01*
X2109201Y-3717807D01*
X2108229Y-3720721D01*
X2107258Y-3722988D01*
X2106286Y-3724931D01*
X2105639Y-3726227D01*
X2104991Y-3726874D01*
X2104667Y-3727198D01*
X2102724Y-3728818D01*
X2100457Y-3730113D01*
X2098514Y-3731084D01*
X2096247Y-3731732D01*
X2094628Y-3732056D01*
X2093009Y-3732380D01*
X2092037D01*
X2091713D01*
X2088798Y-3732056D01*
X2086532Y-3731408D01*
X2084265Y-3730761D01*
X2082645Y-3729465D01*
X2081026Y-3728494D01*
X2080055Y-3727846D01*
X2079407Y-3727198D01*
X2079083Y-3726874D01*
X2077464Y-3724607D01*
X2076168Y-3722017D01*
X2075521Y-3719426D01*
X2074873Y-3716835D01*
X2074549Y-3714244D01*
X2074225Y-3712301D01*
Y-3664048D01*
X2074549Y-3660161D01*
X2074873Y-3656923D01*
X2075844Y-3654008D01*
X2076816Y-3651741D01*
X2077464Y-3650122D01*
X2078435Y-3648827D01*
X2078759Y-3648179D01*
X2079083Y-3647855D01*
X2081026Y-3645912D01*
X2082969Y-3644617D01*
X2085236Y-3643645D01*
X2087179Y-3642997D01*
X2089122Y-3642673D01*
X2090418Y-3642350D01*
X2091389D01*
X2091713D01*
X2094628Y-3642673D01*
D02*
G37*
G36*
X2355845Y-3643645D02*
X2359731Y-3644293D01*
X2362970Y-3644940D01*
X2365561Y-3645912D01*
X2367504Y-3647207D01*
X2368799Y-3647855D01*
X2369771Y-3648503D01*
X2370095Y-3648827D01*
X2372362Y-3651094D01*
X2373981Y-3653360D01*
X2374952Y-3655951D01*
X2375924Y-3658218D01*
X2376248Y-3660485D01*
X2376572Y-3662104D01*
Y-3663724D01*
X2376248Y-3666962D01*
X2375600Y-3669877D01*
X2374628Y-3672468D01*
X2373333Y-3674411D01*
X2372038Y-3676030D01*
X2371066Y-3677325D01*
X2370418Y-3677973D01*
X2370095Y-3678297D01*
X2367504Y-3679916D01*
X2364589Y-3681212D01*
X2361351Y-3682183D01*
X2358436Y-3682831D01*
X2355521Y-3683155D01*
X2353254Y-3683479D01*
X2351959D01*
X2351311D01*
X2223067D01*
X2350340Y-3768003D01*
X2354226Y-3770594D01*
X2357788Y-3772861D01*
X2359084Y-3773509D01*
X2360055Y-3774157D01*
X2360703Y-3774804D01*
X2361027D01*
X2364589Y-3777071D01*
X2367180Y-3779338D01*
X2368799Y-3780634D01*
X2369447Y-3781281D01*
X2371714Y-3783872D01*
X2373333Y-3786139D01*
X2374305Y-3788082D01*
X2374628Y-3788406D01*
Y-3788730D01*
X2375924Y-3791968D01*
X2376248Y-3795207D01*
X2376572Y-3796826D01*
Y-3798769D01*
X2376248Y-3801360D01*
X2375924Y-3804275D01*
X2375276Y-3806542D01*
X2374628Y-3808808D01*
X2373657Y-3810428D01*
X2373009Y-3811723D01*
X2372685Y-3812695D01*
X2372362Y-3813019D01*
X2370742Y-3815285D01*
X2368799Y-3817229D01*
X2367180Y-3818848D01*
X2365237Y-3819819D01*
X2363618Y-3820791D01*
X2362646Y-3821439D01*
X2361674Y-3822086D01*
X2361351D01*
X2358760Y-3822734D01*
X2356169Y-3823382D01*
X2350664Y-3824029D01*
X2348397Y-3824353D01*
X2346454D01*
X2345158D01*
X2344834D01*
X2178052D01*
X2173841Y-3824029D01*
X2169955Y-3823382D01*
X2166717Y-3822734D01*
X2164126Y-3821439D01*
X2161859Y-3820467D01*
X2160564Y-3819819D01*
X2159592Y-3819172D01*
X2159268Y-3818848D01*
X2157325Y-3816581D01*
X2155706Y-3814314D01*
X2154734Y-3811723D01*
X2153763Y-3809456D01*
X2153439Y-3807189D01*
X2153115Y-3805570D01*
Y-3803951D01*
X2153439Y-3800712D01*
X2154087Y-3797798D01*
X2155058Y-3795207D01*
X2156354Y-3792940D01*
X2157325Y-3791321D01*
X2158297Y-3790025D01*
X2158944Y-3789377D01*
X2159268Y-3789054D01*
X2161859Y-3787111D01*
X2165098Y-3785815D01*
X2168012Y-3784520D01*
X2171251Y-3783872D01*
X2173841Y-3783548D01*
X2176108Y-3783224D01*
X2177404D01*
X2178052D01*
X2304677D01*
X2178699Y-3701290D01*
X2174813Y-3698699D01*
X2171898Y-3696433D01*
X2170603Y-3695461D01*
X2169631Y-3694813D01*
X2168984Y-3694166D01*
X2168660D01*
X2165421Y-3691575D01*
X2162507Y-3688984D01*
X2160887Y-3687365D01*
X2160564Y-3687041D01*
X2160240Y-3686717D01*
X2157973Y-3683479D01*
X2156354Y-3680564D01*
X2155706Y-3679268D01*
X2155382Y-3678621D01*
X2155058Y-3677973D01*
Y-3677649D01*
X2154087Y-3673763D01*
X2153439Y-3670525D01*
X2153115Y-3668905D01*
Y-3666962D01*
X2153439Y-3662752D01*
X2154410Y-3659190D01*
X2155706Y-3655951D01*
X2157649Y-3653360D01*
X2159592Y-3651094D01*
X2162183Y-3649150D01*
X2164450Y-3647531D01*
X2167364Y-3646236D01*
X2172546Y-3644617D01*
X2174813Y-3643969D01*
X2176756Y-3643645D01*
X2178699Y-3643321D01*
X2179995D01*
X2180966D01*
X2181290D01*
X2351311D01*
X2355845Y-3643645D01*
D02*
G37*
G36*
X2354550Y-3874226D02*
X2358760Y-3874874D01*
X2361998Y-3875845D01*
X2364913Y-3876817D01*
X2367180Y-3878112D01*
X2368475Y-3879084D01*
X2369447Y-3879732D01*
X2369771Y-3880055D01*
X2372038Y-3882646D01*
X2373657Y-3885237D01*
X2374952Y-3887828D01*
X2375600Y-3890419D01*
X2376248Y-3892686D01*
X2376572Y-3894629D01*
Y-3896248D01*
X2376248Y-3899486D01*
X2375600Y-3902725D01*
X2374305Y-3905316D01*
X2373333Y-3907583D01*
X2372038Y-3909202D01*
X2370742Y-3910821D01*
X2370095Y-3911469D01*
X2369771Y-3911793D01*
X2367180Y-3913736D01*
X2363941Y-3915031D01*
X2360703Y-3916327D01*
X2357464Y-3916974D01*
X2354550Y-3917298D01*
X2352283Y-3917622D01*
X2350664D01*
X2350016D01*
X2179671D01*
X2175137Y-3917298D01*
X2170927Y-3916651D01*
X2167364Y-3915679D01*
X2164774Y-3914707D01*
X2162507Y-3913736D01*
X2160887Y-3912764D01*
X2159916Y-3912117D01*
X2159592Y-3911793D01*
X2157325Y-3909202D01*
X2155706Y-3906611D01*
X2154734Y-3904020D01*
X2154087Y-3901753D01*
X2153439Y-3899486D01*
X2153115Y-3897867D01*
Y-3896248D01*
X2153439Y-3892686D01*
X2154087Y-3889447D01*
X2155058Y-3886856D01*
X2156354Y-3884266D01*
X2157649Y-3882646D01*
X2158621Y-3881027D01*
X2159268Y-3880379D01*
X2159592Y-3880055D01*
X2162183Y-3878112D01*
X2165421Y-3876493D01*
X2168660Y-3875522D01*
X2172222Y-3874550D01*
X2175137Y-3874226D01*
X2177404Y-3873902D01*
X2179023D01*
X2179671D01*
X2350016D01*
X2354550Y-3874226D01*
D02*
G37*
G36*
X2353578Y-3964904D02*
X2357788Y-3965876D01*
X2361027Y-3966847D01*
X2363618Y-3968143D01*
X2365561Y-3969762D01*
X2366856Y-3970733D01*
X2367504Y-3971705D01*
X2367828Y-3972029D01*
X2369447Y-3974944D01*
X2370742Y-3978182D01*
X2371714Y-3981744D01*
X2372362Y-3984983D01*
X2372685Y-3987574D01*
X2373009Y-3990164D01*
Y-4009919D01*
X2372685Y-4013482D01*
X2372362Y-4016720D01*
X2372038Y-4018987D01*
X2371390Y-4020930D01*
X2371066Y-4022549D01*
X2370742Y-4023197D01*
Y-4023521D01*
X2369771Y-4025464D01*
X2368475Y-4027083D01*
X2365885Y-4029674D01*
X2364589Y-4030646D01*
X2363618Y-4030970D01*
X2362970Y-4031617D01*
X2362646D01*
X2360055Y-4032589D01*
X2357141Y-4033560D01*
X2350987Y-4035503D01*
X2348397Y-4036151D01*
X2346130Y-4036799D01*
X2344510Y-4037447D01*
X2343863D01*
X2225657Y-4068860D01*
X2343863Y-4100597D01*
X2348397Y-4101893D01*
X2352283Y-4102864D01*
X2355521Y-4103836D01*
X2358112Y-4104807D01*
X2360055Y-4105779D01*
X2361674Y-4106103D01*
X2362322Y-4106750D01*
X2362646D01*
X2364589Y-4107722D01*
X2366532Y-4109017D01*
X2368799Y-4111608D01*
X2370418Y-4113875D01*
X2370742Y-4114523D01*
Y-4114847D01*
X2371390Y-4117114D01*
X2372038Y-4120028D01*
X2372685Y-4125534D01*
X2373009Y-4128125D01*
Y-4145936D01*
X2372685Y-4150470D01*
X2372362Y-4154356D01*
X2371390Y-4157919D01*
X2370418Y-4160833D01*
X2369447Y-4163100D01*
X2368799Y-4164720D01*
X2368151Y-4165691D01*
X2367828Y-4166015D01*
X2365561Y-4168282D01*
X2362646Y-4170225D01*
X2359731Y-4171520D01*
X2356493Y-4172168D01*
X2353578Y-4172816D01*
X2350987Y-4173140D01*
X2349368D01*
X2349044D01*
X2348720D01*
X2177728D01*
X2173194Y-4172816D01*
X2169631Y-4172168D01*
X2166393Y-4171520D01*
X2163478Y-4170225D01*
X2161535Y-4169254D01*
X2160240Y-4168606D01*
X2159268Y-4167958D01*
X2158944Y-4167634D01*
X2157001Y-4165367D01*
X2155706Y-4163100D01*
X2154410Y-4160833D01*
X2153763Y-4158566D01*
X2153439Y-4156300D01*
X2153115Y-4154680D01*
Y-4153385D01*
X2153439Y-4150146D01*
X2154087Y-4147232D01*
X2155058Y-4144641D01*
X2156354Y-4142698D01*
X2157325Y-4141079D01*
X2158297Y-4139783D01*
X2158944Y-4139135D01*
X2159268Y-4138812D01*
X2161859Y-4136869D01*
X2164774Y-4135573D01*
X2167688Y-4134278D01*
X2170927Y-4133630D01*
X2173518Y-4133306D01*
X2175785Y-4132982D01*
X2177080D01*
X2177728D01*
X2327023D01*
X2189062Y-4098330D01*
X2184205Y-4097035D01*
X2180318Y-4096063D01*
X2178375Y-4095740D01*
X2177080Y-4095416D01*
X2176432Y-4095092D01*
X2176108D01*
X2171898Y-4093473D01*
X2168012Y-4091853D01*
X2166717Y-4091206D01*
X2165745Y-4090558D01*
X2165098Y-4090234D01*
X2164774D01*
X2161211Y-4087643D01*
X2158621Y-4085053D01*
X2157001Y-4083109D01*
X2156354Y-4082462D01*
Y-4082138D01*
X2154410Y-4077604D01*
X2153439Y-4073394D01*
Y-4071451D01*
X2153115Y-4070155D01*
Y-4068860D01*
X2153439Y-4065298D01*
X2153763Y-4062059D01*
X2154734Y-4059468D01*
X2155706Y-4057201D01*
X2156354Y-4055258D01*
X2157325Y-4053963D01*
X2157649Y-4053315D01*
X2157973Y-4052991D01*
X2159916Y-4051048D01*
X2161859Y-4049429D01*
X2165745Y-4046838D01*
X2167041Y-4046191D01*
X2168336Y-4045543D01*
X2168984Y-4045219D01*
X2169308D01*
X2171898Y-4044247D01*
X2175137Y-4043276D01*
X2181614Y-4041657D01*
X2184529Y-4041009D01*
X2186795Y-4040361D01*
X2188415Y-4039714D01*
X2189062D01*
X2327023Y-4004738D01*
X2177728D01*
X2173518Y-4004414D01*
X2169631Y-4003766D01*
X2166393Y-4003118D01*
X2163802Y-4001823D01*
X2161859Y-4000852D01*
X2160564Y-4000204D01*
X2159592Y-3999556D01*
X2159268Y-3999232D01*
X2157325Y-3996965D01*
X2155706Y-3994698D01*
X2154734Y-3992431D01*
X2153763Y-3990164D01*
X2153439Y-3987898D01*
X2153115Y-3986278D01*
Y-3984983D01*
X2153439Y-3981744D01*
X2154087Y-3978830D01*
X2155058Y-3976239D01*
X2156354Y-3974296D01*
X2157325Y-3972677D01*
X2158297Y-3971381D01*
X2158944Y-3970733D01*
X2159268Y-3970410D01*
X2161859Y-3968467D01*
X2164774Y-3967171D01*
X2167688Y-3965876D01*
X2170927Y-3965228D01*
X2173518Y-3964904D01*
X2175785Y-3964580D01*
X2177080D01*
X2177728D01*
X2348720D01*
X2353578Y-3964904D01*
D02*
G37*
G36*
X-2189782Y-3332435D02*
X-2185896Y-3333083D01*
X-2182333Y-3334055D01*
X-2179742Y-3335026D01*
X-2177475Y-3335998D01*
X-2175856Y-3336969D01*
X-2174885Y-3337617D01*
X-2174561Y-3337941D01*
X-2172294Y-3340532D01*
X-2170675Y-3343122D01*
X-2169703Y-3345713D01*
X-2169055Y-3348304D01*
X-2168408Y-3350571D01*
X-2168084Y-3352190D01*
Y-3353809D01*
X-2168408Y-3357048D01*
X-2169055Y-3360286D01*
X-2170027Y-3362877D01*
X-2171322Y-3365144D01*
X-2172618Y-3366763D01*
X-2173589Y-3368383D01*
X-2174237Y-3369030D01*
X-2174561Y-3369354D01*
X-2177475Y-3371621D01*
X-2180714Y-3373240D01*
X-2183952Y-3374212D01*
X-2187191Y-3375183D01*
X-2190106Y-3375507D01*
X-2192373Y-3375831D01*
X-2193992D01*
X-2194640D01*
X-2255847D01*
Y-3415665D01*
X-2256171Y-3423113D01*
X-2256495Y-3429914D01*
X-2257466Y-3436391D01*
X-2258438Y-3442220D01*
X-2259733Y-3447726D01*
X-2261029Y-3452584D01*
X-2262648Y-3457118D01*
X-2264267Y-3461328D01*
X-2265887Y-3464890D01*
X-2267506Y-3468128D01*
X-2268801Y-3470719D01*
X-2270097Y-3472662D01*
X-2271068Y-3474282D01*
X-2272040Y-3475577D01*
X-2272364Y-3476225D01*
X-2272687Y-3476549D01*
X-2276250Y-3480111D01*
X-2279812Y-3483349D01*
X-2283698Y-3485940D01*
X-2287908Y-3488207D01*
X-2291795Y-3490474D01*
X-2296005Y-3492093D01*
X-2304101Y-3494360D01*
X-2307987Y-3495332D01*
X-2311549Y-3495980D01*
X-2314788Y-3496303D01*
X-2317379Y-3496627D01*
X-2319646Y-3496951D01*
X-2321589D01*
X-2322560D01*
X-2322884D01*
X-2328713Y-3496627D01*
X-2333895Y-3496303D01*
X-2338429Y-3495332D01*
X-2342639Y-3494360D01*
X-2345877Y-3493389D01*
X-2348468Y-3492741D01*
X-2350088Y-3492093D01*
X-2350735Y-3491769D01*
X-2355269Y-3489826D01*
X-2359155Y-3487559D01*
X-2362718Y-3484969D01*
X-2365632Y-3482702D01*
X-2368223Y-3480435D01*
X-2369842Y-3478815D01*
X-2371138Y-3477520D01*
X-2371462Y-3477196D01*
X-2374376Y-3473310D01*
X-2377291Y-3469424D01*
X-2379234Y-3465538D01*
X-2381177Y-3461975D01*
X-2382473Y-3459061D01*
X-2383444Y-3456470D01*
X-2383768Y-3454851D01*
X-2384092Y-3454203D01*
X-2385387Y-3448697D01*
X-2386359Y-3442544D01*
X-2387006Y-3436391D01*
X-2387654Y-3430238D01*
Y-3424733D01*
X-2387978Y-3422142D01*
Y-3359639D01*
X-2387654Y-3354457D01*
X-2387006Y-3350247D01*
X-2386035Y-3346685D01*
X-2384739Y-3343770D01*
X-2383444Y-3341503D01*
X-2382473Y-3339884D01*
X-2381825Y-3338912D01*
X-2381501Y-3338588D01*
X-2378910Y-3336321D01*
X-2375672Y-3334702D01*
X-2372433Y-3333731D01*
X-2368871Y-3333083D01*
X-2365956Y-3332435D01*
X-2363365Y-3332111D01*
X-2361746D01*
X-2361422D01*
X-2361098D01*
X-2194316D01*
X-2189782Y-3332435D01*
D02*
G37*
G36*
X-2193344Y-3532898D02*
X-2189134Y-3533546D01*
X-2185572Y-3534518D01*
X-2182657Y-3535813D01*
X-2180714Y-3536785D01*
X-2179095Y-3537756D01*
X-2178123Y-3538404D01*
X-2177799Y-3538728D01*
X-2175856Y-3541319D01*
X-2174237Y-3544557D01*
X-2173265Y-3547796D01*
X-2172294Y-3551358D01*
X-2171970Y-3554273D01*
X-2171646Y-3556863D01*
Y-3665029D01*
X-2171970Y-3668915D01*
X-2172294Y-3672154D01*
X-2173265Y-3674745D01*
X-2174237Y-3677012D01*
X-2174885Y-3678955D01*
X-2175856Y-3680250D01*
X-2176180Y-3680898D01*
X-2176504Y-3681222D01*
X-2178447Y-3683165D01*
X-2180714Y-3684460D01*
X-2182657Y-3685756D01*
X-2184924Y-3686403D01*
X-2186543Y-3686727D01*
X-2188163Y-3687051D01*
X-2189134D01*
X-2189458D01*
X-2192373Y-3686727D01*
X-2194640Y-3686079D01*
X-2196906Y-3685108D01*
X-2198850Y-3684136D01*
X-2200469Y-3683165D01*
X-2201440Y-3682193D01*
X-2202088Y-3681546D01*
X-2202412Y-3681222D01*
X-2204031Y-3678955D01*
X-2205327Y-3676364D01*
X-2206298Y-3673773D01*
X-2206946Y-3671182D01*
X-2207270Y-3668592D01*
X-2207594Y-3666648D01*
Y-3576294D01*
X-2364985D01*
X-2369519Y-3575970D01*
X-2373729Y-3575323D01*
X-2376967Y-3574351D01*
X-2379882Y-3573380D01*
X-2382149Y-3572084D01*
X-2383444Y-3571113D01*
X-2384416Y-3570465D01*
X-2384739Y-3570141D01*
X-2387006Y-3567550D01*
X-2388626Y-3564960D01*
X-2389921Y-3562369D01*
X-2390569Y-3559778D01*
X-2391216Y-3557511D01*
X-2391540Y-3555568D01*
Y-3553949D01*
X-2391216Y-3550386D01*
X-2390569Y-3547472D01*
X-2389273Y-3544881D01*
X-2388302Y-3542614D01*
X-2387006Y-3540671D01*
X-2385711Y-3539375D01*
X-2385063Y-3538728D01*
X-2384739Y-3538404D01*
X-2382149Y-3536461D01*
X-2378910Y-3535165D01*
X-2375672Y-3533870D01*
X-2372433Y-3533222D01*
X-2369519Y-3532898D01*
X-2367252Y-3532575D01*
X-2365632D01*
X-2364985D01*
X-2198202D01*
X-2193344Y-3532898D01*
D02*
G37*
G36*
X-2029606Y-3701624D02*
X-1973256D01*
Y-3739839D01*
X-2029606D01*
Y-3796512D01*
X-2068144D01*
Y-3739839D01*
X-2124817D01*
Y-3701624D01*
X-2068144D01*
Y-3644951D01*
X-2029606D01*
Y-3701624D01*
D02*
G37*
G36*
X-2252285Y-3716845D02*
X-2244189Y-3717493D01*
X-2236740Y-3718141D01*
X-2230587Y-3719112D01*
X-2225405Y-3720084D01*
X-2223462Y-3720408D01*
X-2221843Y-3721055D01*
X-2220548Y-3721379D01*
X-2219576D01*
X-2218928Y-3721703D01*
X-2218604D01*
X-2212451Y-3723970D01*
X-2206622Y-3726561D01*
X-2201764Y-3729152D01*
X-2197554Y-3732066D01*
X-2194316Y-3734333D01*
X-2191725Y-3736276D01*
X-2190429Y-3737572D01*
X-2189782Y-3738219D01*
X-2185896Y-3742753D01*
X-2182657Y-3747611D01*
X-2179742Y-3752469D01*
X-2177475Y-3757003D01*
X-2175532Y-3761213D01*
X-2174237Y-3764451D01*
X-2173913Y-3765747D01*
X-2173589Y-3766718D01*
X-2173265Y-3767042D01*
Y-3767366D01*
X-2171646Y-3774491D01*
X-2170351Y-3781615D01*
X-2169379Y-3789064D01*
X-2168732Y-3795865D01*
X-2168408Y-3801694D01*
Y-3803961D01*
X-2168084Y-3806228D01*
Y-3810438D01*
X-2168408Y-3818210D01*
X-2168732Y-3825011D01*
X-2169703Y-3831164D01*
X-2170675Y-3836670D01*
X-2171322Y-3840880D01*
X-2172294Y-3844442D01*
X-2172618Y-3845414D01*
Y-3846385D01*
X-2172942Y-3846709D01*
Y-3847033D01*
X-2174885Y-3852538D01*
X-2177475Y-3858044D01*
X-2180066Y-3862578D01*
X-2182657Y-3866788D01*
X-2184924Y-3870026D01*
X-2186867Y-3872617D01*
X-2188486Y-3873912D01*
X-2188810Y-3874560D01*
X-2193668Y-3879418D01*
X-2198850Y-3883304D01*
X-2203707Y-3886543D01*
X-2208241Y-3888810D01*
X-2212451Y-3890753D01*
X-2215366Y-3892048D01*
X-2216661Y-3892372D01*
X-2217633Y-3892696D01*
X-2217957Y-3893020D01*
X-2218281D01*
X-2225081Y-3894639D01*
X-2232206Y-3895934D01*
X-2239331Y-3896906D01*
X-2246132Y-3897554D01*
X-2251961Y-3897877D01*
X-2254552Y-3898201D01*
X-2256819D01*
X-2258438D01*
X-2260057D01*
X-2260705D01*
X-2261029D01*
X-2364985D01*
X-2369519Y-3897877D01*
X-2373729Y-3897230D01*
X-2376967Y-3896258D01*
X-2379882Y-3895287D01*
X-2382149Y-3893991D01*
X-2383444Y-3893020D01*
X-2384416Y-3892372D01*
X-2384739Y-3892048D01*
X-2387006Y-3889457D01*
X-2388626Y-3886866D01*
X-2389921Y-3884276D01*
X-2390569Y-3881685D01*
X-2391216Y-3879418D01*
X-2391540Y-3877475D01*
Y-3875856D01*
X-2391216Y-3872293D01*
X-2390569Y-3869379D01*
X-2389273Y-3866788D01*
X-2388302Y-3864521D01*
X-2387006Y-3862578D01*
X-2385711Y-3861282D01*
X-2385063Y-3860635D01*
X-2384739Y-3860311D01*
X-2382149Y-3858368D01*
X-2378910Y-3857072D01*
X-2375672Y-3855777D01*
X-2372433Y-3855129D01*
X-2369519Y-3854805D01*
X-2367252Y-3854481D01*
X-2365632D01*
X-2364985D01*
X-2257466D01*
X-2252609D01*
X-2247751Y-3854158D01*
X-2243541Y-3853510D01*
X-2239331Y-3852862D01*
X-2235768Y-3851891D01*
X-2232206Y-3851243D01*
X-2226701Y-3849300D01*
X-2222167Y-3847033D01*
X-2218928Y-3845414D01*
X-2216985Y-3844118D01*
X-2216337Y-3843794D01*
X-2214071Y-3841527D01*
X-2211804Y-3839261D01*
X-2208565Y-3833755D01*
X-2205974Y-3827602D01*
X-2204355Y-3821773D01*
X-2203383Y-3816267D01*
X-2203060Y-3813676D01*
Y-3811733D01*
X-2202736Y-3810114D01*
Y-3807523D01*
X-2203060Y-3801046D01*
X-2203707Y-3795217D01*
X-2204679Y-3790035D01*
X-2205974Y-3785825D01*
X-2207270Y-3782587D01*
X-2208241Y-3780320D01*
X-2208889Y-3779024D01*
X-2209213Y-3778377D01*
X-2212127Y-3774814D01*
X-2215042Y-3771900D01*
X-2218281Y-3769309D01*
X-2221195Y-3767366D01*
X-2223786Y-3766070D01*
X-2226053Y-3765099D01*
X-2227348Y-3764451D01*
X-2227996Y-3764127D01*
X-2232854Y-3762832D01*
X-2238035Y-3761860D01*
X-2242893Y-3761213D01*
X-2247751Y-3760889D01*
X-2251961Y-3760565D01*
X-2255523Y-3760241D01*
X-2256819D01*
X-2257790D01*
X-2258114D01*
X-2258438D01*
X-2364985D01*
X-2369519Y-3759917D01*
X-2373729Y-3759270D01*
X-2376967Y-3758298D01*
X-2379882Y-3757326D01*
X-2382149Y-3756031D01*
X-2383444Y-3755060D01*
X-2384416Y-3754412D01*
X-2384739Y-3754088D01*
X-2387006Y-3751821D01*
X-2388626Y-3749230D01*
X-2389921Y-3746316D01*
X-2390569Y-3743725D01*
X-2391216Y-3741458D01*
X-2391540Y-3739515D01*
Y-3737895D01*
X-2391216Y-3734333D01*
X-2390569Y-3731418D01*
X-2389273Y-3728828D01*
X-2388302Y-3726561D01*
X-2387006Y-3724618D01*
X-2385711Y-3723322D01*
X-2385063Y-3722675D01*
X-2384739Y-3722351D01*
X-2382149Y-3720408D01*
X-2378910Y-3719112D01*
X-2375672Y-3717817D01*
X-2372433Y-3717169D01*
X-2369519Y-3716845D01*
X-2367252Y-3716521D01*
X-2365632D01*
X-2364985D01*
X-2261029D01*
X-2252285Y-3716845D01*
D02*
G37*
G36*
X-2226377Y-3938682D02*
X-2221195Y-3939654D01*
X-2216337Y-3941273D01*
X-2212127Y-3942893D01*
X-2208565Y-3944512D01*
X-2205650Y-3946131D01*
X-2203707Y-3947103D01*
X-2203383Y-3947426D01*
X-2203060D01*
X-2197878Y-3951313D01*
X-2193344Y-3955199D01*
X-2189458Y-3959085D01*
X-2186219Y-3962971D01*
X-2183629Y-3966210D01*
X-2181686Y-3969124D01*
X-2180390Y-3970744D01*
X-2180066Y-3971391D01*
X-2176180Y-3979488D01*
X-2173265Y-3988555D01*
X-2170998Y-3997299D01*
X-2169703Y-4005719D01*
X-2169055Y-4009282D01*
X-2168732Y-4012844D01*
X-2168408Y-4016083D01*
Y-4018997D01*
X-2168084Y-4020940D01*
Y-4024179D01*
X-2168408Y-4033894D01*
X-2169379Y-4042638D01*
X-2170998Y-4050411D01*
X-2172618Y-4057212D01*
X-2173265Y-4060126D01*
X-2173913Y-4062717D01*
X-2174885Y-4064984D01*
X-2175532Y-4066603D01*
X-2176180Y-4068222D01*
X-2176504Y-4069194D01*
X-2176828Y-4069842D01*
Y-4070166D01*
X-2180390Y-4076966D01*
X-2184276Y-4083120D01*
X-2188486Y-4087977D01*
X-2192373Y-4092187D01*
X-2195611Y-4095426D01*
X-2198526Y-4097693D01*
X-2200469Y-4099312D01*
X-2200793Y-4099636D01*
X-2201117D01*
X-2207270Y-4103198D01*
X-2213423Y-4105789D01*
X-2219252Y-4107408D01*
X-2224758Y-4108704D01*
X-2229291Y-4109351D01*
X-2233178Y-4109999D01*
X-2234473D01*
X-2235445D01*
X-2236092D01*
X-2236416D01*
X-2242245Y-4109675D01*
X-2247751Y-4109028D01*
X-2252285Y-4108056D01*
X-2256495Y-4107084D01*
X-2259733Y-4106113D01*
X-2262000Y-4105141D01*
X-2263296Y-4104494D01*
X-2263943Y-4104170D01*
X-2268153Y-4101903D01*
X-2271716Y-4099312D01*
X-2274954Y-4096397D01*
X-2277545Y-4093807D01*
X-2279812Y-4091540D01*
X-2281431Y-4089597D01*
X-2282403Y-4088301D01*
X-2282727Y-4087977D01*
X-2285318Y-4083767D01*
X-2287908Y-4079557D01*
X-2289851Y-4075347D01*
X-2291795Y-4071461D01*
X-2293414Y-4067899D01*
X-2294385Y-4065308D01*
X-2295033Y-4063365D01*
X-2295357Y-4063041D01*
Y-4062717D01*
X-2298919Y-4051382D01*
X-2300538Y-4045877D01*
X-2302158Y-4040695D01*
X-2303129Y-4036161D01*
X-2304101Y-4032923D01*
X-2304425Y-4031627D01*
Y-4030656D01*
X-2304749Y-4030008D01*
Y-4029684D01*
X-2306044Y-4024503D01*
X-2307015Y-4020293D01*
X-2307987Y-4016730D01*
X-2308959Y-4013816D01*
X-2309606Y-4011549D01*
X-2309930Y-4009929D01*
X-2310254Y-4008958D01*
Y-4008634D01*
X-2311873Y-4004100D01*
X-2313492Y-3999890D01*
X-2314464Y-3998271D01*
X-2314788Y-3996975D01*
X-2315436Y-3996328D01*
Y-3996004D01*
X-2318350Y-3991794D01*
X-2320941Y-3988879D01*
X-2322884Y-3986936D01*
X-2323208Y-3986612D01*
X-2323532Y-3986288D01*
X-2327418Y-3984345D01*
X-2330980Y-3983374D01*
X-2332600D01*
X-2333895Y-3983050D01*
X-2334543D01*
X-2334867D01*
X-2338753Y-3983374D01*
X-2342315Y-3984669D01*
X-2345230Y-3986288D01*
X-2347821Y-3988232D01*
X-2350088Y-3990175D01*
X-2351707Y-3991794D01*
X-2352678Y-3993089D01*
X-2353002Y-3993413D01*
X-2355593Y-3997623D01*
X-2357212Y-4002157D01*
X-2358508Y-4006691D01*
X-2359479Y-4010901D01*
X-2360127Y-4014787D01*
X-2360451Y-4017702D01*
Y-4020617D01*
X-2360127Y-4027094D01*
X-2359479Y-4032275D01*
X-2358184Y-4036809D01*
X-2356888Y-4040695D01*
X-2355593Y-4043286D01*
X-2354298Y-4045229D01*
X-2353650Y-4046525D01*
X-2353326Y-4046848D01*
X-2350735Y-4049763D01*
X-2347497Y-4052678D01*
X-2344258Y-4055268D01*
X-2341344Y-4057212D01*
X-2338753Y-4059155D01*
X-2336486Y-4060450D01*
X-2335190Y-4061098D01*
X-2334543Y-4061422D01*
X-2331628Y-4063041D01*
X-2329037Y-4064660D01*
X-2326770Y-4065956D01*
X-2324827Y-4067251D01*
X-2323532Y-4068222D01*
X-2322560Y-4069194D01*
X-2322236Y-4069518D01*
X-2321913Y-4069842D01*
X-2320617Y-4071461D01*
X-2319969Y-4073404D01*
X-2318674Y-4076966D01*
Y-4078586D01*
X-2318350Y-4079881D01*
Y-4081176D01*
X-2318674Y-4084091D01*
X-2319322Y-4086682D01*
X-2320293Y-4088949D01*
X-2321589Y-4090892D01*
X-2322560Y-4092511D01*
X-2323532Y-4093807D01*
X-2324180Y-4094454D01*
X-2324503Y-4094778D01*
X-2326770Y-4096721D01*
X-2329361Y-4098017D01*
X-2331628Y-4098988D01*
X-2333895Y-4099636D01*
X-2335838Y-4099960D01*
X-2337457Y-4100284D01*
X-2338429D01*
X-2338753D01*
X-2341991Y-4099960D01*
X-2344906Y-4099636D01*
X-2347821Y-4098988D01*
X-2350411Y-4098017D01*
X-2352678Y-4097045D01*
X-2354298Y-4096397D01*
X-2355593Y-4096074D01*
X-2355917Y-4095750D01*
X-2359155Y-4093807D01*
X-2362394Y-4091864D01*
X-2365308Y-4089597D01*
X-2367899Y-4087330D01*
X-2370166Y-4085063D01*
X-2371785Y-4083443D01*
X-2372757Y-4082148D01*
X-2373081Y-4081824D01*
X-2375996Y-4078262D01*
X-2378586Y-4074052D01*
X-2380853Y-4070166D01*
X-2382796Y-4066279D01*
X-2384416Y-4063041D01*
X-2385387Y-4060450D01*
X-2386035Y-4058507D01*
X-2386359Y-4058183D01*
Y-4057859D01*
X-2387978Y-4052354D01*
X-2389273Y-4046201D01*
X-2390245Y-4040695D01*
X-2390893Y-4035190D01*
X-2391216Y-4030656D01*
X-2391540Y-4026770D01*
Y-4023531D01*
X-2391216Y-4014463D01*
X-2390245Y-4006367D01*
X-2389273Y-3998919D01*
X-2387978Y-3992442D01*
X-2387006Y-3989851D01*
X-2386359Y-3987260D01*
X-2385711Y-3985317D01*
X-2385387Y-3983374D01*
X-2384739Y-3982078D01*
X-2384416Y-3981107D01*
X-2384092Y-3980459D01*
Y-3980135D01*
X-2381177Y-3973658D01*
X-2377615Y-3968153D01*
X-2374052Y-3963295D01*
X-2370490Y-3959409D01*
X-2367575Y-3956170D01*
X-2364985Y-3954227D01*
X-2363365Y-3952608D01*
X-2363042Y-3952284D01*
X-2362718D01*
X-2357212Y-3949046D01*
X-2352031Y-3946779D01*
X-2346525Y-3944836D01*
X-2341667Y-3943864D01*
X-2337457Y-3943216D01*
X-2333895Y-3942893D01*
X-2332600Y-3942569D01*
X-2331628D01*
X-2331304D01*
X-2330980D01*
X-2324180Y-3942893D01*
X-2318026Y-3943864D01*
X-2312845Y-3945483D01*
X-2308311Y-3947103D01*
X-2304425Y-3948722D01*
X-2301834Y-3950341D01*
X-2300215Y-3951313D01*
X-2299567Y-3951636D01*
X-2295033Y-3955199D01*
X-2291147Y-3959409D01*
X-2287584Y-3963295D01*
X-2284670Y-3967505D01*
X-2282403Y-3970744D01*
X-2280784Y-3973658D01*
X-2279812Y-3975601D01*
X-2279488Y-3975925D01*
Y-3976249D01*
X-2276897Y-3982402D01*
X-2274630Y-3989203D01*
X-2272364Y-3995680D01*
X-2270420Y-4001833D01*
X-2269125Y-4007339D01*
X-2268477Y-4009606D01*
X-2267830Y-4011549D01*
X-2267506Y-4013168D01*
X-2267182Y-4014463D01*
X-2266858Y-4015111D01*
Y-4015435D01*
X-2265563Y-4021588D01*
X-2263943Y-4027094D01*
X-2262648Y-4031951D01*
X-2261676Y-4035837D01*
X-2260705Y-4039076D01*
X-2260057Y-4041343D01*
X-2259733Y-4042962D01*
X-2259410Y-4043286D01*
X-2257790Y-4046848D01*
X-2256171Y-4050411D01*
X-2254552Y-4053325D01*
X-2252933Y-4055592D01*
X-2251313Y-4057535D01*
X-2250018Y-4058831D01*
X-2249370Y-4059802D01*
X-2249046Y-4060126D01*
X-2246456Y-4062393D01*
X-2243541Y-4064012D01*
X-2240626Y-4065308D01*
X-2238035Y-4065956D01*
X-2235445Y-4066603D01*
X-2233502Y-4066927D01*
X-2232206D01*
X-2231558D01*
X-2226701Y-4066279D01*
X-2222491Y-4064984D01*
X-2218604Y-4063041D01*
X-2215366Y-4060774D01*
X-2212775Y-4058507D01*
X-2210832Y-4056564D01*
X-2209537Y-4055268D01*
X-2209213Y-4054621D01*
X-2206298Y-4049763D01*
X-2204031Y-4044581D01*
X-2202412Y-4039076D01*
X-2201440Y-4034218D01*
X-2200793Y-4029684D01*
X-2200145Y-4026122D01*
Y-4022883D01*
X-2200469Y-4018026D01*
X-2200793Y-4013492D01*
X-2201440Y-4009606D01*
X-2202412Y-4006367D01*
X-2203060Y-4003776D01*
X-2203707Y-4001833D01*
X-2204031Y-4000538D01*
X-2204355Y-4000214D01*
X-2206298Y-3996975D01*
X-2207917Y-3994385D01*
X-2209860Y-3992118D01*
X-2211804Y-3990175D01*
X-2213423Y-3988555D01*
X-2214718Y-3987584D01*
X-2215366Y-3986936D01*
X-2215690Y-3986612D01*
X-2221519Y-3983050D01*
X-2224434Y-3981755D01*
X-2227025Y-3980459D01*
X-2229615Y-3979488D01*
X-2231558Y-3978516D01*
X-2232854Y-3978192D01*
X-2233178Y-3977868D01*
X-2236416Y-3976573D01*
X-2239007Y-3974954D01*
X-2241274Y-3973658D01*
X-2242893Y-3972363D01*
X-2244189Y-3971067D01*
X-2245484Y-3970420D01*
X-2245808Y-3969772D01*
X-2246132Y-3969448D01*
X-2247751Y-3967505D01*
X-2248722Y-3965886D01*
X-2250018Y-3962000D01*
X-2250342Y-3960380D01*
X-2250666Y-3959085D01*
Y-3957790D01*
X-2250342Y-3954875D01*
X-2249694Y-3951960D01*
X-2248722Y-3949693D01*
X-2247751Y-3947750D01*
X-2246779Y-3946131D01*
X-2245808Y-3944836D01*
X-2245160Y-3944188D01*
X-2244836Y-3943864D01*
X-2242569Y-3941921D01*
X-2240302Y-3940626D01*
X-2238359Y-3939654D01*
X-2236092Y-3939006D01*
X-2234473Y-3938682D01*
X-2232854Y-3938359D01*
X-2231882D01*
X-2231558D01*
X-2226377Y-3938682D01*
D02*
G37*
%LPC*%
G36*
X-2288880Y-3375831D02*
X-2355269D01*
Y-3410483D01*
X-2354945Y-3415341D01*
X-2354298Y-3419875D01*
X-2353650Y-3423761D01*
X-2353002Y-3427323D01*
X-2352354Y-3430562D01*
X-2351383Y-3433153D01*
X-2350411Y-3435743D01*
X-2349440Y-3437687D01*
X-2348792Y-3439630D01*
X-2347173Y-3442220D01*
X-2345877Y-3443840D01*
X-2345554Y-3444164D01*
X-2341991Y-3447078D01*
X-2338105Y-3449021D01*
X-2334219Y-3450641D01*
X-2330333Y-3451612D01*
X-2327094Y-3452260D01*
X-2324503Y-3452584D01*
X-2322560D01*
X-2322236D01*
X-2321913D01*
X-2317703Y-3452260D01*
X-2313816Y-3451612D01*
X-2310578Y-3450964D01*
X-2307663Y-3449993D01*
X-2305396Y-3448697D01*
X-2303777Y-3448050D01*
X-2302805Y-3447402D01*
X-2302482Y-3447078D01*
X-2299891Y-3444811D01*
X-2297948Y-3442220D01*
X-2296005Y-3439630D01*
X-2294709Y-3437039D01*
X-2293414Y-3434772D01*
X-2292766Y-3432829D01*
X-2292442Y-3431533D01*
X-2292118Y-3431210D01*
X-2291147Y-3426999D01*
X-2290175Y-3422789D01*
X-2289528Y-3418579D01*
X-2289204Y-3414369D01*
Y-3410807D01*
X-2288880Y-3407892D01*
Y-3375831D01*
D02*
G37*
%LPD*%
D37*
X1799754Y-2250479D02*
G03*
X1799754Y-2250479I-12500J0D01*
G01*
X-390640Y-1751580D02*
G03*
X-390640Y-1751580I-12500J0D01*
G01*
X-1314520Y-2342310D02*
G03*
X-1314520Y-2342310I-12500J0D01*
G01*
X668383Y-1119088D02*
G03*
X668383Y-1119088I-12500J0D01*
G01*
X1234069Y-1684800D02*
G03*
X1234069Y-1684800I-12500J0D01*
G01*
X2365439Y-2827800D02*
G03*
X2365439Y-2827800I-12500J0D01*
G01*
D38*
X-225560Y-1949160D02*
G03*
X-225560Y-1949160I-30000J0D01*
G01*
D39*
X-1002122Y-3613D02*
G03*
X-1002122Y-3613I-600000J0D01*
G01*
D40*
X1457254Y-2070479D02*
X1542174D01*
X1457254Y-2170479D02*
Y-2070479D01*
X1672334D02*
X1757254D01*
Y-2170479D02*
Y-2070479D01*
X2322939Y-2747800D02*
Y-2647800D01*
X2238019D02*
X2322939D01*
X2022939Y-2747800D02*
Y-2647800D01*
X2107859D01*
X269360Y-2474080D02*
Y-1854080D01*
X-350640Y-2474080D02*
Y-1854080D01*
Y-2474080D02*
X269360D01*
X-350640Y-1854080D02*
X269360D01*
X-1986677Y2540196D02*
X-1965495Y2532049D01*
X-1983455Y2567969D02*
X-1965495Y2532049D01*
X-1983455Y2567969D02*
X-1947534Y2550009D01*
X-1965495Y2585930D02*
X-1947534Y2550009D01*
X-1965495Y2585930D02*
X-1945738Y2580542D01*
X-2022063Y2564321D02*
X-1969030Y2617354D01*
X-1961959Y2504217D02*
X-1908926Y2557250D01*
X-2532576Y-1989217D02*
X-2524429Y-1968035D01*
X-2560349Y-1985995D02*
X-2524429Y-1968035D01*
X-2560349Y-1985995D02*
X-2542389Y-1950074D01*
X-2578310Y-1968035D02*
X-2542389Y-1950074D01*
X-2578310Y-1968035D02*
X-2572922Y-1948278D01*
X-2609734Y-1971570D02*
X-2556701Y-2024603D01*
X-2549630Y-1911466D02*
X-2496597Y-1964499D01*
X-1774320Y-2022230D02*
X-1659400D01*
X-1774320Y-2282230D02*
Y-2022230D01*
X-1429240D02*
X-1314320D01*
Y-2282230D02*
Y-2022230D01*
X-287417Y843476D02*
X-266235Y835329D01*
X-284195Y871249D02*
X-266235Y835329D01*
X-284195Y871249D02*
X-248274Y853289D01*
X-266235Y889210D02*
X-248274Y853289D01*
X-266235Y889210D02*
X-246478Y883822D01*
X-322803Y867601D02*
X-269770Y920634D01*
X-262699Y807497D02*
X-209666Y860530D01*
X-846217Y1402276D02*
X-825035Y1394129D01*
X-842995Y1430049D02*
X-825035Y1394129D01*
X-842995Y1430049D02*
X-807074Y1412089D01*
X-825035Y1448010D02*
X-807074Y1412089D01*
X-825035Y1448010D02*
X-805278Y1442622D01*
X-881603Y1426401D02*
X-828570Y1479434D01*
X-821499Y1366297D02*
X-768466Y1419330D01*
X-1417717Y1973776D02*
X-1396535Y1965629D01*
X-1414495Y2001549D02*
X-1396535Y1965629D01*
X-1414495Y2001549D02*
X-1378574Y1983589D01*
X-1396535Y2019510D02*
X-1378574Y1983589D01*
X-1396535Y2019510D02*
X-1376778Y2014122D01*
X-1453103Y1997901D02*
X-1400070Y2050934D01*
X-1392999Y1937797D02*
X-1339966Y1990830D01*
X835329Y266235D02*
X843476Y287417D01*
X835329Y266235D02*
X871249Y284195D01*
X853289Y248274D02*
X871249Y284195D01*
X853289Y248274D02*
X889210Y266235D01*
X883822Y246478D02*
X889210Y266235D01*
X867601Y322803D02*
X920634Y269770D01*
X807497Y262699D02*
X860530Y209666D01*
X1394129Y825035D02*
X1402276Y846217D01*
X1394129Y825035D02*
X1430049Y842995D01*
X1412089Y807074D02*
X1430049Y842995D01*
X1412089Y807074D02*
X1448010Y825035D01*
X1442622Y805278D02*
X1448010Y825035D01*
X1426401Y881603D02*
X1479434Y828570D01*
X1366297Y821499D02*
X1419330Y768466D01*
X1965629Y1396535D02*
X1973776Y1417717D01*
X1965629Y1396535D02*
X2001549Y1414495D01*
X1983589Y1378574D02*
X2001549Y1414495D01*
X1983589Y1378574D02*
X2019510Y1396535D01*
X2014122Y1376778D02*
X2019510Y1396535D01*
X1997901Y1453103D02*
X2050934Y1400070D01*
X1937797Y1392999D02*
X1990830Y1339966D01*
X2524429Y1968035D02*
X2532576Y1989217D01*
X2524429Y1968035D02*
X2560349Y1985995D01*
X2542389Y1950074D02*
X2560349Y1985995D01*
X2542389Y1950074D02*
X2578310Y1968035D01*
X2572922Y1948278D02*
X2578310Y1968035D01*
X2556701Y2024603D02*
X2609734Y1971570D01*
X2496597Y1964499D02*
X2549630Y1911466D01*
X827643Y-302064D02*
X848825Y-310211D01*
X830865Y-274291D02*
X848825Y-310211D01*
X830865Y-274291D02*
X866786Y-292251D01*
X848825Y-256330D02*
X866786Y-292251D01*
X848825Y-256330D02*
X868582Y-261718D01*
X792257Y-277939D02*
X845290Y-224906D01*
X852361Y-338043D02*
X905394Y-285010D01*
X1391523Y-868484D02*
X1412705Y-876631D01*
X1394745Y-840711D02*
X1412705Y-876631D01*
X1394745Y-840711D02*
X1430666Y-858671D01*
X1412705Y-822750D02*
X1430666Y-858671D01*
X1412705Y-822750D02*
X1432462Y-828138D01*
X1356137Y-844359D02*
X1409170Y-791326D01*
X1416241Y-904463D02*
X1469274Y-851430D01*
X1955403Y-1434904D02*
X1976585Y-1443051D01*
X1958625Y-1407131D02*
X1976585Y-1443051D01*
X1958625Y-1407131D02*
X1994546Y-1425091D01*
X1976585Y-1389170D02*
X1994546Y-1425091D01*
X1976585Y-1389170D02*
X1996342Y-1394558D01*
X1920017Y-1410779D02*
X1973050Y-1357746D01*
X1980121Y-1470883D02*
X2033154Y-1417850D01*
X2519283Y-2001324D02*
X2540465Y-2009471D01*
X2522505Y-1973551D02*
X2540465Y-2009471D01*
X2522505Y-1973551D02*
X2558426Y-1991511D01*
X2540465Y-1955590D02*
X2558426Y-1991511D01*
X2540465Y-1955590D02*
X2560222Y-1960978D01*
X2483897Y-1977199D02*
X2536930Y-1924166D01*
X2544001Y-2037303D02*
X2597034Y-1984270D01*
X-843476Y-287417D02*
X-835329Y-266235D01*
X-871249Y-284195D02*
X-835329Y-266235D01*
X-871249Y-284195D02*
X-853289Y-248274D01*
X-889210Y-266235D02*
X-853289Y-248274D01*
X-889210Y-266235D02*
X-883822Y-246478D01*
X-920634Y-269770D02*
X-867601Y-322803D01*
X-860530Y-209666D02*
X-807497Y-262699D01*
X-1402276Y-846217D02*
X-1394129Y-825035D01*
X-1430049Y-842995D02*
X-1394129Y-825035D01*
X-1430049Y-842995D02*
X-1412089Y-807074D01*
X-1448010Y-825035D02*
X-1412089Y-807074D01*
X-1448010Y-825035D02*
X-1442622Y-805278D01*
X-1479434Y-828570D02*
X-1426401Y-881603D01*
X-1419330Y-768466D02*
X-1366297Y-821499D01*
X-1973776Y-1417717D02*
X-1965629Y-1396535D01*
X-2001549Y-1414495D02*
X-1965629Y-1396535D01*
X-2001549Y-1414495D02*
X-1983589Y-1378574D01*
X-2019510Y-1396535D02*
X-1983589Y-1378574D01*
X-2019510Y-1396535D02*
X-2014122Y-1376778D01*
X-2050934Y-1400070D02*
X-1997901Y-1453103D01*
X-1990830Y-1339966D02*
X-1937797Y-1392999D01*
X-20320Y-372520D02*
X419Y-363303D01*
X-20320Y-372520D02*
X17780Y-385220D01*
X-20320Y-397920D02*
X17780Y-385220D01*
X-20320Y-397920D02*
X17780Y-410620D01*
X0Y-420780D02*
X17780Y-410620D01*
X42500Y-430340D02*
Y-355340D01*
X-42500Y-430340D02*
Y-355340D01*
X-737870Y-2282190D02*
X-728653Y-2302929D01*
X-750570Y-2320290D02*
X-737870Y-2282190D01*
X-763270D02*
X-750570Y-2320290D01*
X-775970D02*
X-763270Y-2282190D01*
X-786130Y-2302510D02*
X-775970Y-2320290D01*
X-795690Y-2345010D02*
X-720690D01*
X-795690Y-2260010D02*
X-720690D01*
X-737870Y-2136790D02*
X-728653Y-2157529D01*
X-750570Y-2174890D02*
X-737870Y-2136790D01*
X-763270D02*
X-750570Y-2174890D01*
X-775970D02*
X-763270Y-2136790D01*
X-786130Y-2157110D02*
X-775970Y-2174890D01*
X-795690Y-2199610D02*
X-720690D01*
X-795690Y-2114610D02*
X-720690D01*
X-11320Y-1445260D02*
X-2103Y-1465999D01*
X-24020Y-1483360D02*
X-11320Y-1445260D01*
X-36720D02*
X-24020Y-1483360D01*
X-49420D02*
X-36720Y-1445260D01*
X-59580Y-1465580D02*
X-49420Y-1483360D01*
X-69140Y-1508080D02*
X5860D01*
X-69140Y-1423080D02*
X5860D01*
X-787727Y-2009991D02*
X-778510Y-2030730D01*
X-765810Y-1992630D01*
X-753110Y-2030730D01*
X-740410Y-1992630D01*
X-730250Y-2010410D01*
X-795690Y-1967910D02*
X-720690D01*
X-795690Y-2052910D02*
X-720690D01*
X428560Y-2686580D02*
Y-2611580D01*
X513560Y-2686580D02*
Y-2611580D01*
X443560Y-2661780D02*
X498560D01*
X443560Y-2636380D02*
X498560D01*
X471060Y-2677020D02*
Y-2661780D01*
Y-2636380D02*
Y-2621140D01*
X-508615Y-1715452D02*
Y-1640452D01*
X-593615Y-1715452D02*
Y-1640452D01*
X-578615Y-1665252D02*
X-523615D01*
X-578615Y-1690652D02*
X-523615D01*
X-551115Y-1665252D02*
Y-1650012D01*
Y-1705892D02*
Y-1690652D01*
X-214140Y-1552620D02*
X-139140D01*
X-214140Y-1637620D02*
X-139140D01*
X-189340Y-1622620D02*
Y-1567620D01*
X-163940Y-1622620D02*
Y-1567620D01*
X-204580Y-1595120D02*
X-189340D01*
X-163940D02*
X-148700D01*
X625883Y-1039088D02*
Y-939088D01*
X540963D02*
X625883D01*
X325883Y-1039088D02*
Y-939088D01*
X410803D01*
X1191568Y-1604800D02*
Y-1504800D01*
X1106649D02*
X1191568D01*
X891568Y-1604800D02*
Y-1504800D01*
X976489D01*
X-1569920Y-2706680D02*
Y-2586680D01*
X-1721920Y-2706680D02*
Y-2586680D01*
D41*
X-1475740Y-1721820D02*
X-1333500D01*
X-1475740Y-1767540D02*
X-1333500D01*
X-1404620Y-1721820D02*
Y-1676100D01*
Y-1813260D02*
Y-1767540D01*
X-1940560Y-2623820D02*
X-1798320D01*
X-1940560Y-2669540D02*
X-1798320D01*
X-1869440Y-2623820D02*
Y-2578100D01*
Y-2715260D02*
Y-2669540D01*
D42*
X1947061Y-2288102D02*
Y-2221457D01*
X1963723Y-2204795D01*
X1997045D01*
X2013706Y-2221457D01*
Y-2288102D01*
X1997045Y-2304763D01*
X1963723D01*
X1980384Y-2271441D02*
X1947061Y-2304763D01*
X1963723D02*
X1947061Y-2288102D01*
X1913739Y-2221457D02*
X1897077Y-2204795D01*
X1863755D01*
X1847094Y-2221457D01*
Y-2238118D01*
X1863755Y-2254779D01*
X1880416D01*
X1863755D01*
X1847094Y-2271441D01*
Y-2288102D01*
X1863755Y-2304763D01*
X1897077D01*
X1913739Y-2288102D01*
X2804013Y-4521305D02*
Y-4621273D01*
X2754029D01*
X2737368Y-4604612D01*
Y-4587951D01*
X2754029Y-4571289D01*
X2804013D01*
X2754029D01*
X2737368Y-4554628D01*
Y-4537967D01*
X2754029Y-4521305D01*
X2804013D01*
X2704045Y-4621273D02*
Y-4554628D01*
X2670723Y-4521305D01*
X2637400Y-4554628D01*
Y-4621273D01*
Y-4571289D01*
X2704045D01*
X2604078Y-4521305D02*
X2537433D01*
X2570755D01*
Y-4621273D01*
X2504110Y-4521305D02*
X2437465D01*
X2470787D01*
Y-4621273D01*
X2337497Y-4521305D02*
X2404142D01*
Y-4621273D01*
X2337497D01*
X2404142Y-4571289D02*
X2370819D01*
X2304174Y-4621273D02*
Y-4521305D01*
X2254190D01*
X2237529Y-4537967D01*
Y-4571289D01*
X2254190Y-4587951D01*
X2304174D01*
X2270852D02*
X2237529Y-4621273D01*
X2204206Y-4521305D02*
Y-4537967D01*
X2170884Y-4571289D01*
X2137561Y-4537967D01*
Y-4521305D01*
X2170884Y-4571289D02*
Y-4621273D01*
X2104239Y-4637935D02*
X2037594D01*
X2004271Y-4521305D02*
Y-4621273D01*
Y-4571289D01*
X1937626D01*
Y-4521305D01*
Y-4621273D01*
X1854319Y-4521305D02*
X1887642D01*
X1904303Y-4537967D01*
Y-4604612D01*
X1887642Y-4621273D01*
X1854319D01*
X1837658Y-4604612D01*
Y-4537967D01*
X1854319Y-4521305D01*
X1804335D02*
Y-4621273D01*
X1737690D01*
X1704367Y-4521305D02*
Y-4621273D01*
X1654384D01*
X1637722Y-4604612D01*
Y-4537967D01*
X1654384Y-4521305D01*
X1704367D01*
X1537755D02*
X1604400D01*
Y-4621273D01*
X1537755D01*
X1604400Y-4571289D02*
X1571077D01*
X1504432Y-4621273D02*
Y-4521305D01*
X1454448D01*
X1437787Y-4537967D01*
Y-4571289D01*
X1454448Y-4587951D01*
X1504432D01*
X1471109D02*
X1437787Y-4621273D01*
X-955141Y-2065474D02*
Y-1965506D01*
X-1005125D01*
X-1021786Y-1982167D01*
Y-2015490D01*
X-1005125Y-2032151D01*
X-955141D01*
X-988464D02*
X-1021786Y-2065474D01*
X-1121754D02*
X-1055109D01*
X-1121754Y-1998829D01*
Y-1982167D01*
X-1105093Y-1965506D01*
X-1071770D01*
X-1055109Y-1982167D01*
X-1155077Y-2065474D02*
X-1188399D01*
X-1171738D01*
Y-1965506D01*
X-1155077Y-1982167D01*
X913352Y-4676165D02*
Y-4828515D01*
X837176D01*
X811785Y-4803123D01*
Y-4701557D01*
X837176Y-4676165D01*
X913352D01*
X659434D02*
X761001D01*
Y-4828515D01*
X659434D01*
X761001Y-4752340D02*
X710218D01*
X608650Y-4676165D02*
Y-4828515D01*
X532475D01*
X507083Y-4803123D01*
Y-4777732D01*
X532475Y-4752340D01*
X608650D01*
X532475D01*
X507083Y-4726948D01*
Y-4701557D01*
X532475Y-4676165D01*
X608650D01*
X456300D02*
Y-4803123D01*
X430908Y-4828515D01*
X380124D01*
X354732Y-4803123D01*
Y-4676165D01*
X202382Y-4701557D02*
X227773Y-4676165D01*
X278557D01*
X303949Y-4701557D01*
Y-4803123D01*
X278557Y-4828515D01*
X227773D01*
X202382Y-4803123D01*
Y-4752340D01*
X253165D01*
X372650Y-1516004D02*
Y-1416036D01*
X322666D01*
X306005Y-1432697D01*
Y-1466020D01*
X322666Y-1482681D01*
X372650D01*
X339328D02*
X306005Y-1516004D01*
X206037D02*
X272682D01*
X206037Y-1449359D01*
Y-1432697D01*
X222699Y-1416036D01*
X256021D01*
X272682Y-1432697D01*
X172715D02*
X156053Y-1416036D01*
X122731D01*
X106070Y-1432697D01*
Y-1499342D01*
X122731Y-1516004D01*
X156053D01*
X172715Y-1499342D01*
Y-1432697D01*
X-373979Y-1561797D02*
X-357318Y-1545136D01*
X-323995D01*
X-307334Y-1561797D01*
Y-1628443D01*
X-323995Y-1645104D01*
X-357318D01*
X-373979Y-1628443D01*
X-473946Y-1545136D02*
X-407301D01*
Y-1595120D01*
X-440624Y-1578459D01*
X-457285D01*
X-473946Y-1595120D01*
Y-1628443D01*
X-457285Y-1645104D01*
X-423963D01*
X-407301Y-1628443D01*
X-952284Y-2207094D02*
Y-2107126D01*
X-1002267D01*
X-1018929Y-2123787D01*
Y-2157110D01*
X-1002267Y-2173771D01*
X-952284D01*
X-985606D02*
X-1018929Y-2207094D01*
X-1118896D02*
X-1052251D01*
X-1118896Y-2140449D01*
Y-2123787D01*
X-1102235Y-2107126D01*
X-1068913D01*
X-1052251Y-2123787D01*
X-947988Y-2365256D02*
Y-2265288D01*
X-997972D01*
X-1014633Y-2281949D01*
Y-2315272D01*
X-997972Y-2331933D01*
X-947988D01*
X-981310D02*
X-1014633Y-2365256D01*
X-1047955D02*
X-1081278D01*
X-1064617D01*
Y-2265288D01*
X-1047955Y-2281949D01*
X-694004Y-1672570D02*
X-677343Y-1655909D01*
X-644020D01*
X-627359Y-1672570D01*
Y-1739215D01*
X-644020Y-1755876D01*
X-677343D01*
X-694004Y-1739215D01*
X-727327Y-1672570D02*
X-743988Y-1655909D01*
X-777311D01*
X-793972Y-1672570D01*
Y-1689231D01*
X-777311Y-1705892D01*
X-760649D01*
X-777311D01*
X-793972Y-1722554D01*
Y-1739215D01*
X-777311Y-1755876D01*
X-743988D01*
X-727327Y-1739215D01*
X2505861Y-2814623D02*
Y-2747977D01*
X2522523Y-2731316D01*
X2555845D01*
X2572506Y-2747977D01*
Y-2814623D01*
X2555845Y-2831284D01*
X2522523D01*
X2539184Y-2797961D02*
X2505861Y-2831284D01*
X2522523D02*
X2505861Y-2814623D01*
X2422555Y-2831284D02*
Y-2731316D01*
X2472539Y-2781300D01*
X2405894D01*
X1375561Y-1722423D02*
Y-1655777D01*
X1392223Y-1639116D01*
X1425545D01*
X1442206Y-1655777D01*
Y-1722423D01*
X1425545Y-1739084D01*
X1392223D01*
X1408884Y-1705761D02*
X1375561Y-1739084D01*
X1392223D02*
X1375561Y-1722423D01*
X1275594Y-1739084D02*
X1342239D01*
X1275594Y-1672439D01*
Y-1655777D01*
X1292255Y-1639116D01*
X1325577D01*
X1342239Y-1655777D01*
X787400Y-1156710D02*
Y-1090065D01*
X804061Y-1073404D01*
X837384D01*
X854045Y-1090065D01*
Y-1156710D01*
X837384Y-1173372D01*
X804061D01*
X820723Y-1140049D02*
X787400Y-1173372D01*
X804061D02*
X787400Y-1156710D01*
X754077Y-1173372D02*
X720755D01*
X737416D01*
Y-1073404D01*
X754077Y-1090065D01*
X83307Y-646115D02*
Y-546147D01*
X33323D01*
X16662Y-562809D01*
Y-596131D01*
X33323Y-612793D01*
X83307D01*
X49984D02*
X16662Y-646115D01*
X-16661Y-562809D02*
X-33323Y-546147D01*
X-66645D01*
X-83306Y-562809D01*
Y-579470D01*
X-66645Y-596131D01*
X-49984D01*
X-66645D01*
X-83306Y-612793D01*
Y-629454D01*
X-66645Y-646115D01*
X-33323D01*
X-16661Y-629454D01*
X-2398084Y-2003304D02*
X-2327396Y-1932616D01*
X-2362740Y-1897272D01*
X-2386303D01*
X-2409865Y-1920835D01*
Y-1944397D01*
X-2374522Y-1979741D01*
X-2398084Y-1956179D02*
X-2445209D01*
X-2468772Y-1932616D02*
X-2492335Y-1909053D01*
X-2480553Y-1920835D01*
X-2409865Y-1850147D01*
Y-1873709D01*
X-2515897Y-1861928D02*
X-2539460D01*
X-2563023Y-1838365D01*
X-2563022Y-1814803D01*
X-2515897Y-1767678D01*
X-2492335Y-1767677D01*
X-2468772Y-1791240D01*
Y-1814803D01*
X-2480553Y-1826584D01*
X-2504116Y-1826584D01*
X-2539460Y-1791240D01*
X-2042484Y-1647704D02*
X-1971796Y-1577016D01*
X-2007140Y-1541672D01*
X-2030703D01*
X-2054265Y-1565235D01*
Y-1588797D01*
X-2018922Y-1624141D01*
X-2042484Y-1600579D02*
X-2089609D01*
X-2113172Y-1577016D02*
X-2136735Y-1553453D01*
X-2124953Y-1565235D01*
X-2054265Y-1494547D01*
Y-1518109D01*
X-2113172Y-1459203D02*
Y-1435640D01*
X-2136735Y-1412077D01*
X-2160297Y-1412078D01*
X-2172078Y-1423859D01*
Y-1447422D01*
X-2195641Y-1447422D01*
X-2207422Y-1459203D01*
X-2207423Y-1482765D01*
X-2183860Y-1506328D01*
X-2160297D01*
X-2148516Y-1494547D01*
Y-1470984D01*
X-2124953Y-1470984D01*
X-2113172Y-1459203D01*
X-2148516Y-1470984D02*
X-2172078Y-1447422D01*
X-1470984Y-1076204D02*
X-1400296Y-1005516D01*
X-1435640Y-970172D01*
X-1459203D01*
X-1482765Y-993735D01*
Y-1017297D01*
X-1447422Y-1052641D01*
X-1470984Y-1029079D02*
X-1518109D01*
X-1541672Y-1005516D02*
X-1565235Y-981953D01*
X-1553453Y-993735D01*
X-1482765Y-923047D01*
Y-946609D01*
X-1529891Y-875922D02*
X-1577016Y-828796D01*
X-1588797Y-840578D01*
Y-934828D01*
X-1600578Y-946609D01*
X-886784Y-530104D02*
X-816096Y-459416D01*
X-851440Y-424072D01*
X-875003D01*
X-898565Y-447635D01*
Y-471197D01*
X-863222Y-506541D01*
X-886784Y-482979D02*
X-933909D01*
X-957472Y-459416D02*
X-981035Y-435853D01*
X-969253Y-447635D01*
X-898565Y-376947D01*
Y-400509D01*
X-992816Y-282696D02*
X-981035Y-318040D01*
Y-365165D01*
X-1004597Y-388728D01*
X-1028160D01*
X-1051723Y-365165D01*
X-1051722Y-341603D01*
X-1039941Y-329822D01*
X-1016378Y-329822D01*
X-981035Y-365165D01*
X2778004Y-2042484D02*
X2707316Y-1971796D01*
X2671972Y-2007140D01*
Y-2030703D01*
X2695534Y-2054265D01*
X2719097D01*
X2754441Y-2018922D01*
X2730878Y-2042484D02*
Y-2089609D01*
X2707316Y-2113172D02*
X2683753Y-2136735D01*
X2695534Y-2124953D01*
X2624846Y-2054265D01*
X2648409D01*
X2530596Y-2148516D02*
X2577721Y-2101391D01*
X2613065Y-2136735D01*
X2577722Y-2148516D01*
X2565940Y-2160297D01*
Y-2183860D01*
X2589503Y-2207422D01*
X2613065Y-2207423D01*
X2636628Y-2183860D01*
Y-2160297D01*
X2201424Y-1463364D02*
X2130736Y-1392676D01*
X2095392Y-1428020D01*
Y-1451583D01*
X2118954Y-1475145D01*
X2142517D01*
X2177861Y-1439802D01*
X2154298Y-1463364D02*
Y-1510489D01*
X2130736Y-1534052D02*
X2107173Y-1557615D01*
X2118954Y-1545833D01*
X2048266Y-1475145D01*
X2071829D01*
X2036485Y-1628303D02*
X1965797Y-1557615D01*
X2036485D01*
X1989360Y-1604740D01*
X1637544Y-922344D02*
X1566856Y-851656D01*
X1531512Y-887000D01*
Y-910563D01*
X1555074Y-934125D01*
X1578637D01*
X1613981Y-898782D01*
X1590418Y-922344D02*
Y-969469D01*
X1566856Y-993032D02*
X1543293Y-1016595D01*
X1555074Y-1004813D01*
X1484386Y-934125D01*
X1507949D01*
X1449043Y-993032D02*
X1425480D01*
X1401917Y-1016595D01*
X1401917Y-1040157D01*
X1413699Y-1051938D01*
X1437261D01*
X1449043Y-1040157D01*
X1437261Y-1051938D01*
X1437262Y-1075501D01*
X1449043Y-1087282D01*
X1472605Y-1087283D01*
X1496168Y-1063720D01*
Y-1040157D01*
X1073664Y-330524D02*
X1002976Y-259836D01*
X967632Y-295180D01*
Y-318743D01*
X991194Y-342305D01*
X1014757D01*
X1050101Y-306962D01*
X1026538Y-330524D02*
Y-377649D01*
X1002976Y-401212D02*
X979413Y-424775D01*
X991194Y-412993D01*
X920506Y-342305D01*
X944069D01*
X896944Y-507244D02*
X944069Y-460118D01*
X849819D01*
X838037Y-448337D01*
X838037Y-424775D01*
X861600Y-401212D01*
X885163D01*
X2479634Y1742277D02*
X2550322Y1812965D01*
X2514978Y1848309D01*
X2491416D01*
X2467853Y1824747D01*
Y1801184D01*
X2503197Y1765840D01*
X2479634Y1789403D02*
X2432509D01*
X2408946Y1812965D02*
X2385384Y1836528D01*
X2397165Y1824747D01*
X2467853Y1895435D01*
Y1871872D01*
X2350040D02*
X2326477Y1895434D01*
X2338258Y1883653D01*
X2408946Y1954341D01*
Y1930778D01*
X1945316Y1158996D02*
X2016004Y1229684D01*
X1980660Y1265028D01*
X1957097D01*
X1933535Y1241465D01*
Y1217903D01*
X1968878Y1182559D01*
X1945316Y1206121D02*
X1898191D01*
X1874628Y1229684D02*
X1851065Y1253247D01*
X1862847Y1241465D01*
X1933535Y1312153D01*
Y1288591D01*
X1874628Y1347497D02*
Y1371060D01*
X1851065Y1394623D01*
X1827503Y1394622D01*
X1780378Y1347497D01*
X1780377Y1323935D01*
X1803940Y1300372D01*
X1827503D01*
X1874628Y1347497D01*
X1331663Y642349D02*
X1402351Y713037D01*
X1367006Y748381D01*
X1343444D01*
X1319881Y724819D01*
Y701256D01*
X1355225Y665912D01*
X1331663Y689475D02*
X1284537D01*
X1272756Y724819D02*
X1249193D01*
X1225631Y748381D01*
Y771944D01*
X1272756Y819069D01*
X1296319Y819069D01*
X1319881Y795507D01*
Y771944D01*
X1308100Y760163D01*
X1284537Y760163D01*
X1249193Y795506D01*
X772863Y70849D02*
X843551Y141537D01*
X808207Y176881D01*
X784644D01*
X761082Y153319D01*
Y129756D01*
X796425Y94412D01*
X772863Y117975D02*
X725738D01*
X761082Y200444D02*
Y224007D01*
X737519Y247569D01*
X713956Y247569D01*
X702175Y235788D01*
Y212225D01*
X678612Y212225D01*
X666831Y200444D01*
Y176881D01*
X690394Y153319D01*
X713956D01*
X725737Y165100D01*
Y188663D01*
X749300Y188663D01*
X761082Y200444D01*
X725737Y188663D02*
X702175Y212225D01*
X-1770109Y2469583D02*
X-1840797Y2540271D01*
X-1876141Y2504926D01*
Y2481364D01*
X-1852579Y2457801D01*
X-1829016D01*
X-1793672Y2493145D01*
X-1817235Y2469583D02*
Y2422457D01*
X-1911485Y2469583D02*
X-1958611Y2422457D01*
X-1946829Y2410676D01*
X-1852579D01*
X-1840797Y2398895D01*
X-1213850Y1903163D02*
X-1284538Y1973851D01*
X-1319882Y1938506D01*
Y1914944D01*
X-1296319Y1891381D01*
X-1272756D01*
X-1237412Y1926725D01*
X-1260975Y1903163D02*
Y1856037D01*
X-1402351D02*
X-1367007Y1867819D01*
X-1319882D01*
X-1296319Y1844256D01*
Y1820693D01*
X-1319882Y1797131D01*
X-1343444D01*
X-1355225Y1808912D01*
X-1355226Y1832475D01*
X-1319882Y1867819D01*
X-616950Y1331663D02*
X-687638Y1402351D01*
X-722982Y1367006D01*
Y1343444D01*
X-699419Y1319881D01*
X-675856D01*
X-640512Y1355225D01*
X-664075Y1331663D02*
Y1284537D01*
X-805451D02*
X-758326Y1331663D01*
X-722982Y1296319D01*
X-758325Y1284537D01*
X-770107Y1272756D01*
Y1249193D01*
X-746544Y1225631D01*
X-722982D01*
X-699419Y1249193D01*
Y1272756D01*
X-70850Y772863D02*
X-141538Y843551D01*
X-176882Y808206D01*
Y784644D01*
X-153319Y761081D01*
X-129756D01*
X-94412Y796425D01*
X-117975Y772863D02*
Y725737D01*
X-176882Y666831D02*
X-247569Y737519D01*
X-176882D01*
X-224007Y690393D01*
X-1284180Y795671D02*
Y695703D01*
X-1334164D01*
X-1350825Y712365D01*
Y729026D01*
X-1334164Y745687D01*
X-1284180D01*
X-1334164D01*
X-1350825Y762348D01*
Y779010D01*
X-1334164Y795671D01*
X-1284180D01*
X-1384148D02*
Y712365D01*
X-1400809Y695703D01*
X-1434132D01*
X-1450793Y712365D01*
Y795671D01*
X-1484116D02*
X-1550761D01*
Y779010D01*
X-1484116Y712365D01*
Y695703D01*
X-1550761D01*
X-1584084Y795671D02*
X-1650729D01*
Y779010D01*
X-1584084Y712365D01*
Y695703D01*
X-1650729D01*
X-1750697Y795671D02*
X-1684051D01*
Y695703D01*
X-1750697D01*
X-1684051Y745687D02*
X-1717374D01*
X-1784019Y695703D02*
Y795671D01*
X-1834003D01*
X-1850664Y779010D01*
Y745687D01*
X-1834003Y729026D01*
X-1784019D01*
X-1817342D02*
X-1850664Y695703D01*
X-1820575Y-2037896D02*
Y-2121203D01*
X-1837236Y-2137864D01*
X-1870559D01*
X-1887220Y-2121203D01*
Y-2037896D01*
X-1920543Y-2137864D02*
X-1953865D01*
X-1937204D01*
Y-2037896D01*
X-1920543Y-2054557D01*
X-1375281Y-2576443D02*
Y-2676410D01*
X-1441926D01*
X-1475249D02*
X-1508572D01*
X-1491910D01*
Y-2576443D01*
X-1475249Y-2593104D01*
X504383Y-2881641D02*
X521044Y-2898302D01*
Y-2931625D01*
X504383Y-2948286D01*
X437738D01*
X421076Y-2931625D01*
Y-2898302D01*
X437738Y-2881641D01*
X421076Y-2798335D02*
X521044D01*
X471060Y-2848318D01*
Y-2781673D01*
X-1395879Y-1386537D02*
X-1379217Y-1369876D01*
X-1345895D01*
X-1329234Y-1386537D01*
Y-1453183D01*
X-1345895Y-1469844D01*
X-1379217D01*
X-1395879Y-1453183D01*
X-1495846Y-1469844D02*
X-1429201D01*
X-1495846Y-1403199D01*
Y-1386537D01*
X-1479185Y-1369876D01*
X-1445863D01*
X-1429201Y-1386537D01*
X-2070795Y-2596652D02*
X-2054134Y-2579991D01*
X-2020812D01*
X-2004150Y-2596652D01*
Y-2663297D01*
X-2020812Y-2679958D01*
X-2054134D01*
X-2070795Y-2663297D01*
X-2104118Y-2679958D02*
X-2137441D01*
X-2120780D01*
Y-2579991D01*
X-2104118Y-2596652D01*
X502406Y-1672136D02*
Y-1755443D01*
X485745Y-1772104D01*
X452423D01*
X435761Y-1755443D01*
Y-1672136D01*
X335794Y-1772104D02*
X402439D01*
X335794Y-1705459D01*
Y-1688797D01*
X352455Y-1672136D01*
X385777D01*
X402439Y-1688797D01*
%TF.MD5,df24aedf3c0582937d40ae5749682e5e*%
M02*
