%TF.GenerationSoftware,Altium Limited,Altium Designer,20.1.8 (145)*%
G04 Layer_Color=65535*
%FSLAX45Y45*%
%MOMM*%
%TF.SameCoordinates,793C4F5F-A07E-474B-A886-B682DA88F124*%
%TF.FilePolarity,Positive*%
%TF.FileFunction,Legend,Top*%
%TF.Part,Single*%
G01*
G75*
%TA.AperFunction,NonConductor*%
%ADD41C,0.15240*%
%ADD42C,0.25400*%
%ADD66C,0.20000*%
%ADD67C,0.20320*%
G36*
X-2229291Y-3332759D02*
X-2224758Y-3333407D01*
X-2219252Y-3334702D01*
X-2213423Y-3336321D01*
X-2207270Y-3338912D01*
X-2201117Y-3342475D01*
X-2200793D01*
X-2200469Y-3342798D01*
X-2198526Y-3344418D01*
X-2195611Y-3346685D01*
X-2192373Y-3349923D01*
X-2188486Y-3354133D01*
X-2184276Y-3358991D01*
X-2180390Y-3365144D01*
X-2176828Y-3371945D01*
Y-3372269D01*
X-2176504Y-3372917D01*
X-2176180Y-3373888D01*
X-2175532Y-3375507D01*
X-2174885Y-3377127D01*
X-2173913Y-3379394D01*
X-2173265Y-3381984D01*
X-2172618Y-3384899D01*
X-2170998Y-3391700D01*
X-2169379Y-3399472D01*
X-2168408Y-3408216D01*
X-2168084Y-3417932D01*
Y-3421170D01*
X-2168408Y-3423113D01*
Y-3426028D01*
X-2168732Y-3429266D01*
X-2169055Y-3432829D01*
X-2169703Y-3436391D01*
X-2170998Y-3444811D01*
X-2173265Y-3453555D01*
X-2176180Y-3462623D01*
X-2180066Y-3470719D01*
X-2180390Y-3471367D01*
X-2181686Y-3472986D01*
X-2183629Y-3475901D01*
X-2186219Y-3479139D01*
X-2189458Y-3483026D01*
X-2193344Y-3486912D01*
X-2197878Y-3490798D01*
X-2203060Y-3494684D01*
X-2203383D01*
X-2203707Y-3495008D01*
X-2205650Y-3495980D01*
X-2208565Y-3497599D01*
X-2212127Y-3499218D01*
X-2216337Y-3500837D01*
X-2221195Y-3502457D01*
X-2226377Y-3503428D01*
X-2231558Y-3503752D01*
X-2231882D01*
X-2232854D01*
X-2234473Y-3503428D01*
X-2236092Y-3503104D01*
X-2238359Y-3502457D01*
X-2240302Y-3501485D01*
X-2242569Y-3500190D01*
X-2244836Y-3498246D01*
X-2245160Y-3497923D01*
X-2245808Y-3497275D01*
X-2246779Y-3495980D01*
X-2247751Y-3494360D01*
X-2248722Y-3492417D01*
X-2249694Y-3490150D01*
X-2250342Y-3487236D01*
X-2250666Y-3484321D01*
Y-3483026D01*
X-2250342Y-3481730D01*
X-2250018Y-3480111D01*
X-2248722Y-3476225D01*
X-2247751Y-3474605D01*
X-2246132Y-3472662D01*
X-2245808Y-3472338D01*
X-2245484Y-3471691D01*
X-2244189Y-3471043D01*
X-2242893Y-3469748D01*
X-2241274Y-3468452D01*
X-2239007Y-3467157D01*
X-2236416Y-3465538D01*
X-2233178Y-3464242D01*
X-2232854Y-3463918D01*
X-2231558Y-3463595D01*
X-2229615Y-3462623D01*
X-2227025Y-3461651D01*
X-2224434Y-3460356D01*
X-2221519Y-3459061D01*
X-2215690Y-3455498D01*
X-2215366Y-3455174D01*
X-2214718Y-3454527D01*
X-2213423Y-3453555D01*
X-2211804Y-3451936D01*
X-2209860Y-3449993D01*
X-2207917Y-3447726D01*
X-2206298Y-3445135D01*
X-2204355Y-3441897D01*
X-2204031Y-3441573D01*
X-2203707Y-3440277D01*
X-2203060Y-3438334D01*
X-2202412Y-3435743D01*
X-2201440Y-3432505D01*
X-2200793Y-3428619D01*
X-2200469Y-3424085D01*
X-2200145Y-3419227D01*
Y-3415989D01*
X-2200793Y-3412426D01*
X-2201440Y-3407892D01*
X-2202412Y-3403035D01*
X-2204031Y-3397529D01*
X-2206298Y-3392348D01*
X-2209213Y-3387490D01*
X-2209537Y-3386842D01*
X-2210832Y-3385547D01*
X-2212775Y-3383604D01*
X-2215366Y-3381337D01*
X-2218604Y-3379070D01*
X-2222491Y-3377127D01*
X-2226701Y-3375831D01*
X-2231558Y-3375183D01*
X-2232206D01*
X-2233502D01*
X-2235445Y-3375507D01*
X-2238035Y-3376155D01*
X-2240626Y-3376803D01*
X-2243541Y-3378098D01*
X-2246456Y-3379717D01*
X-2249046Y-3381984D01*
X-2249370Y-3382308D01*
X-2250018Y-3383280D01*
X-2251313Y-3384575D01*
X-2252933Y-3386518D01*
X-2254552Y-3388785D01*
X-2256171Y-3391700D01*
X-2257790Y-3395262D01*
X-2259410Y-3398825D01*
X-2259733Y-3399148D01*
X-2260057Y-3400768D01*
X-2260705Y-3403035D01*
X-2261676Y-3406273D01*
X-2262648Y-3410159D01*
X-2263943Y-3415017D01*
X-2265563Y-3420522D01*
X-2266858Y-3426676D01*
Y-3426999D01*
X-2267182Y-3427647D01*
X-2267506Y-3428943D01*
X-2267830Y-3430562D01*
X-2268477Y-3432505D01*
X-2269125Y-3434772D01*
X-2270420Y-3440277D01*
X-2272364Y-3446430D01*
X-2274630Y-3452907D01*
X-2276897Y-3459708D01*
X-2279488Y-3465861D01*
Y-3466185D01*
X-2279812Y-3466509D01*
X-2280784Y-3468452D01*
X-2282403Y-3471367D01*
X-2284670Y-3474605D01*
X-2287584Y-3478815D01*
X-2291147Y-3482702D01*
X-2295033Y-3486912D01*
X-2299567Y-3490474D01*
X-2300215Y-3490798D01*
X-2301834Y-3491769D01*
X-2304425Y-3493389D01*
X-2308311Y-3495008D01*
X-2312845Y-3496627D01*
X-2318026Y-3498246D01*
X-2324180Y-3499218D01*
X-2330980Y-3499542D01*
X-2331304D01*
X-2331628D01*
X-2332600D01*
X-2333895Y-3499218D01*
X-2337457Y-3498894D01*
X-2341667Y-3498246D01*
X-2346525Y-3497275D01*
X-2352031Y-3495332D01*
X-2357212Y-3493065D01*
X-2362718Y-3489826D01*
X-2363042D01*
X-2363365Y-3489503D01*
X-2364985Y-3487883D01*
X-2367575Y-3485940D01*
X-2370490Y-3482702D01*
X-2374052Y-3478815D01*
X-2377615Y-3473958D01*
X-2381177Y-3468452D01*
X-2384092Y-3461975D01*
Y-3461651D01*
X-2384416Y-3461004D01*
X-2384739Y-3460032D01*
X-2385387Y-3458737D01*
X-2385711Y-3456794D01*
X-2386359Y-3454851D01*
X-2387006Y-3452260D01*
X-2387978Y-3449669D01*
X-2389273Y-3443192D01*
X-2390245Y-3435743D01*
X-2391216Y-3427647D01*
X-2391540Y-3418579D01*
Y-3415341D01*
X-2391216Y-3411455D01*
X-2390893Y-3406921D01*
X-2390245Y-3401415D01*
X-2389273Y-3395910D01*
X-2387978Y-3389757D01*
X-2386359Y-3384251D01*
Y-3383927D01*
X-2386035Y-3383604D01*
X-2385387Y-3381660D01*
X-2384416Y-3379070D01*
X-2382796Y-3375831D01*
X-2380853Y-3371945D01*
X-2378586Y-3368059D01*
X-2375996Y-3363849D01*
X-2373081Y-3360286D01*
X-2372757Y-3359963D01*
X-2371785Y-3358667D01*
X-2370166Y-3357048D01*
X-2367899Y-3354781D01*
X-2365308Y-3352514D01*
X-2362394Y-3350247D01*
X-2359155Y-3348304D01*
X-2355917Y-3346361D01*
X-2355593Y-3346037D01*
X-2354298Y-3345713D01*
X-2352678Y-3345065D01*
X-2350411Y-3344094D01*
X-2347821Y-3343122D01*
X-2344906Y-3342475D01*
X-2341991Y-3342151D01*
X-2338753Y-3341827D01*
X-2338429D01*
X-2337457D01*
X-2335838Y-3342151D01*
X-2333895Y-3342475D01*
X-2331628Y-3343122D01*
X-2329361Y-3344094D01*
X-2326770Y-3345389D01*
X-2324503Y-3347332D01*
X-2324180Y-3347656D01*
X-2323532Y-3348304D01*
X-2322560Y-3349599D01*
X-2321589Y-3351219D01*
X-2320293Y-3353162D01*
X-2319322Y-3355429D01*
X-2318674Y-3358019D01*
X-2318350Y-3360934D01*
Y-3362229D01*
X-2318674Y-3363525D01*
Y-3365144D01*
X-2319969Y-3368706D01*
X-2320617Y-3370650D01*
X-2321913Y-3372269D01*
X-2322236Y-3372593D01*
X-2322560Y-3372917D01*
X-2323532Y-3373888D01*
X-2324827Y-3374860D01*
X-2326770Y-3376155D01*
X-2329037Y-3377450D01*
X-2331628Y-3379070D01*
X-2334543Y-3380689D01*
X-2335190Y-3381013D01*
X-2336486Y-3381660D01*
X-2338753Y-3382956D01*
X-2341344Y-3384899D01*
X-2344258Y-3386842D01*
X-2347497Y-3389433D01*
X-2350735Y-3392348D01*
X-2353326Y-3395262D01*
X-2353650Y-3395586D01*
X-2354298Y-3396881D01*
X-2355593Y-3398825D01*
X-2356888Y-3401415D01*
X-2358184Y-3405302D01*
X-2359479Y-3409835D01*
X-2360127Y-3415017D01*
X-2360451Y-3421494D01*
Y-3424409D01*
X-2360127Y-3427323D01*
X-2359479Y-3431210D01*
X-2358508Y-3435420D01*
X-2357212Y-3439953D01*
X-2355593Y-3444487D01*
X-2353002Y-3448697D01*
X-2352678Y-3449021D01*
X-2351707Y-3450317D01*
X-2350088Y-3451936D01*
X-2347821Y-3453879D01*
X-2345230Y-3455822D01*
X-2342315Y-3457441D01*
X-2338753Y-3458737D01*
X-2334867Y-3459061D01*
X-2334543D01*
X-2333895D01*
X-2332600Y-3458737D01*
X-2330980D01*
X-2327418Y-3457765D01*
X-2323532Y-3455822D01*
X-2323208Y-3455498D01*
X-2322884Y-3455174D01*
X-2320941Y-3453231D01*
X-2318350Y-3450317D01*
X-2315436Y-3446107D01*
Y-3445783D01*
X-2314788Y-3445135D01*
X-2314464Y-3443840D01*
X-2313492Y-3442220D01*
X-2311873Y-3438010D01*
X-2310254Y-3433476D01*
Y-3433153D01*
X-2309930Y-3432181D01*
X-2309606Y-3430562D01*
X-2308959Y-3428295D01*
X-2307987Y-3425380D01*
X-2307015Y-3421818D01*
X-2306044Y-3417608D01*
X-2304749Y-3412426D01*
Y-3412102D01*
X-2304425Y-3411455D01*
Y-3410483D01*
X-2304101Y-3409188D01*
X-2303129Y-3405949D01*
X-2302158Y-3401415D01*
X-2300538Y-3396234D01*
X-2298919Y-3390728D01*
X-2295357Y-3379394D01*
Y-3379070D01*
X-2295033Y-3378746D01*
X-2294385Y-3376803D01*
X-2293414Y-3374212D01*
X-2291795Y-3370650D01*
X-2289851Y-3366763D01*
X-2287908Y-3362553D01*
X-2285318Y-3358343D01*
X-2282727Y-3354133D01*
X-2282403Y-3353809D01*
X-2281431Y-3352514D01*
X-2279812Y-3350571D01*
X-2277545Y-3348304D01*
X-2274954Y-3345713D01*
X-2271716Y-3342798D01*
X-2268153Y-3340208D01*
X-2263943Y-3337941D01*
X-2263296Y-3337617D01*
X-2262000Y-3336969D01*
X-2259733Y-3335998D01*
X-2256495Y-3335026D01*
X-2252285Y-3334055D01*
X-2247751Y-3333083D01*
X-2242245Y-3332435D01*
X-2236416Y-3332111D01*
X-2236092D01*
X-2235445D01*
X-2234473D01*
X-2233178D01*
X-2229291Y-3332759D01*
D02*
G37*
G36*
X-2251961Y-3544233D02*
X-2246132Y-3544557D01*
X-2239331Y-3545205D01*
X-2232206Y-3546176D01*
X-2225081Y-3547472D01*
X-2218281Y-3549091D01*
X-2217957D01*
X-2217633Y-3549415D01*
X-2216661Y-3549739D01*
X-2215366Y-3550062D01*
X-2212451Y-3551358D01*
X-2208241Y-3553301D01*
X-2203707Y-3555568D01*
X-2198850Y-3558806D01*
X-2193668Y-3562693D01*
X-2188810Y-3567550D01*
X-2188486Y-3568198D01*
X-2186867Y-3569493D01*
X-2184924Y-3572084D01*
X-2182657Y-3575323D01*
X-2180066Y-3579533D01*
X-2177475Y-3584067D01*
X-2174885Y-3589572D01*
X-2172942Y-3595078D01*
Y-3595401D01*
X-2172618Y-3595725D01*
Y-3596697D01*
X-2172294Y-3597668D01*
X-2171322Y-3601231D01*
X-2170675Y-3605441D01*
X-2169703Y-3610946D01*
X-2168732Y-3617099D01*
X-2168408Y-3623900D01*
X-2168084Y-3631673D01*
Y-3635883D01*
X-2168408Y-3638150D01*
Y-3640417D01*
X-2168732Y-3646246D01*
X-2169379Y-3653047D01*
X-2170351Y-3660495D01*
X-2171646Y-3667620D01*
X-2173265Y-3674745D01*
Y-3675069D01*
X-2173589Y-3675392D01*
X-2173913Y-3676364D01*
X-2174237Y-3677659D01*
X-2175532Y-3680898D01*
X-2177475Y-3685108D01*
X-2179742Y-3689642D01*
X-2182657Y-3694500D01*
X-2185896Y-3699357D01*
X-2189782Y-3703891D01*
X-2190429Y-3704539D01*
X-2191725Y-3705834D01*
X-2194316Y-3707777D01*
X-2197554Y-3710044D01*
X-2201764Y-3712959D01*
X-2206622Y-3715550D01*
X-2212451Y-3718141D01*
X-2218604Y-3720408D01*
X-2218928D01*
X-2219576Y-3720731D01*
X-2220548D01*
X-2221843Y-3721055D01*
X-2223462Y-3721703D01*
X-2225405Y-3722027D01*
X-2230587Y-3722998D01*
X-2236740Y-3723970D01*
X-2244189Y-3724618D01*
X-2252285Y-3725265D01*
X-2261029Y-3725589D01*
X-2364985D01*
X-2365632D01*
X-2367252D01*
X-2369519Y-3725265D01*
X-2372433Y-3724941D01*
X-2375672Y-3724294D01*
X-2378910Y-3722998D01*
X-2382149Y-3721703D01*
X-2384739Y-3719760D01*
X-2385063Y-3719436D01*
X-2385711Y-3718788D01*
X-2387006Y-3717493D01*
X-2388302Y-3715550D01*
X-2389273Y-3713283D01*
X-2390569Y-3710692D01*
X-2391216Y-3707777D01*
X-2391540Y-3704215D01*
Y-3702596D01*
X-2391216Y-3700653D01*
X-2390569Y-3698386D01*
X-2389921Y-3695795D01*
X-2388626Y-3692880D01*
X-2387006Y-3690290D01*
X-2384739Y-3688023D01*
X-2384416Y-3687699D01*
X-2383444Y-3687051D01*
X-2382149Y-3686079D01*
X-2379882Y-3684784D01*
X-2376967Y-3683813D01*
X-2373729Y-3682841D01*
X-2369519Y-3682193D01*
X-2364985Y-3681869D01*
X-2258438D01*
X-2258114D01*
X-2257790D01*
X-2256819D01*
X-2255523D01*
X-2251961Y-3681546D01*
X-2247751Y-3681222D01*
X-2242893Y-3680898D01*
X-2238035Y-3680250D01*
X-2232854Y-3679279D01*
X-2227996Y-3677983D01*
X-2227348Y-3677659D01*
X-2226053Y-3677012D01*
X-2223786Y-3676040D01*
X-2221195Y-3674745D01*
X-2218281Y-3672802D01*
X-2215042Y-3670211D01*
X-2212127Y-3667296D01*
X-2209213Y-3663734D01*
X-2208889Y-3663086D01*
X-2208241Y-3661791D01*
X-2207270Y-3659524D01*
X-2205974Y-3656285D01*
X-2204679Y-3652075D01*
X-2203707Y-3646894D01*
X-2203060Y-3641064D01*
X-2202736Y-3634587D01*
Y-3631997D01*
X-2203060Y-3630377D01*
Y-3628434D01*
X-2203383Y-3625843D01*
X-2204355Y-3620338D01*
X-2205974Y-3614509D01*
X-2208565Y-3608355D01*
X-2211804Y-3602850D01*
X-2214071Y-3600583D01*
X-2216337Y-3598316D01*
X-2216985Y-3597992D01*
X-2218928Y-3596697D01*
X-2222167Y-3595078D01*
X-2226701Y-3592811D01*
X-2232206Y-3590868D01*
X-2235768Y-3590220D01*
X-2239331Y-3589248D01*
X-2243541Y-3588601D01*
X-2247751Y-3587953D01*
X-2252609Y-3587629D01*
X-2257466D01*
X-2364985D01*
X-2365632D01*
X-2367252D01*
X-2369519Y-3587305D01*
X-2372433Y-3586981D01*
X-2375672Y-3586334D01*
X-2378910Y-3585038D01*
X-2382149Y-3583743D01*
X-2384739Y-3581800D01*
X-2385063Y-3581476D01*
X-2385711Y-3580828D01*
X-2387006Y-3579533D01*
X-2388302Y-3577590D01*
X-2389273Y-3575323D01*
X-2390569Y-3572732D01*
X-2391216Y-3569817D01*
X-2391540Y-3566255D01*
Y-3564636D01*
X-2391216Y-3562693D01*
X-2390569Y-3560426D01*
X-2389921Y-3557835D01*
X-2388626Y-3555244D01*
X-2387006Y-3552653D01*
X-2384739Y-3550062D01*
X-2384416Y-3549739D01*
X-2383444Y-3549091D01*
X-2382149Y-3548119D01*
X-2379882Y-3546824D01*
X-2376967Y-3545852D01*
X-2373729Y-3544881D01*
X-2369519Y-3544233D01*
X-2364985Y-3543909D01*
X-2261029D01*
X-2260705D01*
X-2260057D01*
X-2258438D01*
X-2256819D01*
X-2254552D01*
X-2251961Y-3544233D01*
D02*
G37*
G36*
X-2029606Y-3702272D02*
X-1973256D01*
Y-3740486D01*
X-2029606D01*
Y-3797160D01*
X-2068144D01*
Y-3740486D01*
X-2124817D01*
Y-3702272D01*
X-2068144D01*
Y-3645598D01*
X-2029606D01*
Y-3702272D01*
D02*
G37*
G36*
X-2186543Y-3755383D02*
X-2184924Y-3755707D01*
X-2182657Y-3756355D01*
X-2180714Y-3757650D01*
X-2178447Y-3758946D01*
X-2176504Y-3760889D01*
X-2176180Y-3761213D01*
X-2175856Y-3761860D01*
X-2174885Y-3763156D01*
X-2174237Y-3765099D01*
X-2173265Y-3767366D01*
X-2172294Y-3769957D01*
X-2171970Y-3773195D01*
X-2171646Y-3777081D01*
Y-3885247D01*
X-2171970Y-3887838D01*
X-2172294Y-3890753D01*
X-2173265Y-3894315D01*
X-2174237Y-3897554D01*
X-2175856Y-3900792D01*
X-2177799Y-3903383D01*
X-2178123Y-3903707D01*
X-2179095Y-3904354D01*
X-2180714Y-3905326D01*
X-2182657Y-3906297D01*
X-2185572Y-3907593D01*
X-2189134Y-3908564D01*
X-2193344Y-3909212D01*
X-2198202Y-3909536D01*
X-2364985D01*
X-2365632D01*
X-2367252D01*
X-2369519Y-3909212D01*
X-2372433Y-3908888D01*
X-2375672Y-3908241D01*
X-2378910Y-3906945D01*
X-2382149Y-3905650D01*
X-2384739Y-3903707D01*
X-2385063Y-3903383D01*
X-2385711Y-3902735D01*
X-2387006Y-3901440D01*
X-2388302Y-3899497D01*
X-2389273Y-3897230D01*
X-2390569Y-3894639D01*
X-2391216Y-3891724D01*
X-2391540Y-3888162D01*
Y-3886543D01*
X-2391216Y-3884600D01*
X-2390569Y-3882333D01*
X-2389921Y-3879742D01*
X-2388626Y-3877151D01*
X-2387006Y-3874560D01*
X-2384739Y-3871969D01*
X-2384416Y-3871646D01*
X-2383444Y-3870998D01*
X-2382149Y-3870026D01*
X-2379882Y-3868731D01*
X-2376967Y-3867759D01*
X-2373729Y-3866788D01*
X-2369519Y-3866140D01*
X-2364985Y-3865816D01*
X-2207594D01*
Y-3775462D01*
X-2207270Y-3773519D01*
X-2206946Y-3770928D01*
X-2206298Y-3768337D01*
X-2205327Y-3765747D01*
X-2204031Y-3763156D01*
X-2202412Y-3760889D01*
X-2202088Y-3760565D01*
X-2201440Y-3759917D01*
X-2200469Y-3758946D01*
X-2198850Y-3757974D01*
X-2196906Y-3757003D01*
X-2194640Y-3756031D01*
X-2192373Y-3755383D01*
X-2189458Y-3755060D01*
X-2189134D01*
X-2188163D01*
X-2186543Y-3755383D01*
D02*
G37*
G36*
X-2317379Y-3945483D02*
X-2314788Y-3945807D01*
X-2311549Y-3946131D01*
X-2307987Y-3946779D01*
X-2304101Y-3947750D01*
X-2296005Y-3950017D01*
X-2291795Y-3951636D01*
X-2287908Y-3953903D01*
X-2283698Y-3956170D01*
X-2279812Y-3958761D01*
X-2276250Y-3962000D01*
X-2272687Y-3965562D01*
X-2272364Y-3965886D01*
X-2272040Y-3966534D01*
X-2271068Y-3967829D01*
X-2270097Y-3969448D01*
X-2268801Y-3971391D01*
X-2267506Y-3973982D01*
X-2265887Y-3977221D01*
X-2264267Y-3980783D01*
X-2262648Y-3984993D01*
X-2261029Y-3989527D01*
X-2259733Y-3994385D01*
X-2258438Y-3999890D01*
X-2257466Y-4005719D01*
X-2256495Y-4012196D01*
X-2256171Y-4018997D01*
X-2255847Y-4026446D01*
Y-4066279D01*
X-2194640D01*
X-2193992D01*
X-2192373D01*
X-2190106Y-4066603D01*
X-2187191Y-4066927D01*
X-2183952Y-4067899D01*
X-2180714Y-4068870D01*
X-2177475Y-4070489D01*
X-2174561Y-4072756D01*
X-2174237Y-4073080D01*
X-2173589Y-4073728D01*
X-2172618Y-4075347D01*
X-2171322Y-4076966D01*
X-2170027Y-4079233D01*
X-2169055Y-4081824D01*
X-2168408Y-4085063D01*
X-2168084Y-4088301D01*
Y-4089920D01*
X-2168408Y-4091540D01*
X-2169055Y-4093807D01*
X-2169703Y-4096397D01*
X-2170675Y-4098988D01*
X-2172294Y-4101579D01*
X-2174561Y-4104170D01*
X-2174885Y-4104494D01*
X-2175856Y-4105141D01*
X-2177475Y-4106113D01*
X-2179742Y-4107084D01*
X-2182333Y-4108056D01*
X-2185896Y-4109028D01*
X-2189782Y-4109675D01*
X-2194316Y-4109999D01*
X-2361098D01*
X-2361422D01*
X-2361746D01*
X-2363365D01*
X-2365956Y-4109675D01*
X-2368871Y-4109028D01*
X-2372433Y-4108380D01*
X-2375672Y-4107408D01*
X-2378910Y-4105789D01*
X-2381501Y-4103522D01*
X-2381825Y-4103198D01*
X-2382473Y-4102227D01*
X-2383444Y-4100607D01*
X-2384739Y-4098341D01*
X-2386035Y-4095426D01*
X-2387006Y-4091864D01*
X-2387654Y-4087653D01*
X-2387978Y-4082472D01*
Y-4019969D01*
X-2387654Y-4017378D01*
Y-4011873D01*
X-2387006Y-4005719D01*
X-2386359Y-3999566D01*
X-2385387Y-3993413D01*
X-2384092Y-3987908D01*
X-2383768Y-3987260D01*
X-2383444Y-3985641D01*
X-2382473Y-3983050D01*
X-2381177Y-3980135D01*
X-2379234Y-3976573D01*
X-2377291Y-3972687D01*
X-2374376Y-3968801D01*
X-2371462Y-3964914D01*
X-2371138Y-3964590D01*
X-2369842Y-3963295D01*
X-2368223Y-3961676D01*
X-2365632Y-3959409D01*
X-2362718Y-3957142D01*
X-2359155Y-3954551D01*
X-2355269Y-3952284D01*
X-2350735Y-3950341D01*
X-2350088Y-3950017D01*
X-2348468Y-3949370D01*
X-2345877Y-3948722D01*
X-2342639Y-3947750D01*
X-2338429Y-3946779D01*
X-2333895Y-3945807D01*
X-2328713Y-3945483D01*
X-2322884Y-3945159D01*
X-2322560D01*
X-2321589D01*
X-2319646D01*
X-2317379Y-3945483D01*
D02*
G37*
G36*
X2353578Y-3201914D02*
X2356493Y-3202561D01*
X2359731Y-3203209D01*
X2362646Y-3204504D01*
X2365561Y-3206447D01*
X2367828Y-3208714D01*
X2368151Y-3209038D01*
X2368799Y-3210010D01*
X2369447Y-3211629D01*
X2370418Y-3213896D01*
X2371390Y-3216811D01*
X2372362Y-3220373D01*
X2372685Y-3224259D01*
X2373009Y-3228793D01*
Y-3246605D01*
X2372685Y-3249196D01*
X2372038Y-3254701D01*
X2371390Y-3257616D01*
X2370742Y-3259883D01*
Y-3260207D01*
X2370418Y-3260854D01*
X2368799Y-3263121D01*
X2366532Y-3265712D01*
X2364589Y-3267007D01*
X2362646Y-3267979D01*
X2362322D01*
X2361674Y-3268627D01*
X2360055Y-3268951D01*
X2358112Y-3269922D01*
X2355521Y-3270894D01*
X2352283Y-3271865D01*
X2348397Y-3272837D01*
X2343863Y-3274132D01*
X2225657Y-3305869D01*
X2343863Y-3337283D01*
X2344510D01*
X2346130Y-3337931D01*
X2348397Y-3338578D01*
X2350987Y-3339226D01*
X2357141Y-3341169D01*
X2360055Y-3342141D01*
X2362646Y-3343112D01*
X2362970D01*
X2363618Y-3343760D01*
X2364589Y-3344084D01*
X2365885Y-3345055D01*
X2368475Y-3347646D01*
X2369771Y-3349265D01*
X2370742Y-3351208D01*
Y-3351532D01*
X2371066Y-3352180D01*
X2371390Y-3353799D01*
X2372038Y-3355742D01*
X2372362Y-3358009D01*
X2372685Y-3361248D01*
X2373009Y-3364810D01*
Y-3384565D01*
X2372685Y-3387156D01*
X2372362Y-3389747D01*
X2371714Y-3392985D01*
X2370742Y-3396547D01*
X2369447Y-3399786D01*
X2367828Y-3402701D01*
X2367504Y-3403024D01*
X2366856Y-3403996D01*
X2365561Y-3404968D01*
X2363618Y-3406587D01*
X2361027Y-3407882D01*
X2357788Y-3408854D01*
X2353578Y-3409825D01*
X2348720Y-3410149D01*
X2177728D01*
X2177080D01*
X2175785D01*
X2173518Y-3409825D01*
X2170927Y-3409501D01*
X2167688Y-3408854D01*
X2164774Y-3407558D01*
X2161859Y-3406263D01*
X2159268Y-3404320D01*
X2158944Y-3403996D01*
X2158297Y-3403348D01*
X2157325Y-3402053D01*
X2156354Y-3400434D01*
X2155058Y-3398491D01*
X2154087Y-3395900D01*
X2153439Y-3392985D01*
X2153115Y-3389747D01*
Y-3388451D01*
X2153439Y-3386832D01*
X2153763Y-3384565D01*
X2154734Y-3382298D01*
X2155706Y-3380031D01*
X2157325Y-3377764D01*
X2159268Y-3375497D01*
X2159592Y-3375173D01*
X2160564Y-3374526D01*
X2161859Y-3373878D01*
X2163802Y-3372906D01*
X2166393Y-3371611D01*
X2169631Y-3370963D01*
X2173518Y-3370316D01*
X2177728Y-3369992D01*
X2327023D01*
X2189062Y-3335016D01*
X2188415D01*
X2186795Y-3334368D01*
X2184529Y-3333721D01*
X2181614Y-3333073D01*
X2175137Y-3331454D01*
X2171898Y-3330482D01*
X2169308Y-3329510D01*
X2168984D01*
X2168336Y-3329187D01*
X2167041Y-3328539D01*
X2165745Y-3327891D01*
X2161859Y-3325300D01*
X2159916Y-3323681D01*
X2157973Y-3321738D01*
X2157649Y-3321414D01*
X2157325Y-3320767D01*
X2156354Y-3319471D01*
X2155706Y-3317528D01*
X2154734Y-3315261D01*
X2153763Y-3312670D01*
X2153439Y-3309432D01*
X2153115Y-3305869D01*
Y-3304574D01*
X2153439Y-3303279D01*
Y-3301336D01*
X2154410Y-3297125D01*
X2156354Y-3292592D01*
Y-3292268D01*
X2157001Y-3291620D01*
X2158621Y-3289677D01*
X2161211Y-3287086D01*
X2164774Y-3284495D01*
X2165098D01*
X2165745Y-3284171D01*
X2166717Y-3283524D01*
X2168012Y-3282876D01*
X2171898Y-3281257D01*
X2176108Y-3279638D01*
X2176432D01*
X2177080Y-3279314D01*
X2178375Y-3278990D01*
X2180318Y-3278666D01*
X2184205Y-3277694D01*
X2189062Y-3276399D01*
X2327023Y-3241747D01*
X2177728D01*
X2177080D01*
X2175785D01*
X2173518Y-3241423D01*
X2170927Y-3241099D01*
X2167688Y-3240452D01*
X2164774Y-3239156D01*
X2161859Y-3237861D01*
X2159268Y-3235918D01*
X2158944Y-3235594D01*
X2158297Y-3234946D01*
X2157325Y-3233651D01*
X2156354Y-3232032D01*
X2155058Y-3230089D01*
X2154087Y-3227498D01*
X2153439Y-3224583D01*
X2153115Y-3221345D01*
Y-3220049D01*
X2153439Y-3218430D01*
X2153763Y-3216163D01*
X2154410Y-3213896D01*
X2155706Y-3211629D01*
X2157001Y-3209362D01*
X2158944Y-3207095D01*
X2159268Y-3206771D01*
X2160240Y-3206124D01*
X2161535Y-3205476D01*
X2163478Y-3204504D01*
X2166393Y-3203209D01*
X2169631Y-3202561D01*
X2173194Y-3201914D01*
X2177728Y-3201590D01*
X2348720D01*
X2349044D01*
X2349368D01*
X2350987D01*
X2353578Y-3201914D01*
D02*
G37*
G36*
X2354550Y-3457431D02*
X2357464Y-3457755D01*
X2360703Y-3458403D01*
X2363941Y-3459698D01*
X2367180Y-3460994D01*
X2369771Y-3462937D01*
X2370095Y-3463261D01*
X2370742Y-3463908D01*
X2372038Y-3465527D01*
X2373333Y-3467147D01*
X2374305Y-3469414D01*
X2375600Y-3472004D01*
X2376248Y-3475243D01*
X2376572Y-3478481D01*
Y-3480101D01*
X2376248Y-3482044D01*
X2375600Y-3484311D01*
X2374952Y-3486902D01*
X2373657Y-3489492D01*
X2372038Y-3492083D01*
X2369771Y-3494674D01*
X2369447Y-3494998D01*
X2368475Y-3495646D01*
X2367180Y-3496617D01*
X2364913Y-3497912D01*
X2361998Y-3498884D01*
X2358760Y-3499856D01*
X2354550Y-3500503D01*
X2350016Y-3500827D01*
X2179671D01*
X2179023D01*
X2177404D01*
X2175137Y-3500503D01*
X2172222Y-3500179D01*
X2168660Y-3499208D01*
X2165421Y-3498236D01*
X2162183Y-3496617D01*
X2159592Y-3494674D01*
X2159268Y-3494350D01*
X2158621Y-3493702D01*
X2157649Y-3492083D01*
X2156354Y-3490464D01*
X2155058Y-3487873D01*
X2154087Y-3485282D01*
X2153439Y-3482044D01*
X2153115Y-3478481D01*
Y-3476862D01*
X2153439Y-3475243D01*
X2154087Y-3472976D01*
X2154734Y-3470709D01*
X2155706Y-3468118D01*
X2157325Y-3465527D01*
X2159592Y-3462937D01*
X2159916Y-3462613D01*
X2160887Y-3461965D01*
X2162507Y-3460994D01*
X2164774Y-3460022D01*
X2167364Y-3459050D01*
X2170927Y-3458079D01*
X2175137Y-3457431D01*
X2179671Y-3457107D01*
X2350016D01*
X2350664D01*
X2352283D01*
X2354550Y-3457431D01*
D02*
G37*
G36*
X2350664Y-3550700D02*
X2356169Y-3551348D01*
X2358760Y-3551995D01*
X2361351Y-3552643D01*
X2361674D01*
X2362646Y-3553291D01*
X2363618Y-3553939D01*
X2365237Y-3554910D01*
X2367180Y-3555882D01*
X2368799Y-3557501D01*
X2370742Y-3559444D01*
X2372362Y-3561711D01*
X2372685Y-3562035D01*
X2373009Y-3563006D01*
X2373657Y-3564302D01*
X2374628Y-3565921D01*
X2375276Y-3568188D01*
X2375924Y-3570455D01*
X2376248Y-3573370D01*
X2376572Y-3575960D01*
Y-3577903D01*
X2376248Y-3579523D01*
X2375924Y-3582761D01*
X2374628Y-3586000D01*
Y-3586324D01*
X2374305Y-3586647D01*
X2373333Y-3588590D01*
X2371714Y-3590857D01*
X2369447Y-3593448D01*
X2368799Y-3594096D01*
X2367180Y-3595391D01*
X2364589Y-3597658D01*
X2361027Y-3599925D01*
X2360703D01*
X2360055Y-3600573D01*
X2359084Y-3601221D01*
X2357788Y-3601868D01*
X2354226Y-3604135D01*
X2350340Y-3606726D01*
X2223067Y-3691251D01*
X2351311D01*
X2351959D01*
X2353254D01*
X2355521Y-3691575D01*
X2358436Y-3691899D01*
X2361351Y-3692546D01*
X2364589Y-3693518D01*
X2367504Y-3694813D01*
X2370095Y-3696433D01*
X2370418Y-3696756D01*
X2371066Y-3697404D01*
X2372038Y-3698699D01*
X2373333Y-3700319D01*
X2374628Y-3702262D01*
X2375600Y-3704853D01*
X2376248Y-3707767D01*
X2376572Y-3711006D01*
Y-3712625D01*
X2376248Y-3714244D01*
X2375924Y-3716511D01*
X2374952Y-3718778D01*
X2373981Y-3721369D01*
X2372362Y-3723636D01*
X2370095Y-3725903D01*
X2369771Y-3726227D01*
X2368799Y-3726874D01*
X2367504Y-3727522D01*
X2365561Y-3728818D01*
X2362970Y-3729789D01*
X2359731Y-3730437D01*
X2355845Y-3731084D01*
X2351311Y-3731408D01*
X2181290D01*
X2180966D01*
X2179995D01*
X2178699D01*
X2176756Y-3731084D01*
X2174813Y-3730761D01*
X2172546Y-3730113D01*
X2167364Y-3728494D01*
X2164450Y-3727198D01*
X2162183Y-3725579D01*
X2159592Y-3723636D01*
X2157649Y-3721369D01*
X2155706Y-3718778D01*
X2154410Y-3715540D01*
X2153439Y-3711977D01*
X2153115Y-3707767D01*
Y-3705824D01*
X2153439Y-3704205D01*
X2154087Y-3700966D01*
X2155058Y-3697080D01*
Y-3696756D01*
X2155382Y-3696109D01*
X2155706Y-3695461D01*
X2156354Y-3694166D01*
X2157973Y-3691251D01*
X2160240Y-3688012D01*
X2160564Y-3687689D01*
X2160887Y-3687365D01*
X2162507Y-3685745D01*
X2165421Y-3683155D01*
X2168660Y-3680564D01*
X2168984D01*
X2169631Y-3679916D01*
X2170603Y-3679268D01*
X2171898Y-3678297D01*
X2174813Y-3676030D01*
X2178699Y-3673439D01*
X2304677Y-3591505D01*
X2178052D01*
X2177404D01*
X2176108D01*
X2173841Y-3591181D01*
X2171251Y-3590857D01*
X2168012Y-3590210D01*
X2165098Y-3588914D01*
X2161859Y-3587619D01*
X2159268Y-3585676D01*
X2158944Y-3585352D01*
X2158297Y-3584704D01*
X2157325Y-3583409D01*
X2156354Y-3581790D01*
X2155058Y-3579523D01*
X2154087Y-3576932D01*
X2153439Y-3574017D01*
X2153115Y-3570779D01*
Y-3569159D01*
X2153439Y-3567540D01*
X2153763Y-3565273D01*
X2154734Y-3563006D01*
X2155706Y-3560416D01*
X2157325Y-3558149D01*
X2159268Y-3555882D01*
X2159592Y-3555558D01*
X2160564Y-3554910D01*
X2161859Y-3554262D01*
X2164126Y-3553291D01*
X2166717Y-3551995D01*
X2169955Y-3551348D01*
X2173841Y-3550700D01*
X2178052Y-3550376D01*
X2344834D01*
X2345158D01*
X2346454D01*
X2348397D01*
X2350664Y-3550700D01*
D02*
G37*
G36*
X2094628Y-3642673D02*
X2096247Y-3642997D01*
X2098514Y-3643645D01*
X2100457Y-3644617D01*
X2102724Y-3645912D01*
X2104667Y-3647531D01*
X2104991Y-3647855D01*
X2105639Y-3648503D01*
X2106286Y-3649798D01*
X2107258Y-3651741D01*
X2108229Y-3654008D01*
X2109201Y-3656923D01*
X2109525Y-3660161D01*
X2109849Y-3664048D01*
Y-3712301D01*
X2109525Y-3714244D01*
X2109201Y-3716835D01*
X2108553Y-3719426D01*
X2107582Y-3722017D01*
X2106286Y-3724607D01*
X2104667Y-3726874D01*
X2104343Y-3727198D01*
X2103696Y-3727846D01*
X2102724Y-3728494D01*
X2101105Y-3729789D01*
X2099486Y-3730761D01*
X2097219Y-3731408D01*
X2094628Y-3732056D01*
X2091713Y-3732380D01*
X2091389D01*
X2090418D01*
X2089122Y-3732056D01*
X2087179Y-3731732D01*
X2085236Y-3731084D01*
X2082969Y-3730113D01*
X2081026Y-3728818D01*
X2079083Y-3726874D01*
X2078759Y-3726551D01*
X2078435Y-3725903D01*
X2077464Y-3724607D01*
X2076816Y-3722988D01*
X2075844Y-3720721D01*
X2074873Y-3717807D01*
X2074549Y-3714568D01*
X2074225Y-3710682D01*
Y-3662428D01*
X2074549Y-3660485D01*
X2074873Y-3657894D01*
X2075521Y-3655304D01*
X2076168Y-3652713D01*
X2077464Y-3650122D01*
X2079083Y-3647855D01*
X2079407Y-3647531D01*
X2080055Y-3646883D01*
X2081026Y-3646236D01*
X2082645Y-3645264D01*
X2084265Y-3643969D01*
X2086532Y-3643321D01*
X2088798Y-3642673D01*
X2091713Y-3642350D01*
X2092037D01*
X2093009D01*
X2094628Y-3642673D01*
D02*
G37*
G36*
X2354550Y-3779986D02*
X2357464Y-3780310D01*
X2360703Y-3780957D01*
X2363941Y-3782253D01*
X2367180Y-3783548D01*
X2369771Y-3785491D01*
X2370095Y-3785815D01*
X2370742Y-3786463D01*
X2372038Y-3787758D01*
X2373333Y-3789701D01*
X2374305Y-3791968D01*
X2375600Y-3794559D01*
X2376248Y-3797474D01*
X2376572Y-3801036D01*
Y-3802655D01*
X2376248Y-3804598D01*
X2375600Y-3806865D01*
X2374952Y-3809456D01*
X2373657Y-3812371D01*
X2372038Y-3814962D01*
X2369771Y-3817229D01*
X2369447Y-3817552D01*
X2368475Y-3818200D01*
X2367180Y-3819172D01*
X2364913Y-3820467D01*
X2361998Y-3821439D01*
X2358760Y-3822410D01*
X2354550Y-3823058D01*
X2350016Y-3823382D01*
X2243469D01*
X2243145D01*
X2242822D01*
X2241850D01*
X2240555D01*
X2236992Y-3823706D01*
X2232782Y-3824029D01*
X2227924Y-3824353D01*
X2223067Y-3825001D01*
X2217885Y-3825973D01*
X2213027Y-3827268D01*
X2212380Y-3827592D01*
X2211084Y-3828239D01*
X2208817Y-3829211D01*
X2206226Y-3830506D01*
X2203312Y-3832450D01*
X2200073Y-3835040D01*
X2197159Y-3837955D01*
X2194244Y-3841517D01*
X2193920Y-3842165D01*
X2193272Y-3843460D01*
X2192301Y-3845727D01*
X2191006Y-3848966D01*
X2189710Y-3853176D01*
X2188739Y-3858358D01*
X2188091Y-3864187D01*
X2187767Y-3870664D01*
Y-3873255D01*
X2188091Y-3874874D01*
Y-3876817D01*
X2188415Y-3879408D01*
X2189386Y-3884913D01*
X2191006Y-3890743D01*
X2193596Y-3896896D01*
X2196835Y-3902401D01*
X2199102Y-3904668D01*
X2201369Y-3906935D01*
X2202016Y-3907259D01*
X2203960Y-3908554D01*
X2207198Y-3910174D01*
X2211732Y-3912440D01*
X2217237Y-3914384D01*
X2220800Y-3915031D01*
X2224362Y-3916003D01*
X2228572Y-3916651D01*
X2232782Y-3917298D01*
X2237640Y-3917622D01*
X2242498D01*
X2350016D01*
X2350664D01*
X2352283D01*
X2354550Y-3917946D01*
X2357464Y-3918270D01*
X2360703Y-3918917D01*
X2363941Y-3920213D01*
X2367180Y-3921508D01*
X2369771Y-3923451D01*
X2370095Y-3923775D01*
X2370742Y-3924423D01*
X2372038Y-3925718D01*
X2373333Y-3927661D01*
X2374305Y-3929928D01*
X2375600Y-3932519D01*
X2376248Y-3935434D01*
X2376572Y-3938996D01*
Y-3940615D01*
X2376248Y-3942559D01*
X2375600Y-3944825D01*
X2374952Y-3947416D01*
X2373657Y-3950007D01*
X2372038Y-3952598D01*
X2369771Y-3955189D01*
X2369447Y-3955513D01*
X2368475Y-3956160D01*
X2367180Y-3957132D01*
X2364913Y-3958427D01*
X2361998Y-3959399D01*
X2358760Y-3960370D01*
X2354550Y-3961018D01*
X2350016Y-3961342D01*
X2246060D01*
X2245736D01*
X2245088D01*
X2243469D01*
X2241850D01*
X2239583D01*
X2236992Y-3961018D01*
X2231163Y-3960694D01*
X2224362Y-3960046D01*
X2217237Y-3959075D01*
X2210113Y-3957779D01*
X2203312Y-3956160D01*
X2202988D01*
X2202664Y-3955836D01*
X2201693Y-3955513D01*
X2200397Y-3955189D01*
X2197483Y-3953893D01*
X2193272Y-3951950D01*
X2188739Y-3949683D01*
X2183881Y-3946445D01*
X2178699Y-3942559D01*
X2173841Y-3937701D01*
X2173518Y-3937053D01*
X2171898Y-3935758D01*
X2169955Y-3933167D01*
X2167688Y-3929928D01*
X2165098Y-3925718D01*
X2162507Y-3921184D01*
X2159916Y-3915679D01*
X2157973Y-3910174D01*
Y-3909850D01*
X2157649Y-3909526D01*
Y-3908554D01*
X2157325Y-3907583D01*
X2156354Y-3904020D01*
X2155706Y-3899810D01*
X2154734Y-3894305D01*
X2153763Y-3888152D01*
X2153439Y-3881351D01*
X2153115Y-3873578D01*
Y-3869368D01*
X2153439Y-3867101D01*
Y-3864835D01*
X2153763Y-3859005D01*
X2154410Y-3852204D01*
X2155382Y-3844756D01*
X2156677Y-3837631D01*
X2158297Y-3830506D01*
Y-3830183D01*
X2158621Y-3829859D01*
X2158944Y-3828887D01*
X2159268Y-3827592D01*
X2160564Y-3824353D01*
X2162507Y-3820143D01*
X2164774Y-3815609D01*
X2167688Y-3810752D01*
X2170927Y-3805894D01*
X2174813Y-3801360D01*
X2175461Y-3800712D01*
X2176756Y-3799417D01*
X2179347Y-3797474D01*
X2182585Y-3795207D01*
X2186795Y-3792292D01*
X2191653Y-3789701D01*
X2197483Y-3787111D01*
X2203636Y-3784844D01*
X2203960D01*
X2204607Y-3784520D01*
X2205579D01*
X2206874Y-3784196D01*
X2208493Y-3783548D01*
X2210437Y-3783224D01*
X2215618Y-3782253D01*
X2221771Y-3781281D01*
X2229220Y-3780634D01*
X2237316Y-3779986D01*
X2246060Y-3779662D01*
X2350016D01*
X2350664D01*
X2352283D01*
X2354550Y-3779986D01*
D02*
G37*
G36*
X2219504Y-4001823D02*
X2221124Y-4002147D01*
X2223391Y-4002795D01*
X2225334Y-4003766D01*
X2227601Y-4005062D01*
X2229868Y-4007005D01*
X2230191Y-4007329D01*
X2230839Y-4007976D01*
X2231811Y-4009272D01*
X2232782Y-4010891D01*
X2233754Y-4012834D01*
X2234725Y-4015101D01*
X2235373Y-4018016D01*
X2235697Y-4020930D01*
Y-4022226D01*
X2235373Y-4023521D01*
X2235049Y-4025140D01*
X2233754Y-4029026D01*
X2232782Y-4030646D01*
X2231163Y-4032589D01*
X2230839Y-4032913D01*
X2230515Y-4033560D01*
X2229220Y-4034208D01*
X2227924Y-4035503D01*
X2226305Y-4036799D01*
X2224038Y-4038094D01*
X2221447Y-4039714D01*
X2218209Y-4041009D01*
X2217885Y-4041333D01*
X2216590Y-4041657D01*
X2214647Y-4042628D01*
X2212056Y-4043600D01*
X2209465Y-4044895D01*
X2206550Y-4046191D01*
X2200721Y-4049753D01*
X2200397Y-4050077D01*
X2199749Y-4050724D01*
X2198454Y-4051696D01*
X2196835Y-4053315D01*
X2194892Y-4055258D01*
X2192949Y-4057525D01*
X2191329Y-4060116D01*
X2189386Y-4063355D01*
X2189062Y-4063678D01*
X2188739Y-4064974D01*
X2188091Y-4066917D01*
X2187443Y-4069508D01*
X2186472Y-4072746D01*
X2185824Y-4076632D01*
X2185500Y-4081166D01*
X2185176Y-4086024D01*
Y-4089263D01*
X2185824Y-4092825D01*
X2186472Y-4097359D01*
X2187443Y-4102217D01*
X2189062Y-4107722D01*
X2191329Y-4112904D01*
X2194244Y-4117761D01*
X2194568Y-4118409D01*
X2195863Y-4119704D01*
X2197806Y-4121648D01*
X2200397Y-4123915D01*
X2203636Y-4126181D01*
X2207522Y-4128125D01*
X2211732Y-4129420D01*
X2216590Y-4130068D01*
X2217237D01*
X2218533D01*
X2220476Y-4129744D01*
X2223067Y-4129096D01*
X2225657Y-4128448D01*
X2228572Y-4127153D01*
X2231487Y-4125534D01*
X2234078Y-4123267D01*
X2234401Y-4122943D01*
X2235049Y-4121971D01*
X2236345Y-4120676D01*
X2237964Y-4118733D01*
X2239583Y-4116466D01*
X2241202Y-4113551D01*
X2242822Y-4109989D01*
X2244441Y-4106427D01*
X2244765Y-4106103D01*
X2245088Y-4104484D01*
X2245736Y-4102217D01*
X2246708Y-4098978D01*
X2247679Y-4095092D01*
X2248975Y-4090234D01*
X2250594Y-4084729D01*
X2251889Y-4078576D01*
Y-4078252D01*
X2252213Y-4077604D01*
X2252537Y-4076309D01*
X2252861Y-4074689D01*
X2253509Y-4072746D01*
X2254156Y-4070479D01*
X2255452Y-4064974D01*
X2257395Y-4058821D01*
X2259662Y-4052344D01*
X2261929Y-4045543D01*
X2264519Y-4039390D01*
Y-4039066D01*
X2264843Y-4038742D01*
X2265815Y-4036799D01*
X2267434Y-4033884D01*
X2269701Y-4030646D01*
X2272616Y-4026436D01*
X2276178Y-4022549D01*
X2280064Y-4018339D01*
X2284598Y-4014777D01*
X2285246Y-4014453D01*
X2286865Y-4013482D01*
X2289456Y-4011862D01*
X2293342Y-4010243D01*
X2297876Y-4008624D01*
X2303058Y-4007005D01*
X2309211Y-4006033D01*
X2316012Y-4005709D01*
X2316335D01*
X2316659D01*
X2317631D01*
X2318926Y-4006033D01*
X2322489Y-4006357D01*
X2326699Y-4007005D01*
X2331556Y-4007976D01*
X2337062Y-4009919D01*
X2342243Y-4012186D01*
X2347749Y-4015425D01*
X2348073D01*
X2348397Y-4015749D01*
X2350016Y-4017368D01*
X2352607Y-4019311D01*
X2355521Y-4022549D01*
X2359084Y-4026436D01*
X2362646Y-4031293D01*
X2366208Y-4036799D01*
X2369123Y-4043276D01*
Y-4043600D01*
X2369447Y-4044247D01*
X2369771Y-4045219D01*
X2370418Y-4046514D01*
X2370742Y-4048457D01*
X2371390Y-4050401D01*
X2372038Y-4052991D01*
X2373009Y-4055582D01*
X2374305Y-4062059D01*
X2375276Y-4069508D01*
X2376248Y-4077604D01*
X2376572Y-4086672D01*
Y-4089910D01*
X2376248Y-4093796D01*
X2375924Y-4098330D01*
X2375276Y-4103836D01*
X2374305Y-4109341D01*
X2373009Y-4115494D01*
X2371390Y-4121000D01*
Y-4121324D01*
X2371066Y-4121648D01*
X2370418Y-4123591D01*
X2369447Y-4126181D01*
X2367828Y-4129420D01*
X2365885Y-4133306D01*
X2363618Y-4137192D01*
X2361027Y-4141402D01*
X2358112Y-4144965D01*
X2357788Y-4145289D01*
X2356817Y-4146584D01*
X2355197Y-4148203D01*
X2352931Y-4150470D01*
X2350340Y-4152737D01*
X2347425Y-4155004D01*
X2344187Y-4156947D01*
X2340948Y-4158890D01*
X2340624Y-4159214D01*
X2339329Y-4159538D01*
X2337710Y-4160186D01*
X2335443Y-4161157D01*
X2332852Y-4162129D01*
X2329937Y-4162777D01*
X2327023Y-4163100D01*
X2323784Y-4163424D01*
X2323460D01*
X2322489D01*
X2320869Y-4163100D01*
X2318926Y-4162777D01*
X2316659Y-4162129D01*
X2314392Y-4161157D01*
X2311802Y-4159862D01*
X2309535Y-4157919D01*
X2309211Y-4157595D01*
X2308563Y-4156947D01*
X2307592Y-4155652D01*
X2306620Y-4154033D01*
X2305325Y-4152089D01*
X2304353Y-4149823D01*
X2303705Y-4147232D01*
X2303381Y-4144317D01*
Y-4143022D01*
X2303705Y-4141726D01*
Y-4140107D01*
X2305001Y-4136545D01*
X2305648Y-4134602D01*
X2306944Y-4132982D01*
X2307268Y-4132658D01*
X2307592Y-4132335D01*
X2308563Y-4131363D01*
X2309858Y-4130392D01*
X2311802Y-4129096D01*
X2314069Y-4127801D01*
X2316659Y-4126181D01*
X2319574Y-4124562D01*
X2320222Y-4124238D01*
X2321517Y-4123591D01*
X2323784Y-4122295D01*
X2326375Y-4120352D01*
X2329289Y-4118409D01*
X2332528Y-4115818D01*
X2335766Y-4112904D01*
X2338357Y-4109989D01*
X2338681Y-4109665D01*
X2339329Y-4108370D01*
X2340624Y-4106427D01*
X2341920Y-4103836D01*
X2343215Y-4099950D01*
X2344510Y-4095416D01*
X2345158Y-4090234D01*
X2345482Y-4083757D01*
Y-4080842D01*
X2345158Y-4077928D01*
X2344510Y-4074042D01*
X2343539Y-4069832D01*
X2342243Y-4065298D01*
X2340624Y-4060764D01*
X2338033Y-4056554D01*
X2337710Y-4056230D01*
X2336738Y-4054934D01*
X2335119Y-4053315D01*
X2332852Y-4051372D01*
X2330261Y-4049429D01*
X2327346Y-4047810D01*
X2323784Y-4046514D01*
X2319898Y-4046191D01*
X2319574D01*
X2318926D01*
X2317631Y-4046514D01*
X2316012D01*
X2312449Y-4047486D01*
X2308563Y-4049429D01*
X2308239Y-4049753D01*
X2307915Y-4050077D01*
X2305972Y-4052020D01*
X2303381Y-4054934D01*
X2300467Y-4059145D01*
Y-4059468D01*
X2299819Y-4060116D01*
X2299495Y-4061411D01*
X2298524Y-4063031D01*
X2296904Y-4067241D01*
X2295285Y-4071775D01*
Y-4072099D01*
X2294961Y-4073070D01*
X2294638Y-4074689D01*
X2293990Y-4076956D01*
X2293018Y-4079871D01*
X2292047Y-4083433D01*
X2291075Y-4087643D01*
X2289780Y-4092825D01*
Y-4093149D01*
X2289456Y-4093796D01*
Y-4094768D01*
X2289132Y-4096063D01*
X2288161Y-4099302D01*
X2287189Y-4103836D01*
X2285570Y-4109017D01*
X2283950Y-4114523D01*
X2280388Y-4125858D01*
Y-4126181D01*
X2280064Y-4126505D01*
X2279417Y-4128448D01*
X2278445Y-4131039D01*
X2276826Y-4134602D01*
X2274883Y-4138488D01*
X2272940Y-4142698D01*
X2270349Y-4146908D01*
X2267758Y-4151118D01*
X2267434Y-4151442D01*
X2266463Y-4152737D01*
X2264843Y-4154680D01*
X2262576Y-4156947D01*
X2259986Y-4159538D01*
X2256747Y-4162453D01*
X2253185Y-4165043D01*
X2248975Y-4167310D01*
X2248327Y-4167634D01*
X2247032Y-4168282D01*
X2244765Y-4169254D01*
X2241526Y-4170225D01*
X2237316Y-4171197D01*
X2232782Y-4172168D01*
X2227277Y-4172816D01*
X2221447Y-4173140D01*
X2221124D01*
X2220476D01*
X2219504D01*
X2218209D01*
X2214323Y-4172492D01*
X2209789Y-4171844D01*
X2204283Y-4170549D01*
X2198454Y-4168930D01*
X2192301Y-4166339D01*
X2186148Y-4162777D01*
X2185824D01*
X2185500Y-4162453D01*
X2183557Y-4160833D01*
X2180642Y-4158566D01*
X2177404Y-4155328D01*
X2173518Y-4151118D01*
X2169308Y-4146260D01*
X2165421Y-4140107D01*
X2161859Y-4133306D01*
Y-4132982D01*
X2161535Y-4132335D01*
X2161211Y-4131363D01*
X2160564Y-4129744D01*
X2159916Y-4128125D01*
X2158944Y-4125858D01*
X2158297Y-4123267D01*
X2157649Y-4120352D01*
X2156030Y-4113551D01*
X2154410Y-4105779D01*
X2153439Y-4097035D01*
X2153115Y-4087319D01*
Y-4084081D01*
X2153439Y-4082138D01*
Y-4079223D01*
X2153763Y-4075985D01*
X2154087Y-4072422D01*
X2154734Y-4068860D01*
X2156030Y-4060440D01*
X2158297Y-4051696D01*
X2161211Y-4042628D01*
X2165098Y-4034532D01*
X2165421Y-4033884D01*
X2166717Y-4032265D01*
X2168660Y-4029350D01*
X2171251Y-4026112D01*
X2174489Y-4022226D01*
X2178375Y-4018339D01*
X2182909Y-4014453D01*
X2188091Y-4010567D01*
X2188415D01*
X2188739Y-4010243D01*
X2190682Y-4009272D01*
X2193596Y-4007652D01*
X2197159Y-4006033D01*
X2201369Y-4004414D01*
X2206226Y-4002795D01*
X2211408Y-4001823D01*
X2216590Y-4001499D01*
X2216914D01*
X2217885D01*
X2219504Y-4001823D01*
D02*
G37*
%LPC*%
G36*
X-2321913Y-3989527D02*
X-2322236D01*
X-2322560D01*
X-2324503D01*
X-2327094Y-3989851D01*
X-2330333Y-3990498D01*
X-2334219Y-3991470D01*
X-2338105Y-3993089D01*
X-2341991Y-3995032D01*
X-2345554Y-3997947D01*
X-2345877Y-3998271D01*
X-2347173Y-3999890D01*
X-2348792Y-4002481D01*
X-2349440Y-4004424D01*
X-2350411Y-4006367D01*
X-2351383Y-4008958D01*
X-2352354Y-4011549D01*
X-2353002Y-4014787D01*
X-2353650Y-4018350D01*
X-2354298Y-4022236D01*
X-2354945Y-4026770D01*
X-2355269Y-4031627D01*
Y-4066279D01*
X-2288880D01*
Y-4034218D01*
X-2289204Y-4031304D01*
Y-4027741D01*
X-2289528Y-4023531D01*
X-2290175Y-4019321D01*
X-2291147Y-4015111D01*
X-2292118Y-4010901D01*
X-2292442Y-4010577D01*
X-2292766Y-4009282D01*
X-2293414Y-4007339D01*
X-2294709Y-4005072D01*
X-2296005Y-4002481D01*
X-2297948Y-3999890D01*
X-2299891Y-3997299D01*
X-2302482Y-3995032D01*
X-2302805Y-3994709D01*
X-2303777Y-3994061D01*
X-2305396Y-3993413D01*
X-2307663Y-3992118D01*
X-2310578Y-3991146D01*
X-2313816Y-3990498D01*
X-2317703Y-3989851D01*
X-2321913Y-3989527D01*
D02*
G37*
%LPD*%
D41*
X-2394840Y-4938040D02*
X-2044840D01*
Y-4813040D01*
X-2394840Y-4938040D02*
Y-4813040D01*
X-2594840D02*
Y-4463040D01*
Y-4813040D02*
X-1694840D01*
Y-4463040D01*
X-2594840D02*
X-1694840D01*
D42*
X-2908041Y-4399255D02*
Y-4246905D01*
X-2831866D01*
X-2806474Y-4272297D01*
Y-4323080D01*
X-2831866Y-4348472D01*
X-2908041D01*
X-2679515Y-4246905D02*
X-2730299D01*
X-2755690Y-4272297D01*
Y-4373863D01*
X-2730299Y-4399255D01*
X-2679515D01*
X-2654123Y-4373863D01*
Y-4272297D01*
X-2679515Y-4246905D01*
X-2603340D02*
Y-4399255D01*
X-2552556Y-4348472D01*
X-2501772Y-4399255D01*
Y-4246905D01*
X-2349422D02*
X-2450989D01*
Y-4399255D01*
X-2349422D01*
X-2450989Y-4323080D02*
X-2400206D01*
X-2298638Y-4399255D02*
Y-4246905D01*
X-2222463D01*
X-2197071Y-4272297D01*
Y-4323080D01*
X-2222463Y-4348472D01*
X-2298638D01*
X-2247855D02*
X-2197071Y-4399255D01*
X-2044720Y-4272297D02*
X-2070112Y-4246905D01*
X-2120896D01*
X-2146288Y-4272297D01*
Y-4297688D01*
X-2120896Y-4323080D01*
X-2070112D01*
X-2044720Y-4348472D01*
Y-4373863D01*
X-2070112Y-4399255D01*
X-2120896D01*
X-2146288Y-4373863D01*
X-1993937Y-4246905D02*
Y-4399255D01*
X-1943153Y-4348472D01*
X-1892370Y-4399255D01*
Y-4246905D01*
X-1841586D02*
X-1790803D01*
X-1816194D01*
Y-4399255D01*
X-1841586D01*
X-1790803D01*
X-1714627Y-4246905D02*
X-1613060D01*
X-1663844D01*
Y-4399255D01*
X-1460709Y-4272297D02*
X-1486101Y-4246905D01*
X-1536885D01*
X-1562277Y-4272297D01*
Y-4373863D01*
X-1536885Y-4399255D01*
X-1486101D01*
X-1460709Y-4373863D01*
X-1409926Y-4246905D02*
Y-4399255D01*
Y-4323080D01*
X-1308359D01*
Y-4246905D01*
Y-4399255D01*
X842567Y-231887D02*
X913255Y-302575D01*
X948599Y-267231D01*
Y-243668D01*
X901474Y-196543D01*
X877911D01*
X842567Y-231887D01*
X983943D02*
X1007505Y-208324D01*
X995724Y-220105D01*
X925036Y-149418D01*
Y-172980D01*
X983943Y-114074D02*
Y-90511D01*
X1007505Y-66948D01*
X1031068Y-66949D01*
X1078193Y-114074D01*
X1078193Y-137636D01*
X1054631Y-161199D01*
X1031068D01*
X983943Y-114074D01*
X-1551616Y-625596D02*
X-1622304Y-696284D01*
X-1586960Y-731628D01*
X-1563397D01*
X-1516272Y-684503D01*
Y-660941D01*
X-1551616Y-625596D01*
Y-766972D02*
X-1528053Y-790535D01*
X-1539834Y-778754D01*
X-1469146Y-708066D01*
X-1492709D01*
X-1374896Y-802316D02*
X-1422021Y-755191D01*
X-1457365Y-790535D01*
X-1422022Y-802316D01*
X-1410240Y-814098D01*
Y-837660D01*
X-1433803Y-861223D01*
X-1457365Y-861223D01*
X-1480928Y-837660D01*
Y-814097D01*
X-1005516Y-79496D02*
X-1076204Y-150184D01*
X-1040860Y-185528D01*
X-1017297D01*
X-970172Y-138403D01*
Y-114841D01*
X-1005516Y-79496D01*
Y-220872D02*
X-981953Y-244435D01*
X-993734Y-232654D01*
X-923046Y-161966D01*
X-946609D01*
X-911265Y-315123D02*
X-840577Y-244435D01*
X-911265D01*
X-864140Y-291560D01*
X1462337Y881651D02*
X1391649Y810963D01*
X1426993Y775619D01*
X1450556D01*
X1497681Y822744D01*
Y846306D01*
X1462337Y881651D01*
X1533025Y810963D02*
X1580151Y763837D01*
X1568369Y752056D01*
X1474119D01*
X1462337Y740275D01*
X-881651Y1462338D02*
X-810963Y1391650D01*
X-775619Y1426994D01*
Y1450556D01*
X-822744Y1497682D01*
X-846306D01*
X-881651Y1462338D01*
X-799181Y1521244D02*
Y1544807D01*
X-775619Y1568369D01*
X-752056Y1568369D01*
X-740275Y1556588D01*
Y1533026D01*
X-752056Y1521244D01*
X-740275Y1533026D01*
X-716712Y1533025D01*
X-704931Y1521244D01*
Y1497682D01*
X-728493Y1474119D01*
X-752056D01*
X890837Y322851D02*
X820149Y252163D01*
X855493Y216819D01*
X879056D01*
X926181Y263944D01*
Y287506D01*
X890837Y322851D01*
X1008651Y205037D02*
X973306Y216819D01*
X926181D01*
X902619Y193256D01*
Y169693D01*
X926181Y146131D01*
X949744D01*
X961525Y157912D01*
X961525Y181475D01*
X926181Y216819D01*
X-2135816Y-1197096D02*
X-2206504Y-1267784D01*
X-2171160Y-1303128D01*
X-2147597D01*
X-2100472Y-1256003D01*
Y-1232441D01*
X-2135816Y-1197096D01*
Y-1338472D02*
X-2112253Y-1362035D01*
X-2124034Y-1350254D01*
X-2053346Y-1279566D01*
X-2076909D01*
X-1959096Y-1373816D02*
X-1994440Y-1362035D01*
X-2041565D01*
X-2065128Y-1385597D01*
Y-1409160D01*
X-2041565Y-1432723D01*
X-2018003Y-1432723D01*
X-2006222Y-1420941D01*
X-2006221Y-1397379D01*
X-2041565Y-1362035D01*
X1388819Y-805376D02*
X1459507Y-876064D01*
X1494851Y-840720D01*
Y-817158D01*
X1447726Y-770032D01*
X1424164D01*
X1388819Y-805376D01*
X1530195D02*
X1553758Y-781814D01*
X1541977Y-793595D01*
X1471289Y-722907D01*
Y-746470D01*
X1589102D02*
X1612664Y-722907D01*
X1600883Y-734688D01*
X1530195Y-664000D01*
Y-687563D01*
X1987708Y-1364328D02*
X2058396Y-1435016D01*
X2093740Y-1399672D01*
Y-1376110D01*
X2046615Y-1328984D01*
X2023052D01*
X1987708Y-1364328D01*
X2129084D02*
X2152647Y-1340765D01*
X2140865Y-1352547D01*
X2070177Y-1281859D01*
Y-1305422D01*
X2235116Y-1258296D02*
X2187991Y-1305422D01*
Y-1211171D01*
X2176209Y-1199390D01*
X2152647Y-1199390D01*
X2129084Y-1222952D01*
Y-1246515D01*
X2033837Y1415050D02*
X1963149Y1344362D01*
X1998493Y1309018D01*
X2022056D01*
X2069181Y1356144D01*
Y1379706D01*
X2033837Y1415050D01*
X2092744Y1332581D02*
X2116307D01*
X2139869Y1309018D01*
X2139869Y1285456D01*
X2128088Y1273674D01*
X2104525D01*
X2104525Y1250112D01*
X2092744Y1238331D01*
X2069181D01*
X2045619Y1261893D01*
Y1285456D01*
X2057400Y1297237D01*
X2080963D01*
X2080963Y1320799D01*
X2092744Y1332581D01*
X2080963Y1297237D02*
X2104525Y1273674D01*
X-1415051Y2008437D02*
X-1344363Y1937749D01*
X-1309019Y1973093D01*
Y1996656D01*
X-1356144Y2043781D01*
X-1379707D01*
X-1415051Y2008437D01*
X-1238331Y2043781D02*
X-1309019Y2114469D01*
Y2043781D01*
X-1261894Y2090906D01*
X-86965Y-415356D02*
Y-515324D01*
X-36981D01*
X-20320Y-498663D01*
Y-432018D01*
X-36981Y-415356D01*
X-86965D01*
X13003Y-515324D02*
X46325D01*
X29664D01*
Y-415356D01*
X13003Y-432018D01*
X-2680677Y-1752852D02*
X-2751365Y-1823540D01*
X-2716021Y-1858884D01*
X-2692458D01*
X-2645333Y-1811759D01*
Y-1788197D01*
X-2680677Y-1752852D01*
Y-1894228D02*
X-2657114Y-1917791D01*
X-2668895Y-1906010D01*
X-2598207Y-1835322D01*
X-2621770D01*
X-2551082Y-1882447D02*
X-2503957Y-1929572D01*
X-2515738Y-1941353D01*
X-2609989D01*
X-2621770Y-1953135D01*
X2534879Y-1924199D02*
X2605567Y-1994887D01*
X2640911Y-1959543D01*
Y-1935980D01*
X2593786Y-1888855D01*
X2570223D01*
X2534879Y-1924199D01*
X2676255D02*
X2699818Y-1900636D01*
X2688036Y-1912418D01*
X2617348Y-1841730D01*
Y-1865292D01*
X2676255Y-1806386D02*
Y-1782823D01*
X2699818Y-1759260D01*
X2723380Y-1759261D01*
X2735161Y-1771042D01*
Y-1794604D01*
X2723380Y-1806386D01*
X2735161Y-1794604D01*
X2758724Y-1794605D01*
X2770505Y-1806386D01*
X2770506Y-1829948D01*
X2746943Y-1853511D01*
X2723380D01*
X2605337Y2011950D02*
X2534649Y1941262D01*
X2569993Y1905918D01*
X2593556D01*
X2640681Y1953044D01*
Y1976606D01*
X2605337Y2011950D01*
X2617119Y1882356D02*
Y1858793D01*
X2640681Y1835231D01*
X2664244D01*
X2711369Y1882356D01*
X2711369Y1905918D01*
X2687807Y1929481D01*
X2664244D01*
X2652463Y1917699D01*
X2652463Y1894137D01*
X2687806Y1858793D01*
X-1999251Y2579938D02*
X-1928563Y2509250D01*
X-1893219Y2544594D01*
Y2568156D01*
X-1940344Y2615282D01*
X-1963907D01*
X-1999251Y2579938D01*
X-1881438Y2697751D02*
X-1928563Y2650626D01*
X-1893219Y2615282D01*
X-1881437Y2650625D01*
X-1869656Y2662407D01*
X-1846094D01*
X-1822531Y2638844D01*
Y2615282D01*
X-1846094Y2591719D01*
X-1869656D01*
X-297451Y890837D02*
X-226763Y820149D01*
X-191419Y855493D01*
Y879056D01*
X-238544Y926181D01*
X-262107D01*
X-297451Y890837D01*
X-108950Y937963D02*
X-156075Y890837D01*
Y985088D01*
X-167856Y996869D01*
X-191419Y996869D01*
X-214982Y973307D01*
Y949744D01*
X2971964Y-2298729D02*
Y-2451079D01*
X3048140D01*
X3073532Y-2425688D01*
Y-2400296D01*
X3048140Y-2374904D01*
X2971964D01*
X3048140D01*
X3073532Y-2349512D01*
Y-2324121D01*
X3048140Y-2298729D01*
X2971964D01*
X3124315D02*
X3225882D01*
X3175099D01*
Y-2451079D01*
X3276666D02*
Y-2298729D01*
X3378233Y-2451079D01*
Y-2298729D01*
X3429017Y-2476471D02*
X3530584D01*
X3581367Y-2298729D02*
Y-2324121D01*
X3632151Y-2374904D01*
X3682934Y-2324121D01*
Y-2298729D01*
X3632151Y-2374904D02*
Y-2451079D01*
X3733718Y-2298729D02*
Y-2451079D01*
X3835285D01*
X3886069Y-2298729D02*
Y-2451079D01*
X3936852Y-2400296D01*
X3987636Y-2451079D01*
Y-2298729D01*
X-3987636D02*
Y-2451079D01*
X-3911460D01*
X-3886068Y-2425688D01*
Y-2400296D01*
X-3911460Y-2374904D01*
X-3987636D01*
X-3911460D01*
X-3886068Y-2349512D01*
Y-2324121D01*
X-3911460Y-2298729D01*
X-3987636D01*
X-3835285D02*
X-3733718D01*
X-3784501D01*
Y-2451079D01*
X-3682934D02*
Y-2298729D01*
X-3581367Y-2451079D01*
Y-2298729D01*
X-3530583Y-2476471D02*
X-3429016D01*
X-3378233Y-2451079D02*
Y-2298729D01*
X-3302057D01*
X-3276666Y-2324121D01*
Y-2374904D01*
X-3302057Y-2400296D01*
X-3378233D01*
X-3327449D02*
X-3276666Y-2451079D01*
X-3124315Y-2298729D02*
X-3225882D01*
Y-2451079D01*
X-3124315D01*
X-3225882Y-2374904D02*
X-3175099D01*
X-3073531Y-2298729D02*
Y-2451079D01*
X-2997356D01*
X-2971964Y-2425688D01*
Y-2324121D01*
X-2997356Y-2298729D01*
X-3073531D01*
X2997364Y2476471D02*
Y2324121D01*
X3073540D01*
X3098932Y2349512D01*
Y2374904D01*
X3073540Y2400296D01*
X2997364D01*
X3073540D01*
X3098932Y2425688D01*
Y2451079D01*
X3073540Y2476471D01*
X2997364D01*
X3149715D02*
X3251282D01*
X3200499D01*
Y2324121D01*
X3302066D02*
Y2476471D01*
X3403633Y2324121D01*
Y2476471D01*
X3454417Y2298729D02*
X3555984D01*
X3708334Y2451079D02*
X3682943Y2476471D01*
X3632159D01*
X3606767Y2451079D01*
Y2349512D01*
X3632159Y2324121D01*
X3682943D01*
X3708334Y2349512D01*
Y2400296D01*
X3657551D01*
X3759118Y2324121D02*
Y2476471D01*
X3835293D01*
X3860685Y2451079D01*
Y2400296D01*
X3835293Y2374904D01*
X3759118D01*
X3809901D02*
X3860685Y2324121D01*
X3911469D02*
Y2476471D01*
X4013036Y2324121D01*
Y2476471D01*
X-4013036D02*
Y2324121D01*
X-3936860D01*
X-3911468Y2349512D01*
Y2374904D01*
X-3936860Y2400296D01*
X-4013036D01*
X-3936860D01*
X-3911468Y2425688D01*
Y2451079D01*
X-3936860Y2476471D01*
X-4013036D01*
X-3860685D02*
X-3759118D01*
X-3809901D01*
Y2324121D01*
X-3708334D02*
Y2476471D01*
X-3606767Y2324121D01*
Y2476471D01*
X-3555983Y2298729D02*
X-3454416D01*
X-3403633Y2476471D02*
Y2324121D01*
X-3327457D01*
X-3302066Y2349512D01*
Y2374904D01*
X-3327457Y2400296D01*
X-3403633D01*
X-3327457D01*
X-3302066Y2425688D01*
Y2451079D01*
X-3327457Y2476471D01*
X-3403633D01*
X-3251282D02*
Y2324121D01*
X-3149715D01*
X-3098931Y2476471D02*
Y2349512D01*
X-3073539Y2324121D01*
X-3022756D01*
X-2997364Y2349512D01*
Y2476471D01*
D66*
X2515203Y-2027558D02*
G03*
X2515203Y-2027558I-7237J0D01*
G01*
X2341817Y-1988931D02*
G03*
X2536588Y-2183790I-79076J-273810D01*
G01*
X1949518Y-1461872D02*
G03*
X1949518Y-1461872I-7237J0D01*
G01*
X1776132Y-1423246D02*
G03*
X1970902Y-1618105I-79076J-273810D01*
G01*
X1383833Y-896187D02*
G03*
X1383833Y-896187I-7237J0D01*
G01*
X1210446Y-857561D02*
G03*
X1405217Y-1052420I-79076J-273810D01*
G01*
X818147Y-330502D02*
G03*
X818147Y-330502I-7237J0D01*
G01*
X644761Y-291875D02*
G03*
X839531Y-486734I-79076J-273810D01*
G01*
X137698Y-249528D02*
G03*
X-137812Y-249465I-137698J249528D01*
G01*
X137Y-339700D02*
G03*
X137Y-339700I-7237J0D01*
G01*
X2505162Y2017517D02*
G03*
X2505162Y2017517I-7237J0D01*
G01*
X2536552Y2183666D02*
G03*
X2341693Y1988895I-273810J79076D01*
G01*
X1939477Y1451831D02*
G03*
X1939477Y1451831I-7237J0D01*
G01*
X1970866Y1617981D02*
G03*
X1776007Y1423210I-273810J79076D01*
G01*
X808106Y320461D02*
G03*
X808106Y320461I-7237J0D01*
G01*
X839496Y486610D02*
G03*
X644637Y291839I-273810J79076D01*
G01*
X1373792Y886146D02*
G03*
X1373792Y886146I-7237J0D01*
G01*
X1405181Y1052295D02*
G03*
X1210322Y857525I-273810J79076D01*
G01*
X-313224Y800869D02*
G03*
X-313224Y800869I-7237J0D01*
G01*
X-486610Y839496D02*
G03*
X-291839Y644637I-79076J-273810D01*
G01*
X-2010280Y2497925D02*
G03*
X-2010280Y2497925I-7237J0D01*
G01*
X-2183666Y2536552D02*
G03*
X-1988895Y2341693I-79076J-273810D01*
G01*
X-1444594Y1932240D02*
G03*
X-1444594Y1932240I-7237J0D01*
G01*
X-1617981Y1970866D02*
G03*
X-1423210Y1776007I-79076J-273810D01*
G01*
X-878909Y1366555D02*
G03*
X-878909Y1366555I-7237J0D01*
G01*
X-1052295Y1405181D02*
G03*
X-857525Y1210322I-79076J-273810D01*
G01*
X-2464049Y-2001773D02*
G03*
X-2464049Y-2001773I-7237J0D01*
G01*
X-2509913Y-2167922D02*
G03*
X-2315054Y-1973152I273810J-79076D01*
G01*
X-1925003Y-1451831D02*
G03*
X-1925003Y-1451831I-7237J0D01*
G01*
X-1970866Y-1617981D02*
G03*
X-1776007Y-1423210I273810J-79076D01*
G01*
X-793632Y-320461D02*
G03*
X-793632Y-320461I-7237J0D01*
G01*
X-839496Y-486610D02*
G03*
X-644637Y-291839I273810J-79076D01*
G01*
X-1359318Y-886146D02*
G03*
X-1359318Y-886146I-7237J0D01*
G01*
X-1405181Y-1052295D02*
G03*
X-1210322Y-857525I273810J-79076D01*
G01*
D67*
X2343491Y-1989938D02*
X2535752Y-2182199D01*
X1777806Y-1424252D02*
X1970067Y-1616513D01*
X1212121Y-858567D02*
X1404381Y-1050828D01*
X646435Y-292882D02*
X838696Y-485143D01*
X-136095Y-250000D02*
X135803D01*
X2343284Y1989731D02*
X2535545Y2181992D01*
X1777599Y1424045D02*
X1969860Y1616306D01*
X646228Y292675D02*
X838489Y484936D01*
X1211914Y858360D02*
X1404174Y1050621D01*
X-484936Y838489D02*
X-292675Y646228D01*
X-2181992Y2535545D02*
X-1989731Y2343284D01*
X-1616306Y1969860D02*
X-1424045Y1777599D01*
X-1050621Y1404174D02*
X-858360Y1211914D01*
X-2508906Y-2166248D02*
X-2316645Y-1973987D01*
X-1969860Y-1616306D02*
X-1777599Y-1424045D01*
X-838489Y-484936D02*
X-646228Y-292675D01*
X-1404174Y-1050621D02*
X-1211914Y-858360D01*
%TF.MD5,26d5fb49539499097494eb29105bf619*%
M02*
