%TF.GenerationSoftware,Altium Limited,Altium Designer,20.1.8 (145)*%
G04 Layer_Color=32896*
%FSLAX45Y45*%
%MOMM*%
%TF.SameCoordinates,793C4F5F-A07E-474B-A886-B682DA88F124*%
%TF.FilePolarity,Positive*%
%TF.FileFunction,Other,Bottom_Courtyard*%
%TF.Part,Single*%
G01*
G75*
%TA.AperFunction,NonConductor*%
%ADD69C,0.10000*%
%ADD70C,0.05000*%
%ADD71C,0.05080*%
D69*
X1557254Y-2140479D02*
X1657254D01*
X1607254Y-2190479D02*
Y-2090479D01*
X2172939Y-2767800D02*
Y-2667800D01*
X2122939Y-2717800D02*
X2222939D01*
X-1454620Y-1744680D02*
X-1354620D01*
X-1404620Y-1794680D02*
Y-1694680D01*
X-90640Y-2164080D02*
X9360D01*
X-40640Y-2214080D02*
Y-2114080D01*
X-1993779Y2532501D02*
X-1937211Y2589069D01*
X-1993779Y2589070D02*
X-1937211Y2532501D01*
X-2581449Y-1939751D02*
X-2524881Y-1996319D01*
X-2581450Y-1996319D02*
X-2524881Y-1939751D01*
X-1594320Y-2152230D02*
X-1494320D01*
X-1544320Y-2202230D02*
Y-2102230D01*
X-294519Y835781D02*
X-237951Y892349D01*
X-294519Y892350D02*
X-237951Y835781D01*
X-853319Y1394581D02*
X-796751Y1451149D01*
X-853319Y1451150D02*
X-796751Y1394581D01*
X-1424819Y1966081D02*
X-1368251Y2022649D01*
X-1424819Y2022650D02*
X-1368251Y1966081D01*
X835781Y294519D02*
X892349Y237951D01*
X835781D02*
X892350Y294519D01*
X1394581Y853319D02*
X1451149Y796751D01*
X1394581D02*
X1451150Y853319D01*
X1966081Y1424819D02*
X2022649Y1368251D01*
X1966081D02*
X2022650Y1424819D01*
X2524881Y1996319D02*
X2581449Y1939751D01*
X2524881D02*
X2581450Y1996319D01*
X820541Y-309759D02*
X877109Y-253191D01*
X820541Y-253190D02*
X877109Y-309759D01*
X1384421Y-876179D02*
X1440989Y-819611D01*
X1384421Y-819610D02*
X1440989Y-876179D01*
X1948301Y-1442599D02*
X2004869Y-1386031D01*
X1948301Y-1386030D02*
X2004869Y-1442599D01*
X2512181Y-2009019D02*
X2568749Y-1952451D01*
X2512181Y-1952450D02*
X2568749Y-2009019D01*
X-892349Y-237951D02*
X-835781Y-294519D01*
X-892350Y-294519D02*
X-835781Y-237951D01*
X-1451149Y-796751D02*
X-1394581Y-853319D01*
X-1451150Y-853319D02*
X-1394581Y-796751D01*
X-2022649Y-1368251D02*
X-1966081Y-1424819D01*
X-2022650Y-1424819D02*
X-1966081Y-1368251D01*
X0Y-432840D02*
Y-352840D01*
X-40000Y-392840D02*
X40000D01*
X-798190Y-2302510D02*
X-718190D01*
X-758190Y-2342510D02*
Y-2262510D01*
X-798190Y-2157110D02*
X-718190D01*
X-758190Y-2197110D02*
Y-2117110D01*
X-71640Y-1465580D02*
X8360D01*
X-31640Y-1505580D02*
Y-1425580D01*
X-798190Y-2010410D02*
X-718190D01*
X-758190Y-2050410D02*
Y-1970410D01*
X-1919440Y-2646680D02*
X-1819440D01*
X-1869440Y-2696680D02*
Y-2596680D01*
X431060Y-2649080D02*
X511060D01*
X471060Y-2689080D02*
Y-2609080D01*
X-591115Y-1677952D02*
X-511115D01*
X-551115Y-1717952D02*
Y-1637953D01*
X-176640Y-1635120D02*
Y-1555120D01*
X-216640Y-1595120D02*
X-136640D01*
X475883Y-1059088D02*
Y-959088D01*
X425883Y-1009088D02*
X525883D01*
X1041568Y-1624800D02*
Y-1524800D01*
X991569Y-1574800D02*
X1091569D01*
X-1645920Y-2696680D02*
Y-2596680D01*
X-1695920Y-2646680D02*
X-1595920D01*
D70*
X1447254Y-2297979D02*
Y-1982979D01*
X1767254Y-2297979D02*
Y-1982979D01*
X1447254D02*
X1767254D01*
X1447254Y-2297979D02*
X1767254D01*
X2012939Y-2875300D02*
X2332939D01*
X2012939Y-2560300D02*
X2332939D01*
Y-2875300D02*
Y-2560300D01*
X2012939Y-2875300D02*
Y-2560300D01*
X-1499620Y-1549680D02*
X-1309620D01*
X-1499620Y-1939680D02*
X-1309620D01*
Y-1549680D01*
X-1499620Y-1939680D02*
Y-1549680D01*
X444360Y-2649080D02*
Y-1679080D01*
X-525640Y-2649080D02*
Y-1679080D01*
Y-2649080D02*
X444360D01*
X-525640Y-1679080D02*
X444360D01*
X-1784320Y-2404480D02*
Y-1974480D01*
X-1304320Y-2404480D02*
Y-1974480D01*
X-1784320D02*
X-1304320D01*
X-1784320Y-2404480D02*
X-1304320D01*
X-1964440Y-2451680D02*
X-1774440D01*
X-1964440Y-2841680D02*
X-1774440D01*
Y-2451680D01*
X-1964440Y-2841680D02*
Y-2451680D01*
X416060Y-2534080D02*
X526060D01*
X416060Y-2764080D02*
Y-2534080D01*
X526060Y-2764080D02*
Y-2534080D01*
X416060Y-2764080D02*
X526060D01*
X416060Y-2534080D02*
X526060D01*
X416060Y-2764080D02*
Y-2534080D01*
X526060Y-2764080D02*
Y-2534080D01*
X416060Y-2764080D02*
X526060D01*
X-606115Y-1792952D02*
X-496115D01*
Y-1562952D01*
X-606115Y-1792952D02*
Y-1562952D01*
X-496115D01*
X-606115Y-1792952D02*
X-496115D01*
Y-1562952D01*
X-606115Y-1792952D02*
Y-1562952D01*
X-496115D01*
X-61640Y-1650120D02*
Y-1540120D01*
X-291640D02*
X-61640D01*
X-291640Y-1650120D02*
X-61640D01*
X-291640D02*
Y-1540120D01*
X-61640Y-1650120D02*
Y-1540120D01*
X-291640D02*
X-61640D01*
X-291640Y-1650120D02*
X-61640D01*
X-291640D02*
Y-1540120D01*
X315883Y-1166588D02*
X635883D01*
X315883Y-851588D02*
X635883D01*
Y-1166588D02*
Y-851588D01*
X315883Y-1166588D02*
Y-851588D01*
X881568Y-1732300D02*
X1201569D01*
X881568Y-1417300D02*
X1201569D01*
Y-1732300D02*
Y-1417300D01*
X881568Y-1732300D02*
Y-1417300D01*
X-1745920Y-2841680D02*
X-1545920D01*
X-1745920Y-2451680D02*
X-1545920D01*
Y-2841680D02*
Y-2451680D01*
X-1745920Y-2841680D02*
Y-2451680D01*
D71*
X-2078632Y2518359D02*
X-1923068Y2673923D01*
X-2007921Y2447648D02*
X-1852358Y2603212D01*
X-2078632Y2518359D02*
X-2007921Y2447648D01*
X-1923068Y2673923D02*
X-1852358Y2603212D01*
X-2666303Y-1925608D02*
X-2510739Y-2081172D01*
X-2595592Y-1854898D02*
X-2440028Y-2010461D01*
X-2510739Y-2081172D02*
X-2440028Y-2010461D01*
X-2666303Y-1925608D02*
X-2595592Y-1854898D01*
X-379372Y821639D02*
X-223808Y977203D01*
X-308661Y750928D02*
X-153098Y906492D01*
X-379372Y821639D02*
X-308661Y750928D01*
X-223808Y977203D02*
X-153098Y906492D01*
X-938172Y1380439D02*
X-782608Y1536003D01*
X-867461Y1309728D02*
X-711898Y1465292D01*
X-938172Y1380439D02*
X-867461Y1309728D01*
X-782608Y1536003D02*
X-711898Y1465292D01*
X-1509672Y1951939D02*
X-1354108Y2107503D01*
X-1438961Y1881228D02*
X-1283398Y2036792D01*
X-1509672Y1951939D02*
X-1438961Y1881228D01*
X-1354108Y2107503D02*
X-1283398Y2036792D01*
X821639Y379372D02*
X977203Y223808D01*
X750928Y308661D02*
X906492Y153098D01*
X750928Y308661D02*
X821639Y379372D01*
X906492Y153098D02*
X977203Y223808D01*
X1380439Y938172D02*
X1536003Y782608D01*
X1309728Y867461D02*
X1465292Y711898D01*
X1309728Y867461D02*
X1380439Y938172D01*
X1465292Y711898D02*
X1536003Y782608D01*
X1951939Y1509672D02*
X2107503Y1354108D01*
X1881228Y1438961D02*
X2036792Y1283398D01*
X1881228Y1438961D02*
X1951939Y1509672D01*
X2036792Y1283398D02*
X2107503Y1354108D01*
X2510739Y2081172D02*
X2666303Y1925608D01*
X2440028Y2010461D02*
X2595592Y1854898D01*
X2440028Y2010461D02*
X2510739Y2081172D01*
X2595592Y1854898D02*
X2666303Y1925608D01*
X735688Y-323901D02*
X891252Y-168337D01*
X806399Y-394612D02*
X961962Y-239048D01*
X735688Y-323901D02*
X806399Y-394612D01*
X891252Y-168337D02*
X961962Y-239048D01*
X1299568Y-890321D02*
X1455132Y-734757D01*
X1370279Y-961032D02*
X1525842Y-805468D01*
X1299568Y-890321D02*
X1370279Y-961032D01*
X1455132Y-734757D02*
X1525842Y-805468D01*
X1863448Y-1456741D02*
X2019012Y-1301177D01*
X1934159Y-1527452D02*
X2089722Y-1371888D01*
X1863448Y-1456741D02*
X1934159Y-1527452D01*
X2019012Y-1301177D02*
X2089722Y-1371888D01*
X2427328Y-2023161D02*
X2582892Y-1867597D01*
X2498039Y-2093872D02*
X2653602Y-1938308D01*
X2427328Y-2023161D02*
X2498039Y-2093872D01*
X2582892Y-1867597D02*
X2653602Y-1938308D01*
X-977203Y-223808D02*
X-821639Y-379372D01*
X-906492Y-153098D02*
X-750928Y-308661D01*
X-821639Y-379372D02*
X-750928Y-308661D01*
X-977203Y-223808D02*
X-906492Y-153098D01*
X-1536003Y-782608D02*
X-1380439Y-938172D01*
X-1465292Y-711898D02*
X-1309728Y-867461D01*
X-1380439Y-938172D02*
X-1309728Y-867461D01*
X-1536003Y-782608D02*
X-1465292Y-711898D01*
X-2107503Y-1354108D02*
X-1951939Y-1509672D01*
X-2036792Y-1283398D02*
X-1881228Y-1438961D01*
X-1951939Y-1509672D02*
X-1881228Y-1438961D01*
X-2107503Y-1354108D02*
X-2036792Y-1283398D01*
X50000Y-502840D02*
Y-282840D01*
X-50000Y-502840D02*
Y-282840D01*
X50000D01*
X-50000Y-502840D02*
X50000D01*
X-868190Y-2352510D02*
X-648190D01*
X-868190Y-2252510D02*
X-648190D01*
Y-2352510D02*
Y-2252510D01*
X-868190Y-2352510D02*
Y-2252510D01*
Y-2207110D02*
X-648190D01*
X-868190Y-2107110D02*
X-648190D01*
Y-2207110D02*
Y-2107110D01*
X-868190Y-2207110D02*
Y-2107110D01*
X-141640Y-1515580D02*
X78360D01*
X-141640Y-1415580D02*
X78360D01*
Y-1515580D02*
Y-1415580D01*
X-141640Y-1515580D02*
Y-1415580D01*
X-868190Y-1960410D02*
X-648190D01*
X-868190Y-2060410D02*
X-648190D01*
X-868190D02*
Y-1960410D01*
X-648190Y-2060410D02*
Y-1960410D01*
%TF.MD5,b8a576435ac67e9e1ffb3fb38a0097f1*%
M02*
