%TF.GenerationSoftware,Altium Limited,Altium Designer,20.1.8 (145)*%
G04 Layer_Color=32768*
%FSLAX45Y45*%
%MOMM*%
%TF.SameCoordinates,793C4F5F-A07E-474B-A886-B682DA88F124*%
%TF.FilePolarity,Positive*%
%TF.FileFunction,Other,Bottom_Assembly*%
%TF.Part,Single*%
G01*
G75*
%TA.AperFunction,NonConductor*%
%ADD69C,0.10000*%
D69*
X-250640Y-1904080D02*
G03*
X-250640Y-1904080I-50000J0D01*
G01*
X-1359320Y-2187230D02*
G03*
X-1359320Y-2187230I-50000J0D01*
G01*
X1457254Y-2210479D02*
Y-2070479D01*
X1757254Y-2210479D02*
Y-2070479D01*
X1457254D02*
X1757254D01*
X1457254Y-2210479D02*
X1757254D01*
X2022939Y-2787800D02*
X2322939D01*
X2022939Y-2647800D02*
X2322939D01*
Y-2787800D02*
Y-2647800D01*
X2022939Y-2787800D02*
Y-2647800D01*
X-1484620Y-1904680D02*
Y-1584680D01*
X-1324620Y-1904680D02*
Y-1584680D01*
X-1484620D02*
X-1324620D01*
X-1484620Y-1904680D02*
X-1324620D01*
X309360Y-2514080D02*
Y-1814080D01*
X-390640Y-2514080D02*
Y-1814080D01*
Y-2514080D02*
X309360D01*
X-390640Y-1814080D02*
X309360D01*
X-2050348Y2532501D02*
X-1937211Y2645638D01*
X-2050348Y2532501D02*
X-1993779Y2475933D01*
X-1937211Y2645638D02*
X-1880642Y2589070D01*
X-1993779Y2475933D02*
X-1880642Y2589070D01*
X-2638018Y-1939751D02*
X-2524881Y-2052888D01*
X-2468313Y-1996319D01*
X-2638018Y-1939751D02*
X-2581450Y-1883182D01*
X-2468313Y-1996319D01*
X-1774320Y-2282230D02*
Y-2022230D01*
X-1314320Y-2282230D02*
Y-2022230D01*
X-1774320D02*
X-1314320D01*
X-1774320Y-2282230D02*
X-1314320D01*
X-351088Y835781D02*
X-237951Y948918D01*
X-351088Y835781D02*
X-294519Y779213D01*
X-237951Y948918D02*
X-181382Y892350D01*
X-294519Y779213D02*
X-181382Y892350D01*
X-909888Y1394581D02*
X-796751Y1507718D01*
X-909888Y1394581D02*
X-853319Y1338013D01*
X-796751Y1507718D02*
X-740182Y1451150D01*
X-853319Y1338013D02*
X-740182Y1451150D01*
X-1481388Y1966081D02*
X-1368251Y2079218D01*
X-1481388Y1966081D02*
X-1424819Y1909513D01*
X-1368251Y2079218D02*
X-1311682Y2022650D01*
X-1424819Y1909513D02*
X-1311682Y2022650D01*
X835781Y351088D02*
X948918Y237951D01*
X779213Y294519D02*
X835781Y351088D01*
X892350Y181382D02*
X948918Y237951D01*
X779213Y294519D02*
X892350Y181382D01*
X1394581Y909888D02*
X1507718Y796751D01*
X1338013Y853319D02*
X1394581Y909888D01*
X1451150Y740182D02*
X1507718Y796751D01*
X1338013Y853319D02*
X1451150Y740182D01*
X1966081Y1481388D02*
X2079218Y1368251D01*
X1909513Y1424819D02*
X1966081Y1481388D01*
X2022650Y1311682D02*
X2079218Y1368251D01*
X1909513Y1424819D02*
X2022650Y1311682D01*
X2524881Y2052888D02*
X2638018Y1939751D01*
X2468313Y1996319D02*
X2524881Y2052888D01*
X2581450Y1883182D02*
X2638018Y1939751D01*
X2468313Y1996319D02*
X2581450Y1883182D01*
X763972Y-309759D02*
X877109Y-196622D01*
X763972Y-309759D02*
X820541Y-366327D01*
X877109Y-196622D02*
X933678Y-253190D01*
X820541Y-366327D02*
X933678Y-253190D01*
X1327852Y-876179D02*
X1440989Y-763042D01*
X1327852Y-876179D02*
X1384421Y-932747D01*
X1440989Y-763042D02*
X1497558Y-819610D01*
X1384421Y-932747D02*
X1497558Y-819610D01*
X1891732Y-1442599D02*
X2004869Y-1329462D01*
X1891732Y-1442599D02*
X1948301Y-1499167D01*
X2004869Y-1329462D02*
X2061438Y-1386030D01*
X1948301Y-1499167D02*
X2061438Y-1386030D01*
X2455612Y-2009019D02*
X2568749Y-1895882D01*
X2455612Y-2009019D02*
X2512181Y-2065587D01*
X2568749Y-1895882D02*
X2625318Y-1952450D01*
X2512181Y-2065587D02*
X2625318Y-1952450D01*
X-948918Y-237951D02*
X-835781Y-351088D01*
X-779213Y-294519D01*
X-948918Y-237951D02*
X-892350Y-181382D01*
X-779213Y-294519D01*
X-1507718Y-796751D02*
X-1394581Y-909888D01*
X-1338013Y-853319D01*
X-1507718Y-796751D02*
X-1451150Y-740182D01*
X-1338013Y-853319D01*
X-2079218Y-1368251D02*
X-1966081Y-1481388D01*
X-1909513Y-1424819D01*
X-2079218Y-1368251D02*
X-2022650Y-1311682D01*
X-1909513Y-1424819D01*
X40000Y-472840D02*
Y-312840D01*
X-40000D02*
X40000D01*
X-40000Y-472840D02*
X40000D01*
X-40000D02*
Y-312840D01*
X-838190Y-2342510D02*
X-678190D01*
Y-2262510D01*
X-838190Y-2342510D02*
Y-2262510D01*
X-678190D01*
X-838190Y-2197110D02*
X-678190D01*
Y-2117110D01*
X-838190Y-2197110D02*
Y-2117110D01*
X-678190D01*
X-111640Y-1505580D02*
X48360D01*
Y-1425580D01*
X-111640Y-1505580D02*
Y-1425580D01*
X48360D01*
X-838190Y-1970410D02*
X-678190D01*
X-838190Y-2050410D02*
Y-1970410D01*
X-678190Y-2050410D02*
Y-1970410D01*
X-838190Y-2050410D02*
X-678190D01*
X-1949440Y-2806680D02*
Y-2486680D01*
X-1789440Y-2806680D02*
Y-2486680D01*
X-1949440D02*
X-1789440D01*
X-1949440Y-2806680D02*
X-1789440D01*
X511060Y-2729080D02*
Y-2569080D01*
X431060Y-2729080D02*
Y-2569080D01*
Y-2729080D02*
X511060D01*
X431060Y-2569080D02*
X511060D01*
X-591115Y-1757953D02*
Y-1597952D01*
X-511115Y-1757953D02*
Y-1597952D01*
X-591115D02*
X-511115D01*
X-591115Y-1757953D02*
X-511115D01*
X-256640Y-1635120D02*
X-96640D01*
X-256640Y-1555120D02*
X-96640D01*
X-256640Y-1635120D02*
Y-1555120D01*
X-96640Y-1635120D02*
Y-1555120D01*
X325883Y-1079088D02*
X625883D01*
X325883Y-939088D02*
X625883D01*
Y-1079088D02*
Y-939088D01*
X325883Y-1079088D02*
Y-939088D01*
X891568Y-1644800D02*
X1191568D01*
X891568Y-1504800D02*
X1191568D01*
Y-1644800D02*
Y-1504800D01*
X891568Y-1644800D02*
Y-1504800D01*
X-1735920Y-2816680D02*
X-1555920D01*
X-1735920Y-2476680D02*
X-1555920D01*
Y-2816680D02*
Y-2476680D01*
X-1735920Y-2816680D02*
Y-2476680D01*
%TF.MD5,170fb6cfdedc87b953bd31d84576f79f*%
M02*
