%TF.GenerationSoftware,Altium Limited,Altium Designer,20.1.8 (145)*%
G04 Layer_Physical_Order=1*
G04 Layer_Color=255*
%FSLAX45Y45*%
%MOMM*%
%TF.SameCoordinates,793C4F5F-A07E-474B-A886-B682DA88F124*%
%TF.FilePolarity,Positive*%
%TF.FileFunction,Copper,L1,Top,Signal*%
%TF.Part,Single*%
G01*
G75*
%TA.AperFunction,Conductor*%
%ADD10C,0.25400*%
%ADD11C,0.15240*%
%ADD12C,0.30480*%
%TA.AperFunction,ComponentPad*%
%ADD13C,2.50000*%
G04:AMPARAMS|DCode=14|XSize=1.5mm|YSize=2mm|CornerRadius=0.75mm|HoleSize=0mm|Usage=FLASHONLY|Rotation=0.000|XOffset=0mm|YOffset=0mm|HoleType=Round|Shape=RoundedRectangle|*
%AMROUNDEDRECTD14*
21,1,1.50000,0.50000,0,0,0.0*
21,1,0.00000,2.00000,0,0,0.0*
1,1,1.50000,0.00000,-0.25000*
1,1,1.50000,0.00000,-0.25000*
1,1,1.50000,0.00000,0.25000*
1,1,1.50000,0.00000,0.25000*
%
%ADD14ROUNDEDRECTD14*%
G04:AMPARAMS|DCode=15|XSize=1.5mm|YSize=2mm|CornerRadius=0.15mm|HoleSize=0mm|Usage=FLASHONLY|Rotation=0.000|XOffset=0mm|YOffset=0mm|HoleType=Round|Shape=RoundedRectangle|*
%AMROUNDEDRECTD15*
21,1,1.50000,1.70000,0,0,0.0*
21,1,1.20000,2.00000,0,0,0.0*
1,1,0.30000,0.60000,-0.85000*
1,1,0.30000,-0.60000,-0.85000*
1,1,0.30000,-0.60000,0.85000*
1,1,0.30000,0.60000,0.85000*
%
%ADD15ROUNDEDRECTD15*%
G04:AMPARAMS|DCode=16|XSize=3mm|YSize=8mm|CornerRadius=1.5mm|HoleSize=0mm|Usage=FLASHONLY|Rotation=45.000|XOffset=0mm|YOffset=0mm|HoleType=Round|Shape=RoundedRectangle|*
%AMROUNDEDRECTD16*
21,1,3.00000,5.00000,0,0,45.0*
21,1,0.00000,8.00000,0,0,45.0*
1,1,3.00000,1.76777,-1.76777*
1,1,3.00000,1.76777,-1.76777*
1,1,3.00000,-1.76777,1.76777*
1,1,3.00000,-1.76777,1.76777*
%
%ADD16ROUNDEDRECTD16*%
%ADD17C,2.00000*%
G04:AMPARAMS|DCode=18|XSize=3mm|YSize=8mm|CornerRadius=1.5mm|HoleSize=0mm|Usage=FLASHONLY|Rotation=315.000|XOffset=0mm|YOffset=0mm|HoleType=Round|Shape=RoundedRectangle|*
%AMROUNDEDRECTD18*
21,1,3.00000,5.00000,0,0,315.0*
21,1,0.00000,8.00000,0,0,315.0*
1,1,3.00000,-1.76777,-1.76777*
1,1,3.00000,-1.76777,-1.76777*
1,1,3.00000,1.76777,1.76777*
1,1,3.00000,1.76777,1.76777*
%
%ADD18ROUNDEDRECTD18*%
%ADD19C,1.58000*%
G04:AMPARAMS|DCode=20|XSize=1.58mm|YSize=1.58mm|CornerRadius=0.158mm|HoleSize=0mm|Usage=FLASHONLY|Rotation=135.000|XOffset=0mm|YOffset=0mm|HoleType=Round|Shape=RoundedRectangle|*
%AMROUNDEDRECTD20*
21,1,1.58000,1.26400,0,0,135.0*
21,1,1.26400,1.58000,0,0,135.0*
1,1,0.31600,0.00000,0.89378*
1,1,0.31600,0.89378,0.00000*
1,1,0.31600,0.00000,-0.89378*
1,1,0.31600,-0.89378,0.00000*
%
%ADD20ROUNDEDRECTD20*%
G04:AMPARAMS|DCode=21|XSize=1.58mm|YSize=1.58mm|CornerRadius=0.158mm|HoleSize=0mm|Usage=FLASHONLY|Rotation=0.000|XOffset=0mm|YOffset=0mm|HoleType=Round|Shape=RoundedRectangle|*
%AMROUNDEDRECTD21*
21,1,1.58000,1.26400,0,0,0.0*
21,1,1.26400,1.58000,0,0,0.0*
1,1,0.31600,0.63200,-0.63200*
1,1,0.31600,-0.63200,-0.63200*
1,1,0.31600,-0.63200,0.63200*
1,1,0.31600,0.63200,0.63200*
%
%ADD21ROUNDEDRECTD21*%
G04:AMPARAMS|DCode=22|XSize=1.58mm|YSize=1.58mm|CornerRadius=0.158mm|HoleSize=0mm|Usage=FLASHONLY|Rotation=45.000|XOffset=0mm|YOffset=0mm|HoleType=Round|Shape=RoundedRectangle|*
%AMROUNDEDRECTD22*
21,1,1.58000,1.26400,0,0,45.0*
21,1,1.26400,1.58000,0,0,45.0*
1,1,0.31600,0.89378,0.00000*
1,1,0.31600,0.00000,-0.89378*
1,1,0.31600,-0.89378,0.00000*
1,1,0.31600,0.00000,0.89378*
%
%ADD22ROUNDEDRECTD22*%
%TA.AperFunction,ViaPad*%
%ADD23C,0.80000*%
G36*
X3616383Y4978792D02*
X3732049Y4965102D01*
X3846284Y4942379D01*
X3958385Y4910763D01*
X4067659Y4870450D01*
X4173433Y4821687D01*
X4275055Y4764776D01*
X4371900Y4700067D01*
X4463368Y4627959D01*
X4548897Y4548897D01*
X4627959Y4463368D01*
X4700067Y4371900D01*
X4764776Y4275056D01*
X4821687Y4173434D01*
X4870449Y4067659D01*
X4910763Y3958385D01*
X4942378Y3846285D01*
X4965101Y3732050D01*
X4978791Y3616384D01*
X4983215Y3503789D01*
X4982461Y3500001D01*
X4982462Y-3499294D01*
X4983238Y-3503198D01*
X4978791Y-3616383D01*
X4965101Y-3732049D01*
X4942378Y-3846284D01*
X4910763Y-3958384D01*
X4870449Y-4067658D01*
X4821687Y-4173433D01*
X4764776Y-4275055D01*
X4700067Y-4371899D01*
X4627959Y-4463367D01*
X4548897Y-4548896D01*
X4463368Y-4627958D01*
X4371900Y-4700066D01*
X4275055Y-4764775D01*
X4173433Y-4821686D01*
X4067659Y-4870449D01*
X3958385Y-4910762D01*
X3846284Y-4942378D01*
X3732049Y-4965101D01*
X3616383Y-4978791D01*
X3500826Y-4983331D01*
X3500000Y-4983167D01*
X-3500000D01*
X-3500826Y-4983331D01*
X-3616383Y-4978791D01*
X-3732049Y-4965101D01*
X-3846284Y-4942378D01*
X-3958385Y-4910762D01*
X-4067659Y-4870449D01*
X-4173433Y-4821686D01*
X-4275055Y-4764775D01*
X-4371900Y-4700066D01*
X-4463368Y-4627958D01*
X-4548897Y-4548896D01*
X-4627959Y-4463367D01*
X-4700067Y-4371899D01*
X-4764776Y-4275055D01*
X-4821687Y-4173433D01*
X-4870449Y-4067658D01*
X-4910763Y-3958384D01*
X-4942378Y-3846284D01*
X-4965101Y-3732049D01*
X-4978791Y-3616383D01*
X-4983331Y-3500826D01*
X-4983167Y-3500000D01*
Y3500001D01*
X-4983331Y3500827D01*
X-4978791Y3616384D01*
X-4965101Y3732050D01*
X-4942378Y3846285D01*
X-4910763Y3958385D01*
X-4870449Y4067659D01*
X-4821687Y4173434D01*
X-4764776Y4275056D01*
X-4700067Y4371900D01*
X-4627959Y4463368D01*
X-4548897Y4548897D01*
X-4463368Y4627959D01*
X-4371900Y4700067D01*
X-4275055Y4764776D01*
X-4173433Y4821687D01*
X-4067659Y4870450D01*
X-3958385Y4910763D01*
X-3846284Y4942379D01*
X-3732049Y4965102D01*
X-3616383Y4978792D01*
X-3500826Y4983332D01*
X-3500000Y4983168D01*
X3500000D01*
X3500826Y4983332D01*
X3616383Y4978792D01*
D02*
G37*
%LPC*%
G36*
X-3360346Y4159247D02*
X-3392739Y4156056D01*
X-3423887Y4146608D01*
X-3452593Y4131264D01*
X-3477754Y4110615D01*
X-3498403Y4085454D01*
X-3513747Y4056748D01*
X-3523196Y4025600D01*
X-3526386Y3993207D01*
X-3523196Y3960815D01*
X-3513747Y3929667D01*
X-3498403Y3900961D01*
X-3477754Y3875799D01*
X-3124201Y3522246D01*
X-3099040Y3501597D01*
X-3070333Y3486253D01*
X-3039186Y3476805D01*
X-3006793Y3473614D01*
X-2974400Y3476805D01*
X-2943252Y3486253D01*
X-2914546Y3501597D01*
X-2889385Y3522246D01*
X-2868736Y3547407D01*
X-2853393Y3576113D01*
X-2843944Y3607261D01*
X-2840754Y3639654D01*
X-2843944Y3672047D01*
X-2853393Y3703194D01*
X-2868736Y3731900D01*
X-2889385Y3757062D01*
X-3242939Y4110615D01*
X-3268100Y4131264D01*
X-3296806Y4146608D01*
X-3327954Y4156056D01*
X-3360346Y4159247D01*
D02*
G37*
G36*
X3993207Y3526386D02*
X3960815Y3523196D01*
X3929667Y3513747D01*
X3900961Y3498403D01*
X3875799Y3477754D01*
X3522246Y3124201D01*
X3501597Y3099040D01*
X3486253Y3070333D01*
X3476805Y3039186D01*
X3473614Y3006793D01*
X3476805Y2974400D01*
X3486253Y2943252D01*
X3501597Y2914546D01*
X3522246Y2889385D01*
X3547407Y2868736D01*
X3576113Y2853393D01*
X3607261Y2843944D01*
X3639654Y2840754D01*
X3672047Y2843944D01*
X3703194Y2853393D01*
X3731900Y2868736D01*
X3757062Y2889385D01*
X4110615Y3242939D01*
X4131264Y3268100D01*
X4146608Y3296806D01*
X4156056Y3327954D01*
X4159247Y3360346D01*
X4156056Y3392739D01*
X4146608Y3423887D01*
X4131264Y3452593D01*
X4110615Y3477754D01*
X4085454Y3498403D01*
X4056748Y3513747D01*
X4025600Y3523196D01*
X3993207Y3526386D01*
D02*
G37*
G36*
X-2172939Y2473570D02*
X-2185050Y2471161D01*
X-2195318Y2464301D01*
X-2284696Y2374923D01*
X-2291556Y2364655D01*
X-2293965Y2352544D01*
X-2291556Y2340433D01*
X-2284696Y2330165D01*
X-2195318Y2240787D01*
X-2185050Y2233927D01*
X-2172939Y2231518D01*
X-2160828Y2233927D01*
X-2150560Y2240787D01*
X-2061182Y2330165D01*
X-2054322Y2340433D01*
X-2051913Y2352544D01*
X-2054322Y2364655D01*
X-2061182Y2374923D01*
X-2150560Y2464301D01*
X-2160828Y2471161D01*
X-2172939Y2473570D01*
D02*
G37*
G36*
X2172939Y2447597D02*
X2148337Y2444358D01*
X2125413Y2434863D01*
X2105726Y2419757D01*
X2090620Y2400070D01*
X2081125Y2377146D01*
X2077886Y2352544D01*
X2081125Y2327942D01*
X2090620Y2305017D01*
X2105726Y2285331D01*
X2125413Y2270225D01*
X2148337Y2260730D01*
X2149631Y2260559D01*
Y2196247D01*
X-2260559D01*
X-2260730Y2197541D01*
X-2270225Y2220465D01*
X-2285331Y2240152D01*
X-2305017Y2255258D01*
X-2327942Y2264753D01*
X-2352544Y2267992D01*
X-2377146Y2264753D01*
X-2400070Y2255258D01*
X-2419757Y2240152D01*
X-2434863Y2220465D01*
X-2444358Y2197541D01*
X-2447597Y2172939D01*
X-2444358Y2148337D01*
X-2434863Y2125413D01*
X-2419757Y2105726D01*
X-2400070Y2090620D01*
X-2377146Y2081125D01*
X-2352544Y2077886D01*
X-2327942Y2081125D01*
X-2305017Y2090620D01*
X-2285331Y2105726D01*
X-2270225Y2125413D01*
X-2260730Y2148337D01*
X-2260559Y2149631D01*
X-2169608D01*
Y-2244815D01*
X-2170902Y-2244986D01*
X-2193826Y-2254481D01*
X-2213513Y-2269587D01*
X-2228619Y-2289274D01*
X-2238114Y-2312198D01*
X-2241353Y-2336800D01*
X-2238114Y-2361402D01*
X-2228619Y-2384326D01*
X-2213513Y-2404013D01*
X-2193826Y-2419119D01*
X-2170902Y-2428614D01*
X-2146300Y-2431853D01*
X-2121698Y-2428614D01*
X-2098774Y-2419119D01*
X-2079087Y-2404013D01*
X-2063981Y-2384326D01*
X-2054486Y-2361402D01*
X-2051247Y-2336800D01*
X-2054486Y-2312198D01*
X-2063981Y-2289274D01*
X-2079087Y-2269587D01*
X-2098774Y-2254481D01*
X-2121698Y-2244986D01*
X-2122992Y-2244815D01*
Y2149631D01*
X2149631D01*
Y-2260559D01*
X2148337Y-2260730D01*
X2125413Y-2270225D01*
X2105726Y-2285331D01*
X2090620Y-2305017D01*
X2081125Y-2327942D01*
X2077886Y-2352544D01*
X2081125Y-2377146D01*
X2090620Y-2400070D01*
X2105726Y-2419757D01*
X2125413Y-2434863D01*
X2148337Y-2444358D01*
X2172939Y-2447597D01*
X2197541Y-2444358D01*
X2220465Y-2434863D01*
X2221501Y-2434068D01*
X2247452Y-2460019D01*
Y-2557717D01*
X2230934Y-2568754D01*
X2218725Y-2587026D01*
X2214438Y-2608580D01*
X2218725Y-2630134D01*
X2230934Y-2648406D01*
X2249206Y-2660615D01*
X2270760Y-2664902D01*
X2292314Y-2660615D01*
X2310586Y-2648406D01*
X2322795Y-2630134D01*
X2327082Y-2608580D01*
X2322795Y-2587026D01*
X2310586Y-2568754D01*
X2294068Y-2557717D01*
Y-2450365D01*
X2292294Y-2441445D01*
X2287241Y-2433884D01*
X2254463Y-2401106D01*
X2255258Y-2400070D01*
X2264753Y-2377146D01*
X2267992Y-2352544D01*
X2264753Y-2327942D01*
X2255258Y-2305017D01*
X2240152Y-2285331D01*
X2220465Y-2270225D01*
X2197541Y-2260730D01*
X2196247Y-2260559D01*
Y2172939D01*
Y2260559D01*
X2197541Y2260730D01*
X2220465Y2270225D01*
X2240152Y2285331D01*
X2255258Y2305017D01*
X2264753Y2327942D01*
X2267992Y2352544D01*
X2264753Y2377146D01*
X2255258Y2400070D01*
X2240152Y2419757D01*
X2220465Y2434863D01*
X2197541Y2444358D01*
X2172939Y2447597D01*
D02*
G37*
G36*
X2352544Y2293965D02*
X2340433Y2291556D01*
X2330165Y2284696D01*
X2240787Y2195318D01*
X2233927Y2185050D01*
X2231518Y2172939D01*
X2233927Y2160828D01*
X2240787Y2150560D01*
X2330165Y2061182D01*
X2340433Y2054322D01*
X2352544Y2051913D01*
X2364655Y2054322D01*
X2374923Y2061182D01*
X2464301Y2150560D01*
X2471161Y2160828D01*
X2473570Y2172939D01*
X2471161Y2185050D01*
X2464301Y2195318D01*
X2374923Y2284696D01*
X2364655Y2291556D01*
X2352544Y2293965D01*
D02*
G37*
G36*
X-1607254Y1907885D02*
X-1619365Y1905475D01*
X-1629632Y1898615D01*
X-1719010Y1809237D01*
X-1725871Y1798970D01*
X-1728280Y1786859D01*
X-1725871Y1774747D01*
X-1719010Y1764480D01*
X-1629632Y1675102D01*
X-1619365Y1668242D01*
X-1607254Y1665832D01*
X-1595142Y1668242D01*
X-1584875Y1675102D01*
X-1495497Y1764480D01*
X-1488637Y1774747D01*
X-1486227Y1786859D01*
X-1488637Y1798970D01*
X-1495497Y1809237D01*
X-1584875Y1898615D01*
X-1595142Y1905475D01*
X-1607254Y1907885D01*
D02*
G37*
G36*
X1607254Y1881912D02*
X1582652Y1878673D01*
X1559727Y1869177D01*
X1540041Y1854071D01*
X1524935Y1834385D01*
X1515439Y1811460D01*
X1512200Y1786859D01*
X1515439Y1762257D01*
X1524935Y1739332D01*
X1540041Y1719646D01*
X1559727Y1704540D01*
X1582652Y1695044D01*
X1583946Y1694874D01*
Y1630561D01*
X-1694874D01*
X-1695044Y1631855D01*
X-1704540Y1654780D01*
X-1719646Y1674466D01*
X-1739332Y1689572D01*
X-1762257Y1699068D01*
X-1786859Y1702307D01*
X-1811460Y1699068D01*
X-1834385Y1689572D01*
X-1854071Y1674466D01*
X-1869177Y1654780D01*
X-1878673Y1631855D01*
X-1881912Y1607254D01*
X-1878673Y1582652D01*
X-1869177Y1559727D01*
X-1854071Y1540041D01*
X-1834385Y1524935D01*
X-1811460Y1515439D01*
X-1786859Y1512200D01*
X-1762257Y1515439D01*
X-1739332Y1524935D01*
X-1719646Y1540041D01*
X-1704540Y1559727D01*
X-1695044Y1582652D01*
X-1694874Y1583946D01*
X-1630561D01*
Y-749300D01*
X-1630561Y-749301D01*
Y-1694874D01*
X-1631855Y-1695044D01*
X-1654780Y-1704540D01*
X-1674466Y-1719646D01*
X-1689572Y-1739332D01*
X-1699068Y-1762257D01*
X-1702307Y-1786859D01*
X-1699068Y-1811460D01*
X-1689572Y-1834385D01*
X-1674466Y-1854071D01*
X-1654780Y-1869177D01*
X-1631855Y-1878673D01*
X-1607254Y-1881912D01*
X-1582652Y-1878673D01*
X-1559727Y-1869177D01*
X-1540041Y-1854071D01*
X-1524935Y-1834385D01*
X-1515439Y-1811460D01*
X-1512200Y-1786859D01*
X-1515439Y-1762257D01*
X-1524935Y-1739332D01*
X-1540041Y-1719646D01*
X-1559727Y-1704540D01*
X-1582652Y-1695044D01*
X-1583946Y-1694874D01*
Y-749300D01*
X-1583946Y-749299D01*
Y1583946D01*
X1583946D01*
Y-1694874D01*
X1582652Y-1695044D01*
X1559727Y-1704540D01*
X1540041Y-1719646D01*
X1524935Y-1739332D01*
X1515439Y-1762257D01*
X1512200Y-1786859D01*
X1515439Y-1811460D01*
X1524935Y-1834385D01*
X1540041Y-1854071D01*
X1559727Y-1869177D01*
X1582652Y-1878673D01*
X1607254Y-1881912D01*
X1631855Y-1878673D01*
X1654780Y-1869177D01*
X1674466Y-1854071D01*
X1689572Y-1834385D01*
X1699068Y-1811460D01*
X1702307Y-1786859D01*
X1699068Y-1762257D01*
X1689572Y-1739332D01*
X1674466Y-1719646D01*
X1654780Y-1704540D01*
X1631855Y-1695044D01*
X1630561Y-1694874D01*
Y1607254D01*
Y1694874D01*
X1631855Y1695044D01*
X1654780Y1704540D01*
X1674466Y1719646D01*
X1689572Y1739332D01*
X1699068Y1762257D01*
X1702307Y1786859D01*
X1699068Y1811460D01*
X1689572Y1834385D01*
X1674466Y1854071D01*
X1654780Y1869177D01*
X1631855Y1878673D01*
X1607254Y1881912D01*
D02*
G37*
G36*
X1786859Y1728280D02*
X1774747Y1725871D01*
X1764480Y1719010D01*
X1675102Y1629632D01*
X1668242Y1619365D01*
X1665832Y1607254D01*
X1668242Y1595142D01*
X1675102Y1584875D01*
X1764480Y1495497D01*
X1774747Y1488637D01*
X1786859Y1486227D01*
X1798970Y1488637D01*
X1809237Y1495497D01*
X1898615Y1584875D01*
X1905475Y1595142D01*
X1907885Y1607254D01*
X1905475Y1619365D01*
X1898615Y1629632D01*
X1809237Y1719010D01*
X1798970Y1725871D01*
X1786859Y1728280D01*
D02*
G37*
G36*
X-1041568Y1342199D02*
X-1053680Y1339790D01*
X-1063947Y1332930D01*
X-1153325Y1243552D01*
X-1160185Y1233285D01*
X-1162595Y1221173D01*
X-1160185Y1209062D01*
X-1153325Y1198795D01*
X-1063947Y1109417D01*
X-1053680Y1102556D01*
X-1041568Y1100147D01*
X-1029457Y1102556D01*
X-1019190Y1109417D01*
X-929812Y1198795D01*
X-922951Y1209062D01*
X-920542Y1221173D01*
X-922951Y1233285D01*
X-929812Y1243552D01*
X-1019190Y1332930D01*
X-1029457Y1339790D01*
X-1041568Y1342199D01*
D02*
G37*
G36*
X1041568Y1316226D02*
X1016967Y1312988D01*
X994042Y1303492D01*
X974356Y1288386D01*
X959250Y1268700D01*
X949754Y1245775D01*
X946515Y1221173D01*
X949754Y1196572D01*
X959250Y1173647D01*
X974356Y1153961D01*
X994042Y1138855D01*
X1016967Y1129359D01*
X1018261Y1129189D01*
Y1064876D01*
X-1129189D01*
X-1129359Y1066170D01*
X-1138855Y1089095D01*
X-1153961Y1108781D01*
X-1173647Y1123887D01*
X-1196572Y1133383D01*
X-1221173Y1136622D01*
X-1245775Y1133383D01*
X-1268700Y1123887D01*
X-1288386Y1108781D01*
X-1303492Y1089095D01*
X-1312988Y1066170D01*
X-1316226Y1041568D01*
X-1312988Y1016967D01*
X-1303492Y994042D01*
X-1288386Y974356D01*
X-1268700Y959250D01*
X-1245775Y949754D01*
X-1221173Y946515D01*
X-1196572Y949754D01*
X-1173647Y959250D01*
X-1153961Y974356D01*
X-1138855Y994042D01*
X-1129359Y1016967D01*
X-1129189Y1018261D01*
X-1064876D01*
Y-1129189D01*
X-1066170Y-1129359D01*
X-1089095Y-1138855D01*
X-1108781Y-1153961D01*
X-1123887Y-1173647D01*
X-1133383Y-1196572D01*
X-1136622Y-1221173D01*
X-1133383Y-1245775D01*
X-1123887Y-1268700D01*
X-1108781Y-1288386D01*
X-1089095Y-1303492D01*
X-1066170Y-1312988D01*
X-1041568Y-1316226D01*
X-1016967Y-1312988D01*
X-994042Y-1303492D01*
X-974356Y-1288386D01*
X-959250Y-1268700D01*
X-949754Y-1245775D01*
X-946515Y-1221173D01*
X-949754Y-1196572D01*
X-959250Y-1173647D01*
X-974356Y-1153961D01*
X-994042Y-1138855D01*
X-1016967Y-1129359D01*
X-1018261Y-1129189D01*
Y1018261D01*
X1018261D01*
Y-1129189D01*
X1016967Y-1129359D01*
X994042Y-1138855D01*
X974356Y-1153961D01*
X959250Y-1173647D01*
X949754Y-1196572D01*
X946515Y-1221173D01*
X949754Y-1245775D01*
X959250Y-1268700D01*
X974356Y-1288386D01*
X994042Y-1303492D01*
X1016967Y-1312988D01*
X1041568Y-1316226D01*
X1066170Y-1312988D01*
X1089095Y-1303492D01*
X1108781Y-1288386D01*
X1123887Y-1268700D01*
X1133383Y-1245775D01*
X1136622Y-1221173D01*
X1133383Y-1196572D01*
X1123887Y-1173647D01*
X1108781Y-1153961D01*
X1089095Y-1138855D01*
X1066170Y-1129359D01*
X1064876Y-1129189D01*
Y1041569D01*
Y1129189D01*
X1066170Y1129359D01*
X1089095Y1138855D01*
X1108781Y1153961D01*
X1123887Y1173647D01*
X1133383Y1196572D01*
X1136622Y1221173D01*
X1133383Y1245775D01*
X1123887Y1268700D01*
X1108781Y1288386D01*
X1089095Y1303492D01*
X1066170Y1312988D01*
X1041568Y1316226D01*
D02*
G37*
G36*
X1221173Y1162595D02*
X1209062Y1160185D01*
X1198795Y1153325D01*
X1109417Y1063947D01*
X1102556Y1053680D01*
X1100147Y1041568D01*
X1102556Y1029457D01*
X1109417Y1019190D01*
X1198795Y929812D01*
X1209062Y922951D01*
X1221173Y920542D01*
X1233285Y922951D01*
X1243552Y929812D01*
X1332930Y1019190D01*
X1339790Y1029457D01*
X1342199Y1041568D01*
X1339790Y1053680D01*
X1332930Y1063947D01*
X1243552Y1153325D01*
X1233285Y1160185D01*
X1221173Y1162595D01*
D02*
G37*
G36*
X-475883Y776514D02*
X-487994Y774105D01*
X-498262Y767245D01*
X-587640Y677867D01*
X-594500Y667599D01*
X-596909Y655488D01*
X-594500Y643377D01*
X-587640Y633109D01*
X-498262Y543731D01*
X-487994Y536871D01*
X-475883Y534462D01*
X-463772Y536871D01*
X-453504Y543731D01*
X-364126Y633109D01*
X-357266Y643377D01*
X-354857Y655488D01*
X-357266Y667599D01*
X-364126Y677867D01*
X-453504Y767245D01*
X-463772Y774105D01*
X-475883Y776514D01*
D02*
G37*
G36*
X475883Y750541D02*
X451282Y747302D01*
X428357Y737806D01*
X408670Y722701D01*
X393564Y703014D01*
X384069Y680089D01*
X380830Y655488D01*
X384069Y630886D01*
X393564Y607961D01*
X408670Y588275D01*
X428357Y573169D01*
X451282Y563673D01*
X452575Y563503D01*
Y499191D01*
X-475882D01*
X-475883Y499191D01*
X-563503D01*
X-563673Y500484D01*
X-573169Y523409D01*
X-588275Y543096D01*
X-607961Y558202D01*
X-630886Y567697D01*
X-655488Y570936D01*
X-680089Y567697D01*
X-703014Y558202D01*
X-722701Y543096D01*
X-737806Y523409D01*
X-747302Y500484D01*
X-750541Y475883D01*
X-747302Y451282D01*
X-737806Y428357D01*
X-722701Y408670D01*
X-703014Y393564D01*
X-680089Y384069D01*
X-655488Y380830D01*
X-630886Y384069D01*
X-607961Y393564D01*
X-588275Y408670D01*
X-573169Y428357D01*
X-563673Y451282D01*
X-563503Y452575D01*
X-499191D01*
Y-563503D01*
X-500484Y-563673D01*
X-523409Y-573169D01*
X-543096Y-588275D01*
X-558202Y-607961D01*
X-567697Y-630886D01*
X-570936Y-655488D01*
X-567697Y-680089D01*
X-558202Y-703014D01*
X-543096Y-722701D01*
X-523409Y-737806D01*
X-500484Y-747302D01*
X-475883Y-750541D01*
X-451282Y-747302D01*
X-428357Y-737806D01*
X-408670Y-722701D01*
X-393564Y-703014D01*
X-384069Y-680089D01*
X-380830Y-655488D01*
X-384069Y-630886D01*
X-393564Y-607961D01*
X-408670Y-588275D01*
X-428357Y-573169D01*
X-451282Y-563673D01*
X-452575Y-563503D01*
Y452575D01*
X452575D01*
Y-563503D01*
X451282Y-563673D01*
X428357Y-573169D01*
X408670Y-588275D01*
X393564Y-607961D01*
X384069Y-630886D01*
X380830Y-655488D01*
X384069Y-680089D01*
X393564Y-703014D01*
X408670Y-722701D01*
X428357Y-737806D01*
X451282Y-747302D01*
X475883Y-750541D01*
X500484Y-747302D01*
X523409Y-737806D01*
X543096Y-722701D01*
X558202Y-703014D01*
X567697Y-680089D01*
X570936Y-655488D01*
X567697Y-630886D01*
X558202Y-607961D01*
X543096Y-588275D01*
X523409Y-573169D01*
X500484Y-563673D01*
X499191Y-563503D01*
Y475883D01*
Y563503D01*
X500484Y563673D01*
X523409Y573169D01*
X543096Y588275D01*
X558202Y607961D01*
X567697Y630886D01*
X570936Y655488D01*
X567697Y680089D01*
X558202Y703014D01*
X543096Y722701D01*
X523409Y737806D01*
X500484Y747302D01*
X475883Y750541D01*
D02*
G37*
G36*
X655488Y596909D02*
X643377Y594500D01*
X633109Y587640D01*
X543731Y498262D01*
X536871Y487994D01*
X534462Y475883D01*
X536871Y463772D01*
X543731Y453504D01*
X633109Y364126D01*
X643377Y357266D01*
X655488Y354857D01*
X667599Y357266D01*
X677867Y364126D01*
X767245Y453504D01*
X774105Y463772D01*
X776514Y475883D01*
X774105Y487994D01*
X767245Y498262D01*
X677867Y587640D01*
X667599Y594500D01*
X655488Y596909D01*
D02*
G37*
G36*
X0Y222053D02*
X-24602Y218814D01*
X-47526Y209318D01*
X-67213Y194213D01*
X-82318Y174526D01*
X-90205Y155487D01*
X-123050D01*
X-133951Y153319D01*
X-143194Y147144D01*
X-143194Y147143D01*
X-228424Y61914D01*
X-234599Y52671D01*
X-236768Y41770D01*
X-236767Y41769D01*
Y-983100D01*
X-374238D01*
X-381814Y-971762D01*
X-400086Y-959553D01*
X-421640Y-955266D01*
X-443194Y-959553D01*
X-461466Y-971762D01*
X-473675Y-990034D01*
X-477962Y-1011588D01*
X-473675Y-1033142D01*
X-461466Y-1051414D01*
X-443194Y-1063623D01*
X-421640Y-1067910D01*
X-400086Y-1063623D01*
X-381814Y-1051414D01*
X-374238Y-1040075D01*
X333481D01*
X341057Y-1051414D01*
X359329Y-1063623D01*
X380883Y-1067910D01*
X394250Y-1065252D01*
X892907Y-1563908D01*
X890246Y-1577283D01*
X894534Y-1598837D01*
X906743Y-1617109D01*
X925015Y-1629318D01*
X946569Y-1633605D01*
X959934Y-1630947D01*
X1458592Y-2129605D01*
X1455932Y-2142979D01*
X1460219Y-2164533D01*
X1472428Y-2182805D01*
X1490700Y-2195014D01*
X1512254Y-2199302D01*
X1533807Y-2195014D01*
X1552080Y-2182805D01*
X1559656Y-2171467D01*
X1605399D01*
X1853878Y-2419946D01*
X1851218Y-2433320D01*
X1855505Y-2454874D01*
X1867714Y-2473146D01*
X1885986Y-2485355D01*
X1907540Y-2489642D01*
X1929094Y-2485355D01*
X1947366Y-2473146D01*
X1959575Y-2454874D01*
X1963862Y-2433320D01*
X1959575Y-2411766D01*
X1947366Y-2393494D01*
X1929094Y-2381285D01*
X1907540Y-2376998D01*
X1894165Y-2379658D01*
X1637343Y-2122836D01*
X1628101Y-2116660D01*
X1617199Y-2114492D01*
X1617198Y-2114492D01*
X1559656D01*
X1552080Y-2103154D01*
X1533807Y-2090945D01*
X1512254Y-2086657D01*
X1498879Y-2089318D01*
X1000229Y-1590667D01*
X1002891Y-1577283D01*
X998604Y-1555729D01*
X986395Y-1537457D01*
X968122Y-1525248D01*
X946569Y-1520961D01*
X933194Y-1523621D01*
X434543Y-1024971D01*
X437205Y-1011588D01*
X432918Y-990034D01*
X420709Y-971762D01*
X402437Y-959553D01*
X380883Y-955266D01*
X359329Y-959553D01*
X341057Y-971762D01*
X333481Y-983100D01*
X-179793D01*
Y29970D01*
X-111250Y98513D01*
X-90205D01*
X-82318Y79474D01*
X-67213Y59787D01*
X-47526Y44682D01*
X-24602Y35186D01*
X0Y31947D01*
X24602Y35186D01*
X47526Y44682D01*
X67213Y59787D01*
X82318Y79474D01*
X91814Y102398D01*
X95053Y127000D01*
X91814Y151602D01*
X82318Y174526D01*
X67213Y194213D01*
X47526Y209318D01*
X24602Y218814D01*
X0Y222053D01*
D02*
G37*
G36*
X-1222122Y112622D02*
X-1252206Y108661D01*
X-1280240Y97049D01*
X-1304312Y78577D01*
X-1322784Y54504D01*
X-1334396Y26471D01*
X-1338357Y-3613D01*
X-1334396Y-33697D01*
X-1322784Y-61730D01*
X-1304312Y-85803D01*
X-1280240Y-104275D01*
X-1252206Y-115887D01*
X-1222122Y-119847D01*
X-1192039Y-115887D01*
X-1164005Y-104275D01*
X-1139932Y-85803D01*
X-1121460Y-61730D01*
X-1109848Y-33697D01*
X-1105888Y-3613D01*
X-1109848Y26471D01*
X-1121460Y54504D01*
X-1139932Y78577D01*
X-1164005Y97049D01*
X-1192039Y108661D01*
X-1222122Y112622D01*
D02*
G37*
G36*
X-1982122D02*
X-2012206Y108661D01*
X-2040240Y97049D01*
X-2064312Y78577D01*
X-2082784Y54504D01*
X-2094396Y26471D01*
X-2098357Y-3613D01*
X-2094396Y-33697D01*
X-2082784Y-61730D01*
X-2064312Y-85803D01*
X-2040240Y-104275D01*
X-2012206Y-115887D01*
X-1982122Y-119847D01*
X-1952039Y-115887D01*
X-1924005Y-104275D01*
X-1899932Y-85803D01*
X-1881460Y-61730D01*
X-1869848Y-33697D01*
X-1865888Y-3613D01*
X-1869848Y26471D01*
X-1881460Y54504D01*
X-1899932Y78577D01*
X-1924005Y97049D01*
X-1952039Y108661D01*
X-1982122Y112622D01*
D02*
G37*
G36*
X63200Y-32152D02*
X-63200D01*
X-75311Y-34561D01*
X-85578Y-41422D01*
X-92439Y-51689D01*
X-94848Y-63800D01*
Y-190200D01*
X-92439Y-202311D01*
X-85578Y-212578D01*
X-75311Y-219439D01*
X-63200Y-221848D01*
X63200D01*
X75311Y-219439D01*
X85578Y-212578D01*
X92439Y-202311D01*
X94848Y-190200D01*
Y-63800D01*
X92439Y-51689D01*
X85578Y-41422D01*
X75311Y-34561D01*
X63200Y-32152D01*
D02*
G37*
G36*
X655488Y-354857D02*
X643377Y-357266D01*
X633109Y-364126D01*
X543731Y-453504D01*
X536871Y-463772D01*
X534462Y-475883D01*
X536871Y-487994D01*
X543731Y-498262D01*
X633109Y-587640D01*
X643377Y-594500D01*
X655488Y-596909D01*
X667599Y-594500D01*
X677867Y-587640D01*
X767245Y-498262D01*
X774105Y-487994D01*
X776514Y-475883D01*
X774105Y-463772D01*
X767245Y-453504D01*
X677867Y-364126D01*
X667599Y-357266D01*
X655488Y-354857D01*
D02*
G37*
G36*
X-655488D02*
X-667599Y-357266D01*
X-677867Y-364126D01*
X-767245Y-453504D01*
X-774105Y-463772D01*
X-776514Y-475883D01*
X-774105Y-487994D01*
X-767245Y-498262D01*
X-677867Y-587640D01*
X-667599Y-594500D01*
X-655488Y-596909D01*
X-643377Y-594500D01*
X-633109Y-587640D01*
X-543731Y-498262D01*
X-536871Y-487994D01*
X-534462Y-475883D01*
X-536871Y-463772D01*
X-543731Y-453504D01*
X-633109Y-364126D01*
X-643377Y-357266D01*
X-655488Y-354857D01*
D02*
G37*
G36*
X1221173Y-920542D02*
X1209062Y-922951D01*
X1198795Y-929812D01*
X1109417Y-1019190D01*
X1102556Y-1029457D01*
X1100147Y-1041568D01*
X1102556Y-1053680D01*
X1109417Y-1063947D01*
X1198795Y-1153325D01*
X1209062Y-1160185D01*
X1221173Y-1162595D01*
X1233285Y-1160185D01*
X1243552Y-1153325D01*
X1332930Y-1063947D01*
X1339790Y-1053680D01*
X1342199Y-1041568D01*
X1339790Y-1029457D01*
X1332930Y-1019190D01*
X1243552Y-929812D01*
X1233285Y-922951D01*
X1221173Y-920542D01*
D02*
G37*
G36*
X-1221173D02*
X-1233285Y-922951D01*
X-1243552Y-929812D01*
X-1332930Y-1019190D01*
X-1339790Y-1029457D01*
X-1342199Y-1041568D01*
X-1339790Y-1053680D01*
X-1332930Y-1063947D01*
X-1243552Y-1153325D01*
X-1233285Y-1160185D01*
X-1221173Y-1162595D01*
X-1209062Y-1160185D01*
X-1198795Y-1153325D01*
X-1109417Y-1063947D01*
X-1102556Y-1053680D01*
X-1100147Y-1041568D01*
X-1102556Y-1029457D01*
X-1109417Y-1019190D01*
X-1198795Y-929812D01*
X-1209062Y-922951D01*
X-1221173Y-920542D01*
D02*
G37*
G36*
X1786859Y-1486227D02*
X1774747Y-1488637D01*
X1764480Y-1495497D01*
X1675102Y-1584875D01*
X1668242Y-1595142D01*
X1665832Y-1607254D01*
X1668242Y-1619365D01*
X1675102Y-1629632D01*
X1764480Y-1719010D01*
X1774747Y-1725871D01*
X1786859Y-1728280D01*
X1798970Y-1725871D01*
X1809237Y-1719010D01*
X1898615Y-1629632D01*
X1905475Y-1619365D01*
X1907885Y-1607254D01*
X1905475Y-1595142D01*
X1898615Y-1584875D01*
X1809237Y-1495497D01*
X1798970Y-1488637D01*
X1786859Y-1486227D01*
D02*
G37*
G36*
X-1786859D02*
X-1798970Y-1488637D01*
X-1809237Y-1495497D01*
X-1898615Y-1584875D01*
X-1905475Y-1595142D01*
X-1907885Y-1607254D01*
X-1905475Y-1619365D01*
X-1898615Y-1629632D01*
X-1809237Y-1719010D01*
X-1798970Y-1725871D01*
X-1786859Y-1728280D01*
X-1774747Y-1725871D01*
X-1764480Y-1719010D01*
X-1675102Y-1629632D01*
X-1668242Y-1619365D01*
X-1665832Y-1607254D01*
X-1668242Y-1595142D01*
X-1675102Y-1584875D01*
X-1764480Y-1495497D01*
X-1774747Y-1488637D01*
X-1786859Y-1486227D01*
D02*
G37*
G36*
X-2325905Y-2036169D02*
X-2338016Y-2038578D01*
X-2348284Y-2045438D01*
X-2437662Y-2134816D01*
X-2444522Y-2145084D01*
X-2446931Y-2157195D01*
X-2444522Y-2169306D01*
X-2437662Y-2179574D01*
X-2348284Y-2268952D01*
X-2338016Y-2275812D01*
X-2325905Y-2278221D01*
X-2313794Y-2275812D01*
X-2303526Y-2268952D01*
X-2214148Y-2179574D01*
X-2207288Y-2169306D01*
X-2204879Y-2157195D01*
X-2207288Y-2145084D01*
X-2214148Y-2134816D01*
X-2303526Y-2045438D01*
X-2313794Y-2038578D01*
X-2325905Y-2036169D01*
D02*
G37*
G36*
X2352544Y-2051913D02*
X2340433Y-2054322D01*
X2330165Y-2061182D01*
X2240787Y-2150560D01*
X2233927Y-2160828D01*
X2231518Y-2172939D01*
X2233927Y-2185050D01*
X2240787Y-2195318D01*
X2330165Y-2284696D01*
X2340433Y-2291556D01*
X2352544Y-2293965D01*
X2364655Y-2291556D01*
X2374923Y-2284696D01*
X2464301Y-2195318D01*
X2471161Y-2185050D01*
X2473570Y-2172939D01*
X2471161Y-2160828D01*
X2464301Y-2150560D01*
X2374923Y-2061182D01*
X2364655Y-2054322D01*
X2352544Y-2051913D01*
D02*
G37*
G36*
X-2667000Y-2014574D02*
X-2688554Y-2018862D01*
X-2706826Y-2031071D01*
X-2719035Y-2049343D01*
X-2723322Y-2070897D01*
X-2719035Y-2092450D01*
X-2706826Y-2110722D01*
X-2690308Y-2121760D01*
Y-2424402D01*
X-2706826Y-2435439D01*
X-2719035Y-2453711D01*
X-2723322Y-2475265D01*
X-2719035Y-2496818D01*
X-2706826Y-2515090D01*
X-2688554Y-2527299D01*
X-2667000Y-2531587D01*
X-2645446Y-2527299D01*
X-2627174Y-2515090D01*
X-2614965Y-2496818D01*
X-2610678Y-2475265D01*
X-2614965Y-2453711D01*
X-2627174Y-2435439D01*
X-2643692Y-2424402D01*
Y-2121760D01*
X-2627174Y-2110722D01*
X-2614965Y-2092450D01*
X-2610678Y-2070897D01*
X-2614965Y-2049343D01*
X-2627174Y-2031071D01*
X-2645446Y-2018862D01*
X-2667000Y-2014574D01*
D02*
G37*
G36*
X2931487Y-2460818D02*
X2909933Y-2465105D01*
X2891661Y-2477314D01*
X2879452Y-2495586D01*
X2875165Y-2517140D01*
X2879452Y-2538694D01*
X2891661Y-2556966D01*
X2908179Y-2568003D01*
Y-2697090D01*
X2891661Y-2708127D01*
X2879452Y-2726399D01*
X2875165Y-2747953D01*
X2879452Y-2769507D01*
X2891661Y-2787779D01*
X2909933Y-2799988D01*
X2931487Y-2804275D01*
X2953041Y-2799988D01*
X2971313Y-2787779D01*
X2983522Y-2769507D01*
X2987809Y-2747953D01*
X2983522Y-2726399D01*
X2971313Y-2708127D01*
X2954795Y-2697090D01*
Y-2568003D01*
X2971313Y-2556966D01*
X2983522Y-2538694D01*
X2987809Y-2517140D01*
X2983522Y-2495586D01*
X2971313Y-2477314D01*
X2953041Y-2465105D01*
X2931487Y-2460818D01*
D02*
G37*
G36*
X-2733040Y-3067878D02*
X-2754594Y-3072165D01*
X-2772866Y-3084374D01*
X-2783903Y-3100892D01*
X-2931097D01*
X-2942134Y-3084374D01*
X-2960406Y-3072165D01*
X-2981960Y-3067878D01*
X-3003514Y-3072165D01*
X-3021786Y-3084374D01*
X-3033995Y-3102646D01*
X-3038282Y-3124200D01*
X-3033995Y-3145754D01*
X-3021786Y-3164026D01*
X-3003514Y-3176235D01*
X-2981960Y-3180522D01*
X-2960406Y-3176235D01*
X-2942134Y-3164026D01*
X-2931097Y-3147508D01*
X-2783903D01*
X-2772866Y-3164026D01*
X-2754594Y-3176235D01*
X-2733040Y-3180522D01*
X-2711486Y-3176235D01*
X-2693214Y-3164026D01*
X-2681005Y-3145754D01*
X-2676718Y-3124200D01*
X-2681005Y-3102646D01*
X-2693214Y-3084374D01*
X-2711486Y-3072165D01*
X-2733040Y-3067878D01*
D02*
G37*
G36*
X3639654Y-2840754D02*
X3607261Y-2843944D01*
X3576113Y-2853393D01*
X3547407Y-2868736D01*
X3522246Y-2889385D01*
X3501597Y-2914546D01*
X3486253Y-2943252D01*
X3476805Y-2974400D01*
X3473614Y-3006793D01*
X3476805Y-3039186D01*
X3486253Y-3070333D01*
X3501597Y-3099040D01*
X3522246Y-3124201D01*
X3875799Y-3477754D01*
X3900961Y-3498403D01*
X3929667Y-3513747D01*
X3960815Y-3523196D01*
X3993207Y-3526386D01*
X4025600Y-3523196D01*
X4056748Y-3513747D01*
X4085454Y-3498403D01*
X4110615Y-3477754D01*
X4131264Y-3452593D01*
X4146608Y-3423887D01*
X4156056Y-3392739D01*
X4159247Y-3360346D01*
X4156056Y-3327954D01*
X4146608Y-3296806D01*
X4131264Y-3268100D01*
X4110615Y-3242939D01*
X3757062Y-2889385D01*
X3731900Y-2868736D01*
X3703194Y-2853393D01*
X3672047Y-2843944D01*
X3639654Y-2840754D01*
D02*
G37*
G36*
X-723900Y-3250758D02*
X-745454Y-3255045D01*
X-763726Y-3267254D01*
X-775935Y-3285526D01*
X-780222Y-3307080D01*
X-775935Y-3328634D01*
X-763726Y-3346906D01*
X-747208Y-3357943D01*
Y-3621054D01*
X-763726Y-3632092D01*
X-775935Y-3650364D01*
X-780222Y-3671917D01*
X-775935Y-3693471D01*
X-763726Y-3711743D01*
X-745454Y-3723952D01*
X-723900Y-3728240D01*
X-702346Y-3723952D01*
X-684074Y-3711743D01*
X-671865Y-3693471D01*
X-667578Y-3671917D01*
X-671865Y-3650364D01*
X-684074Y-3632092D01*
X-700592Y-3621054D01*
Y-3357943D01*
X-684074Y-3346906D01*
X-671865Y-3328634D01*
X-667578Y-3307080D01*
X-671865Y-3285526D01*
X-684074Y-3267254D01*
X-702346Y-3255045D01*
X-723900Y-3250758D01*
D02*
G37*
G36*
X-873760D02*
X-895314Y-3255045D01*
X-913586Y-3267254D01*
X-925795Y-3285526D01*
X-930082Y-3307080D01*
X-925795Y-3328634D01*
X-913586Y-3346906D01*
X-897068Y-3357943D01*
Y-3621054D01*
X-913586Y-3632092D01*
X-925795Y-3650364D01*
X-930082Y-3671917D01*
X-925795Y-3693471D01*
X-913586Y-3711743D01*
X-895314Y-3723952D01*
X-873760Y-3728240D01*
X-852206Y-3723952D01*
X-833934Y-3711743D01*
X-821725Y-3693471D01*
X-817438Y-3671917D01*
X-821725Y-3650364D01*
X-833934Y-3632092D01*
X-850452Y-3621054D01*
Y-3357943D01*
X-833934Y-3346906D01*
X-821725Y-3328634D01*
X-817438Y-3307080D01*
X-821725Y-3285526D01*
X-833934Y-3267254D01*
X-852206Y-3255045D01*
X-873760Y-3250758D01*
D02*
G37*
G36*
X-2144840Y-3072958D02*
X-2166394Y-3077245D01*
X-2184666Y-3089454D01*
X-2196875Y-3107726D01*
X-2201162Y-3129280D01*
X-2196875Y-3150834D01*
X-2184666Y-3169106D01*
X-2175940Y-3174936D01*
Y-3637344D01*
X-2184666Y-3643174D01*
X-2196875Y-3661446D01*
X-2201162Y-3683000D01*
X-2196875Y-3704554D01*
X-2184666Y-3722826D01*
X-2166394Y-3735035D01*
X-2144840Y-3739322D01*
X-2123286Y-3735035D01*
X-2105014Y-3722826D01*
X-2092805Y-3704554D01*
X-2088518Y-3683000D01*
X-2092805Y-3661446D01*
X-2105014Y-3643174D01*
X-2113785Y-3637313D01*
Y-3174967D01*
X-2105014Y-3169106D01*
X-2092805Y-3150834D01*
X-2088518Y-3129280D01*
X-2092805Y-3107726D01*
X-2105014Y-3089454D01*
X-2123286Y-3077245D01*
X-2144840Y-3072958D01*
D02*
G37*
G36*
X-2603500Y-3541550D02*
X-2640110Y-3546370D01*
X-2674225Y-3560501D01*
X-2703520Y-3582980D01*
X-2725999Y-3612275D01*
X-2740130Y-3646390D01*
X-2744950Y-3683000D01*
X-2740130Y-3719610D01*
X-2725999Y-3753725D01*
X-2703520Y-3783020D01*
X-2674225Y-3805499D01*
X-2640110Y-3819630D01*
X-2603500Y-3824450D01*
X-2566890Y-3819630D01*
X-2532775Y-3805499D01*
X-2503479Y-3783020D01*
X-2481000Y-3753725D01*
X-2466870Y-3719610D01*
X-2462050Y-3683000D01*
X-2466870Y-3646390D01*
X-2481000Y-3612275D01*
X-2503479Y-3582980D01*
X-2532775Y-3560501D01*
X-2566890Y-3546370D01*
X-2603500Y-3541550D01*
D02*
G37*
G36*
X-3006793Y-3473614D02*
X-3039186Y-3476805D01*
X-3070333Y-3486253D01*
X-3099040Y-3501597D01*
X-3124201Y-3522246D01*
X-3477754Y-3875799D01*
X-3498403Y-3900961D01*
X-3513747Y-3929667D01*
X-3523196Y-3960815D01*
X-3526386Y-3993207D01*
X-3523196Y-4025600D01*
X-3513747Y-4056748D01*
X-3498403Y-4085454D01*
X-3477754Y-4110615D01*
X-3452593Y-4131264D01*
X-3423887Y-4146608D01*
X-3392739Y-4156056D01*
X-3360346Y-4159247D01*
X-3327954Y-4156056D01*
X-3296806Y-4146608D01*
X-3268100Y-4131264D01*
X-3242939Y-4110615D01*
X-2889385Y-3757062D01*
X-2868736Y-3731900D01*
X-2853393Y-3703194D01*
X-2843944Y-3672047D01*
X-2840754Y-3639654D01*
X-2843944Y-3607261D01*
X-2853393Y-3576113D01*
X-2868736Y-3547407D01*
X-2889385Y-3522246D01*
X-2914546Y-3501597D01*
X-2943252Y-3486253D01*
X-2974400Y-3476805D01*
X-3006793Y-3473614D01*
D02*
G37*
G36*
X-1894840Y-4522021D02*
X-1918397Y-4525123D01*
X-1940349Y-4534215D01*
X-1959200Y-4548680D01*
X-1973664Y-4567531D01*
X-1982757Y-4589483D01*
X-1985859Y-4613040D01*
Y-4663040D01*
X-1982757Y-4686597D01*
X-1973664Y-4708549D01*
X-1959200Y-4727400D01*
X-1940349Y-4741865D01*
X-1918397Y-4750957D01*
X-1894840Y-4754059D01*
X-1871283Y-4750957D01*
X-1849331Y-4741865D01*
X-1830480Y-4727400D01*
X-1816016Y-4708549D01*
X-1806923Y-4686597D01*
X-1803821Y-4663040D01*
Y-4613040D01*
X-1806923Y-4589483D01*
X-1816016Y-4567531D01*
X-1830480Y-4548680D01*
X-1849331Y-4534215D01*
X-1871283Y-4525123D01*
X-1894840Y-4522021D01*
D02*
G37*
G36*
X-2144840D02*
X-2168397Y-4525123D01*
X-2190349Y-4534215D01*
X-2209200Y-4548680D01*
X-2223664Y-4567531D01*
X-2232757Y-4589483D01*
X-2235859Y-4613040D01*
Y-4663040D01*
X-2232757Y-4686597D01*
X-2223664Y-4708549D01*
X-2209200Y-4727400D01*
X-2190349Y-4741865D01*
X-2168397Y-4750957D01*
X-2144840Y-4754059D01*
X-2121283Y-4750957D01*
X-2099331Y-4741865D01*
X-2080480Y-4727400D01*
X-2066016Y-4708549D01*
X-2056923Y-4686597D01*
X-2053821Y-4663040D01*
Y-4613040D01*
X-2056923Y-4589483D01*
X-2066016Y-4567531D01*
X-2080480Y-4548680D01*
X-2099331Y-4534215D01*
X-2121283Y-4525123D01*
X-2144840Y-4522021D01*
D02*
G37*
G36*
X-2394840D02*
X-2418397Y-4525123D01*
X-2440349Y-4534215D01*
X-2459200Y-4548680D01*
X-2473664Y-4567531D01*
X-2482757Y-4589483D01*
X-2485859Y-4613040D01*
Y-4663040D01*
X-2482757Y-4686597D01*
X-2473664Y-4708549D01*
X-2459200Y-4727400D01*
X-2440349Y-4741865D01*
X-2418397Y-4750957D01*
X-2394840Y-4754059D01*
X-2371283Y-4750957D01*
X-2349331Y-4741865D01*
X-2330480Y-4727400D01*
X-2316016Y-4708549D01*
X-2306923Y-4686597D01*
X-2303821Y-4663040D01*
Y-4613040D01*
X-2306923Y-4589483D01*
X-2316016Y-4567531D01*
X-2330480Y-4548680D01*
X-2349331Y-4534215D01*
X-2371283Y-4525123D01*
X-2394840Y-4522021D01*
D02*
G37*
G36*
X-1630680Y-3072958D02*
X-1652234Y-3077245D01*
X-1670506Y-3089454D01*
X-1682715Y-3107726D01*
X-1687002Y-3129280D01*
X-1682715Y-3150834D01*
X-1670506Y-3169106D01*
X-1659126Y-3176709D01*
Y-4348520D01*
X-1659127Y-4348521D01*
X-1656958Y-4359423D01*
X-1650783Y-4368665D01*
X-1246964Y-4772483D01*
X-1246964Y-4772484D01*
X-1237722Y-4778659D01*
X-1226820Y-4780828D01*
X-1226819Y-4780827D01*
X-781712D01*
Y-4837340D01*
X-779365Y-4849139D01*
X-772682Y-4859142D01*
X-762679Y-4865825D01*
X-750880Y-4868172D01*
X-630880D01*
X-619081Y-4865825D01*
X-609078Y-4859142D01*
X-602395Y-4849139D01*
X-600048Y-4837340D01*
Y-4667340D01*
X-602395Y-4655541D01*
X-609078Y-4645538D01*
X-619081Y-4638855D01*
X-630880Y-4636508D01*
X-750880D01*
X-762679Y-4638855D01*
X-772682Y-4645538D01*
X-779365Y-4655541D01*
X-781712Y-4667340D01*
Y-4723853D01*
X-1215020D01*
X-1602152Y-4336721D01*
Y-3176655D01*
X-1590854Y-3169106D01*
X-1578645Y-3150834D01*
X-1574358Y-3129280D01*
X-1578645Y-3107726D01*
X-1590854Y-3089454D01*
X-1609126Y-3077245D01*
X-1630680Y-3072958D01*
D02*
G37*
G36*
X-182880Y-4636321D02*
X-206437Y-4639423D01*
X-228389Y-4648515D01*
X-247240Y-4662980D01*
X-261704Y-4681831D01*
X-270797Y-4703783D01*
X-273899Y-4727340D01*
Y-4777340D01*
X-270797Y-4800897D01*
X-261704Y-4822849D01*
X-247240Y-4841700D01*
X-228389Y-4856165D01*
X-206437Y-4865257D01*
X-182880Y-4868359D01*
X-159323Y-4865257D01*
X-137371Y-4856165D01*
X-118520Y-4841700D01*
X-104056Y-4822849D01*
X-94963Y-4800897D01*
X-91861Y-4777340D01*
Y-4727340D01*
X-94963Y-4703783D01*
X-104056Y-4681831D01*
X-118520Y-4662980D01*
X-137371Y-4648515D01*
X-159323Y-4639423D01*
X-182880Y-4636321D01*
D02*
G37*
G36*
X-436880D02*
X-460437Y-4639423D01*
X-482389Y-4648515D01*
X-501240Y-4662980D01*
X-515704Y-4681831D01*
X-524797Y-4703783D01*
X-527899Y-4727340D01*
Y-4777340D01*
X-524797Y-4800897D01*
X-515704Y-4822849D01*
X-501240Y-4841700D01*
X-482389Y-4856165D01*
X-460437Y-4865257D01*
X-436880Y-4868359D01*
X-413323Y-4865257D01*
X-391371Y-4856165D01*
X-372520Y-4841700D01*
X-358056Y-4822849D01*
X-348963Y-4800897D01*
X-345861Y-4777340D01*
Y-4727340D01*
X-348963Y-4703783D01*
X-358056Y-4681831D01*
X-372520Y-4662980D01*
X-391371Y-4648515D01*
X-413323Y-4639423D01*
X-436880Y-4636321D01*
D02*
G37*
%LPD*%
D10*
X1512254Y-2142979D02*
X1617199D01*
X1907539Y-2433320D02*
X1907540D01*
X1617199Y-2142979D02*
X1907539Y-2433320D01*
X946569Y-1577294D02*
X1512254Y-2142979D01*
X946569Y-1577294D02*
Y-1577283D01*
X380883Y-1011598D02*
X946569Y-1577283D01*
X-208280Y-1011588D02*
Y41770D01*
X-123050Y127000D01*
X0D01*
X-421640Y-1011588D02*
X-208280D01*
X380883D01*
X-421640Y-1011588D02*
X-421640Y-1011588D01*
X380883D02*
X380883Y-1011588D01*
X-1630639Y-4348521D02*
Y-3129321D01*
X-1226820Y-4752340D02*
X-690880D01*
X-1630639Y-4348521D02*
X-1226820Y-4752340D01*
X-1630680Y-3129280D02*
X-1630639Y-3129321D01*
D11*
X2270760Y-2608580D02*
Y-2450365D01*
X2172939Y-2352544D02*
X2270760Y-2450365D01*
X2172939Y-2352544D02*
Y2172939D01*
X2931487Y-2747953D02*
Y-2517140D01*
X-2981960Y-3124200D02*
X-2733040D01*
X-723900Y-3671917D02*
Y-3307080D01*
X-873760Y-3671917D02*
Y-3307080D01*
X-2667000Y-2475265D02*
Y-2070897D01*
X-2146300Y-2336800D02*
Y2172939D01*
X-2352544D02*
X-2146300D01*
X2172939D01*
Y2352544D01*
X475883Y-655488D02*
Y475883D01*
X-475883D02*
X475883D01*
Y655488D01*
X-1041568Y1041568D02*
X1041568D01*
X1041568Y-1221173D02*
Y1041569D01*
X1041568Y1041568D02*
X1041568Y1041569D01*
Y1221173D01*
X-1607254Y1607254D02*
X1607253D01*
X1607254Y1607254D02*
Y1786859D01*
X1607253Y1607254D02*
X1607254Y1607254D01*
Y-1786859D02*
Y1607254D01*
X-1221173Y1041568D02*
X-1041568D01*
Y-1221173D02*
Y1041568D01*
X-655488Y475883D02*
X-475883D01*
Y-655488D02*
Y475883D01*
X-1786859Y1607254D02*
X-1607254D01*
Y-749300D02*
Y1607254D01*
Y-1786859D02*
X-1607253Y-1786858D01*
X-1607254Y-749300D02*
X-1607253Y-749300D01*
Y-1786858D02*
Y-749300D01*
D12*
X-2144863Y-3682977D02*
X-2144840Y-3683000D01*
X-2144863Y-3129303D02*
X-2144840Y-3129280D01*
X-2144863Y-3682977D02*
Y-3129303D01*
D13*
X-2603500Y-3683000D02*
D03*
X2596500D02*
D03*
D14*
X71120Y-4752340D02*
D03*
X-182880D02*
D03*
X-436880D02*
D03*
X-2394840Y-4638040D02*
D03*
X-2144840D02*
D03*
X-1894840D02*
D03*
D15*
X-690880Y-4752340D02*
D03*
D16*
X3183570Y-3816431D02*
D03*
X3816431Y-3183570D02*
D03*
X-3816431Y3183570D02*
D03*
X-3183570Y3816431D02*
D03*
D17*
X-1982122Y-3613D02*
D03*
X-1222122D02*
D03*
D18*
X3816431Y3183570D02*
D03*
X3183570Y3816431D02*
D03*
X-3816431Y-3183570D02*
D03*
X-3183570Y-3816431D02*
D03*
D19*
X2172939Y-2352544D02*
D03*
X1607254Y-1786859D02*
D03*
X1041568Y-1221173D02*
D03*
X475883Y-655488D02*
D03*
X0Y127000D02*
D03*
X2172939Y2352544D02*
D03*
X1607254Y1786859D02*
D03*
X475883Y655488D02*
D03*
X1041568Y1221173D02*
D03*
X-655488Y475883D02*
D03*
X-2352544Y2172939D02*
D03*
X-1786859Y1607254D02*
D03*
X-1221173Y1041568D02*
D03*
X-2146300Y-2336800D02*
D03*
X-1607254Y-1786859D02*
D03*
X-475883Y-655488D02*
D03*
X-1041568Y-1221173D02*
D03*
D20*
X2352544Y-2172939D02*
D03*
X1786859Y-1607254D02*
D03*
X1221173Y-1041568D02*
D03*
X655488Y-475883D02*
D03*
X-475883Y655488D02*
D03*
X-2172939Y2352544D02*
D03*
X-1607254Y1786859D02*
D03*
X-1041568Y1221173D02*
D03*
D21*
X0Y-127000D02*
D03*
D22*
X2352544Y2172939D02*
D03*
X1786859Y1607254D02*
D03*
X655488Y475883D02*
D03*
X1221173Y1041568D02*
D03*
X-2325905Y-2157195D02*
D03*
X-1786859Y-1607254D02*
D03*
X-655488Y-475883D02*
D03*
X-1221173Y-1041568D02*
D03*
D23*
X-2325905Y-2369820D02*
D03*
X-1786859Y-1786859D02*
D03*
X-1221173Y-1221173D02*
D03*
X-683260Y-670560D02*
D03*
X-2390140Y2362200D02*
D03*
X-1786859Y1786859D02*
D03*
X-1249680Y1234440D02*
D03*
X655488Y655488D02*
D03*
X1221173Y1221173D02*
D03*
X2349500Y2387600D02*
D03*
X1786859Y1786859D02*
D03*
X1399540Y-2148840D02*
D03*
X1178560Y-1930400D02*
D03*
X1043940Y-1798320D02*
D03*
X655320Y-1404620D02*
D03*
X480060Y-1234440D02*
D03*
X239360Y-931290D02*
D03*
X1907540Y-2548262D02*
D03*
X1799754Y-2433320D02*
D03*
Y-2170479D02*
D03*
X1290320Y-1793240D02*
D03*
X701040Y-1198880D02*
D03*
X1907540Y-2433320D02*
D03*
X-347452Y-1395460D02*
D03*
Y-1231778D02*
D03*
X-1394320Y-2451100D02*
D03*
X-1869440Y-2603500D02*
D03*
X-2486660Y-2288540D02*
D03*
X-2016760Y-3147060D02*
D03*
X-2250440Y-3053080D02*
D03*
X-2413000Y-2905760D02*
D03*
X-2446020Y-3530600D02*
D03*
X-1549400Y-3606800D02*
D03*
X-1732280Y-3619500D02*
D03*
X-1745920Y-3129321D02*
D03*
X-1259840Y-3340100D02*
D03*
X-1016000Y-3286760D02*
D03*
Y-3627120D02*
D03*
X-589280D02*
D03*
X2327892Y-2372360D02*
D03*
X2082800Y-2199640D02*
D03*
X1780540Y-1813560D02*
D03*
X1512254Y-1644800D02*
D03*
X1201569Y-1221173D02*
D03*
X976489Y-1041568D02*
D03*
X104140Y-292100D02*
D03*
X135803Y0D02*
D03*
X396240Y-528320D02*
D03*
X642247Y-655488D02*
D03*
X-967740Y970280D02*
D03*
X-1534160Y1531620D02*
D03*
X-3225800Y-2819400D02*
D03*
X-2832100Y-972820D02*
D03*
X-2938780Y-830580D02*
D03*
X-2947688Y-2168595D02*
D03*
X-2763520Y-2369820D02*
D03*
X-2837952Y-1502733D02*
D03*
X-2743200Y-1638300D02*
D03*
X-2738120Y-1973987D02*
D03*
X-2581450Y-2157195D02*
D03*
X-2468104Y-1872565D02*
D03*
X-1918033Y-1323218D02*
D03*
X-835329Y-153098D02*
D03*
X-1334313Y-745545D02*
D03*
X-347452Y-1083735D02*
D03*
X2243413Y-859052D02*
D03*
X2247900Y-650240D02*
D03*
X2106050Y-521781D02*
D03*
X2098040Y-721360D02*
D03*
X1676095Y-882502D02*
D03*
X1115060Y-323901D02*
D03*
X967740Y25400D02*
D03*
X1115060Y-119380D02*
D03*
X1521460Y-157480D02*
D03*
X1684020Y-307340D02*
D03*
Y-78740D02*
D03*
X1534310Y67848D02*
D03*
X948918Y379372D02*
D03*
X1116621Y535769D02*
D03*
X1207242Y392769D02*
D03*
X1526540Y690880D02*
D03*
X1676136Y876300D02*
D03*
Y1081857D02*
D03*
X1536003Y938172D02*
D03*
X967740Y960120D02*
D03*
X1534160Y1536700D02*
D03*
X2100580Y2100580D02*
D03*
X-2540Y2242820D02*
D03*
X34190Y2096914D02*
D03*
X266700Y2095500D02*
D03*
X190500Y2258060D02*
D03*
X-1993779Y2673923D02*
D03*
X-2077480Y2101385D02*
D03*
X-1640413Y2242227D02*
D03*
X-1509672Y2107503D02*
D03*
X-1072884Y1676916D02*
D03*
X-2920248Y-3003227D02*
D03*
X-2768600Y-3011420D02*
D03*
X-2933700Y-3225800D02*
D03*
X-2768600Y-3241040D02*
D03*
X-3029513Y-2891097D02*
D03*
X-3048000Y-340360D02*
D03*
X-2349500Y101600D02*
D03*
X-2026920Y-172720D02*
D03*
X-1277620Y-175260D02*
D03*
X-972820Y91440D02*
D03*
X-379372Y382280D02*
D03*
X358140Y551180D02*
D03*
X388620Y308661D02*
D03*
X565685Y209666D02*
D03*
X808106Y-168337D02*
D03*
X1442720Y-660400D02*
D03*
X1327852Y-763042D02*
D03*
X1894840Y-1330960D02*
D03*
X2011680Y-1234440D02*
D03*
X2557780Y-1775460D02*
D03*
X2427328Y-1895882D02*
D03*
X2537457Y-2633980D02*
D03*
X2720340Y-2608580D02*
D03*
X2844800Y-2415540D02*
D03*
X3050540Y-2560320D02*
D03*
Y-2735580D02*
D03*
X2819400Y-2702560D02*
D03*
X2682240Y-3126740D02*
D03*
X2438400Y-3004820D02*
D03*
X2245360Y-2941320D02*
D03*
X274320Y-3175000D02*
D03*
X368300Y-2923540D02*
D03*
X239360Y-2721580D02*
D03*
X-1380020Y-2907195D02*
D03*
X-1513840Y-3037840D02*
D03*
X-597392Y-2410460D02*
D03*
X-891540D02*
D03*
X-604520Y-3241040D02*
D03*
X-453140Y-2682840D02*
D03*
X-160640Y-2740000D02*
D03*
X43180Y-2956560D02*
D03*
X2270760Y-2608580D02*
D03*
X-421640Y-1011588D02*
D03*
X2931487Y-2517140D02*
D03*
Y-2747953D02*
D03*
X-2981960Y-3124200D02*
D03*
X-2733040D02*
D03*
X380883Y-1011588D02*
D03*
X1512254Y-2142979D02*
D03*
X946569Y-1577283D02*
D03*
X-1630680Y-3129280D02*
D03*
X-723900Y-3307080D02*
D03*
X-873760D02*
D03*
X-2144840Y-3129280D02*
D03*
X-723900Y-3671917D02*
D03*
X-873760D02*
D03*
X-2144840Y-3683000D02*
D03*
X-1869440Y-2407920D02*
D03*
X-2006600Y-2505680D02*
D03*
X-1310640Y-2334480D02*
D03*
X-1394320Y-2217420D02*
D03*
X-1404981Y-1701800D02*
D03*
X-1271333Y-1604680D02*
D03*
X-1404981Y-1508760D02*
D03*
X-830690Y-1912620D02*
D03*
X-919480Y-2010410D02*
D03*
X-570125Y-1884080D02*
D03*
X-337007D02*
D03*
X371860Y-2721580D02*
D03*
X571500D02*
D03*
X252060Y-2444080D02*
D03*
X495300D02*
D03*
X-652065Y-1605452D02*
D03*
X-551180Y-1513840D02*
D03*
X-249140Y-1490980D02*
D03*
X-2667000Y-2475265D02*
D03*
Y-2070897D02*
D03*
X2596500Y-3492500D02*
D03*
X2787000Y-3683000D02*
D03*
X2596500Y-3873500D02*
D03*
X2406000Y-3683000D02*
D03*
%TF.MD5,f0043ac7f0ecfd46dd2512e0f4b2ada7*%
M02*
