%TF.GenerationSoftware,Altium Limited,Altium Designer,20.1.8 (145)*%
G04 Layer_Color=32768*
%FSLAX45Y45*%
%MOMM*%
%TF.SameCoordinates,793C4F5F-A07E-474B-A886-B682DA88F124*%
%TF.FilePolarity,Positive*%
%TF.FileFunction,Other,Top_Assembly*%
%TF.Part,Single*%
G01*
G75*
%TA.AperFunction,NonConductor*%
%ADD66C,0.20000*%
%ADD67C,0.20320*%
D66*
X2339692Y-1988326D02*
G03*
X2537457Y-2186870I-76951J-274415D01*
G01*
X1774007Y-1422641D02*
G03*
X1971771Y-1621185I-76951J-274415D01*
G01*
X1208321Y-856956D02*
G03*
X1406086Y-1055500I-76951J-274415D01*
G01*
X642636Y-291270D02*
G03*
X840401Y-489814I-76951J-274415D01*
G01*
X139628Y-248453D02*
G03*
X-140604Y-247902I-139628J248453D01*
G01*
X2537156Y2185791D02*
G03*
X2338613Y1988026I-274415J76951D01*
G01*
X1971471Y1620105D02*
G03*
X1772927Y1422341I-274415J76951D01*
G01*
X840100Y488735D02*
G03*
X641557Y290970I-274415J76951D01*
G01*
X1405786Y1054420D02*
G03*
X1207242Y856656I-274415J76951D01*
G01*
X-488735Y840100D02*
G03*
X-290970Y641557I-76951J-274415D01*
G01*
X-2185791Y2537156D02*
G03*
X-1988026Y2338613I-76951J-274415D01*
G01*
X-1620105Y1971471D02*
G03*
X-1422341Y1772927I-76951J-274415D01*
G01*
X-1054420Y1405786D02*
G03*
X-856656Y1207242I-76951J-274415D01*
G01*
X-2510517Y-2170047D02*
G03*
X-2311974Y-1972282I274415J-76951D01*
G01*
X-1971471Y-1620105D02*
G03*
X-1772927Y-1422341I274415J-76951D01*
G01*
X-840100Y-488735D02*
G03*
X-641557Y-290970I274415J-76951D01*
G01*
X-1405786Y-1054420D02*
G03*
X-1207242Y-856656I274415J-76951D01*
G01*
D67*
X2339303Y-1988716D02*
X2537457Y-2186870D01*
X1773617Y-1423030D02*
X1971772Y-1621185D01*
X1207932Y-857345D02*
X1406086Y-1055500D01*
X642247Y-291660D02*
X840401Y-489814D01*
X-140604Y-247902D02*
X139628D01*
X2338613Y1988026D02*
X2536767Y2186180D01*
X1772927Y1422341D02*
X1971082Y1620495D01*
X641557Y290970D02*
X839711Y489124D01*
X1207242Y856655D02*
X1405396Y1054810D01*
X-489124Y839711D02*
X-290970Y641557D01*
X-2186180Y2536767D02*
X-1988026Y2338613D01*
X-1620495Y1971082D02*
X-1422341Y1772927D01*
X-1054810Y1405396D02*
X-856655Y1207242D01*
X-2510128Y-2170436D02*
X-2311974Y-1972282D01*
X-1971082Y-1620495D02*
X-1772927Y-1422341D01*
X-839711Y-489124D02*
X-641557Y-290970D01*
X-1405396Y-1054810D02*
X-1207242Y-856655D01*
%TF.MD5,431f2c4d8f625016652e974fa6ddec03*%
M02*
