%TF.GenerationSoftware,Altium Limited,Altium Designer,20.1.8 (145)*%
G04 Layer_Physical_Order=2*
G04 Layer_Color=16729670*
%FSLAX45Y45*%
%MOMM*%
%TF.SameCoordinates,793C4F5F-A07E-474B-A886-B682DA88F124*%
%TF.FilePolarity,Positive*%
%TF.FileFunction,Copper,L2,Bot,Signal*%
%TF.Part,Single*%
G01*
G75*
%TA.AperFunction,Conductor*%
%ADD10C,0.25400*%
%ADD11C,0.15240*%
%ADD12C,0.30480*%
%TA.AperFunction,ComponentPad*%
%ADD13C,2.50000*%
G04:AMPARAMS|DCode=14|XSize=1.5mm|YSize=2mm|CornerRadius=0.75mm|HoleSize=0mm|Usage=FLASHONLY|Rotation=0.000|XOffset=0mm|YOffset=0mm|HoleType=Round|Shape=RoundedRectangle|*
%AMROUNDEDRECTD14*
21,1,1.50000,0.50000,0,0,0.0*
21,1,0.00000,2.00000,0,0,0.0*
1,1,1.50000,0.00000,-0.25000*
1,1,1.50000,0.00000,-0.25000*
1,1,1.50000,0.00000,0.25000*
1,1,1.50000,0.00000,0.25000*
%
%ADD14ROUNDEDRECTD14*%
G04:AMPARAMS|DCode=15|XSize=1.5mm|YSize=2mm|CornerRadius=0.15mm|HoleSize=0mm|Usage=FLASHONLY|Rotation=0.000|XOffset=0mm|YOffset=0mm|HoleType=Round|Shape=RoundedRectangle|*
%AMROUNDEDRECTD15*
21,1,1.50000,1.70000,0,0,0.0*
21,1,1.20000,2.00000,0,0,0.0*
1,1,0.30000,0.60000,-0.85000*
1,1,0.30000,-0.60000,-0.85000*
1,1,0.30000,-0.60000,0.85000*
1,1,0.30000,0.60000,0.85000*
%
%ADD15ROUNDEDRECTD15*%
G04:AMPARAMS|DCode=16|XSize=3mm|YSize=8mm|CornerRadius=1.5mm|HoleSize=0mm|Usage=FLASHONLY|Rotation=45.000|XOffset=0mm|YOffset=0mm|HoleType=Round|Shape=RoundedRectangle|*
%AMROUNDEDRECTD16*
21,1,3.00000,5.00000,0,0,45.0*
21,1,0.00000,8.00000,0,0,45.0*
1,1,3.00000,1.76777,-1.76777*
1,1,3.00000,1.76777,-1.76777*
1,1,3.00000,-1.76777,1.76777*
1,1,3.00000,-1.76777,1.76777*
%
%ADD16ROUNDEDRECTD16*%
%ADD17C,2.00000*%
G04:AMPARAMS|DCode=18|XSize=3mm|YSize=8mm|CornerRadius=1.5mm|HoleSize=0mm|Usage=FLASHONLY|Rotation=315.000|XOffset=0mm|YOffset=0mm|HoleType=Round|Shape=RoundedRectangle|*
%AMROUNDEDRECTD18*
21,1,3.00000,5.00000,0,0,315.0*
21,1,0.00000,8.00000,0,0,315.0*
1,1,3.00000,-1.76777,-1.76777*
1,1,3.00000,-1.76777,-1.76777*
1,1,3.00000,1.76777,1.76777*
1,1,3.00000,1.76777,1.76777*
%
%ADD18ROUNDEDRECTD18*%
%ADD19C,1.58000*%
G04:AMPARAMS|DCode=20|XSize=1.58mm|YSize=1.58mm|CornerRadius=0.158mm|HoleSize=0mm|Usage=FLASHONLY|Rotation=135.000|XOffset=0mm|YOffset=0mm|HoleType=Round|Shape=RoundedRectangle|*
%AMROUNDEDRECTD20*
21,1,1.58000,1.26400,0,0,135.0*
21,1,1.26400,1.58000,0,0,135.0*
1,1,0.31600,0.00000,0.89378*
1,1,0.31600,0.89378,0.00000*
1,1,0.31600,0.00000,-0.89378*
1,1,0.31600,-0.89378,0.00000*
%
%ADD20ROUNDEDRECTD20*%
G04:AMPARAMS|DCode=21|XSize=1.58mm|YSize=1.58mm|CornerRadius=0.158mm|HoleSize=0mm|Usage=FLASHONLY|Rotation=0.000|XOffset=0mm|YOffset=0mm|HoleType=Round|Shape=RoundedRectangle|*
%AMROUNDEDRECTD21*
21,1,1.58000,1.26400,0,0,0.0*
21,1,1.26400,1.58000,0,0,0.0*
1,1,0.31600,0.63200,-0.63200*
1,1,0.31600,-0.63200,-0.63200*
1,1,0.31600,-0.63200,0.63200*
1,1,0.31600,0.63200,0.63200*
%
%ADD21ROUNDEDRECTD21*%
G04:AMPARAMS|DCode=22|XSize=1.58mm|YSize=1.58mm|CornerRadius=0.158mm|HoleSize=0mm|Usage=FLASHONLY|Rotation=45.000|XOffset=0mm|YOffset=0mm|HoleType=Round|Shape=RoundedRectangle|*
%AMROUNDEDRECTD22*
21,1,1.58000,1.26400,0,0,45.0*
21,1,1.26400,1.58000,0,0,45.0*
1,1,0.31600,0.89378,0.00000*
1,1,0.31600,0.00000,-0.89378*
1,1,0.31600,-0.89378,0.00000*
1,1,0.31600,0.00000,0.89378*
%
%ADD22ROUNDEDRECTD22*%
%TA.AperFunction,ViaPad*%
%ADD23C,0.80000*%
%TA.AperFunction,SMDPad,CuDef*%
%ADD24R,0.60000X0.80000*%
G04:AMPARAMS|DCode=25|XSize=1.65mm|YSize=0.95mm|CornerRadius=0.00475mm|HoleSize=0mm|Usage=FLASHONLY|Rotation=180.000|XOffset=0mm|YOffset=0mm|HoleType=Round|Shape=RoundedRectangle|*
%AMROUNDEDRECTD25*
21,1,1.65000,0.94050,0,0,180.0*
21,1,1.64050,0.95000,0,0,180.0*
1,1,0.00950,-0.82025,0.47025*
1,1,0.00950,0.82025,0.47025*
1,1,0.00950,0.82025,-0.47025*
1,1,0.00950,-0.82025,-0.47025*
%
%ADD25ROUNDEDRECTD25*%
%ADD26O,1.25000X0.50000*%
%ADD27O,0.50000X1.25000*%
G04:AMPARAMS|DCode=28|XSize=0.75mm|YSize=0.55mm|CornerRadius=0.00275mm|HoleSize=0mm|Usage=FLASHONLY|Rotation=135.000|XOffset=0mm|YOffset=0mm|HoleType=Round|Shape=RoundedRectangle|*
%AMROUNDEDRECTD28*
21,1,0.75000,0.54450,0,0,135.0*
21,1,0.74450,0.55000,0,0,135.0*
1,1,0.00550,-0.07071,0.45573*
1,1,0.00550,0.45573,-0.07071*
1,1,0.00550,0.07071,-0.45573*
1,1,0.00550,-0.45573,0.07071*
%
%ADD28ROUNDEDRECTD28*%
G04:AMPARAMS|DCode=29|XSize=0.75mm|YSize=0.55mm|CornerRadius=0.00275mm|HoleSize=0mm|Usage=FLASHONLY|Rotation=225.000|XOffset=0mm|YOffset=0mm|HoleType=Round|Shape=RoundedRectangle|*
%AMROUNDEDRECTD29*
21,1,0.75000,0.54450,0,0,225.0*
21,1,0.74450,0.55000,0,0,225.0*
1,1,0.00550,-0.45573,-0.07071*
1,1,0.00550,0.07071,0.45573*
1,1,0.00550,0.45573,0.07071*
1,1,0.00550,-0.07071,-0.45573*
%
%ADD29ROUNDEDRECTD29*%
G04:AMPARAMS|DCode=30|XSize=0.5mm|YSize=1.2mm|CornerRadius=0.0025mm|HoleSize=0mm|Usage=FLASHONLY|Rotation=0.000|XOffset=0mm|YOffset=0mm|HoleType=Round|Shape=RoundedRectangle|*
%AMROUNDEDRECTD30*
21,1,0.50000,1.19500,0,0,0.0*
21,1,0.49500,1.20000,0,0,0.0*
1,1,0.00500,0.24750,-0.59750*
1,1,0.00500,-0.24750,-0.59750*
1,1,0.00500,-0.24750,0.59750*
1,1,0.00500,0.24750,0.59750*
%
%ADD30ROUNDEDRECTD30*%
G04:AMPARAMS|DCode=31|XSize=0.5mm|YSize=0.9mm|CornerRadius=0.0025mm|HoleSize=0mm|Usage=FLASHONLY|Rotation=0.000|XOffset=0mm|YOffset=0mm|HoleType=Round|Shape=RoundedRectangle|*
%AMROUNDEDRECTD31*
21,1,0.50000,0.89500,0,0,0.0*
21,1,0.49500,0.90000,0,0,0.0*
1,1,0.00500,0.24750,-0.44750*
1,1,0.00500,-0.24750,-0.44750*
1,1,0.00500,-0.24750,0.44750*
1,1,0.00500,0.24750,0.44750*
%
%ADD31ROUNDEDRECTD31*%
G04:AMPARAMS|DCode=32|XSize=0.75mm|YSize=0.55mm|CornerRadius=0.00275mm|HoleSize=0mm|Usage=FLASHONLY|Rotation=0.000|XOffset=0mm|YOffset=0mm|HoleType=Round|Shape=RoundedRectangle|*
%AMROUNDEDRECTD32*
21,1,0.75000,0.54450,0,0,0.0*
21,1,0.74450,0.55000,0,0,0.0*
1,1,0.00550,0.37225,-0.27225*
1,1,0.00550,-0.37225,-0.27225*
1,1,0.00550,-0.37225,0.27225*
1,1,0.00550,0.37225,0.27225*
%
%ADD32ROUNDEDRECTD32*%
G04:AMPARAMS|DCode=33|XSize=0.75mm|YSize=0.55mm|CornerRadius=0.00275mm|HoleSize=0mm|Usage=FLASHONLY|Rotation=270.000|XOffset=0mm|YOffset=0mm|HoleType=Round|Shape=RoundedRectangle|*
%AMROUNDEDRECTD33*
21,1,0.75000,0.54450,0,0,270.0*
21,1,0.74450,0.55000,0,0,270.0*
1,1,0.00550,-0.27225,-0.37225*
1,1,0.00550,-0.27225,0.37225*
1,1,0.00550,0.27225,0.37225*
1,1,0.00550,0.27225,-0.37225*
%
%ADD33ROUNDEDRECTD33*%
G04:AMPARAMS|DCode=34|XSize=0.85mm|YSize=0.6mm|CornerRadius=0.003mm|HoleSize=0mm|Usage=FLASHONLY|Rotation=0.000|XOffset=0mm|YOffset=0mm|HoleType=Round|Shape=RoundedRectangle|*
%AMROUNDEDRECTD34*
21,1,0.85000,0.59400,0,0,0.0*
21,1,0.84400,0.60000,0,0,0.0*
1,1,0.00600,0.42200,-0.29700*
1,1,0.00600,-0.42200,-0.29700*
1,1,0.00600,-0.42200,0.29700*
1,1,0.00600,0.42200,0.29700*
%
%ADD34ROUNDEDRECTD34*%
G04:AMPARAMS|DCode=35|XSize=0.85mm|YSize=0.6mm|CornerRadius=0.003mm|HoleSize=0mm|Usage=FLASHONLY|Rotation=270.000|XOffset=0mm|YOffset=0mm|HoleType=Round|Shape=RoundedRectangle|*
%AMROUNDEDRECTD35*
21,1,0.85000,0.59400,0,0,270.0*
21,1,0.84400,0.60000,0,0,270.0*
1,1,0.00600,-0.29700,-0.42200*
1,1,0.00600,-0.29700,0.42200*
1,1,0.00600,0.29700,0.42200*
1,1,0.00600,0.29700,-0.42200*
%
%ADD35ROUNDEDRECTD35*%
%ADD36R,1.72000X0.89000*%
G36*
X3616383Y4978792D02*
X3732049Y4965102D01*
X3846284Y4942379D01*
X3958385Y4910763D01*
X4067659Y4870450D01*
X4173433Y4821687D01*
X4275055Y4764776D01*
X4371900Y4700067D01*
X4463368Y4627959D01*
X4548897Y4548897D01*
X4627959Y4463368D01*
X4700067Y4371900D01*
X4764776Y4275056D01*
X4821687Y4173434D01*
X4870449Y4067659D01*
X4910763Y3958385D01*
X4942378Y3846285D01*
X4965101Y3732050D01*
X4978791Y3616384D01*
X4983215Y3503789D01*
X4982461Y3500001D01*
X4982462Y-3499294D01*
X4983238Y-3503198D01*
X4978791Y-3616383D01*
X4965101Y-3732049D01*
X4942378Y-3846284D01*
X4910763Y-3958384D01*
X4870449Y-4067658D01*
X4821687Y-4173433D01*
X4764776Y-4275055D01*
X4700067Y-4371899D01*
X4627959Y-4463367D01*
X4548897Y-4548896D01*
X4463368Y-4627958D01*
X4371900Y-4700066D01*
X4275055Y-4764775D01*
X4173433Y-4821686D01*
X4067659Y-4870449D01*
X3958385Y-4910762D01*
X3846284Y-4942378D01*
X3732049Y-4965101D01*
X3616383Y-4978791D01*
X3500826Y-4983331D01*
X3500000Y-4983167D01*
X-3500000D01*
X-3500826Y-4983331D01*
X-3616383Y-4978791D01*
X-3732049Y-4965101D01*
X-3846284Y-4942378D01*
X-3958385Y-4910762D01*
X-4067659Y-4870449D01*
X-4173433Y-4821686D01*
X-4275055Y-4764775D01*
X-4371900Y-4700066D01*
X-4463368Y-4627958D01*
X-4548897Y-4548896D01*
X-4627959Y-4463367D01*
X-4700067Y-4371899D01*
X-4764776Y-4275055D01*
X-4821687Y-4173433D01*
X-4870449Y-4067658D01*
X-4910763Y-3958384D01*
X-4942378Y-3846284D01*
X-4965101Y-3732049D01*
X-4978791Y-3616383D01*
X-4983331Y-3500826D01*
X-4983167Y-3500000D01*
Y3500001D01*
X-4983331Y3500827D01*
X-4978791Y3616384D01*
X-4965101Y3732050D01*
X-4942378Y3846285D01*
X-4910763Y3958385D01*
X-4870449Y4067659D01*
X-4821687Y4173434D01*
X-4764776Y4275056D01*
X-4700067Y4371900D01*
X-4627959Y4463368D01*
X-4548897Y4548897D01*
X-4463368Y4627959D01*
X-4371900Y4700067D01*
X-4275055Y4764776D01*
X-4173433Y4821687D01*
X-4067659Y4870450D01*
X-3958385Y4910763D01*
X-3846284Y4942379D01*
X-3732049Y4965102D01*
X-3616383Y4978792D01*
X-3500826Y4983332D01*
X-3500000Y4983168D01*
X3500000D01*
X3500826Y4983332D01*
X3616383Y4978792D01*
D02*
G37*
%LPC*%
G36*
X-3360346Y4159247D02*
X-3392739Y4156056D01*
X-3423887Y4146608D01*
X-3452593Y4131264D01*
X-3477754Y4110615D01*
X-3498403Y4085454D01*
X-3513747Y4056748D01*
X-3523196Y4025600D01*
X-3526386Y3993207D01*
X-3523196Y3960815D01*
X-3513747Y3929667D01*
X-3498403Y3900961D01*
X-3477754Y3875799D01*
X-3124201Y3522246D01*
X-3099040Y3501597D01*
X-3070333Y3486253D01*
X-3039186Y3476805D01*
X-3006793Y3473614D01*
X-2974400Y3476805D01*
X-2943252Y3486253D01*
X-2914546Y3501597D01*
X-2913072Y3502807D01*
X-2176513Y2766247D01*
X-2168951Y2761195D01*
X-2160032Y2759421D01*
X-441790D01*
X94640Y2222991D01*
Y698952D01*
X-318700Y285612D01*
X-323753Y278050D01*
X-325527Y269131D01*
Y-392074D01*
X-337260Y-396934D01*
X-929431Y195236D01*
X-936992Y200289D01*
X-945912Y202063D01*
X-2384105D01*
X-2393024Y200289D01*
X-2400586Y195236D01*
X-3045994Y-450172D01*
X-3051046Y-457733D01*
X-3052821Y-466653D01*
Y-2788607D01*
X-3051046Y-2797527D01*
X-3045994Y-2805088D01*
X-2870648Y-2980434D01*
Y-3470547D01*
X-2907490Y-3507388D01*
X-2914546Y-3501597D01*
X-2943252Y-3486253D01*
X-2974400Y-3476805D01*
X-3006793Y-3473614D01*
X-3039186Y-3476805D01*
X-3070333Y-3486253D01*
X-3099040Y-3501597D01*
X-3124201Y-3522246D01*
X-3477754Y-3875799D01*
X-3498403Y-3900961D01*
X-3513747Y-3929667D01*
X-3523196Y-3960815D01*
X-3526386Y-3993207D01*
X-3523196Y-4025600D01*
X-3513747Y-4056748D01*
X-3498403Y-4085454D01*
X-3477754Y-4110615D01*
X-3452593Y-4131264D01*
X-3423887Y-4146608D01*
X-3392739Y-4156056D01*
X-3360346Y-4159247D01*
X-3327954Y-4156056D01*
X-3296806Y-4146608D01*
X-3268100Y-4131264D01*
X-3242939Y-4110615D01*
X-2889385Y-3757062D01*
X-2868736Y-3731900D01*
X-2853393Y-3703194D01*
X-2843944Y-3672047D01*
X-2840754Y-3639654D01*
X-2843944Y-3607261D01*
X-2853393Y-3576113D01*
X-2868736Y-3547407D01*
X-2874528Y-3540351D01*
X-2830859Y-3496682D01*
X-2825806Y-3489120D01*
X-2824032Y-3480201D01*
Y-2970780D01*
X-2825806Y-2961860D01*
X-2830859Y-2954299D01*
X-3006205Y-2778953D01*
Y-476307D01*
X-2374451Y155447D01*
X-955566D01*
X-356007Y-444112D01*
Y-836374D01*
X-354233Y-845293D01*
X-349180Y-852855D01*
X155092Y-1357127D01*
Y-1569122D01*
X62879Y-1661335D01*
X57826Y-1668897D01*
X56052Y-1677816D01*
Y-1681257D01*
X50349Y-1685069D01*
X49471Y-1686383D01*
X35606Y-1687206D01*
X27847Y-1678990D01*
Y-1670829D01*
X61003Y-1637673D01*
X61004Y-1637672D01*
X67179Y-1628430D01*
X69348Y-1617528D01*
X69347Y-1617527D01*
Y-1518373D01*
X74139Y-1517420D01*
X79271Y-1513991D01*
X82700Y-1508859D01*
X83904Y-1502805D01*
Y-1428355D01*
X82700Y-1422301D01*
X79271Y-1417169D01*
X74139Y-1413740D01*
X69347Y-1412787D01*
Y-1373723D01*
X69348Y-1373722D01*
X67179Y-1362820D01*
X61004Y-1353578D01*
X61003Y-1353577D01*
X3002Y-1295576D01*
X-6240Y-1289401D01*
X-17142Y-1287232D01*
X-17143Y-1287233D01*
X-393181D01*
Y-1059009D01*
X-381814Y-1051414D01*
X-369605Y-1033142D01*
X-365318Y-1011588D01*
X-369605Y-990034D01*
X-381814Y-971762D01*
X-400086Y-959553D01*
X-421640Y-955266D01*
X-443194Y-959553D01*
X-461466Y-971762D01*
X-473675Y-990034D01*
X-477962Y-1011588D01*
X-473675Y-1033142D01*
X-461466Y-1051414D01*
X-450156Y-1058971D01*
Y-1315720D01*
Y-1721965D01*
X-493070D01*
Y-1720752D01*
X-494276Y-1714689D01*
X-497711Y-1709549D01*
X-502851Y-1706114D01*
X-508915Y-1704908D01*
X-593315D01*
X-599379Y-1706114D01*
X-604519Y-1709549D01*
X-607954Y-1714689D01*
X-609160Y-1720752D01*
Y-1721965D01*
X-1069732D01*
X-1080634Y-1724133D01*
X-1089876Y-1730309D01*
X-1089877Y-1730309D01*
X-1215760Y-1856193D01*
X-1306572D01*
Y-1837655D01*
X-1307792Y-1831523D01*
X-1311265Y-1826325D01*
X-1316463Y-1822852D01*
X-1322595Y-1821632D01*
X-1486645D01*
X-1492777Y-1822852D01*
X-1497975Y-1826325D01*
X-1501448Y-1831523D01*
X-1502668Y-1837655D01*
Y-1931705D01*
X-1501448Y-1937837D01*
X-1497975Y-1943035D01*
X-1492777Y-1946508D01*
X-1486645Y-1947728D01*
X-1483532D01*
X-1478272Y-1960428D01*
X-1499158Y-1981314D01*
X-1507656Y-1972816D01*
X-1519320Y-1967984D01*
X-1569320D01*
X-1580984Y-1972816D01*
X-1635984Y-2027816D01*
X-1640816Y-2039480D01*
Y-2249480D01*
X-1635984Y-2261145D01*
X-1584863Y-2312265D01*
Y-2394230D01*
X-1583661Y-2400274D01*
X-1580238Y-2405398D01*
X-1575114Y-2408821D01*
X-1569070Y-2410024D01*
X-1519570D01*
X-1513526Y-2408821D01*
X-1508402Y-2405398D01*
X-1504979Y-2400274D01*
X-1503777Y-2394230D01*
Y-2312265D01*
X-1452656Y-2261144D01*
X-1447824Y-2249480D01*
Y-2039480D01*
X-1452656Y-2027816D01*
X-1458870Y-2021601D01*
X-1419638Y-1982369D01*
X-1419637Y-1982368D01*
X-1413462Y-1973126D01*
X-1411294Y-1962224D01*
Y-1947728D01*
X-1322595D01*
X-1316463Y-1946508D01*
X-1311265Y-1943035D01*
X-1307792Y-1937837D01*
X-1306572Y-1931705D01*
Y-1913167D01*
X-1232447D01*
Y-2858400D01*
X-1474758Y-3100711D01*
X-1583333D01*
X-1590854Y-3089454D01*
X-1609126Y-3077245D01*
X-1630680Y-3072958D01*
X-1652234Y-3077245D01*
X-1670506Y-3089454D01*
X-1682715Y-3107726D01*
X-1687002Y-3129280D01*
X-1682715Y-3150834D01*
X-1670506Y-3169106D01*
X-1652234Y-3181315D01*
X-1630680Y-3185602D01*
X-1609126Y-3181315D01*
X-1590854Y-3169106D01*
X-1583223Y-3157686D01*
X-1462959D01*
X-1462958Y-3157686D01*
X-1452057Y-3155517D01*
X-1442814Y-3149342D01*
X-1183817Y-2890344D01*
X-1183816Y-2890344D01*
X-1177641Y-2881102D01*
X-1175473Y-2870200D01*
Y-1896480D01*
X-1057933Y-1778940D01*
X-609160D01*
Y-1780152D01*
X-607954Y-1786216D01*
X-604519Y-1791356D01*
X-599379Y-1794791D01*
X-593315Y-1795997D01*
X-508915D01*
X-502851Y-1794791D01*
X-497711Y-1791356D01*
X-494276Y-1786216D01*
X-493070Y-1780152D01*
Y-1778940D01*
X-361668D01*
Y-1789080D01*
X-358545Y-1804781D01*
X-349651Y-1818091D01*
X-336341Y-1826985D01*
X-320640Y-1830108D01*
X-304939Y-1826985D01*
X-291629Y-1818091D01*
X-288277Y-1813076D01*
X-273003D01*
X-269651Y-1818091D01*
X-256341Y-1826985D01*
X-240640Y-1830108D01*
X-224939Y-1826985D01*
X-211629Y-1818091D01*
X-208277Y-1813075D01*
X-193003D01*
X-189651Y-1818091D01*
X-176341Y-1826985D01*
X-160640Y-1830108D01*
X-144939Y-1826985D01*
X-131629Y-1818091D01*
X-128277Y-1813076D01*
X-113003D01*
X-109652Y-1818091D01*
X-96341Y-1826985D01*
X-80640Y-1830108D01*
X-64939Y-1826985D01*
X-51629Y-1818091D01*
X-48277Y-1813075D01*
X-33003D01*
X-29651Y-1818091D01*
X-16341Y-1826985D01*
X-640Y-1830108D01*
X15061Y-1826985D01*
X28371Y-1818091D01*
X31723Y-1813075D01*
X46997D01*
X50349Y-1818091D01*
X63659Y-1826985D01*
X79360Y-1830108D01*
X95061Y-1826985D01*
X108371Y-1818091D01*
X111723Y-1813076D01*
X126997D01*
X130348Y-1818091D01*
X143659Y-1826985D01*
X159360Y-1830108D01*
X175061Y-1826985D01*
X188371Y-1818091D01*
X191723Y-1813075D01*
X206997D01*
X210349Y-1818091D01*
X223659Y-1826985D01*
X239360Y-1830108D01*
X255061Y-1826985D01*
X268371Y-1818091D01*
X277265Y-1804781D01*
X280388Y-1789080D01*
Y-1714080D01*
X277265Y-1698379D01*
X268371Y-1685069D01*
X262668Y-1681257D01*
Y-1607623D01*
X274401Y-1602763D01*
X348552Y-1676914D01*
Y-1843052D01*
X334360D01*
X318659Y-1846175D01*
X305348Y-1855069D01*
X296455Y-1868379D01*
X293331Y-1884080D01*
X296455Y-1899781D01*
X305348Y-1913091D01*
X310364Y-1916443D01*
Y-1931717D01*
X305348Y-1935069D01*
X296455Y-1948379D01*
X293331Y-1964080D01*
X296455Y-1979781D01*
X305348Y-1993091D01*
X310364Y-1996443D01*
Y-2011717D01*
X305348Y-2015069D01*
X296455Y-2028379D01*
X293331Y-2044080D01*
X296455Y-2059781D01*
X305348Y-2073091D01*
X310364Y-2076443D01*
Y-2091717D01*
X305348Y-2095068D01*
X296455Y-2108379D01*
X293331Y-2124080D01*
X296455Y-2139781D01*
X305348Y-2153091D01*
X310364Y-2156443D01*
Y-2171717D01*
X305348Y-2175069D01*
X296455Y-2188379D01*
X293331Y-2204080D01*
X296455Y-2219781D01*
X305348Y-2233091D01*
X310364Y-2236443D01*
Y-2251717D01*
X305348Y-2255069D01*
X296455Y-2268379D01*
X293331Y-2284080D01*
X296455Y-2299781D01*
X305348Y-2313091D01*
X310364Y-2316443D01*
Y-2331717D01*
X305348Y-2335068D01*
X296455Y-2348379D01*
X293331Y-2364080D01*
X296455Y-2379781D01*
X305348Y-2393091D01*
X310364Y-2396443D01*
Y-2411717D01*
X305348Y-2415069D01*
X296455Y-2428379D01*
X295858Y-2431377D01*
X371858D01*
X447861D01*
X447265Y-2428379D01*
X438371Y-2415069D01*
X433355Y-2411717D01*
Y-2396443D01*
X438371Y-2393091D01*
X442181Y-2387389D01*
X1145387D01*
X1191271Y-2433273D01*
X1198832Y-2438325D01*
X1207752Y-2440100D01*
X1699983D01*
X1708903Y-2438325D01*
X1716464Y-2433273D01*
X1795169Y-2354569D01*
X1934405D01*
X2095677Y-2515841D01*
X2103239Y-2520894D01*
X2112158Y-2522668D01*
X2318237D01*
X2353486Y-2557916D01*
Y-2785431D01*
X2334425Y-2804492D01*
X2313179D01*
Y-2772560D01*
X2222699D01*
Y-2883040D01*
X2313179D01*
Y-2851108D01*
X2344079D01*
X2352998Y-2849334D01*
X2360560Y-2844281D01*
X2393275Y-2811566D01*
X2398327Y-2804005D01*
X2400102Y-2795085D01*
Y-2548262D01*
X2398327Y-2539343D01*
X2393275Y-2531781D01*
X2344373Y-2482879D01*
X2336811Y-2477826D01*
X2327892Y-2476052D01*
X2121813D01*
X1960540Y-2314780D01*
X1952979Y-2309727D01*
X1944059Y-2307953D01*
X1785514D01*
X1776595Y-2309727D01*
X1769033Y-2314779D01*
X1690329Y-2393484D01*
X1217406D01*
X1171522Y-2347600D01*
X1163961Y-2342548D01*
X1155041Y-2340774D01*
X442183D01*
X438371Y-2335068D01*
X433355Y-2331717D01*
Y-2316443D01*
X438371Y-2313091D01*
X442182Y-2307388D01*
X1217786D01*
X1279484Y-2369086D01*
X1287046Y-2374139D01*
X1295965Y-2375913D01*
X1670146D01*
X1679065Y-2374139D01*
X1686627Y-2369086D01*
X1718735Y-2336978D01*
X1723787Y-2329416D01*
X1725561Y-2320497D01*
Y-2305719D01*
X1747494D01*
Y-2195239D01*
X1657014D01*
Y-2305719D01*
X1666108D01*
X1671369Y-2318419D01*
X1660491Y-2329297D01*
X1305619D01*
X1243921Y-2267599D01*
X1236360Y-2262546D01*
X1227440Y-2260772D01*
X442182D01*
X438371Y-2255069D01*
X433355Y-2251717D01*
Y-2236443D01*
X438371Y-2233091D01*
X442182Y-2227388D01*
X796461D01*
X805380Y-2225614D01*
X812942Y-2220561D01*
X1153050Y-1880453D01*
X1158102Y-1872892D01*
X1159876Y-1863972D01*
Y-1740040D01*
X1181808D01*
Y-1629560D01*
X1091329D01*
Y-1740040D01*
X1113261D01*
Y-1854318D01*
X786806Y-2180772D01*
X442182D01*
X438371Y-2175069D01*
X433355Y-2171717D01*
Y-2156443D01*
X438371Y-2153091D01*
X442182Y-2147388D01*
X553080D01*
X562000Y-2145613D01*
X569561Y-2140561D01*
X587364Y-2122758D01*
X592417Y-2115196D01*
X594191Y-2106277D01*
Y-1174328D01*
X616123D01*
Y-1063848D01*
X525643D01*
Y-1174328D01*
X547575D01*
Y-2096623D01*
X543426Y-2100772D01*
X442182D01*
X438371Y-2095068D01*
X433355Y-2091717D01*
Y-2076443D01*
X438371Y-2073091D01*
X447265Y-2059781D01*
X450388Y-2044080D01*
X447265Y-2028379D01*
X438371Y-2015069D01*
X433355Y-2011717D01*
Y-1996443D01*
X438371Y-1993091D01*
X442182Y-1987388D01*
X486844D01*
X495763Y-1985614D01*
X503325Y-1980561D01*
X512252Y-1971633D01*
X517305Y-1964072D01*
X519079Y-1955152D01*
Y-1427061D01*
X517305Y-1418142D01*
X512252Y-1410580D01*
X23308Y-921636D01*
Y-508384D01*
X37225D01*
X43279Y-507180D01*
X48411Y-503751D01*
X51840Y-498619D01*
X53044Y-492565D01*
Y-438115D01*
X51840Y-432062D01*
X48411Y-426930D01*
X43279Y-423501D01*
X37225Y-422296D01*
X-37225D01*
X-43279Y-423501D01*
X-48411Y-426930D01*
X-51840Y-432062D01*
X-53044Y-438115D01*
Y-492565D01*
X-51840Y-498619D01*
X-48411Y-503751D01*
X-43279Y-507180D01*
X-37225Y-508384D01*
X-23308D01*
Y-931290D01*
X-21533Y-940210D01*
X-16481Y-947771D01*
X472464Y-1436716D01*
Y-1940772D01*
X442182D01*
X438371Y-1935069D01*
X433355Y-1931717D01*
Y-1916443D01*
X438371Y-1913091D01*
X447265Y-1899781D01*
X450388Y-1884080D01*
X447265Y-1868379D01*
X438371Y-1855069D01*
X425061Y-1846175D01*
X409360Y-1843052D01*
X395168D01*
Y-1667259D01*
X393393Y-1658340D01*
X388341Y-1650778D01*
X293148Y-1555585D01*
Y-1309598D01*
X291374Y-1300678D01*
X286321Y-1293117D01*
X-217952Y-788844D01*
Y234226D01*
X-93206Y358972D01*
X497066D01*
X2737672Y-1881634D01*
Y-2128119D01*
Y-2517140D01*
X2739446Y-2526059D01*
X2744499Y-2533621D01*
X2861339Y-2650461D01*
X2868900Y-2655514D01*
X2877820Y-2657288D01*
X3257187D01*
X3507388Y-2907490D01*
X3501597Y-2914546D01*
X3486253Y-2943252D01*
X3476805Y-2974400D01*
X3473614Y-3006793D01*
X3476805Y-3039186D01*
X3486253Y-3070333D01*
X3501597Y-3099040D01*
X3522246Y-3124201D01*
X3875799Y-3477754D01*
X3900961Y-3498403D01*
X3929667Y-3513747D01*
X3960815Y-3523196D01*
X3993207Y-3526386D01*
X4025600Y-3523196D01*
X4056748Y-3513747D01*
X4085454Y-3498403D01*
X4110615Y-3477754D01*
X4131264Y-3452593D01*
X4146608Y-3423887D01*
X4156056Y-3392739D01*
X4159247Y-3360346D01*
X4156056Y-3327954D01*
X4146608Y-3296806D01*
X4131264Y-3268100D01*
X4110615Y-3242939D01*
X3757062Y-2889385D01*
X3731900Y-2868736D01*
X3703194Y-2853393D01*
X3672047Y-2843944D01*
X3639654Y-2840754D01*
X3607261Y-2843944D01*
X3576113Y-2853393D01*
X3547407Y-2868736D01*
X3540351Y-2874528D01*
X3283322Y-2617499D01*
X3275760Y-2612446D01*
X3266841Y-2610672D01*
X2887474D01*
X2784288Y-2507486D01*
Y-2128119D01*
Y-1871980D01*
X2782514Y-1863061D01*
X2777461Y-1855499D01*
X523201Y398761D01*
X515639Y403814D01*
X506720Y405588D01*
X-73101D01*
X-77961Y417321D01*
X168881Y664164D01*
X173934Y671725D01*
X175708Y680645D01*
Y2091556D01*
X773565Y2689412D01*
X3345581D01*
X3354500Y2691186D01*
X3362062Y2696239D01*
X3540351Y2874528D01*
X3547407Y2868736D01*
X3576113Y2853393D01*
X3607261Y2843944D01*
X3639654Y2840754D01*
X3672047Y2843944D01*
X3703194Y2853393D01*
X3731900Y2868736D01*
X3757062Y2889385D01*
X4110615Y3242939D01*
X4131264Y3268100D01*
X4146608Y3296806D01*
X4156056Y3327954D01*
X4159247Y3360346D01*
X4156056Y3392739D01*
X4146608Y3423887D01*
X4131264Y3452593D01*
X4110615Y3477754D01*
X4085454Y3498403D01*
X4056748Y3513747D01*
X4025600Y3523196D01*
X3993207Y3526386D01*
X3960815Y3523196D01*
X3929667Y3513747D01*
X3900961Y3498403D01*
X3875799Y3477754D01*
X3522246Y3124201D01*
X3501597Y3099040D01*
X3486253Y3070333D01*
X3476805Y3039186D01*
X3473614Y3006793D01*
X3476805Y2974400D01*
X3486253Y2943252D01*
X3501597Y2914546D01*
X3507388Y2907490D01*
X3335927Y2736028D01*
X763910D01*
X754990Y2734254D01*
X747429Y2729201D01*
X152989Y2134761D01*
X141255Y2139621D01*
Y2232646D01*
X139481Y2241565D01*
X134428Y2249127D01*
X-415654Y2799210D01*
X-423216Y2804262D01*
X-432135Y2806036D01*
X-2150377D01*
X-2879109Y3534768D01*
X-2868736Y3547407D01*
X-2853393Y3576113D01*
X-2843944Y3607261D01*
X-2840754Y3639654D01*
X-2843944Y3672047D01*
X-2853393Y3703194D01*
X-2868736Y3731900D01*
X-2889385Y3757062D01*
X-3242939Y4110615D01*
X-3268100Y4131264D01*
X-3296806Y4146608D01*
X-3327954Y4156056D01*
X-3360346Y4159247D01*
D02*
G37*
G36*
X-2023831Y2570912D02*
X-2029885Y2569708D01*
X-2035017Y2566279D01*
X-2073519Y2527777D01*
X-2076948Y2522645D01*
X-2078152Y2516591D01*
X-2076948Y2510538D01*
X-2073519Y2505405D01*
X-2063279Y2495166D01*
X-2122352Y2436093D01*
X-2150560Y2464301D01*
X-2160828Y2471161D01*
X-2172939Y2473570D01*
X-2185050Y2471161D01*
X-2195318Y2464301D01*
X-2284696Y2374923D01*
X-2291556Y2364655D01*
X-2293965Y2352544D01*
X-2291556Y2340433D01*
X-2284696Y2330165D01*
X-2195318Y2240787D01*
X-2185050Y2233927D01*
X-2172939Y2231518D01*
X-2160828Y2233927D01*
X-2150560Y2240787D01*
X-2061182Y2330165D01*
X-2054322Y2340433D01*
X-2051913Y2352544D01*
X-2054322Y2364655D01*
X-2061182Y2374923D01*
X-2089390Y2403131D01*
X-2030317Y2462204D01*
X-2020875Y2452761D01*
X-2015742Y2449332D01*
X-2009689Y2448128D01*
X-2003635Y2449332D01*
X-1998503Y2452761D01*
X-1960001Y2491263D01*
X-1956572Y2496395D01*
X-1955368Y2502449D01*
X-1956572Y2508502D01*
X-1960001Y2513635D01*
X-2012645Y2566279D01*
X-2017778Y2569708D01*
X-2023831Y2570912D01*
D02*
G37*
G36*
X2172939Y2447597D02*
X2148337Y2444358D01*
X2125413Y2434863D01*
X2105726Y2419757D01*
X2090620Y2400070D01*
X2081125Y2377146D01*
X2077886Y2352544D01*
X2081125Y2327942D01*
X2090620Y2305017D01*
X2105726Y2285331D01*
X2125413Y2270225D01*
X2148337Y2260730D01*
X2172939Y2257491D01*
X2197541Y2260730D01*
X2220465Y2270225D01*
X2240152Y2285331D01*
X2255258Y2305017D01*
X2264753Y2327942D01*
X2267992Y2352544D01*
X2264753Y2377146D01*
X2255258Y2400070D01*
X2240152Y2419757D01*
X2220465Y2434863D01*
X2197541Y2444358D01*
X2172939Y2447597D01*
D02*
G37*
G36*
X-2352544Y2267992D02*
X-2377146Y2264753D01*
X-2400070Y2255258D01*
X-2419757Y2240152D01*
X-2434863Y2220465D01*
X-2444358Y2197541D01*
X-2447597Y2172939D01*
X-2444358Y2148337D01*
X-2434863Y2125413D01*
X-2419757Y2105726D01*
X-2400070Y2090620D01*
X-2377146Y2081125D01*
X-2352544Y2077886D01*
X-2327942Y2081125D01*
X-2305017Y2090620D01*
X-2285331Y2105726D01*
X-2270225Y2125413D01*
X-2260730Y2148337D01*
X-2257491Y2172939D01*
X-2260730Y2197541D01*
X-2270225Y2220465D01*
X-2285331Y2240152D01*
X-2305017Y2255258D01*
X-2327942Y2264753D01*
X-2352544Y2267992D01*
D02*
G37*
G36*
X2352544Y2293965D02*
X2340433Y2291556D01*
X2330165Y2284696D01*
X2240787Y2195318D01*
X2233927Y2185050D01*
X2231518Y2172939D01*
X2233927Y2160828D01*
X2240787Y2150560D01*
X2330165Y2061182D01*
X2340433Y2054322D01*
X2352544Y2051913D01*
X2364655Y2054322D01*
X2374923Y2061182D01*
X2400989Y2087249D01*
X2454982Y2033256D01*
X2445141Y2023415D01*
X2441712Y2018282D01*
X2440508Y2012229D01*
X2441712Y2006175D01*
X2445141Y2001043D01*
X2483643Y1962541D01*
X2488775Y1959112D01*
X2494829Y1957908D01*
X2500882Y1959112D01*
X2506015Y1962541D01*
X2558659Y2015185D01*
X2562088Y2020318D01*
X2563292Y2026371D01*
X2562088Y2032425D01*
X2558659Y2037557D01*
X2520157Y2076059D01*
X2515025Y2079488D01*
X2508971Y2080692D01*
X2502918Y2079488D01*
X2497785Y2076059D01*
X2487944Y2066218D01*
X2433951Y2120211D01*
X2464301Y2150560D01*
X2471161Y2160828D01*
X2473570Y2172939D01*
X2471161Y2185050D01*
X2464301Y2195318D01*
X2374923Y2284696D01*
X2364655Y2291556D01*
X2352544Y2293965D01*
D02*
G37*
G36*
X-1454871Y2004492D02*
X-1460925Y2003288D01*
X-1466057Y1999859D01*
X-1504559Y1961357D01*
X-1507988Y1956225D01*
X-1509192Y1950171D01*
X-1507988Y1944118D01*
X-1504559Y1938985D01*
X-1494718Y1929144D01*
X-1555061Y1868801D01*
X-1584875Y1898615D01*
X-1595142Y1905475D01*
X-1607254Y1907885D01*
X-1619365Y1905475D01*
X-1629632Y1898615D01*
X-1719010Y1809237D01*
X-1725871Y1798970D01*
X-1728280Y1786859D01*
X-1725871Y1774747D01*
X-1719010Y1764480D01*
X-1629632Y1675102D01*
X-1619365Y1668242D01*
X-1607254Y1665832D01*
X-1595142Y1668242D01*
X-1584875Y1675102D01*
X-1495497Y1764480D01*
X-1488637Y1774747D01*
X-1486227Y1786859D01*
X-1488637Y1798970D01*
X-1495497Y1809237D01*
X-1522099Y1835839D01*
X-1461756Y1896182D01*
X-1451915Y1886341D01*
X-1446782Y1882912D01*
X-1440729Y1881708D01*
X-1434675Y1882912D01*
X-1429543Y1886341D01*
X-1391041Y1924843D01*
X-1387612Y1929975D01*
X-1386408Y1936029D01*
X-1387612Y1942082D01*
X-1391041Y1947215D01*
X-1443685Y1999859D01*
X-1448818Y2003288D01*
X-1454871Y2004492D01*
D02*
G37*
G36*
X2611502Y1978161D02*
X2605448Y1976957D01*
X2600316Y1973528D01*
X2547672Y1920884D01*
X2544243Y1915752D01*
X2543039Y1909698D01*
X2544243Y1903644D01*
X2547672Y1898512D01*
X2556792Y1889393D01*
X2066657Y1399258D01*
X2063888Y1402028D01*
X2058756Y1405457D01*
X2052702Y1406661D01*
X2046648Y1405457D01*
X2041516Y1402028D01*
X1988872Y1349384D01*
X1985443Y1344252D01*
X1984239Y1338198D01*
X1985443Y1332144D01*
X1988872Y1327012D01*
X1991642Y1324243D01*
X1495157Y827758D01*
X1492388Y830528D01*
X1487256Y833957D01*
X1481202Y835161D01*
X1475148Y833957D01*
X1470016Y830528D01*
X1417372Y777884D01*
X1413943Y772752D01*
X1412739Y766698D01*
X1413943Y760644D01*
X1417372Y755512D01*
X1420142Y752743D01*
X1076650Y409251D01*
X1076649Y409250D01*
X936357Y268958D01*
X933588Y271728D01*
X928456Y275157D01*
X922402Y276361D01*
X916348Y275157D01*
X911216Y271728D01*
X858572Y219084D01*
X855143Y213952D01*
X853939Y207898D01*
X855143Y201844D01*
X858572Y196712D01*
X897074Y158211D01*
X902206Y154782D01*
X908259Y153577D01*
X914313Y154782D01*
X919445Y158211D01*
X972089Y210855D01*
X975518Y215987D01*
X976723Y222041D01*
X975518Y228094D01*
X972089Y233226D01*
X969320Y235996D01*
X1093131Y359807D01*
X2908179Y-1455241D01*
Y-2466277D01*
X2891661Y-2477314D01*
X2879452Y-2495586D01*
X2875165Y-2517140D01*
X2879452Y-2538694D01*
X2891661Y-2556966D01*
X2909933Y-2569175D01*
X2931487Y-2573462D01*
X2953041Y-2569175D01*
X2971313Y-2556966D01*
X2983522Y-2538694D01*
X2987809Y-2517140D01*
X2983522Y-2495586D01*
X2971313Y-2477314D01*
X2954795Y-2466277D01*
Y-1445587D01*
X2953021Y-1436668D01*
X2947968Y-1429106D01*
X1126093Y392769D01*
X1453104Y719781D01*
X1455874Y717011D01*
X1461006Y713582D01*
X1467059Y712377D01*
X1473113Y713582D01*
X1478245Y717011D01*
X1530889Y769655D01*
X1534318Y774787D01*
X1535523Y780841D01*
X1534318Y786894D01*
X1530889Y792026D01*
X1528120Y794796D01*
X2024604Y1291280D01*
X2027374Y1288511D01*
X2032506Y1285082D01*
X2038559Y1283877D01*
X2044613Y1285082D01*
X2049745Y1288511D01*
X2102389Y1341155D01*
X2105818Y1346287D01*
X2107023Y1352341D01*
X2105818Y1358394D01*
X2102389Y1363526D01*
X2099619Y1366296D01*
X2590466Y1857143D01*
X2591306Y1856582D01*
X2597359Y1855377D01*
X2603413Y1856582D01*
X2608545Y1860011D01*
X2661189Y1912655D01*
X2664618Y1917787D01*
X2665823Y1923841D01*
X2664618Y1929894D01*
X2661189Y1935026D01*
X2622688Y1973528D01*
X2617556Y1976957D01*
X2611502Y1978161D01*
D02*
G37*
G36*
X1607254Y1881912D02*
X1582652Y1878673D01*
X1559727Y1869177D01*
X1540041Y1854071D01*
X1524935Y1834385D01*
X1515439Y1811460D01*
X1512200Y1786859D01*
X1515439Y1762257D01*
X1524935Y1739332D01*
X1540041Y1719646D01*
X1559727Y1704540D01*
X1582652Y1695044D01*
X1607254Y1691805D01*
X1631855Y1695044D01*
X1654780Y1704540D01*
X1674466Y1719646D01*
X1689572Y1739332D01*
X1699068Y1762257D01*
X1702307Y1786859D01*
X1699068Y1811460D01*
X1689572Y1834385D01*
X1674466Y1854071D01*
X1654780Y1869177D01*
X1631855Y1878673D01*
X1607254Y1881912D01*
D02*
G37*
G36*
X-1786859Y1702307D02*
X-1811460Y1699068D01*
X-1834385Y1689572D01*
X-1854071Y1674466D01*
X-1869177Y1654780D01*
X-1878673Y1631855D01*
X-1881912Y1607254D01*
X-1878673Y1582652D01*
X-1869177Y1559727D01*
X-1854071Y1540041D01*
X-1834385Y1524935D01*
X-1811460Y1515439D01*
X-1786859Y1512200D01*
X-1762257Y1515439D01*
X-1739332Y1524935D01*
X-1719646Y1540041D01*
X-1704540Y1559727D01*
X-1695044Y1582652D01*
X-1691805Y1607254D01*
X-1695044Y1631855D01*
X-1704540Y1654780D01*
X-1719646Y1674466D01*
X-1739332Y1689572D01*
X-1762257Y1699068D01*
X-1786859Y1702307D01*
D02*
G37*
G36*
X1786859Y1728280D02*
X1774747Y1725871D01*
X1764480Y1719010D01*
X1675102Y1629632D01*
X1668242Y1619365D01*
X1665832Y1607254D01*
X1668242Y1595142D01*
X1675102Y1584875D01*
X1764480Y1495497D01*
X1774747Y1488637D01*
X1786859Y1486227D01*
X1798970Y1488637D01*
X1809237Y1495497D01*
X1835839Y1522099D01*
X1896182Y1461756D01*
X1886341Y1451915D01*
X1882912Y1446782D01*
X1881708Y1440729D01*
X1882912Y1434675D01*
X1886341Y1429543D01*
X1924843Y1391041D01*
X1929975Y1387612D01*
X1936029Y1386408D01*
X1942082Y1387612D01*
X1947215Y1391041D01*
X1999859Y1443685D01*
X2003288Y1448818D01*
X2004492Y1454871D01*
X2003288Y1460925D01*
X1999859Y1466057D01*
X1961357Y1504559D01*
X1956225Y1507988D01*
X1950171Y1509192D01*
X1944118Y1507988D01*
X1938985Y1504559D01*
X1929144Y1494718D01*
X1868801Y1555061D01*
X1898615Y1584875D01*
X1905475Y1595142D01*
X1907885Y1607254D01*
X1905475Y1619365D01*
X1898615Y1629632D01*
X1809237Y1719010D01*
X1798970Y1725871D01*
X1786859Y1728280D01*
D02*
G37*
G36*
X-883371Y1432992D02*
X-889425Y1431788D01*
X-894557Y1428359D01*
X-933059Y1389857D01*
X-936488Y1384725D01*
X-937692Y1378671D01*
X-936488Y1372618D01*
X-933059Y1367485D01*
X-923218Y1357644D01*
X-983561Y1297301D01*
X-1019190Y1332930D01*
X-1029457Y1339790D01*
X-1041568Y1342199D01*
X-1053680Y1339790D01*
X-1063947Y1332930D01*
X-1153325Y1243552D01*
X-1160185Y1233285D01*
X-1162595Y1221173D01*
X-1160185Y1209062D01*
X-1153325Y1198795D01*
X-1063947Y1109417D01*
X-1053680Y1102556D01*
X-1041568Y1100147D01*
X-1029457Y1102556D01*
X-1019190Y1109417D01*
X-929812Y1198795D01*
X-922951Y1209062D01*
X-920542Y1221173D01*
X-922951Y1233285D01*
X-929812Y1243552D01*
X-950599Y1264339D01*
X-890256Y1324682D01*
X-880415Y1314841D01*
X-875282Y1311412D01*
X-869229Y1310208D01*
X-863175Y1311412D01*
X-858043Y1314841D01*
X-819541Y1353343D01*
X-816112Y1358475D01*
X-814908Y1364529D01*
X-816112Y1370582D01*
X-819541Y1375715D01*
X-872185Y1428359D01*
X-877318Y1431788D01*
X-883371Y1432992D01*
D02*
G37*
G36*
X1041568Y1316226D02*
X1016967Y1312988D01*
X994042Y1303492D01*
X974356Y1288386D01*
X959250Y1268700D01*
X949754Y1245775D01*
X946515Y1221173D01*
X949754Y1196572D01*
X959250Y1173647D01*
X974356Y1153961D01*
X994042Y1138855D01*
X1016967Y1129359D01*
X1041568Y1126120D01*
X1066170Y1129359D01*
X1089095Y1138855D01*
X1108781Y1153961D01*
X1123887Y1173647D01*
X1133383Y1196572D01*
X1136622Y1221173D01*
X1133383Y1245775D01*
X1123887Y1268700D01*
X1108781Y1288386D01*
X1089095Y1303492D01*
X1066170Y1312988D01*
X1041568Y1316226D01*
D02*
G37*
G36*
X-1221173Y1136622D02*
X-1245775Y1133383D01*
X-1268700Y1123887D01*
X-1288386Y1108781D01*
X-1303492Y1089095D01*
X-1312988Y1066170D01*
X-1316226Y1041568D01*
X-1312988Y1016967D01*
X-1303492Y994042D01*
X-1288386Y974356D01*
X-1268700Y959250D01*
X-1245775Y949754D01*
X-1221173Y946515D01*
X-1196572Y949754D01*
X-1173647Y959250D01*
X-1153961Y974356D01*
X-1138855Y994042D01*
X-1129359Y1016967D01*
X-1126120Y1041568D01*
X-1129359Y1066170D01*
X-1138855Y1089095D01*
X-1153961Y1108781D01*
X-1173647Y1123887D01*
X-1196572Y1133383D01*
X-1221173Y1136622D01*
D02*
G37*
G36*
X-1921301Y2673443D02*
X-1927354Y2672238D01*
X-1932486Y2668809D01*
X-1970988Y2630308D01*
X-1974417Y2625176D01*
X-1975621Y2619122D01*
X-1974417Y2613068D01*
X-1970988Y2607936D01*
X-1918344Y2555292D01*
X-1913212Y2551863D01*
X-1907158Y2550659D01*
X-1901104Y2551863D01*
X-1895972Y2555292D01*
X-1893203Y2558062D01*
X-1400528Y2065387D01*
X-1402028Y2063888D01*
X-1405457Y2058756D01*
X-1406661Y2052702D01*
X-1405457Y2046648D01*
X-1402028Y2041516D01*
X-1349384Y1988872D01*
X-1344252Y1985443D01*
X-1338198Y1984239D01*
X-1332144Y1985443D01*
X-1327012Y1988872D01*
X-1324243Y1991642D01*
X-1107721Y1775121D01*
X-3145761Y-262919D01*
X-3150814Y-270481D01*
X-3152588Y-279400D01*
Y-2976880D01*
X-3150814Y-2985799D01*
X-3145761Y-2993361D01*
X-3034406Y-3104716D01*
X-3038282Y-3124200D01*
X-3033995Y-3145754D01*
X-3021786Y-3164026D01*
X-3003514Y-3176235D01*
X-2981960Y-3180522D01*
X-2960406Y-3176235D01*
X-2942134Y-3164026D01*
X-2929925Y-3145754D01*
X-2925638Y-3124200D01*
X-2929925Y-3102646D01*
X-2942134Y-3084374D01*
X-2960406Y-3072165D01*
X-2981960Y-3067878D01*
X-3001444Y-3071754D01*
X-3105972Y-2967226D01*
Y-289054D01*
X-1074759Y1742159D01*
X-827758Y1495157D01*
X-830528Y1492388D01*
X-833957Y1487256D01*
X-835161Y1481202D01*
X-833957Y1475148D01*
X-830528Y1470016D01*
X-777884Y1417372D01*
X-772752Y1413943D01*
X-766698Y1412739D01*
X-760644Y1413943D01*
X-755512Y1417372D01*
X-752743Y1420142D01*
X-268958Y936357D01*
X-271728Y933588D01*
X-275157Y928456D01*
X-276361Y922402D01*
X-275157Y916348D01*
X-271728Y911216D01*
X-219084Y858572D01*
X-213952Y855143D01*
X-207898Y853939D01*
X-201844Y855143D01*
X-196712Y858572D01*
X-158211Y897074D01*
X-154782Y902206D01*
X-153577Y908259D01*
X-154782Y914313D01*
X-158211Y919445D01*
X-210855Y972089D01*
X-215987Y975518D01*
X-222041Y976723D01*
X-228094Y975518D01*
X-233226Y972089D01*
X-235996Y969319D01*
X-719781Y1453104D01*
X-717011Y1455874D01*
X-713582Y1461006D01*
X-712377Y1467059D01*
X-713582Y1473113D01*
X-717011Y1478245D01*
X-769655Y1530889D01*
X-774787Y1534318D01*
X-780841Y1535523D01*
X-786894Y1534318D01*
X-792026Y1530889D01*
X-794796Y1528119D01*
X-1058278Y1791601D01*
X-1058278Y1791602D01*
X-1291280Y2024604D01*
X-1288511Y2027374D01*
X-1285082Y2032506D01*
X-1283877Y2038559D01*
X-1285082Y2044613D01*
X-1288511Y2049745D01*
X-1341155Y2102389D01*
X-1346287Y2105818D01*
X-1352341Y2107023D01*
X-1358394Y2105818D01*
X-1363526Y2102389D01*
X-1367566Y2098349D01*
X-1860241Y2591024D01*
X-1857471Y2593794D01*
X-1854042Y2598926D01*
X-1852837Y2604979D01*
X-1854042Y2611033D01*
X-1857471Y2616165D01*
X-1910115Y2668809D01*
X-1915247Y2672238D01*
X-1921301Y2673443D01*
D02*
G37*
G36*
X1221173Y1162595D02*
X1209062Y1160185D01*
X1198795Y1153325D01*
X1109417Y1063947D01*
X1102556Y1053680D01*
X1100147Y1041568D01*
X1102556Y1029457D01*
X1109417Y1019190D01*
X1198795Y929812D01*
X1209062Y922951D01*
X1221173Y920542D01*
X1233285Y922951D01*
X1243552Y929812D01*
X1264339Y950599D01*
X1324682Y890256D01*
X1314841Y880415D01*
X1311412Y875282D01*
X1310208Y869229D01*
X1311412Y863175D01*
X1314841Y858043D01*
X1353343Y819541D01*
X1358475Y816112D01*
X1364529Y814908D01*
X1370582Y816112D01*
X1375715Y819541D01*
X1428359Y872185D01*
X1431788Y877318D01*
X1432992Y883371D01*
X1431788Y889425D01*
X1428359Y894557D01*
X1389857Y933059D01*
X1384725Y936488D01*
X1378671Y937692D01*
X1372618Y936488D01*
X1367485Y933059D01*
X1357644Y923218D01*
X1297301Y983561D01*
X1332930Y1019190D01*
X1339790Y1029457D01*
X1342199Y1041568D01*
X1339790Y1053680D01*
X1332930Y1063947D01*
X1243552Y1153325D01*
X1233285Y1160185D01*
X1221173Y1162595D01*
D02*
G37*
G36*
X-324571Y874192D02*
X-330625Y872988D01*
X-335757Y869559D01*
X-374259Y831057D01*
X-377688Y825925D01*
X-378892Y819871D01*
X-377688Y813818D01*
X-374259Y808685D01*
X-364418Y798844D01*
X-424761Y738501D01*
X-453504Y767245D01*
X-463772Y774105D01*
X-475883Y776514D01*
X-487994Y774105D01*
X-498262Y767245D01*
X-587640Y677867D01*
X-594500Y667599D01*
X-596909Y655488D01*
X-594500Y643377D01*
X-587640Y633109D01*
X-498262Y543731D01*
X-487994Y536871D01*
X-475883Y534462D01*
X-463772Y536871D01*
X-453504Y543731D01*
X-364126Y633109D01*
X-357266Y643377D01*
X-354857Y655488D01*
X-357266Y667599D01*
X-364126Y677867D01*
X-391799Y705539D01*
X-331456Y765882D01*
X-321615Y756041D01*
X-316482Y752612D01*
X-310429Y751408D01*
X-304375Y752612D01*
X-299243Y756041D01*
X-260741Y794543D01*
X-257312Y799675D01*
X-256108Y805729D01*
X-257312Y811782D01*
X-260741Y816915D01*
X-313385Y869559D01*
X-318518Y872988D01*
X-324571Y874192D01*
D02*
G37*
G36*
X475883Y750541D02*
X451282Y747302D01*
X428357Y737806D01*
X408670Y722701D01*
X393564Y703014D01*
X384069Y680089D01*
X380830Y655488D01*
X384069Y630886D01*
X393564Y607961D01*
X408670Y588275D01*
X428357Y573169D01*
X451282Y563673D01*
X475883Y560435D01*
X500484Y563673D01*
X523409Y573169D01*
X543096Y588275D01*
X558202Y607961D01*
X567697Y630886D01*
X570936Y655488D01*
X567697Y680089D01*
X558202Y703014D01*
X543096Y722701D01*
X523409Y737806D01*
X500484Y747302D01*
X475883Y750541D01*
D02*
G37*
G36*
X-655488Y570936D02*
X-680089Y567697D01*
X-703014Y558202D01*
X-722701Y543096D01*
X-737806Y523409D01*
X-747302Y500484D01*
X-750541Y475883D01*
X-747302Y451282D01*
X-737806Y428357D01*
X-722701Y408670D01*
X-703014Y393564D01*
X-680089Y384069D01*
X-655488Y380830D01*
X-630886Y384069D01*
X-607961Y393564D01*
X-588275Y408670D01*
X-573169Y428357D01*
X-563673Y451282D01*
X-560435Y475883D01*
X-563673Y500484D01*
X-573169Y523409D01*
X-588275Y543096D01*
X-607961Y558202D01*
X-630886Y567697D01*
X-655488Y570936D01*
D02*
G37*
G36*
X655488Y596909D02*
X643377Y594500D01*
X633109Y587640D01*
X543731Y498262D01*
X536871Y487994D01*
X534462Y475883D01*
X536871Y463772D01*
X543731Y453504D01*
X633109Y364126D01*
X643377Y357266D01*
X655488Y354857D01*
X667599Y357266D01*
X677867Y364126D01*
X705539Y391799D01*
X765882Y331456D01*
X756041Y321615D01*
X752612Y316482D01*
X751408Y310429D01*
X752612Y304375D01*
X756041Y299243D01*
X794543Y260741D01*
X799675Y257312D01*
X805729Y256108D01*
X811782Y257312D01*
X816915Y260741D01*
X869559Y313385D01*
X872988Y318518D01*
X874192Y324571D01*
X872988Y330625D01*
X869559Y335757D01*
X831057Y374259D01*
X825925Y377688D01*
X819871Y378892D01*
X813818Y377688D01*
X808685Y374259D01*
X798844Y364418D01*
X738501Y424761D01*
X767245Y453504D01*
X774105Y463772D01*
X776514Y475883D01*
X774105Y487994D01*
X767245Y498262D01*
X677867Y587640D01*
X667599Y594500D01*
X655488Y596909D01*
D02*
G37*
G36*
X0Y222053D02*
X-24602Y218814D01*
X-47526Y209318D01*
X-67213Y194213D01*
X-82318Y174526D01*
X-91814Y151602D01*
X-95053Y127000D01*
X-91814Y102398D01*
X-82318Y79474D01*
X-67213Y59787D01*
X-47526Y44682D01*
X-24602Y35186D01*
X0Y31947D01*
X24602Y35186D01*
X47526Y44682D01*
X67213Y59787D01*
X82318Y79474D01*
X91814Y102398D01*
X95053Y127000D01*
X91814Y151602D01*
X82318Y174526D01*
X67213Y194213D01*
X47526Y209318D01*
X24602Y218814D01*
X0Y222053D01*
D02*
G37*
G36*
X-1222122Y112622D02*
X-1252206Y108661D01*
X-1280240Y97049D01*
X-1304312Y78577D01*
X-1322784Y54504D01*
X-1334396Y26471D01*
X-1338357Y-3613D01*
X-1334396Y-33697D01*
X-1322784Y-61730D01*
X-1318624Y-67152D01*
X-2838421Y-1586950D01*
X-2843474Y-1594511D01*
X-2845248Y-1603431D01*
Y-2067560D01*
X-2843474Y-2076479D01*
X-2838421Y-2084041D01*
X-2525208Y-2397254D01*
Y-2938780D01*
X-2523434Y-2947699D01*
X-2518381Y-2955261D01*
X-2226281Y-3247361D01*
X-2218719Y-3252414D01*
X-2209800Y-3254188D01*
X-1412240D01*
X-1403321Y-3252414D01*
X-1395759Y-3247361D01*
X-1072074Y-2923676D01*
X-1067021Y-2916114D01*
X-1065247Y-2907195D01*
Y-2277874D01*
X-967790Y-2180418D01*
X-873734D01*
Y-2194335D01*
X-872530Y-2200389D01*
X-869101Y-2205521D01*
X-863969Y-2208950D01*
X-857915Y-2210154D01*
X-803465D01*
X-797411Y-2208950D01*
X-792279Y-2205521D01*
X-788850Y-2200389D01*
X-787646Y-2194335D01*
Y-2119885D01*
X-788850Y-2113831D01*
X-792279Y-2108699D01*
X-797411Y-2105270D01*
X-803465Y-2104066D01*
X-857915D01*
X-863969Y-2105270D01*
X-869101Y-2108699D01*
X-872530Y-2113831D01*
X-873734Y-2119885D01*
Y-2133802D01*
X-977445D01*
X-986364Y-2135576D01*
X-993926Y-2140629D01*
X-1105036Y-2251739D01*
X-1110088Y-2259301D01*
X-1111862Y-2268220D01*
Y-2897540D01*
X-1421894Y-3207572D01*
X-2200145D01*
X-2478592Y-2929126D01*
Y-2387600D01*
X-2480366Y-2378681D01*
X-2485419Y-2371119D01*
X-2798632Y-2057906D01*
Y-1613085D01*
X-1285662Y-100114D01*
X-1280240Y-104275D01*
X-1252206Y-115887D01*
X-1222122Y-119847D01*
X-1192039Y-115887D01*
X-1164005Y-104275D01*
X-1139932Y-85803D01*
X-1121460Y-61730D01*
X-1109848Y-33697D01*
X-1105888Y-3613D01*
X-1109848Y26471D01*
X-1121460Y54504D01*
X-1139932Y78577D01*
X-1164005Y97049D01*
X-1192039Y108661D01*
X-1222122Y112622D01*
D02*
G37*
G36*
X-1982122D02*
X-2012206Y108661D01*
X-2040240Y97049D01*
X-2064312Y78577D01*
X-2082784Y54504D01*
X-2094396Y26471D01*
X-2098357Y-3613D01*
X-2094396Y-33697D01*
X-2082784Y-61730D01*
X-2078624Y-67152D01*
X-2932401Y-920930D01*
X-2937454Y-928491D01*
X-2939228Y-937411D01*
Y-2082954D01*
X-2937454Y-2091874D01*
X-2932401Y-2099435D01*
X-2594808Y-2437029D01*
Y-3011420D01*
X-2593034Y-3020339D01*
X-2587981Y-3027901D01*
X-2266921Y-3348961D01*
X-2259359Y-3354014D01*
X-2250440Y-3355788D01*
X-1384300D01*
X-1375381Y-3354014D01*
X-1367819Y-3348961D01*
X-971660Y-2952802D01*
X-966608Y-2945241D01*
X-964833Y-2936321D01*
Y-2356495D01*
X-934156Y-2325818D01*
X-873734D01*
Y-2339735D01*
X-872530Y-2345789D01*
X-869101Y-2350921D01*
X-863969Y-2354350D01*
X-857915Y-2355554D01*
X-803465D01*
X-797411Y-2354350D01*
X-792279Y-2350921D01*
X-788850Y-2345789D01*
X-787646Y-2339735D01*
Y-2265285D01*
X-788850Y-2259231D01*
X-792279Y-2254099D01*
X-797411Y-2250670D01*
X-803465Y-2249466D01*
X-857915D01*
X-863969Y-2250670D01*
X-869101Y-2254099D01*
X-872530Y-2259231D01*
X-873734Y-2265285D01*
Y-2279202D01*
X-943810D01*
X-952730Y-2280976D01*
X-960291Y-2286029D01*
X-1004622Y-2330360D01*
X-1009675Y-2337921D01*
X-1011449Y-2346841D01*
Y-2926667D01*
X-1393954Y-3309172D01*
X-2240785D01*
X-2548192Y-3001766D01*
Y-2427374D01*
X-2549966Y-2418455D01*
X-2555019Y-2410893D01*
X-2892612Y-2073300D01*
Y-947065D01*
X-2045662Y-100114D01*
X-2040240Y-104275D01*
X-2012206Y-115887D01*
X-1982122Y-119847D01*
X-1952039Y-115887D01*
X-1924005Y-104275D01*
X-1899932Y-85803D01*
X-1881460Y-61730D01*
X-1869848Y-33697D01*
X-1865888Y-3613D01*
X-1869848Y26471D01*
X-1881460Y54504D01*
X-1899932Y78577D01*
X-1924005Y97049D01*
X-1952039Y108661D01*
X-1982122Y112622D01*
D02*
G37*
G36*
X-908259Y-153577D02*
X-914313Y-154782D01*
X-919445Y-158211D01*
X-972089Y-210855D01*
X-975518Y-215987D01*
X-976723Y-222041D01*
X-975518Y-228094D01*
X-972089Y-233226D01*
X-969319Y-235996D01*
X-1453104Y-719781D01*
X-1455874Y-717011D01*
X-1461006Y-713582D01*
X-1467059Y-712377D01*
X-1473113Y-713582D01*
X-1478245Y-717011D01*
X-1530889Y-769655D01*
X-1534318Y-774787D01*
X-1535523Y-780841D01*
X-1534318Y-786894D01*
X-1530889Y-792026D01*
X-1528120Y-794796D01*
X-2024604Y-1291280D01*
X-2027374Y-1288511D01*
X-2032506Y-1285082D01*
X-2038559Y-1283877D01*
X-2044613Y-1285082D01*
X-2049745Y-1288511D01*
X-2102389Y-1341155D01*
X-2105818Y-1346287D01*
X-2107023Y-1352341D01*
X-2105818Y-1358394D01*
X-2102389Y-1363526D01*
X-2093269Y-1372646D01*
X-2583404Y-1862781D01*
X-2586174Y-1860011D01*
X-2591306Y-1856582D01*
X-2597359Y-1855377D01*
X-2603413Y-1856582D01*
X-2608545Y-1860011D01*
X-2661189Y-1912655D01*
X-2664618Y-1917787D01*
X-2665823Y-1923841D01*
X-2664618Y-1929894D01*
X-2661189Y-1935026D01*
X-2658419Y-1937796D01*
X-2683481Y-1962858D01*
X-2688534Y-1970419D01*
X-2690308Y-1979339D01*
Y-2020034D01*
X-2706826Y-2031071D01*
X-2719035Y-2049343D01*
X-2723322Y-2070897D01*
X-2719035Y-2092450D01*
X-2706826Y-2110722D01*
X-2688554Y-2122931D01*
X-2667000Y-2127219D01*
X-2645446Y-2122931D01*
X-2627174Y-2110722D01*
X-2614965Y-2092450D01*
X-2610678Y-2070897D01*
X-2614965Y-2049343D01*
X-2627174Y-2031071D01*
X-2643692Y-2020034D01*
Y-1988993D01*
X-2625457Y-1970758D01*
X-2622688Y-1973528D01*
X-2617556Y-1976957D01*
X-2611502Y-1978161D01*
X-2605448Y-1976957D01*
X-2600316Y-1973528D01*
X-2547672Y-1920884D01*
X-2544243Y-1915752D01*
X-2543039Y-1909698D01*
X-2544243Y-1903644D01*
X-2547672Y-1898512D01*
X-2550442Y-1895743D01*
X-2059595Y-1404896D01*
X-2058756Y-1405457D01*
X-2052702Y-1406661D01*
X-2046648Y-1405457D01*
X-2041516Y-1402028D01*
X-1988872Y-1349384D01*
X-1985443Y-1344252D01*
X-1984239Y-1338198D01*
X-1985443Y-1332144D01*
X-1988872Y-1327012D01*
X-1991642Y-1324243D01*
X-1495157Y-827758D01*
X-1492388Y-830528D01*
X-1487256Y-833957D01*
X-1481202Y-835161D01*
X-1475148Y-833957D01*
X-1470016Y-830528D01*
X-1417372Y-777884D01*
X-1413943Y-772752D01*
X-1412739Y-766698D01*
X-1413943Y-760644D01*
X-1417372Y-755512D01*
X-1420142Y-752743D01*
X-936357Y-268958D01*
X-933588Y-271728D01*
X-928456Y-275157D01*
X-922402Y-276361D01*
X-916348Y-275157D01*
X-911216Y-271728D01*
X-858572Y-219084D01*
X-855143Y-213952D01*
X-853939Y-207898D01*
X-855143Y-201844D01*
X-858572Y-196712D01*
X-897074Y-158211D01*
X-902206Y-154782D01*
X-908259Y-153577D01*
D02*
G37*
G36*
X63200Y-32152D02*
X-63200D01*
X-75311Y-34561D01*
X-85578Y-41422D01*
X-92439Y-51689D01*
X-94848Y-63800D01*
Y-190200D01*
X-92439Y-202311D01*
X-85578Y-212578D01*
X-75311Y-219439D01*
X-63200Y-221848D01*
X-23308D01*
Y-277296D01*
X-37225D01*
X-43279Y-278501D01*
X-48411Y-281930D01*
X-51840Y-287062D01*
X-53044Y-293115D01*
Y-347565D01*
X-51840Y-353619D01*
X-48411Y-358751D01*
X-43279Y-362180D01*
X-37225Y-363384D01*
X37225D01*
X43279Y-362180D01*
X48411Y-358751D01*
X51840Y-353619D01*
X53044Y-347565D01*
Y-293115D01*
X51840Y-287062D01*
X48411Y-281930D01*
X43279Y-278501D01*
X37225Y-277296D01*
X23308D01*
Y-221848D01*
X63200D01*
X75311Y-219439D01*
X85578Y-212578D01*
X92439Y-202311D01*
X94848Y-190200D01*
Y-63800D01*
X92439Y-51689D01*
X85578Y-41422D01*
X75311Y-34561D01*
X63200Y-32152D01*
D02*
G37*
G36*
X790489Y-271348D02*
X784435Y-272552D01*
X779303Y-275981D01*
X740801Y-314483D01*
X737372Y-319615D01*
X736168Y-325669D01*
X737372Y-331722D01*
X740801Y-336855D01*
X750642Y-346696D01*
X705539Y-391799D01*
X677867Y-364126D01*
X667599Y-357266D01*
X655488Y-354857D01*
X643377Y-357266D01*
X633109Y-364126D01*
X543731Y-453504D01*
X536871Y-463772D01*
X534462Y-475883D01*
X536871Y-487994D01*
X543731Y-498262D01*
X633109Y-587640D01*
X643377Y-594500D01*
X655488Y-596909D01*
X667599Y-594500D01*
X677867Y-587640D01*
X767245Y-498262D01*
X774105Y-487994D01*
X776514Y-475883D01*
X774105Y-463772D01*
X767245Y-453504D01*
X738501Y-424761D01*
X783604Y-379658D01*
X793445Y-389499D01*
X798578Y-392928D01*
X804631Y-394132D01*
X810685Y-392928D01*
X815817Y-389499D01*
X854319Y-350997D01*
X857748Y-345865D01*
X858952Y-339811D01*
X857748Y-333758D01*
X854319Y-328625D01*
X801675Y-275981D01*
X796542Y-272552D01*
X790489Y-271348D01*
D02*
G37*
G36*
X-805729Y-256108D02*
X-811782Y-257312D01*
X-816915Y-260741D01*
X-869559Y-313385D01*
X-872988Y-318518D01*
X-874192Y-324571D01*
X-872988Y-330625D01*
X-869559Y-335757D01*
X-831057Y-374259D01*
X-825925Y-377688D01*
X-819871Y-378892D01*
X-813818Y-377688D01*
X-808685Y-374259D01*
X-798844Y-364418D01*
X-738501Y-424761D01*
X-767245Y-453504D01*
X-774105Y-463772D01*
X-776514Y-475883D01*
X-774105Y-487994D01*
X-767245Y-498262D01*
X-677867Y-587640D01*
X-667599Y-594500D01*
X-655488Y-596909D01*
X-643377Y-594500D01*
X-633109Y-587640D01*
X-543731Y-498262D01*
X-536871Y-487994D01*
X-534462Y-475883D01*
X-536871Y-463772D01*
X-543731Y-453504D01*
X-633109Y-364126D01*
X-643377Y-357266D01*
X-655488Y-354857D01*
X-667599Y-357266D01*
X-677867Y-364126D01*
X-705539Y-391799D01*
X-765882Y-331456D01*
X-756041Y-321615D01*
X-752612Y-316482D01*
X-751408Y-310429D01*
X-752612Y-304375D01*
X-756041Y-299243D01*
X-794543Y-260741D01*
X-799675Y-257312D01*
X-805729Y-256108D01*
D02*
G37*
G36*
X-475883Y-560435D02*
X-500484Y-563673D01*
X-523409Y-573169D01*
X-543096Y-588275D01*
X-558202Y-607961D01*
X-567697Y-630886D01*
X-570936Y-655488D01*
X-567697Y-680089D01*
X-558202Y-703014D01*
X-543096Y-722701D01*
X-523409Y-737806D01*
X-500484Y-747302D01*
X-475883Y-750541D01*
X-451282Y-747302D01*
X-428357Y-737806D01*
X-408670Y-722701D01*
X-393564Y-703014D01*
X-384069Y-680089D01*
X-380830Y-655488D01*
X-384069Y-630886D01*
X-393564Y-607961D01*
X-408670Y-588275D01*
X-428357Y-573169D01*
X-451282Y-563673D01*
X-475883Y-560435D01*
D02*
G37*
G36*
X475883D02*
X451282Y-563673D01*
X428357Y-573169D01*
X408670Y-588275D01*
X393564Y-607961D01*
X384069Y-630886D01*
X380830Y-655488D01*
X384069Y-680089D01*
X393564Y-703014D01*
X408670Y-722701D01*
X428357Y-737806D01*
X451282Y-747302D01*
X452575Y-747472D01*
Y-843848D01*
X430643D01*
Y-954328D01*
X521123D01*
Y-843848D01*
X499191D01*
Y-747472D01*
X500484Y-747302D01*
X523409Y-737806D01*
X543096Y-722701D01*
X558202Y-703014D01*
X567697Y-680089D01*
X570936Y-655488D01*
X567697Y-630886D01*
X558202Y-607961D01*
X543096Y-588275D01*
X523409Y-573169D01*
X500484Y-563673D01*
X475883Y-560435D01*
D02*
G37*
G36*
X1354369Y-837768D02*
X1348315Y-838972D01*
X1343183Y-842401D01*
X1304681Y-880903D01*
X1301252Y-886035D01*
X1300048Y-892089D01*
X1301252Y-898142D01*
X1304681Y-903275D01*
X1314522Y-913116D01*
X1270689Y-956949D01*
X1243552Y-929812D01*
X1233285Y-922951D01*
X1221173Y-920542D01*
X1209062Y-922951D01*
X1198795Y-929812D01*
X1109417Y-1019190D01*
X1102556Y-1029457D01*
X1100147Y-1041568D01*
X1102556Y-1053680D01*
X1109417Y-1063947D01*
X1198795Y-1153325D01*
X1209062Y-1160185D01*
X1221173Y-1162595D01*
X1233285Y-1160185D01*
X1243552Y-1153325D01*
X1332930Y-1063947D01*
X1339790Y-1053680D01*
X1342199Y-1041568D01*
X1339790Y-1029457D01*
X1332930Y-1019190D01*
X1303651Y-989911D01*
X1347484Y-946078D01*
X1357325Y-955919D01*
X1362458Y-959348D01*
X1368511Y-960552D01*
X1374565Y-959348D01*
X1379697Y-955919D01*
X1418199Y-917417D01*
X1421628Y-912285D01*
X1422832Y-906231D01*
X1421628Y-900178D01*
X1418199Y-895045D01*
X1365555Y-842401D01*
X1360422Y-838972D01*
X1354369Y-837768D01*
D02*
G37*
G36*
X-1364529Y-814908D02*
X-1370582Y-816112D01*
X-1375715Y-819541D01*
X-1428359Y-872185D01*
X-1431788Y-877318D01*
X-1432992Y-883371D01*
X-1431788Y-889425D01*
X-1428359Y-894557D01*
X-1389857Y-933059D01*
X-1384725Y-936488D01*
X-1378671Y-937692D01*
X-1372618Y-936488D01*
X-1367485Y-933059D01*
X-1357644Y-923218D01*
X-1297301Y-983561D01*
X-1332930Y-1019190D01*
X-1339790Y-1029457D01*
X-1342199Y-1041568D01*
X-1339790Y-1053680D01*
X-1332930Y-1063947D01*
X-1243552Y-1153325D01*
X-1233285Y-1160185D01*
X-1221173Y-1162595D01*
X-1209062Y-1160185D01*
X-1198795Y-1153325D01*
X-1109417Y-1063947D01*
X-1102556Y-1053680D01*
X-1100147Y-1041568D01*
X-1102556Y-1029457D01*
X-1109417Y-1019190D01*
X-1198795Y-929812D01*
X-1209062Y-922951D01*
X-1221173Y-920542D01*
X-1233285Y-922951D01*
X-1243552Y-929812D01*
X-1264339Y-950599D01*
X-1324682Y-890256D01*
X-1314841Y-880415D01*
X-1311412Y-875282D01*
X-1310208Y-869229D01*
X-1311412Y-863175D01*
X-1314841Y-858043D01*
X-1353343Y-819541D01*
X-1358475Y-816112D01*
X-1364529Y-814908D01*
D02*
G37*
G36*
X380883Y-955266D02*
X359329Y-959553D01*
X341057Y-971762D01*
X328848Y-990034D01*
X324561Y-1011588D01*
X328848Y-1033142D01*
X340879Y-1051148D01*
X340568Y-1052846D01*
X336807Y-1063848D01*
X335643D01*
Y-1174328D01*
X426123D01*
Y-1063848D01*
X424960D01*
X421199Y-1052846D01*
X420887Y-1051148D01*
X432918Y-1033142D01*
X437205Y-1011588D01*
X432918Y-990034D01*
X420709Y-971762D01*
X402437Y-959553D01*
X380883Y-955266D01*
D02*
G37*
G36*
X-1041568Y-1126120D02*
X-1066170Y-1129359D01*
X-1089095Y-1138855D01*
X-1108781Y-1153961D01*
X-1123887Y-1173647D01*
X-1133383Y-1196572D01*
X-1136622Y-1221173D01*
X-1133383Y-1245775D01*
X-1123887Y-1268700D01*
X-1108781Y-1288386D01*
X-1089095Y-1303492D01*
X-1066170Y-1312988D01*
X-1041568Y-1316226D01*
X-1016967Y-1312988D01*
X-994042Y-1303492D01*
X-974356Y-1288386D01*
X-959250Y-1268700D01*
X-949754Y-1245775D01*
X-946515Y-1221173D01*
X-949754Y-1196572D01*
X-959250Y-1173647D01*
X-974356Y-1153961D01*
X-994042Y-1138855D01*
X-1016967Y-1129359D01*
X-1041568Y-1126120D01*
D02*
G37*
G36*
X1041568D02*
X1016967Y-1129359D01*
X994042Y-1138855D01*
X974356Y-1153961D01*
X959250Y-1173647D01*
X949754Y-1196572D01*
X946515Y-1221173D01*
X949754Y-1245775D01*
X959250Y-1268700D01*
X974356Y-1288386D01*
X994042Y-1303492D01*
X1016967Y-1312988D01*
X1018261Y-1313158D01*
Y-1409560D01*
X996328D01*
Y-1520040D01*
X1086808D01*
Y-1409560D01*
X1064876D01*
Y-1313158D01*
X1066170Y-1312988D01*
X1089095Y-1303492D01*
X1108781Y-1288386D01*
X1123887Y-1268700D01*
X1133383Y-1245775D01*
X1136622Y-1221173D01*
X1133383Y-1196572D01*
X1123887Y-1173647D01*
X1108781Y-1153961D01*
X1089095Y-1138855D01*
X1066170Y-1129359D01*
X1041568Y-1126120D01*
D02*
G37*
G36*
X1918249Y-1404188D02*
X1912195Y-1405392D01*
X1907063Y-1408821D01*
X1868561Y-1447323D01*
X1865132Y-1452455D01*
X1863928Y-1458509D01*
X1865132Y-1464562D01*
X1868561Y-1469695D01*
X1878402Y-1479536D01*
X1835839Y-1522099D01*
X1809237Y-1495497D01*
X1798970Y-1488637D01*
X1786859Y-1486227D01*
X1774747Y-1488637D01*
X1764480Y-1495497D01*
X1675102Y-1584875D01*
X1668242Y-1595142D01*
X1665832Y-1607254D01*
X1668242Y-1619365D01*
X1675102Y-1629632D01*
X1764480Y-1719010D01*
X1774747Y-1725871D01*
X1786859Y-1728280D01*
X1798970Y-1725871D01*
X1809237Y-1719010D01*
X1898615Y-1629632D01*
X1905475Y-1619365D01*
X1907885Y-1607254D01*
X1905475Y-1595142D01*
X1898615Y-1584875D01*
X1868801Y-1555061D01*
X1911364Y-1512498D01*
X1921205Y-1522339D01*
X1926338Y-1525768D01*
X1932391Y-1526972D01*
X1938445Y-1525768D01*
X1943577Y-1522339D01*
X1982079Y-1483837D01*
X1985508Y-1478705D01*
X1986712Y-1472651D01*
X1985508Y-1466598D01*
X1982079Y-1461465D01*
X1929435Y-1408821D01*
X1924302Y-1405392D01*
X1918249Y-1404188D01*
D02*
G37*
G36*
X-508915Y-1559908D02*
X-538415D01*
Y-1592757D01*
X-493070D01*
Y-1575752D01*
X-494276Y-1569689D01*
X-497711Y-1564549D01*
X-502851Y-1561114D01*
X-508915Y-1559908D01*
D02*
G37*
G36*
X-563815D02*
X-593315D01*
X-599379Y-1561114D01*
X-604519Y-1564549D01*
X-607954Y-1569689D01*
X-609160Y-1575752D01*
Y-1592757D01*
X-563815D01*
Y-1559908D01*
D02*
G37*
G36*
X-493070Y-1618157D02*
X-538415D01*
Y-1650997D01*
X-508915D01*
X-502851Y-1649791D01*
X-497711Y-1646356D01*
X-494276Y-1641216D01*
X-493070Y-1635152D01*
Y-1618157D01*
D02*
G37*
G36*
X-563815D02*
X-609160D01*
Y-1635152D01*
X-607954Y-1641216D01*
X-604519Y-1646356D01*
X-599379Y-1649791D01*
X-593315Y-1650997D01*
X-563815D01*
Y-1618157D01*
D02*
G37*
G36*
X-1936029Y-1386408D02*
X-1942082Y-1387612D01*
X-1947215Y-1391041D01*
X-1999859Y-1443685D01*
X-2003288Y-1448818D01*
X-2004492Y-1454871D01*
X-2003288Y-1460925D01*
X-1999859Y-1466057D01*
X-1961357Y-1504559D01*
X-1956225Y-1507988D01*
X-1950171Y-1509192D01*
X-1944118Y-1507988D01*
X-1938985Y-1504559D01*
X-1929144Y-1494718D01*
X-1868801Y-1555061D01*
X-1898615Y-1584875D01*
X-1905475Y-1595142D01*
X-1907885Y-1607254D01*
X-1905475Y-1619365D01*
X-1898615Y-1629632D01*
X-1809237Y-1719010D01*
X-1798970Y-1725871D01*
X-1786859Y-1728280D01*
X-1774747Y-1725871D01*
X-1764480Y-1719010D01*
X-1675102Y-1629632D01*
X-1668242Y-1619365D01*
X-1665832Y-1607254D01*
X-1668242Y-1595142D01*
X-1675102Y-1584875D01*
X-1764480Y-1495497D01*
X-1774747Y-1488637D01*
X-1786859Y-1486227D01*
X-1798970Y-1488637D01*
X-1809237Y-1495497D01*
X-1835839Y-1522099D01*
X-1896182Y-1461756D01*
X-1886341Y-1451915D01*
X-1882912Y-1446782D01*
X-1881708Y-1440729D01*
X-1882912Y-1434675D01*
X-1886341Y-1429543D01*
X-1924843Y-1391041D01*
X-1929975Y-1387612D01*
X-1936029Y-1386408D01*
D02*
G37*
G36*
X946569Y-1520961D02*
X925015Y-1525248D01*
X906743Y-1537457D01*
X894534Y-1555729D01*
X890246Y-1577283D01*
X894534Y-1598837D01*
X906576Y-1616860D01*
X906284Y-1618460D01*
X902517Y-1629560D01*
X901329D01*
Y-1740040D01*
X991809D01*
Y-1629560D01*
X990620D01*
X986853Y-1618460D01*
X986561Y-1616860D01*
X998604Y-1598837D01*
X1002891Y-1577283D01*
X998604Y-1555729D01*
X986395Y-1537457D01*
X968122Y-1525248D01*
X946569Y-1520961D01*
D02*
G37*
G36*
X-415640Y-1843052D02*
X-440438D01*
Y-1871383D01*
X-377137D01*
X-377735Y-1868379D01*
X-386629Y-1855069D01*
X-399939Y-1846175D01*
X-415640Y-1843052D01*
D02*
G37*
G36*
X-465838D02*
X-490640D01*
X-506341Y-1846175D01*
X-519651Y-1855069D01*
X-528545Y-1868379D01*
X-529143Y-1871383D01*
X-465838D01*
Y-1843052D01*
D02*
G37*
G36*
X-1607254Y-1691805D02*
X-1631855Y-1695044D01*
X-1654780Y-1704540D01*
X-1674466Y-1719646D01*
X-1689572Y-1739332D01*
X-1699068Y-1762257D01*
X-1702307Y-1786859D01*
X-1699068Y-1811460D01*
X-1689572Y-1834385D01*
X-1674466Y-1854071D01*
X-1654780Y-1869177D01*
X-1631855Y-1878673D01*
X-1607254Y-1881912D01*
X-1582652Y-1878673D01*
X-1559727Y-1869177D01*
X-1540041Y-1854071D01*
X-1524935Y-1834385D01*
X-1515439Y-1811460D01*
X-1512200Y-1786859D01*
X-1515439Y-1762257D01*
X-1524935Y-1739332D01*
X-1540041Y-1719646D01*
X-1559727Y-1704540D01*
X-1582652Y-1695044D01*
X-1607254Y-1691805D01*
D02*
G37*
G36*
X-377138Y-1896783D02*
X-453138D01*
X-529142D01*
X-528545Y-1899781D01*
X-519651Y-1913091D01*
X-514636Y-1916443D01*
Y-1931717D01*
X-519651Y-1935069D01*
X-523463Y-1940772D01*
X-579780D01*
X-588699Y-1942546D01*
X-596261Y-1947599D01*
X-607046Y-1958384D01*
X-653347D01*
X-658465Y-1957366D01*
X-712915D01*
X-718969Y-1958570D01*
X-724101Y-1961999D01*
X-727530Y-1967131D01*
X-728734Y-1973185D01*
Y-2047635D01*
X-727530Y-2053689D01*
X-724101Y-2058821D01*
X-718969Y-2062250D01*
X-712915Y-2063454D01*
X-658465D01*
X-652411Y-2062250D01*
X-647279Y-2058821D01*
X-643850Y-2053689D01*
X-642646Y-2047635D01*
Y-2005000D01*
X-597392D01*
X-588472Y-2003225D01*
X-580911Y-1998173D01*
X-570126Y-1987388D01*
X-523463D01*
X-519651Y-1993091D01*
X-514635Y-1996443D01*
Y-2011717D01*
X-519651Y-2015069D01*
X-523463Y-2020772D01*
X-558176D01*
X-567095Y-2022546D01*
X-574657Y-2027599D01*
X-652361Y-2105303D01*
X-652411Y-2105270D01*
X-658465Y-2104066D01*
X-712915D01*
X-718969Y-2105270D01*
X-724101Y-2108699D01*
X-727530Y-2113831D01*
X-728734Y-2119885D01*
Y-2194335D01*
X-727530Y-2200389D01*
X-724101Y-2205521D01*
X-718969Y-2208950D01*
X-712915Y-2210154D01*
X-658465D01*
X-652411Y-2208950D01*
X-647279Y-2205521D01*
X-643850Y-2200389D01*
X-642646Y-2194335D01*
Y-2153827D01*
X-636185Y-2152542D01*
X-628623Y-2147489D01*
X-548522Y-2067388D01*
X-523463D01*
X-519651Y-2073091D01*
X-514636Y-2076443D01*
Y-2091717D01*
X-519651Y-2095068D01*
X-523463Y-2100772D01*
X-537095D01*
X-546014Y-2102546D01*
X-553576Y-2107599D01*
X-598320Y-2152343D01*
X-603372Y-2159904D01*
X-605147Y-2168824D01*
Y-2225444D01*
X-630296Y-2250594D01*
X-652796D01*
X-658465Y-2249466D01*
X-712915D01*
X-718969Y-2250670D01*
X-724101Y-2254099D01*
X-727530Y-2259231D01*
X-728734Y-2265285D01*
Y-2339735D01*
X-727530Y-2345789D01*
X-724101Y-2350921D01*
X-718969Y-2354350D01*
X-712915Y-2355554D01*
X-658465D01*
X-652411Y-2354350D01*
X-647279Y-2350921D01*
X-643850Y-2345789D01*
X-642646Y-2339735D01*
Y-2297209D01*
X-620642D01*
X-611722Y-2295435D01*
X-604161Y-2290383D01*
X-565358Y-2251579D01*
X-560305Y-2244018D01*
X-558531Y-2235098D01*
Y-2178478D01*
X-534101Y-2154048D01*
X-526125Y-2153520D01*
X-518273Y-2160477D01*
X-518974Y-2174616D01*
X-519651Y-2175069D01*
X-528545Y-2188379D01*
X-531668Y-2204080D01*
X-528545Y-2219781D01*
X-519651Y-2233091D01*
X-514635Y-2236443D01*
Y-2251717D01*
X-519651Y-2255069D01*
X-528545Y-2268379D01*
X-531668Y-2284080D01*
X-528545Y-2299781D01*
X-519651Y-2313091D01*
X-514636Y-2316443D01*
Y-2331717D01*
X-519651Y-2335068D01*
X-528545Y-2348379D01*
X-531668Y-2364080D01*
X-528545Y-2379781D01*
X-519651Y-2393091D01*
X-514635Y-2396443D01*
Y-2411717D01*
X-519651Y-2415069D01*
X-528545Y-2428379D01*
X-531668Y-2444080D01*
X-528545Y-2459781D01*
X-519651Y-2473091D01*
X-506341Y-2481985D01*
X-490640Y-2485108D01*
X-415640D01*
X-399939Y-2481985D01*
X-386629Y-2473091D01*
X-377735Y-2459781D01*
X-374612Y-2444080D01*
X-377735Y-2428379D01*
X-386629Y-2415069D01*
X-391645Y-2411717D01*
Y-2396443D01*
X-386629Y-2393091D01*
X-377735Y-2379781D01*
X-374612Y-2364080D01*
X-377735Y-2348379D01*
X-386629Y-2335068D01*
X-391644Y-2331717D01*
Y-2316443D01*
X-386629Y-2313091D01*
X-377735Y-2299781D01*
X-374612Y-2284080D01*
X-377735Y-2268379D01*
X-386629Y-2255069D01*
X-391645Y-2251717D01*
Y-2236443D01*
X-386629Y-2233091D01*
X-377735Y-2219781D01*
X-374612Y-2204080D01*
X-377735Y-2188379D01*
X-386629Y-2175069D01*
X-391645Y-2171717D01*
Y-2156443D01*
X-386629Y-2153091D01*
X-377735Y-2139781D01*
X-374612Y-2124080D01*
X-377735Y-2108379D01*
X-386629Y-2095068D01*
X-391644Y-2091717D01*
Y-2076443D01*
X-386629Y-2073091D01*
X-377735Y-2059781D01*
X-374612Y-2044080D01*
X-377735Y-2028379D01*
X-386629Y-2015069D01*
X-391645Y-2011717D01*
Y-1996443D01*
X-386629Y-1993091D01*
X-377735Y-1979781D01*
X-374612Y-1964080D01*
X-377735Y-1948379D01*
X-386629Y-1935069D01*
X-391644Y-1931717D01*
Y-1916443D01*
X-386629Y-1913091D01*
X-377735Y-1899781D01*
X-377138Y-1896783D01*
D02*
G37*
G36*
X-803465Y-1957366D02*
X-817992D01*
Y-1997704D01*
X-787646D01*
Y-1973185D01*
X-788850Y-1967131D01*
X-792279Y-1961999D01*
X-797411Y-1958570D01*
X-803465Y-1957366D01*
D02*
G37*
G36*
X-843392D02*
X-857915D01*
X-863969Y-1958570D01*
X-869101Y-1961999D01*
X-872530Y-1967131D01*
X-873734Y-1973185D01*
Y-1997704D01*
X-843392D01*
Y-1957366D01*
D02*
G37*
G36*
X-787646Y-2023104D02*
X-817992D01*
Y-2063454D01*
X-803465D01*
X-797411Y-2062250D01*
X-792279Y-2058821D01*
X-788850Y-2053689D01*
X-787646Y-2047635D01*
Y-2023104D01*
D02*
G37*
G36*
X-843392D02*
X-873734D01*
Y-2047635D01*
X-872530Y-2053689D01*
X-869101Y-2058821D01*
X-863969Y-2062250D01*
X-857915Y-2063454D01*
X-843392D01*
Y-2023104D01*
D02*
G37*
G36*
X1607254Y-1691805D02*
X1582652Y-1695044D01*
X1559727Y-1704540D01*
X1540041Y-1719646D01*
X1524935Y-1739332D01*
X1515439Y-1762257D01*
X1512200Y-1786859D01*
X1515439Y-1811460D01*
X1524935Y-1834385D01*
X1540041Y-1854071D01*
X1559727Y-1869177D01*
X1582652Y-1878673D01*
X1583946Y-1878843D01*
Y-1975239D01*
X1562014D01*
Y-2085719D01*
X1652494D01*
Y-1975239D01*
X1630561D01*
Y-1878843D01*
X1631855Y-1878673D01*
X1654780Y-1869177D01*
X1674466Y-1854071D01*
X1689572Y-1834385D01*
X1699068Y-1811460D01*
X1702307Y-1786859D01*
X1699068Y-1762257D01*
X1689572Y-1739332D01*
X1674466Y-1719646D01*
X1654780Y-1704540D01*
X1631855Y-1695044D01*
X1607254Y-1691805D01*
D02*
G37*
G36*
X2482129Y-1970608D02*
X2476075Y-1971812D01*
X2470943Y-1975241D01*
X2432441Y-2013743D01*
X2429012Y-2018875D01*
X2427808Y-2024929D01*
X2429012Y-2030982D01*
X2432441Y-2036115D01*
X2442282Y-2045956D01*
X2400989Y-2087249D01*
X2374923Y-2061182D01*
X2364655Y-2054322D01*
X2352544Y-2051913D01*
X2340433Y-2054322D01*
X2330165Y-2061182D01*
X2240787Y-2150560D01*
X2233927Y-2160828D01*
X2231518Y-2172939D01*
X2233927Y-2185050D01*
X2240787Y-2195318D01*
X2330165Y-2284696D01*
X2340433Y-2291556D01*
X2352544Y-2293965D01*
X2364655Y-2291556D01*
X2374923Y-2284696D01*
X2464301Y-2195318D01*
X2471161Y-2185050D01*
X2473570Y-2172939D01*
X2471161Y-2160828D01*
X2464301Y-2150560D01*
X2433951Y-2120211D01*
X2475244Y-2078918D01*
X2485085Y-2088759D01*
X2490218Y-2092188D01*
X2496271Y-2093392D01*
X2502325Y-2092188D01*
X2507457Y-2088759D01*
X2545959Y-2050257D01*
X2549388Y-2045125D01*
X2550592Y-2039071D01*
X2549388Y-2033018D01*
X2545959Y-2027885D01*
X2493315Y-1975241D01*
X2488182Y-1971812D01*
X2482129Y-1970608D01*
D02*
G37*
G36*
X-2494829Y-1957908D02*
X-2500882Y-1959112D01*
X-2506015Y-1962541D01*
X-2558659Y-2015185D01*
X-2562088Y-2020318D01*
X-2563292Y-2026371D01*
X-2562088Y-2032425D01*
X-2558659Y-2037557D01*
X-2520157Y-2076059D01*
X-2515025Y-2079488D01*
X-2508971Y-2080692D01*
X-2502918Y-2079488D01*
X-2497785Y-2076059D01*
X-2487944Y-2066218D01*
X-2428504Y-2125658D01*
X-2437662Y-2134816D01*
X-2444522Y-2145084D01*
X-2446931Y-2157195D01*
X-2444522Y-2169306D01*
X-2437662Y-2179574D01*
X-2348284Y-2268952D01*
X-2338016Y-2275812D01*
X-2325905Y-2278221D01*
X-2313794Y-2275812D01*
X-2303526Y-2268952D01*
X-2214148Y-2179574D01*
X-2207288Y-2169306D01*
X-2204879Y-2157195D01*
X-2207288Y-2145084D01*
X-2214148Y-2134816D01*
X-2303526Y-2045438D01*
X-2313794Y-2038578D01*
X-2325905Y-2036169D01*
X-2338016Y-2038578D01*
X-2348284Y-2045438D01*
X-2395542Y-2092696D01*
X-2454982Y-2033256D01*
X-2445141Y-2023415D01*
X-2441712Y-2018282D01*
X-2440508Y-2012229D01*
X-2441712Y-2006175D01*
X-2445141Y-2001043D01*
X-2483643Y-1962541D01*
X-2488775Y-1959112D01*
X-2494829Y-1957908D01*
D02*
G37*
G36*
X1512254Y-2086657D02*
X1490700Y-2090945D01*
X1472428Y-2103154D01*
X1460219Y-2121426D01*
X1455932Y-2142979D01*
X1460219Y-2164533D01*
X1472250Y-2182539D01*
X1471938Y-2184237D01*
X1468177Y-2195239D01*
X1467014D01*
Y-2305719D01*
X1557494D01*
Y-2195239D01*
X1556330D01*
X1552569Y-2184237D01*
X1552257Y-2182539D01*
X1564289Y-2164533D01*
X1568576Y-2142979D01*
X1564289Y-2121426D01*
X1552080Y-2103154D01*
X1533807Y-2090945D01*
X1512254Y-2086657D01*
D02*
G37*
G36*
X-1369570Y-2258937D02*
X-1381620D01*
Y-2321780D01*
X-1353777D01*
Y-2274730D01*
X-1354979Y-2268686D01*
X-1358402Y-2263562D01*
X-1363526Y-2260139D01*
X-1369570Y-2258937D01*
D02*
G37*
G36*
X-1407020D02*
X-1419070D01*
X-1425114Y-2260139D01*
X-1430238Y-2263562D01*
X-1433661Y-2268686D01*
X-1434864Y-2274730D01*
Y-2321780D01*
X-1407020D01*
Y-2258937D01*
D02*
G37*
G36*
X-1353777Y-2347180D02*
X-1381620D01*
Y-2410023D01*
X-1369570D01*
X-1363526Y-2408821D01*
X-1358402Y-2405398D01*
X-1354979Y-2400274D01*
X-1353777Y-2394230D01*
Y-2347180D01*
D02*
G37*
G36*
X-1407020D02*
X-1434864D01*
Y-2394230D01*
X-1433661Y-2400274D01*
X-1430238Y-2405398D01*
X-1425114Y-2408821D01*
X-1419070Y-2410023D01*
X-1407020D01*
Y-2347180D01*
D02*
G37*
G36*
X-2146300Y-2241747D02*
X-2170902Y-2244986D01*
X-2193826Y-2254481D01*
X-2213513Y-2269587D01*
X-2228619Y-2289274D01*
X-2238114Y-2312198D01*
X-2241353Y-2336800D01*
X-2238114Y-2361402D01*
X-2228619Y-2384326D01*
X-2213513Y-2404013D01*
X-2193826Y-2419119D01*
X-2170902Y-2428614D01*
X-2146300Y-2431853D01*
X-2121698Y-2428614D01*
X-2098774Y-2419119D01*
X-2079087Y-2404013D01*
X-2063981Y-2384326D01*
X-2054486Y-2361402D01*
X-2051247Y-2336800D01*
X-2054486Y-2312198D01*
X-2063981Y-2289274D01*
X-2079087Y-2269587D01*
X-2098774Y-2254481D01*
X-2121698Y-2244986D01*
X-2146300Y-2241747D01*
D02*
G37*
G36*
X2172939Y-2257491D02*
X2148337Y-2260730D01*
X2125413Y-2270225D01*
X2105726Y-2285331D01*
X2090620Y-2305017D01*
X2081125Y-2327942D01*
X2077886Y-2352544D01*
X2081125Y-2377146D01*
X2090620Y-2400070D01*
X2105726Y-2419757D01*
X2125413Y-2434863D01*
X2148337Y-2444358D01*
X2172939Y-2447597D01*
X2197541Y-2444358D01*
X2220465Y-2434863D01*
X2240152Y-2419757D01*
X2255258Y-2400070D01*
X2264753Y-2377146D01*
X2267992Y-2352544D01*
X2264753Y-2327942D01*
X2255258Y-2305017D01*
X2240152Y-2285331D01*
X2220465Y-2270225D01*
X2197541Y-2260730D01*
X2172939Y-2257491D01*
D02*
G37*
G36*
X447862Y-2456777D02*
X384558D01*
Y-2485108D01*
X409360D01*
X425061Y-2481985D01*
X438371Y-2473091D01*
X447265Y-2459781D01*
X447862Y-2456777D01*
D02*
G37*
G36*
X359158D02*
X295857D01*
X296455Y-2459781D01*
X305348Y-2473091D01*
X318659Y-2481985D01*
X334360Y-2485108D01*
X359158D01*
Y-2456777D01*
D02*
G37*
G36*
X893019Y-168817D02*
X886966Y-170022D01*
X881834Y-173451D01*
X843332Y-211952D01*
X839903Y-217084D01*
X838699Y-223138D01*
X839903Y-229192D01*
X843332Y-234324D01*
X895976Y-286968D01*
X901108Y-290397D01*
X907162Y-291601D01*
X913216Y-290397D01*
X918348Y-286968D01*
X921115Y-284201D01*
X1411249Y-774335D01*
X1407212Y-778372D01*
X1403783Y-783504D01*
X1402579Y-789558D01*
X1403783Y-795612D01*
X1407212Y-800744D01*
X1459856Y-853388D01*
X1464988Y-856817D01*
X1471042Y-858021D01*
X1477096Y-856817D01*
X1482228Y-853388D01*
X1484680Y-850936D01*
X1974814Y-1341070D01*
X1971092Y-1344792D01*
X1967663Y-1349924D01*
X1966459Y-1355978D01*
X1967663Y-1362032D01*
X1971092Y-1367164D01*
X2023736Y-1419808D01*
X2028868Y-1423237D01*
X2034922Y-1424441D01*
X2040976Y-1423237D01*
X2046108Y-1419808D01*
X2049354Y-1416562D01*
X2539488Y-1906696D01*
X2534972Y-1911212D01*
X2531543Y-1916344D01*
X2530339Y-1922398D01*
X2531543Y-1928452D01*
X2534972Y-1933584D01*
X2587616Y-1986228D01*
X2592748Y-1989657D01*
X2598802Y-1990861D01*
X2604856Y-1989657D01*
X2609988Y-1986228D01*
X2610827Y-1985389D01*
X2620938Y-1993238D01*
Y-2661584D01*
X2285380Y-2997142D01*
X342764D01*
X182668Y-2837046D01*
Y-2646902D01*
X188371Y-2643091D01*
X191723Y-2638075D01*
X206997D01*
X210349Y-2643091D01*
X223659Y-2651985D01*
X239360Y-2655108D01*
X255061Y-2651985D01*
X268371Y-2643091D01*
X277265Y-2629781D01*
X280388Y-2614080D01*
Y-2605067D01*
X413015D01*
Y-2606280D01*
X414221Y-2612343D01*
X417656Y-2617483D01*
X422796Y-2620918D01*
X428860Y-2622124D01*
X513260D01*
X519324Y-2620918D01*
X524464Y-2617483D01*
X527899Y-2612343D01*
X529105Y-2606280D01*
Y-2605067D01*
X1735793D01*
Y-2742179D01*
X1735793Y-2742180D01*
X1737961Y-2753082D01*
X1744137Y-2762324D01*
X1829756Y-2847943D01*
X1829756Y-2847944D01*
X1838998Y-2854119D01*
X1849900Y-2856287D01*
X2032699D01*
Y-2883040D01*
X2123179D01*
Y-2772560D01*
X2032699D01*
Y-2799313D01*
X1861700D01*
X1792768Y-2730380D01*
Y-2588380D01*
X1894166Y-2486982D01*
X1907540Y-2489642D01*
X1929094Y-2485355D01*
X1947366Y-2473146D01*
X1959575Y-2454874D01*
X1963862Y-2433320D01*
X1959575Y-2411766D01*
X1947366Y-2393494D01*
X1929094Y-2381285D01*
X1907540Y-2376998D01*
X1885986Y-2381285D01*
X1867714Y-2393494D01*
X1855505Y-2411766D01*
X1851218Y-2433320D01*
X1853878Y-2446695D01*
X1752480Y-2548092D01*
X529105D01*
Y-2546880D01*
X527899Y-2540816D01*
X524464Y-2535676D01*
X519324Y-2532241D01*
X513260Y-2531035D01*
X428860D01*
X422796Y-2532241D01*
X417656Y-2535676D01*
X414221Y-2540816D01*
X413015Y-2546880D01*
Y-2548092D01*
X280388D01*
Y-2539080D01*
X277265Y-2523379D01*
X268371Y-2510068D01*
X255061Y-2501175D01*
X239360Y-2498051D01*
X223659Y-2501175D01*
X210349Y-2510068D01*
X206997Y-2515084D01*
X191723D01*
X188371Y-2510068D01*
X175061Y-2501175D01*
X159360Y-2498051D01*
X143659Y-2501175D01*
X130348Y-2510068D01*
X126997Y-2515084D01*
X111723D01*
X108371Y-2510068D01*
X95061Y-2501175D01*
X79360Y-2498051D01*
X63659Y-2501175D01*
X50349Y-2510068D01*
X46997Y-2515084D01*
X31723D01*
X28371Y-2510068D01*
X15061Y-2501175D01*
X-640Y-2498051D01*
X-16341Y-2501175D01*
X-29651Y-2510068D01*
X-33003Y-2515084D01*
X-48277D01*
X-51629Y-2510068D01*
X-64939Y-2501175D01*
X-80640Y-2498051D01*
X-96341Y-2501175D01*
X-109652Y-2510068D01*
X-113003Y-2515084D01*
X-128277D01*
X-131629Y-2510068D01*
X-144939Y-2501175D01*
X-160640Y-2498051D01*
X-176341Y-2501175D01*
X-189651Y-2510068D01*
X-193003Y-2515084D01*
X-208277D01*
X-211629Y-2510068D01*
X-224939Y-2501175D01*
X-240640Y-2498051D01*
X-256341Y-2501175D01*
X-269651Y-2510068D01*
X-273003Y-2515084D01*
X-288277D01*
X-291629Y-2510068D01*
X-304939Y-2501175D01*
X-320640Y-2498051D01*
X-336341Y-2501175D01*
X-349651Y-2510068D01*
X-358545Y-2523379D01*
X-361668Y-2539080D01*
Y-2614080D01*
X-358545Y-2629781D01*
X-349651Y-2643091D01*
X-343948Y-2646902D01*
Y-2673186D01*
X-890241Y-3219479D01*
X-895294Y-3227041D01*
X-897068Y-3235960D01*
Y-3256217D01*
X-913586Y-3267254D01*
X-925795Y-3285526D01*
X-930082Y-3307080D01*
X-925795Y-3328634D01*
X-913586Y-3346906D01*
X-895314Y-3359115D01*
X-873760Y-3363402D01*
X-852206Y-3359115D01*
X-833934Y-3346906D01*
X-821725Y-3328634D01*
X-817438Y-3307080D01*
X-821725Y-3285526D01*
X-833934Y-3267254D01*
X-848514Y-3257512D01*
X-849318Y-3244480D01*
X-304159Y-2699321D01*
X-299106Y-2691759D01*
X-297332Y-2682840D01*
Y-2646902D01*
X-291629Y-2643091D01*
X-288277Y-2638075D01*
X-273003D01*
X-269651Y-2643091D01*
X-263948Y-2646902D01*
Y-2730346D01*
X-740381Y-3206779D01*
X-745434Y-3214341D01*
X-747208Y-3223260D01*
Y-3256217D01*
X-763726Y-3267254D01*
X-775935Y-3285526D01*
X-780222Y-3307080D01*
X-775935Y-3328634D01*
X-763726Y-3346906D01*
X-745454Y-3359115D01*
X-723900Y-3363402D01*
X-702346Y-3359115D01*
X-684074Y-3346906D01*
X-671865Y-3328634D01*
X-667578Y-3307080D01*
X-671865Y-3285526D01*
X-684074Y-3267254D01*
X-700592Y-3256217D01*
Y-3232914D01*
X-224159Y-2756481D01*
X-219106Y-2748920D01*
X-217332Y-2740000D01*
Y-2646902D01*
X-211629Y-2643091D01*
X-208277Y-2638075D01*
X-193003D01*
X-189651Y-2643091D01*
X-176341Y-2651985D01*
X-160640Y-2655108D01*
X-144939Y-2651985D01*
X-131629Y-2643091D01*
X-128277Y-2638075D01*
X-113003D01*
X-109652Y-2643091D01*
X-103948Y-2646902D01*
Y-2837046D01*
X-667514Y-3400612D01*
X-2286506D01*
X-2643692Y-3043426D01*
Y-2526128D01*
X-2627174Y-2515090D01*
X-2614965Y-2496818D01*
X-2610678Y-2475265D01*
X-2614965Y-2453711D01*
X-2627174Y-2435439D01*
X-2645446Y-2423230D01*
X-2667000Y-2418942D01*
X-2688554Y-2423230D01*
X-2706826Y-2435439D01*
X-2719035Y-2453711D01*
X-2723322Y-2475265D01*
X-2719035Y-2496818D01*
X-2706826Y-2515090D01*
X-2690308Y-2526128D01*
Y-3053080D01*
X-2688534Y-3061999D01*
X-2683481Y-3069561D01*
X-2312641Y-3440401D01*
X-2305079Y-3445454D01*
X-2296160Y-3447228D01*
X-657860D01*
X-648941Y-3445454D01*
X-641379Y-3440401D01*
X-64159Y-2863181D01*
X-59107Y-2855620D01*
X-57332Y-2846700D01*
Y-2646902D01*
X-51629Y-2643091D01*
X-48277Y-2638075D01*
X-33003D01*
X-29651Y-2643091D01*
X-23948Y-2646902D01*
Y-2876426D01*
X-649734Y-3502212D01*
X-2322065D01*
X-2680594Y-3143684D01*
X-2676718Y-3124200D01*
X-2681005Y-3102646D01*
X-2693214Y-3084374D01*
X-2711486Y-3072165D01*
X-2733040Y-3067878D01*
X-2754594Y-3072165D01*
X-2772866Y-3084374D01*
X-2785075Y-3102646D01*
X-2789362Y-3124200D01*
X-2785075Y-3145754D01*
X-2772866Y-3164026D01*
X-2754594Y-3176235D01*
X-2733040Y-3180522D01*
X-2713556Y-3176646D01*
X-2348201Y-3542001D01*
X-2340640Y-3547054D01*
X-2331720Y-3548828D01*
X-640080D01*
X-631161Y-3547054D01*
X-623599Y-3542001D01*
X15841Y-2902561D01*
X20894Y-2895000D01*
X22668Y-2886080D01*
Y-2646902D01*
X28371Y-2643091D01*
X31723Y-2638075D01*
X46997D01*
X50349Y-2643091D01*
X56052Y-2646902D01*
Y-2886080D01*
X57826Y-2895000D01*
X62879Y-2902561D01*
X270344Y-3110026D01*
X277905Y-3115079D01*
X286825Y-3116853D01*
X2585895D01*
X2594814Y-3115079D01*
X2602376Y-3110026D01*
X2912003Y-2800399D01*
X2931487Y-2804275D01*
X2953041Y-2799988D01*
X2971313Y-2787779D01*
X2983522Y-2769507D01*
X2987809Y-2747953D01*
X2983522Y-2726399D01*
X2971313Y-2708127D01*
X2953041Y-2695918D01*
X2931487Y-2691631D01*
X2909933Y-2695918D01*
X2891661Y-2708127D01*
X2879452Y-2726399D01*
X2875165Y-2747953D01*
X2879041Y-2767437D01*
X2576240Y-3070237D01*
X296479D01*
X102668Y-2876426D01*
Y-2646902D01*
X108371Y-2643091D01*
X111723Y-2638075D01*
X126997D01*
X130348Y-2643091D01*
X136052Y-2646902D01*
Y-2846700D01*
X137826Y-2855620D01*
X142879Y-2863181D01*
X316629Y-3036931D01*
X324190Y-3041984D01*
X333110Y-3043758D01*
X2295034D01*
X2303954Y-3041984D01*
X2311515Y-3036931D01*
X2660727Y-2687720D01*
X2665779Y-2680158D01*
X2667553Y-2671239D01*
Y-1981984D01*
X2665779Y-1973065D01*
X2660727Y-1965503D01*
X2645720Y-1950496D01*
X2648489Y-1947726D01*
X2651918Y-1942594D01*
X2653123Y-1936541D01*
X2651918Y-1930487D01*
X2648489Y-1925355D01*
X2595845Y-1872711D01*
X2590713Y-1869282D01*
X2584659Y-1868077D01*
X2578606Y-1869282D01*
X2573474Y-1872711D01*
X2572450Y-1873734D01*
X2082316Y-1383600D01*
X2084609Y-1381306D01*
X2088038Y-1376174D01*
X2089243Y-1370121D01*
X2088038Y-1364067D01*
X2084609Y-1358935D01*
X2031965Y-1306291D01*
X2026833Y-1302862D01*
X2020779Y-1301657D01*
X2014726Y-1302862D01*
X2009594Y-1306291D01*
X2007777Y-1308108D01*
X1517642Y-817973D01*
X1520729Y-814886D01*
X1524158Y-809754D01*
X1525363Y-803701D01*
X1524158Y-797647D01*
X1520729Y-792515D01*
X1468085Y-739871D01*
X1462953Y-736442D01*
X1456899Y-735237D01*
X1450846Y-736442D01*
X1445714Y-739871D01*
X1444211Y-741373D01*
X954077Y-251239D01*
X956849Y-248466D01*
X960278Y-243334D01*
X961483Y-237281D01*
X960278Y-231227D01*
X956849Y-226095D01*
X904205Y-173451D01*
X899073Y-170022D01*
X893019Y-168817D01*
D02*
G37*
G36*
X-1669570Y-2258937D02*
X-1719070D01*
X-1725114Y-2260139D01*
X-1730238Y-2263562D01*
X-1733661Y-2268686D01*
X-1734863Y-2274730D01*
Y-2394230D01*
X-1733661Y-2400274D01*
X-1730238Y-2405398D01*
X-1725397Y-2408632D01*
Y-2445940D01*
X-1747160D01*
Y-2565420D01*
X-1544680D01*
Y-2445940D01*
X-1663243D01*
Y-2408632D01*
X-1658402Y-2405398D01*
X-1654979Y-2400274D01*
X-1653776Y-2394230D01*
Y-2274730D01*
X-1654979Y-2268686D01*
X-1658402Y-2263562D01*
X-1663526Y-2260139D01*
X-1669570Y-2258937D01*
D02*
G37*
G36*
X2270760Y-2552258D02*
X2249206Y-2556545D01*
X2230934Y-2568754D01*
X2230879Y-2568836D01*
X2218179Y-2564984D01*
Y-2552560D01*
X2127699D01*
Y-2663040D01*
X2218179D01*
Y-2652176D01*
X2230879Y-2648324D01*
X2230934Y-2648406D01*
X2249206Y-2660615D01*
X2270760Y-2664902D01*
X2292314Y-2660615D01*
X2310586Y-2648406D01*
X2322795Y-2630134D01*
X2327082Y-2608580D01*
X2322795Y-2587026D01*
X2310586Y-2568754D01*
X2292314Y-2556545D01*
X2270760Y-2552258D01*
D02*
G37*
G36*
X513260Y-2676035D02*
X483760D01*
Y-2708880D01*
X529105D01*
Y-2691880D01*
X527899Y-2685816D01*
X524464Y-2680676D01*
X519324Y-2677241D01*
X513260Y-2676035D01*
D02*
G37*
G36*
X458360D02*
X428860D01*
X422796Y-2677241D01*
X417656Y-2680676D01*
X414221Y-2685816D01*
X413015Y-2691880D01*
Y-2708880D01*
X458360D01*
Y-2676035D01*
D02*
G37*
G36*
X529105Y-2734280D02*
X483760D01*
Y-2767124D01*
X513260D01*
X519324Y-2765918D01*
X524464Y-2762483D01*
X527899Y-2757343D01*
X529105Y-2751280D01*
Y-2734280D01*
D02*
G37*
G36*
X458360D02*
X413015D01*
Y-2751280D01*
X414221Y-2757343D01*
X417656Y-2762483D01*
X422796Y-2765918D01*
X428860Y-2767124D01*
X458360D01*
Y-2734280D01*
D02*
G37*
G36*
X-1787415Y-2723632D02*
X-1951465D01*
X-1957597Y-2724852D01*
X-1962795Y-2728325D01*
X-1966268Y-2733523D01*
X-1967488Y-2739655D01*
Y-2755665D01*
X-2024742D01*
X-2036635Y-2758031D01*
X-2046717Y-2764767D01*
X-2166815Y-2884865D01*
X-2173552Y-2894947D01*
X-2175917Y-2906840D01*
Y-3083608D01*
X-2184666Y-3089454D01*
X-2196875Y-3107726D01*
X-2201162Y-3129280D01*
X-2196875Y-3150834D01*
X-2184666Y-3169106D01*
X-2166394Y-3181315D01*
X-2144840Y-3185602D01*
X-2123286Y-3181315D01*
X-2105014Y-3169106D01*
X-2092805Y-3150834D01*
X-2088518Y-3129280D01*
X-2092805Y-3107726D01*
X-2105014Y-3089454D01*
X-2113763Y-3083608D01*
Y-2919712D01*
X-2011870Y-2817820D01*
X-1967488D01*
Y-2833705D01*
X-1966268Y-2839837D01*
X-1962795Y-2845035D01*
X-1957597Y-2848508D01*
X-1951465Y-2849728D01*
X-1787415D01*
X-1781283Y-2848508D01*
X-1776085Y-2845035D01*
X-1772612Y-2839837D01*
X-1771392Y-2833705D01*
Y-2817882D01*
X-1747160D01*
Y-2847420D01*
X-1544680D01*
Y-2727940D01*
X-1747160D01*
Y-2755728D01*
X-1771392D01*
Y-2739655D01*
X-1772612Y-2733523D01*
X-1776085Y-2728325D01*
X-1781283Y-2724852D01*
X-1787415Y-2723632D01*
D02*
G37*
G36*
X-1894840Y-4522021D02*
X-1918397Y-4525123D01*
X-1940349Y-4534215D01*
X-1959200Y-4548680D01*
X-1973664Y-4567531D01*
X-1982757Y-4589483D01*
X-1985859Y-4613040D01*
Y-4663040D01*
X-1982757Y-4686597D01*
X-1973664Y-4708549D01*
X-1959200Y-4727400D01*
X-1940349Y-4741865D01*
X-1918397Y-4750957D01*
X-1894840Y-4754059D01*
X-1871283Y-4750957D01*
X-1849331Y-4741865D01*
X-1830480Y-4727400D01*
X-1816016Y-4708549D01*
X-1806923Y-4686597D01*
X-1803821Y-4663040D01*
Y-4613040D01*
X-1806923Y-4589483D01*
X-1816016Y-4567531D01*
X-1830480Y-4548680D01*
X-1849331Y-4534215D01*
X-1871283Y-4525123D01*
X-1894840Y-4522021D01*
D02*
G37*
G36*
X-2144840Y-3626678D02*
X-2166394Y-3630965D01*
X-2184666Y-3643174D01*
X-2196875Y-3661446D01*
X-2201162Y-3683000D01*
X-2196875Y-3704554D01*
X-2184666Y-3722826D01*
X-2175917Y-3728672D01*
Y-4528237D01*
X-2190349Y-4534215D01*
X-2209200Y-4548680D01*
X-2223664Y-4567531D01*
X-2232757Y-4589483D01*
X-2235859Y-4613040D01*
Y-4663040D01*
X-2232757Y-4686597D01*
X-2223664Y-4708549D01*
X-2209200Y-4727400D01*
X-2190349Y-4741865D01*
X-2168397Y-4750957D01*
X-2144840Y-4754059D01*
X-2121283Y-4750957D01*
X-2099331Y-4741865D01*
X-2080480Y-4727400D01*
X-2066016Y-4708549D01*
X-2056923Y-4686597D01*
X-2053821Y-4663040D01*
Y-4613040D01*
X-2056923Y-4589483D01*
X-2066016Y-4567531D01*
X-2080480Y-4548680D01*
X-2099331Y-4534215D01*
X-2113763Y-4528237D01*
Y-3728672D01*
X-2105014Y-3722826D01*
X-2092805Y-3704554D01*
X-2088518Y-3683000D01*
X-2092805Y-3661446D01*
X-2105014Y-3643174D01*
X-2123286Y-3630965D01*
X-2144840Y-3626678D01*
D02*
G37*
G36*
X-2603500Y-3541550D02*
X-2640110Y-3546370D01*
X-2674225Y-3560501D01*
X-2703520Y-3582980D01*
X-2725999Y-3612275D01*
X-2740130Y-3646390D01*
X-2744950Y-3683000D01*
X-2740130Y-3719610D01*
X-2725999Y-3753725D01*
X-2703520Y-3783020D01*
X-2674225Y-3805499D01*
X-2640110Y-3819630D01*
X-2634577Y-3820359D01*
Y-4127500D01*
X-2632211Y-4139393D01*
X-2625475Y-4149475D01*
X-2425917Y-4349032D01*
Y-4528237D01*
X-2440349Y-4534215D01*
X-2459200Y-4548680D01*
X-2473664Y-4567531D01*
X-2482757Y-4589483D01*
X-2485859Y-4613040D01*
Y-4663040D01*
X-2482757Y-4686597D01*
X-2473664Y-4708549D01*
X-2459200Y-4727400D01*
X-2440349Y-4741865D01*
X-2418397Y-4750957D01*
X-2394840Y-4754059D01*
X-2371283Y-4750957D01*
X-2349331Y-4741865D01*
X-2330480Y-4727400D01*
X-2316016Y-4708549D01*
X-2306923Y-4686597D01*
X-2303821Y-4663040D01*
Y-4613040D01*
X-2306923Y-4589483D01*
X-2316016Y-4567531D01*
X-2330480Y-4548680D01*
X-2349331Y-4534215D01*
X-2363763Y-4528237D01*
Y-4336160D01*
X-2366128Y-4324267D01*
X-2372865Y-4314185D01*
X-2572423Y-4114628D01*
Y-3820359D01*
X-2566890Y-3819630D01*
X-2532775Y-3805499D01*
X-2503479Y-3783020D01*
X-2481000Y-3753725D01*
X-2466870Y-3719610D01*
X-2462050Y-3683000D01*
X-2466870Y-3646390D01*
X-2481000Y-3612275D01*
X-2503479Y-3582980D01*
X-2532775Y-3560501D01*
X-2566890Y-3546370D01*
X-2603500Y-3541550D01*
D02*
G37*
G36*
X-630880Y-4636508D02*
X-750880D01*
X-762679Y-4638855D01*
X-772682Y-4645538D01*
X-779365Y-4655541D01*
X-781712Y-4667340D01*
Y-4837340D01*
X-779365Y-4849139D01*
X-772682Y-4859142D01*
X-762679Y-4865825D01*
X-750880Y-4868172D01*
X-630880D01*
X-619081Y-4865825D01*
X-609078Y-4859142D01*
X-602395Y-4849139D01*
X-600048Y-4837340D01*
Y-4667340D01*
X-602395Y-4655541D01*
X-609078Y-4645538D01*
X-619081Y-4638855D01*
X-630880Y-4636508D01*
D02*
G37*
G36*
X-723900Y-3615595D02*
X-745454Y-3619883D01*
X-763726Y-3632092D01*
X-775935Y-3650364D01*
X-780222Y-3671917D01*
X-775935Y-3693471D01*
X-763726Y-3711743D01*
X-747208Y-3722780D01*
Y-3886200D01*
X-745434Y-3895119D01*
X-740381Y-3902681D01*
X-218888Y-4424174D01*
Y-4644580D01*
X-228389Y-4648515D01*
X-247240Y-4662980D01*
X-261704Y-4681831D01*
X-270797Y-4703783D01*
X-273899Y-4727340D01*
Y-4777340D01*
X-270797Y-4800897D01*
X-261704Y-4822849D01*
X-247240Y-4841700D01*
X-228389Y-4856165D01*
X-206437Y-4865257D01*
X-182880Y-4868359D01*
X-159323Y-4865257D01*
X-137371Y-4856165D01*
X-118520Y-4841700D01*
X-104056Y-4822849D01*
X-94963Y-4800897D01*
X-91861Y-4777340D01*
Y-4727340D01*
X-94963Y-4703783D01*
X-104056Y-4681831D01*
X-118520Y-4662980D01*
X-137371Y-4648515D01*
X-159323Y-4639423D01*
X-172272Y-4637718D01*
Y-4414520D01*
X-174046Y-4405601D01*
X-179099Y-4398039D01*
X-700592Y-3876546D01*
Y-3722780D01*
X-684074Y-3711743D01*
X-671865Y-3693471D01*
X-667578Y-3671917D01*
X-671865Y-3650364D01*
X-684074Y-3632092D01*
X-702346Y-3619883D01*
X-723900Y-3615595D01*
D02*
G37*
G36*
X-873760D02*
X-895314Y-3619883D01*
X-913586Y-3632092D01*
X-925795Y-3650364D01*
X-930082Y-3671917D01*
X-925795Y-3693471D01*
X-913586Y-3711743D01*
X-897068Y-3722780D01*
Y-3914140D01*
X-895294Y-3923059D01*
X-890241Y-3930621D01*
X-460188Y-4360674D01*
Y-4639390D01*
X-460437Y-4639423D01*
X-482389Y-4648515D01*
X-501240Y-4662980D01*
X-515704Y-4681831D01*
X-524797Y-4703783D01*
X-527899Y-4727340D01*
Y-4777340D01*
X-524797Y-4800897D01*
X-515704Y-4822849D01*
X-501240Y-4841700D01*
X-482389Y-4856165D01*
X-460437Y-4865257D01*
X-436880Y-4868359D01*
X-413323Y-4865257D01*
X-391371Y-4856165D01*
X-372520Y-4841700D01*
X-358056Y-4822849D01*
X-348963Y-4800897D01*
X-345861Y-4777340D01*
Y-4727340D01*
X-348963Y-4703783D01*
X-358056Y-4681831D01*
X-372520Y-4662980D01*
X-391371Y-4648515D01*
X-413323Y-4639423D01*
X-413572Y-4639390D01*
Y-4351020D01*
X-415346Y-4342100D01*
X-420399Y-4334539D01*
X-850452Y-3904486D01*
Y-3722780D01*
X-833934Y-3711743D01*
X-821725Y-3693471D01*
X-817438Y-3671917D01*
X-821725Y-3650364D01*
X-833934Y-3632092D01*
X-852206Y-3619883D01*
X-873760Y-3615595D01*
D02*
G37*
%LPD*%
G36*
X12373Y-1385521D02*
Y-1412787D01*
X7581Y-1413740D01*
X2449Y-1417169D01*
X-980Y-1422301D01*
X-2184Y-1428355D01*
Y-1502805D01*
X-980Y-1508859D01*
X2449Y-1513991D01*
X7581Y-1517420D01*
X12373Y-1518373D01*
Y-1605729D01*
X-20784Y-1638885D01*
X-26959Y-1648127D01*
X-29128Y-1659028D01*
X-29127Y-1659030D01*
Y-1684718D01*
X-29651Y-1685069D01*
X-33003Y-1690085D01*
X-48277D01*
X-51629Y-1685069D01*
X-57332Y-1681257D01*
Y-1631120D01*
X-58596Y-1624770D01*
Y-1552920D01*
X-59802Y-1546856D01*
X-63236Y-1541716D01*
X-68377Y-1538281D01*
X-74440Y-1537075D01*
X-80832D01*
Y-1518624D01*
X-76915D01*
X-70861Y-1517420D01*
X-65729Y-1513991D01*
X-62300Y-1508859D01*
X-61096Y-1502805D01*
Y-1428355D01*
X-62300Y-1422301D01*
X-65729Y-1417169D01*
X-70861Y-1413740D01*
X-76915Y-1412536D01*
X-131365D01*
X-137419Y-1413740D01*
X-142551Y-1417169D01*
X-145980Y-1422301D01*
X-147184Y-1428355D01*
Y-1502805D01*
X-145980Y-1508859D01*
X-142551Y-1513991D01*
X-137419Y-1517420D01*
X-131365Y-1518624D01*
X-127448D01*
Y-1537075D01*
X-133840D01*
X-139903Y-1538281D01*
X-145044Y-1541716D01*
X-148478Y-1546856D01*
X-149684Y-1552920D01*
Y-1637320D01*
X-148478Y-1643384D01*
X-145044Y-1648524D01*
X-139903Y-1651959D01*
X-133840Y-1653165D01*
X-103948D01*
Y-1681257D01*
X-109652Y-1685069D01*
X-113003Y-1690084D01*
X-128277D01*
X-131629Y-1685069D01*
X-144939Y-1676175D01*
X-160640Y-1673052D01*
X-176341Y-1676175D01*
X-189651Y-1685069D01*
X-193003Y-1690085D01*
X-208277D01*
X-211629Y-1685069D01*
X-224939Y-1676175D01*
X-240640Y-1673052D01*
X-256341Y-1676175D01*
X-269651Y-1685069D01*
X-273003Y-1690084D01*
X-288277D01*
X-291629Y-1685069D01*
X-304939Y-1676175D01*
X-320640Y-1673052D01*
X-336341Y-1676175D01*
X-349651Y-1685069D01*
X-358545Y-1698379D01*
X-361668Y-1714080D01*
Y-1721965D01*
X-393181D01*
Y-1344207D01*
X-28942D01*
X12373Y-1385521D01*
D02*
G37*
G36*
X-1464320Y-2039480D02*
Y-2249480D01*
X-1519949Y-2305109D01*
X-1568691D01*
X-1624320Y-2249480D01*
Y-2039480D01*
X-1569320Y-1984480D01*
X-1519320D01*
X-1464320Y-2039480D01*
D02*
G37*
%LPC*%
G36*
X-219440Y-1537075D02*
X-236448D01*
Y-1582419D01*
X-203595D01*
Y-1552920D01*
X-204801Y-1546856D01*
X-208236Y-1541716D01*
X-213377Y-1538281D01*
X-219440Y-1537075D01*
D02*
G37*
G36*
X-261848D02*
X-278840D01*
X-284903Y-1538281D01*
X-290044Y-1541716D01*
X-293478Y-1546856D01*
X-294684Y-1552920D01*
Y-1582419D01*
X-261848D01*
Y-1537075D01*
D02*
G37*
G36*
X-203595Y-1607819D02*
X-236448D01*
Y-1653165D01*
X-219440D01*
X-213377Y-1651959D01*
X-208236Y-1648524D01*
X-204801Y-1643384D01*
X-203595Y-1637320D01*
Y-1607819D01*
D02*
G37*
G36*
X-261848D02*
X-294684D01*
Y-1637320D01*
X-293478Y-1643384D01*
X-290044Y-1648524D01*
X-284903Y-1651959D01*
X-278840Y-1653165D01*
X-261848D01*
Y-1607819D01*
D02*
G37*
%LPD*%
D10*
X1849900Y-2827800D02*
X2077939D01*
X1764280Y-2742180D02*
Y-2576580D01*
Y-2742180D02*
X1849900Y-2827800D01*
X1764280Y-2576580D02*
X1907540Y-2433320D01*
Y-2433320D01*
X471060Y-2576580D02*
X1764280D01*
X239360D02*
X471060D01*
X-421668Y-1315720D02*
Y-1011616D01*
X-421640Y-1011588D01*
X-421668Y-1315720D02*
X-17142D01*
X40860Y-1465580D02*
Y-1373722D01*
X-17142Y-1315720D02*
X40860Y-1373722D01*
Y-1617528D02*
Y-1465580D01*
X-421668Y-1750452D02*
Y-1315720D01*
X1512254Y-2250479D02*
Y-2142979D01*
X380883Y-1119088D02*
Y-1011588D01*
X946569Y-1684800D02*
Y-1577283D01*
X-1404620Y-1884680D02*
X-1203960D01*
X-1404981D02*
X-1404620D01*
X-1069732Y-1750452D02*
X-551115D01*
X-1203960Y-1884680D02*
X-1069732Y-1750452D01*
X-1544320Y-2349480D02*
Y-2066763D01*
X-1439781Y-1962224D01*
Y-1919480D01*
X-1630680Y-3129280D02*
X-1630598Y-3129198D01*
X-1462958D02*
X-1203960Y-2870200D01*
X-1630598Y-3129198D02*
X-1462958D01*
X-1203960Y-2870200D02*
Y-1884680D01*
X-551115Y-1750452D02*
X-421668D01*
X-1439781Y-1919480D02*
X-1404981Y-1884680D01*
X-640Y-1659028D02*
X40860Y-1617528D01*
X-421668Y-1750452D02*
X-321767D01*
X-640Y-1751580D02*
Y-1659028D01*
X-321767Y-1750452D02*
X-320640Y-1751580D01*
D11*
X1785514Y-2331261D02*
X1944059D01*
X2112158Y-2499360D02*
X2327892D01*
X1944059Y-2331261D02*
X2112158Y-2499360D01*
X-3129280Y-2976880D02*
Y-279400D01*
Y-2976880D02*
X-2981960Y-3124200D01*
X-1345269Y2045631D02*
X-1074759Y1775121D01*
X-3129280Y-279400D02*
X-1074759Y1775121D01*
X-773769Y1474131D01*
X2376794Y-2795085D02*
Y-2548262D01*
X2267939Y-2827800D02*
X2344079D01*
X2376794Y-2795085D01*
X2327892Y-2499360D02*
X2376794Y-2548262D01*
X2173719Y-2608580D02*
X2270760D01*
X2172939Y-2607800D02*
X2173719Y-2608580D01*
X1699983Y-2416792D02*
X1785514Y-2331261D01*
X1207752Y-2416792D02*
X1699983D01*
X1670146Y-2352605D02*
X1702254Y-2320497D01*
X1295965Y-2352605D02*
X1670146D01*
X1702254Y-2320497D02*
Y-2250479D01*
X1155041Y-2364081D02*
X1207752Y-2416792D01*
X1227440Y-2284080D02*
X1295965Y-2352605D01*
X371860Y-2284080D02*
X1227440D01*
X371861Y-2364081D02*
X1155041D01*
X371860Y-2364080D02*
X371861Y-2364081D01*
X-3029513Y-466653D02*
X-2384105Y178755D01*
X-945912D01*
X-332699Y-434457D01*
X-432135Y2782728D02*
X117947Y2232646D01*
Y689298D02*
Y2232646D01*
X-2160032Y2782728D02*
X-432135D01*
X152400Y680645D02*
Y2101210D01*
X763910Y2712720D01*
X3345581D01*
X239360Y-1751580D02*
Y-1322223D01*
X-271739Y-811124D02*
X239360Y-1322223D01*
X-271739Y-811124D02*
Y256506D01*
X152400Y680645D01*
X3345581Y2712720D02*
X3816431Y3183570D01*
X-241259Y243881D02*
X-102860Y382280D01*
X506720D01*
X2760980Y-1871980D01*
X-241259Y-798499D02*
X269840Y-1309598D01*
Y-1565239D02*
Y-1309598D01*
X3266841Y-2633980D02*
X3624656Y-2991796D01*
X2760980Y-2517140D02*
Y-2128119D01*
X269840Y-1565239D02*
X371860Y-1667259D01*
X2760980Y-2517140D02*
X2877820Y-2633980D01*
X3266841D01*
X2760980Y-2128119D02*
Y-1871980D01*
X-241259Y-798499D02*
Y243881D01*
X371860Y-1884080D02*
Y-1667259D01*
X-302219Y-823749D02*
X208880Y-1334848D01*
X-302219Y-823749D02*
Y269131D01*
X117947Y689298D01*
X0Y-320340D02*
Y-127000D01*
Y-465340D02*
X0Y-465340D01*
Y-931290D02*
X495771Y-1427061D01*
X0Y-931290D02*
Y-465340D01*
X2931487Y-2517140D02*
Y-1445587D01*
X1093131Y392769D02*
X2931487Y-1445587D01*
X2585895Y-3093545D02*
X2931487Y-2747953D01*
X286825Y-3093545D02*
X2585895D01*
X79360Y-1677816D02*
X178400Y-1578776D01*
X-3183570Y-3816431D02*
X-2847340Y-3480201D01*
X-332699Y-836374D02*
Y-434457D01*
X-3029513Y-2788607D02*
X-2847340Y-2970780D01*
Y-3480201D02*
Y-2970780D01*
X-332699Y-836374D02*
X178400Y-1347473D01*
X-3029513Y-2788607D02*
Y-466653D01*
X178400Y-1578776D02*
Y-1347473D01*
X79360Y-1751580D02*
Y-1677816D01*
X371860Y-2204080D02*
X796461D01*
X1136568Y-1863972D02*
Y-1684800D01*
X796461Y-2204080D02*
X1136568Y-1863972D01*
X475883Y-906000D02*
Y-655488D01*
X1607254Y-2061700D02*
Y-1786859D01*
X915331Y214969D02*
X1093131Y392769D01*
X1474131Y773769D01*
X-2733040Y-3124200D02*
X-2331720Y-3525520D01*
X2591731Y-1929469D02*
X2644246Y-1981984D01*
X2295034Y-3020450D02*
X2644246Y-2671239D01*
Y-1981984D01*
X333110Y-3020450D02*
X2295034D01*
X155387Y-1747607D02*
X159360Y-1751580D01*
X155387Y-1644894D02*
X208880Y-1591401D01*
X-3183570Y3806266D02*
X-2160032Y2782728D01*
X-3183570Y3806266D02*
Y3816431D01*
X155387Y-1747607D02*
Y-1644894D01*
X208880Y-1591401D02*
Y-1334848D01*
X-665810Y-2273901D02*
X-620642D01*
X-581839Y-2235098D02*
Y-2168824D01*
X-620642Y-2273901D02*
X-581839Y-2235098D01*
Y-2168824D02*
X-537095Y-2124080D01*
X-685690Y-2302510D02*
Y-2293782D01*
X-665810Y-2273901D01*
X-597392Y-1981692D02*
X-579780Y-1964080D01*
X-685690Y-2010410D02*
Y-2001572D01*
X-665810Y-1981692D01*
X-597392D01*
X-977445Y-2157110D02*
X-830690D01*
X-1088555Y-2268220D02*
X-977445Y-2157110D01*
X-943810Y-2302510D02*
X-830690D01*
X-988141Y-2346841D02*
X-943810Y-2302510D01*
X-558176Y-2044080D02*
X-453140D01*
X-685690Y-2157110D02*
Y-2150888D01*
X-665810Y-2131008D01*
X-645104D01*
X-558176Y-2044080D01*
X-537095Y-2124080D02*
X-453140D01*
X-579780Y-1964080D02*
X-453140D01*
X-1088555Y-2907195D02*
Y-2268220D01*
X495771Y-1955152D02*
Y-1427061D01*
X486844Y-1964080D02*
X495771Y-1955152D01*
X371860Y-1964080D02*
X486844D01*
X-1412240Y-3230880D02*
X-1088555Y-2907195D01*
X-1384300Y-3332480D02*
X-988141Y-2936321D01*
Y-2346841D01*
X79360Y-2886080D02*
X286825Y-3093545D01*
X159360Y-2846700D02*
X333110Y-3020450D01*
X2591731Y-1929469D02*
Y-1925977D01*
X-723900Y-3307080D02*
Y-3223260D01*
X-240640Y-2740000D01*
X-873760Y-3235960D02*
X-320640Y-2682840D01*
X-873760Y-3307080D02*
Y-3235960D01*
X-320640Y-2682840D02*
Y-2576580D01*
X-2501900Y-2938780D02*
Y-2387600D01*
X-2209800Y-3230880D02*
X-1412240D01*
X-2501900Y-2938780D02*
X-2209800Y-3230880D01*
X-2250440Y-3332480D02*
X-1384300D01*
X-2571500Y-3011420D02*
Y-2427374D01*
Y-3011420D02*
X-2250440Y-3332480D01*
X-2667000Y-3053080D02*
Y-2475265D01*
X-2296160Y-3423920D02*
X-657860D01*
X-2667000Y-3053080D02*
X-2296160Y-3423920D01*
X-2331720Y-3525520D02*
X-640080D01*
X-657860Y-3423920D02*
X-80640Y-2846700D01*
X-640080Y-3525520D02*
X-640Y-2886080D01*
X-723900Y-3886200D02*
X-195580Y-4414520D01*
X-723900Y-3886200D02*
Y-3671917D01*
X-873760Y-3914140D02*
Y-3671917D01*
X-195580Y-4739640D02*
X-182880Y-4752340D01*
X-195580Y-4739640D02*
Y-4414520D01*
X-240640Y-2740000D02*
Y-2576580D01*
X-436880Y-4752340D02*
Y-4351020D01*
X-873760Y-3914140D02*
X-436880Y-4351020D01*
X371860Y-2124080D02*
X553080D01*
X570883Y-2106277D01*
Y-1126000D01*
X-2915920Y-2082954D02*
X-2571500Y-2427374D01*
X-2915920Y-2082954D02*
Y-937411D01*
X-2821940Y-2067560D02*
X-2501900Y-2387600D01*
X-2915920Y-937411D02*
X-1982122Y-3613D01*
X-2821940Y-1603431D02*
X-1222122Y-3613D01*
X-2821940Y-2067560D02*
Y-1603431D01*
X-2667000Y-2070897D02*
Y-1979339D01*
X-104140Y-1595120D02*
Y-1465580D01*
X-80640Y-1751580D02*
Y-1631120D01*
X-104140Y-1607620D02*
X-80640Y-1631120D01*
X-104140Y-1607620D02*
Y-1595120D01*
X159360Y-2846700D02*
Y-2576580D01*
X-80640Y-2846700D02*
Y-2576580D01*
X79360Y-2886080D02*
Y-2576580D01*
X-640Y-2886080D02*
Y-2576580D01*
X1474131Y773769D02*
X2045631Y1345269D01*
X-2604431Y-1916769D02*
X-2045631Y-1357969D01*
X-2667000Y-1979339D02*
X-2604431Y-1916769D01*
X1463971Y-796629D02*
Y-794094D01*
Y-797264D02*
Y-796629D01*
X2028803Y-1363049D02*
X2591731Y-1925977D01*
X2027851Y-1363049D02*
X2028803D01*
X2027851D02*
Y-1361144D01*
X1463971Y-797264D02*
X2027851Y-1361144D01*
X900091Y-230214D02*
Y-230209D01*
Y-230214D02*
X1463971Y-794094D01*
X-1914229Y2612051D02*
X-1347809Y2045631D01*
X-1345269D01*
X-2016760Y2508723D02*
Y2509520D01*
X-2172939Y2352544D02*
X-2016760Y2508723D01*
X-2045631Y-1357969D02*
Y-1345269D01*
X-1474131Y-773769D01*
X-773769Y1474131D02*
X-214969Y915331D01*
X2045631Y1345269D02*
X2604431Y1904069D01*
Y1916769D01*
X1041568Y-1464800D02*
Y-1221173D01*
X655488Y-475883D02*
Y-474812D01*
X787400Y-342900D01*
X1221173Y-1041568D02*
Y-1039427D01*
X1358900Y-901700D01*
X1786859Y-1607254D02*
Y-1604041D01*
X1930400Y-1460500D01*
X2352544Y-2172939D02*
Y-2168656D01*
X2489200Y-2032000D01*
X-1474131Y-773769D02*
X-915331Y-214969D01*
X-812800Y-317500D02*
X-655488Y-474812D01*
Y-475883D02*
Y-474812D01*
X-1371600Y-876300D02*
X-1221173Y-1026727D01*
Y-1041568D02*
Y-1026727D01*
X-1943100Y-1447800D02*
X-1786859Y-1604041D01*
Y-1607254D02*
Y-1604041D01*
X-2501900Y-2019300D02*
X-2352544Y-2168656D01*
Y-2172939D02*
Y-2168656D01*
X-475883Y655488D02*
X-474812D01*
X-317500Y812800D01*
X-1041568Y1221173D02*
X-1026727D01*
X-876300Y1371600D01*
X-1607254Y1786859D02*
X-1604041D01*
X-1447800Y1943100D01*
X655488Y474812D02*
Y475883D01*
Y474812D02*
X812800Y317500D01*
X1221173Y1026727D02*
Y1041568D01*
Y1026727D02*
X1358900Y889000D01*
X1786859Y1604041D02*
Y1607254D01*
Y1604041D02*
X1943100Y1447800D01*
X2352544Y2168656D02*
Y2172939D01*
Y2168656D02*
X2501900Y2019300D01*
D12*
X-1869502Y-2786742D02*
X-1869440Y-2786680D01*
X-2144840Y-2906840D02*
X-2024742Y-2786742D01*
X-1869502D01*
X-1869440Y-2786680D02*
X-1869315Y-2786805D01*
X-1646795D02*
X-1645920Y-2787680D01*
X-1869315Y-2786805D02*
X-1646795D01*
X-2144840Y-3129280D02*
Y-2906840D01*
Y-4638040D02*
Y-3683000D01*
X-1665060Y-2505680D02*
X-1645920D01*
X-1694320Y-2476420D02*
X-1665060Y-2505680D01*
X-1694320Y-2476420D02*
Y-2334480D01*
X-2394840Y-4638040D02*
Y-4336160D01*
X-2603500Y-4127500D02*
X-2394840Y-4336160D01*
X-2603500Y-4127500D02*
Y-3683000D01*
D13*
D03*
X2596500D02*
D03*
D14*
X71120Y-4752340D02*
D03*
X-182880D02*
D03*
X-436880D02*
D03*
X-2394840Y-4638040D02*
D03*
X-2144840D02*
D03*
X-1894840D02*
D03*
D15*
X-690880Y-4752340D02*
D03*
D16*
X3183570Y-3816431D02*
D03*
X3816431Y-3183570D02*
D03*
X-3816431Y3183570D02*
D03*
X-3183570Y3816431D02*
D03*
D17*
X-1982122Y-3613D02*
D03*
X-1222122D02*
D03*
D18*
X3816431Y3183570D02*
D03*
X3183570Y3816431D02*
D03*
X-3816431Y-3183570D02*
D03*
X-3183570Y-3816431D02*
D03*
D19*
X2172939Y-2352544D02*
D03*
X1607254Y-1786859D02*
D03*
X1041568Y-1221173D02*
D03*
X475883Y-655488D02*
D03*
X0Y127000D02*
D03*
X2172939Y2352544D02*
D03*
X1607254Y1786859D02*
D03*
X475883Y655488D02*
D03*
X1041568Y1221173D02*
D03*
X-655488Y475883D02*
D03*
X-2352544Y2172939D02*
D03*
X-1786859Y1607254D02*
D03*
X-1221173Y1041568D02*
D03*
X-2146300Y-2336800D02*
D03*
X-1607254Y-1786859D02*
D03*
X-475883Y-655488D02*
D03*
X-1041568Y-1221173D02*
D03*
D20*
X2352544Y-2172939D02*
D03*
X1786859Y-1607254D02*
D03*
X1221173Y-1041568D02*
D03*
X655488Y-475883D02*
D03*
X-475883Y655488D02*
D03*
X-2172939Y2352544D02*
D03*
X-1607254Y1786859D02*
D03*
X-1041568Y1221173D02*
D03*
D21*
X0Y-127000D02*
D03*
D22*
X2352544Y2172939D02*
D03*
X1786859Y1607254D02*
D03*
X655488Y475883D02*
D03*
X1221173Y1041568D02*
D03*
X-2325905Y-2157195D02*
D03*
X-1786859Y-1607254D02*
D03*
X-655488Y-475883D02*
D03*
X-1221173Y-1041568D02*
D03*
D23*
X-2325905Y-2369820D02*
D03*
X-1786859Y-1786859D02*
D03*
X-1221173Y-1221173D02*
D03*
X-683260Y-670560D02*
D03*
X-2390140Y2362200D02*
D03*
X-1786859Y1786859D02*
D03*
X-1249680Y1234440D02*
D03*
X655488Y655488D02*
D03*
X1221173Y1221173D02*
D03*
X2349500Y2387600D02*
D03*
X1786859Y1786859D02*
D03*
X1399540Y-2148840D02*
D03*
X1178560Y-1930400D02*
D03*
X1043940Y-1798320D02*
D03*
X655320Y-1404620D02*
D03*
X480060Y-1234440D02*
D03*
X239360Y-931290D02*
D03*
X1907540Y-2548262D02*
D03*
X1799754Y-2433320D02*
D03*
Y-2170479D02*
D03*
X1290320Y-1793240D02*
D03*
X701040Y-1198880D02*
D03*
X1907540Y-2433320D02*
D03*
X-347452Y-1395460D02*
D03*
Y-1231778D02*
D03*
X-1394320Y-2451100D02*
D03*
X-1869440Y-2603500D02*
D03*
X-2486660Y-2288540D02*
D03*
X-2016760Y-3147060D02*
D03*
X-2250440Y-3053080D02*
D03*
X-2413000Y-2905760D02*
D03*
X-2446020Y-3530600D02*
D03*
X-1549400Y-3606800D02*
D03*
X-1732280Y-3619500D02*
D03*
X-1745920Y-3129321D02*
D03*
X-1259840Y-3340100D02*
D03*
X-1016000Y-3286760D02*
D03*
Y-3627120D02*
D03*
X-589280D02*
D03*
X2327892Y-2372360D02*
D03*
X2082800Y-2199640D02*
D03*
X1780540Y-1813560D02*
D03*
X1512254Y-1644800D02*
D03*
X1201569Y-1221173D02*
D03*
X976489Y-1041568D02*
D03*
X104140Y-292100D02*
D03*
X135803Y0D02*
D03*
X396240Y-528320D02*
D03*
X642247Y-655488D02*
D03*
X-967740Y970280D02*
D03*
X-1534160Y1531620D02*
D03*
X-3225800Y-2819400D02*
D03*
X-2832100Y-972820D02*
D03*
X-2938780Y-830580D02*
D03*
X-2947688Y-2168595D02*
D03*
X-2763520Y-2369820D02*
D03*
X-2837952Y-1502733D02*
D03*
X-2743200Y-1638300D02*
D03*
X-2738120Y-1973987D02*
D03*
X-2581450Y-2157195D02*
D03*
X-2468104Y-1872565D02*
D03*
X-1918033Y-1323218D02*
D03*
X-835329Y-153098D02*
D03*
X-1334313Y-745545D02*
D03*
X-347452Y-1083735D02*
D03*
X2243413Y-859052D02*
D03*
X2247900Y-650240D02*
D03*
X2106050Y-521781D02*
D03*
X2098040Y-721360D02*
D03*
X1676095Y-882502D02*
D03*
X1115060Y-323901D02*
D03*
X967740Y25400D02*
D03*
X1115060Y-119380D02*
D03*
X1521460Y-157480D02*
D03*
X1684020Y-307340D02*
D03*
Y-78740D02*
D03*
X1534310Y67848D02*
D03*
X948918Y379372D02*
D03*
X1116621Y535769D02*
D03*
X1207242Y392769D02*
D03*
X1526540Y690880D02*
D03*
X1676136Y876300D02*
D03*
Y1081857D02*
D03*
X1536003Y938172D02*
D03*
X967740Y960120D02*
D03*
X1534160Y1536700D02*
D03*
X2100580Y2100580D02*
D03*
X-2540Y2242820D02*
D03*
X34190Y2096914D02*
D03*
X266700Y2095500D02*
D03*
X190500Y2258060D02*
D03*
X-1993779Y2673923D02*
D03*
X-2077480Y2101385D02*
D03*
X-1640413Y2242227D02*
D03*
X-1509672Y2107503D02*
D03*
X-1072884Y1676916D02*
D03*
X-2920248Y-3003227D02*
D03*
X-2768600Y-3011420D02*
D03*
X-2933700Y-3225800D02*
D03*
X-2768600Y-3241040D02*
D03*
X-3029513Y-2891097D02*
D03*
X-3048000Y-340360D02*
D03*
X-2349500Y101600D02*
D03*
X-2026920Y-172720D02*
D03*
X-1277620Y-175260D02*
D03*
X-972820Y91440D02*
D03*
X-379372Y382280D02*
D03*
X358140Y551180D02*
D03*
X388620Y308661D02*
D03*
X565685Y209666D02*
D03*
X808106Y-168337D02*
D03*
X1442720Y-660400D02*
D03*
X1327852Y-763042D02*
D03*
X1894840Y-1330960D02*
D03*
X2011680Y-1234440D02*
D03*
X2557780Y-1775460D02*
D03*
X2427328Y-1895882D02*
D03*
X2537457Y-2633980D02*
D03*
X2720340Y-2608580D02*
D03*
X2844800Y-2415540D02*
D03*
X3050540Y-2560320D02*
D03*
Y-2735580D02*
D03*
X2819400Y-2702560D02*
D03*
X2682240Y-3126740D02*
D03*
X2438400Y-3004820D02*
D03*
X2245360Y-2941320D02*
D03*
X274320Y-3175000D02*
D03*
X368300Y-2923540D02*
D03*
X239360Y-2721580D02*
D03*
X-1380020Y-2907195D02*
D03*
X-1513840Y-3037840D02*
D03*
X-597392Y-2410460D02*
D03*
X-891540D02*
D03*
X-604520Y-3241040D02*
D03*
X-453140Y-2682840D02*
D03*
X-160640Y-2740000D02*
D03*
X43180Y-2956560D02*
D03*
X2270760Y-2608580D02*
D03*
X-421640Y-1011588D02*
D03*
X2931487Y-2517140D02*
D03*
Y-2747953D02*
D03*
X-2981960Y-3124200D02*
D03*
X-2733040D02*
D03*
X380883Y-1011588D02*
D03*
X1512254Y-2142979D02*
D03*
X946569Y-1577283D02*
D03*
X-1630680Y-3129280D02*
D03*
X-723900Y-3307080D02*
D03*
X-873760D02*
D03*
X-2144840Y-3129280D02*
D03*
X-723900Y-3671917D02*
D03*
X-873760D02*
D03*
X-2144840Y-3683000D02*
D03*
X-1869440Y-2407920D02*
D03*
X-2006600Y-2505680D02*
D03*
X-1310640Y-2334480D02*
D03*
X-1394320Y-2217420D02*
D03*
X-1404981Y-1701800D02*
D03*
X-1271333Y-1604680D02*
D03*
X-1404981Y-1508760D02*
D03*
X-830690Y-1912620D02*
D03*
X-919480Y-2010410D02*
D03*
X-570125Y-1884080D02*
D03*
X-337007D02*
D03*
X371860Y-2721580D02*
D03*
X571500D02*
D03*
X252060Y-2444080D02*
D03*
X495300D02*
D03*
X-652065Y-1605452D02*
D03*
X-551180Y-1513840D02*
D03*
X-249140Y-1490980D02*
D03*
X-2667000Y-2475265D02*
D03*
Y-2070897D02*
D03*
X2596500Y-3492500D02*
D03*
X2787000Y-3683000D02*
D03*
X2596500Y-3873500D02*
D03*
X2406000Y-3683000D02*
D03*
D24*
X1607254Y-2030479D02*
D03*
X1512254Y-2250479D02*
D03*
X1702254D02*
D03*
X2267939Y-2827800D02*
D03*
X2077939D02*
D03*
X2172939Y-2607800D02*
D03*
X570883Y-1119088D02*
D03*
X380883D02*
D03*
X475883Y-899088D02*
D03*
X1136568Y-1684800D02*
D03*
X946569D02*
D03*
X1041568Y-1464800D02*
D03*
D25*
X-1404620Y-1884680D02*
D03*
Y-1604680D02*
D03*
X-1869440Y-2786680D02*
D03*
Y-2506680D02*
D03*
D26*
X-453140Y-1884080D02*
D03*
Y-1964080D02*
D03*
Y-2044080D02*
D03*
Y-2124080D02*
D03*
Y-2204080D02*
D03*
Y-2284080D02*
D03*
Y-2364080D02*
D03*
Y-2444080D02*
D03*
X371860D02*
D03*
Y-2364080D02*
D03*
Y-2284080D02*
D03*
Y-2204080D02*
D03*
Y-2124080D02*
D03*
Y-2044080D02*
D03*
Y-1964080D02*
D03*
Y-1884080D02*
D03*
D27*
X-320640Y-2576580D02*
D03*
X-240640D02*
D03*
X-160640D02*
D03*
X-80640D02*
D03*
X-640D02*
D03*
X79360D02*
D03*
X159360D02*
D03*
X239360D02*
D03*
Y-1751580D02*
D03*
X159360D02*
D03*
X79360D02*
D03*
X-640D02*
D03*
X-80640D02*
D03*
X-160640D02*
D03*
X-240640D02*
D03*
X-320640D02*
D03*
D28*
X-1914229Y2612051D02*
D03*
X-2016760Y2509520D02*
D03*
X-214969Y915331D02*
D03*
X-317500Y812800D02*
D03*
X-773769Y1474131D02*
D03*
X-876300Y1371600D02*
D03*
X-1345269Y2045631D02*
D03*
X-1447800Y1943100D02*
D03*
X900091Y-230209D02*
D03*
X797560Y-332740D02*
D03*
X1463971Y-796629D02*
D03*
X1361440Y-899160D02*
D03*
X2027851Y-1363049D02*
D03*
X1925320Y-1465580D02*
D03*
X2591731Y-1929469D02*
D03*
X2489200Y-2032000D02*
D03*
D29*
X-2604431Y-1916769D02*
D03*
X-2501900Y-2019300D02*
D03*
X915331Y214969D02*
D03*
X812800Y317500D02*
D03*
X1474131Y773769D02*
D03*
X1371600Y876300D02*
D03*
X2045631Y1345269D02*
D03*
X1943100Y1447800D02*
D03*
X2604431Y1916769D02*
D03*
X2501900Y2019300D02*
D03*
X-915331Y-214969D02*
D03*
X-812800Y-317500D02*
D03*
X-1474131Y-773769D02*
D03*
X-1371600Y-876300D02*
D03*
X-2045631Y-1345269D02*
D03*
X-1943100Y-1447800D02*
D03*
D30*
X-1694320Y-2334480D02*
D03*
X-1394320D02*
D03*
D31*
X-1544320Y-2349480D02*
D03*
D32*
X0Y-465340D02*
D03*
Y-320340D02*
D03*
D33*
X-830690Y-2302510D02*
D03*
X-685690D02*
D03*
X-830690Y-2157110D02*
D03*
X-685690D02*
D03*
X-104140Y-1465580D02*
D03*
X40860D02*
D03*
X-685690Y-2010410D02*
D03*
X-830690D02*
D03*
D34*
X471060Y-2576580D02*
D03*
Y-2721580D02*
D03*
X-551115Y-1750452D02*
D03*
Y-1605452D02*
D03*
D35*
X-104140Y-1595120D02*
D03*
X-249140D02*
D03*
D36*
X-1645920Y-2787680D02*
D03*
Y-2505680D02*
D03*
%TF.MD5,d4be491d12066e1ba0f95965780b2ff1*%
M02*
