M48
;Layer_Color=9474304
;FILE_FORMAT=4:4
METRIC
;TYPE=PLATED
T1F00S00C0.5000
T3F00S00C0.8000
T4F00S00C1.0000
T5F00S00C1.0500
%
T01
X-00244602Y-00353060
X-00214484Y-00368300
X-00173228Y-00361950
X-00154940Y-00360680
X-00101600Y-00362712
X-00087376Y-00367192
X-00072390Y-00367192
X-00058928Y-00362712
X00240600Y-00368300
X00278700Y-00368300
X00259650Y-00387350
X00259650Y-00349250
X00268224Y-00312674
X00243840Y-00300482
X00224536Y-00294132
X00227076Y-00260858
X00253746Y-00263398
X00272034Y-00260858
X00281940Y-00270256
X00293149Y-00274795
X00305054Y-00273558
X00305054Y-00256032
X00293149Y-00251714
X00284480Y-00241554
X00232789Y-00237236
X00208280Y-00219964
X00179975Y-00217048
X00179975Y-00243332
X00190754Y-00243332
X00190754Y-00254826
X00151225Y-00214298
X00139954Y-00214884
X00117856Y-00193040
X00129032Y-00179324
X00104394Y-00179832
X00094657Y-00157728
X00065532Y-00140462
X00070104Y-00119888
X00048006Y-00123444
X00038088Y-00101159
X00023936Y-00093129
X00039624Y-00052832
X00064225Y-00065549
X00080811Y-00016834
X00096774Y00002540
X00111506Y-00011938
X00111506Y-00032390
X00152146Y-00015748
X00153431Y00006785
X00168402Y-00007874
X00168402Y-00030734
X00167610Y-00088250
X00144272Y-00066040
X00132785Y-00076304
X00120157Y-00122117
X00097649Y-00104157
X00151225Y-00164480
X00178054Y-00181356
X00189484Y-00133096
X00201168Y-00123444
X00209804Y-00072136
X00210605Y-00052178
X00224790Y-00065024
X00224341Y-00085905
X00242733Y-00189588
X00255778Y-00177546
X00049530Y-00244408
X00025206Y-00244408
X00023936Y-00272158
X00037186Y-00272158
X00057150Y-00272158
X00036830Y-00292354
X00027432Y-00317500
X00004318Y-00295656
X00010414Y-00029210
X00013580Y00000000
X00038862Y00030866
X00056568Y00020967
X00094892Y00037937
X00120724Y00039277
X-00037937Y00038228
X-00097282Y00009144
X-00083533Y-00015310
X-00127762Y-00017526
X-00133431Y-00074555
X-00122117Y-00122117
X-00127133Y-00160468
X-00140498Y-00150876
X-00140498Y-00170180
X-00178686Y-00178686
X-00191803Y-00132322
X-00246810Y-00187257
X-00273812Y-00197399
X-00266700Y-00207090
X-00258145Y-00215720
X-00248666Y-00228854
X-00232591Y-00236982
X-00276352Y-00236982
X-00266700Y-00247526
X-00294769Y-00216859
X-00274320Y-00163830
X-00283795Y-00150273
X-00283210Y-00097282
X-00293878Y-00083058
X-00304800Y-00034036
X-00234950Y00010160
X-00202692Y-00017272
X-00068326Y-00067056
X-00042164Y-00101159
X-00034745Y-00108373
X-00034745Y-00123178
X-00034745Y-00139546
X-00024914Y-00149098
X-00055118Y-00151384
X-00065206Y-00160545
X-00057013Y-00188408
X-00033701Y-00188408
X-00083069Y-00191262
X-00091948Y-00201041
X-00089154Y-00241046
X-00059739Y-00241046
X-00045314Y-00268284
X-00016064Y-00274000
X-00060452Y-00324104
X-00072390Y-00330708
X-00087376Y-00330708
X-00101600Y-00328676
X-00125984Y-00334010
X-00138002Y-00290720
X-00151384Y-00303784
X-00163068Y-00312928
X-00174592Y-00312932
X-00201676Y-00314706
X-00214484Y-00312928
X-00225044Y-00305308
X-00241300Y-00290576
X-00276860Y-00301142
X-00273304Y-00312420
X-00276860Y-00324104
X-00293370Y-00322580
X-00298196Y-00312420
X-00292025Y-00300323
X-00302951Y-00289110
X-00322580Y-00281940
X-00200660Y-00250568
X-00186944Y-00240792
X-00186944Y-00260350
X-00139432Y-00245110
X-00131064Y-00233448
X-00139432Y-00221742
X-00124968Y00123444
X-00096774Y00097028
X-00107288Y00167692
X-00153416Y00153162
X-00178686Y00178686
X-00150967Y00210750
X-00164041Y00224223
X-00207748Y00210138
X-00239014Y00236220
X-00199378Y00267392
X-00000254Y00224282
X00003419Y00209691
X00026670Y00209550
X00019050Y00225806
X00035814Y00055118
X00065549Y00065549
X00111662Y00053577
X00152654Y00069088
X00153600Y00093817
X00167614Y00087630
X00167614Y00108186
X00122117Y00122117
X00096774Y00096012
X00153416Y00153670
X00178686Y00178686
X00210058Y00210058
X00234950Y00238760
T03
X-00239484Y-00463804
X-00214484Y-00463804
X-00189484Y-00463804
X-00069088Y-00475234
X-00043688Y-00475234
X-00018288Y-00475234
X00007112Y-00475234
T04
X-00260350Y-00368300
X00259650Y-00368300
X-00122212Y-00000361
X-00198212Y-00000361
T05
X00217294Y-00235254
X00235254Y-00217294
X00160725Y-00178686
X00178686Y-00160725
X00104157Y-00122117
X00122117Y-00104157
X00047588Y-00065549
X00065549Y-00047588
X00000000Y-00012700
X00000000Y00012700
X-00047588Y-00065549
X-00065549Y-00047588
X-00104157Y-00122117
X-00122117Y-00104157
X-00160725Y-00178686
X-00178686Y-00160725
X-00214630Y-00233680
X-00232591Y-00215720
X-00065549Y00047588
X-00047588Y00065549
X-00122117Y00104157
X-00104157Y00122117
X-00178686Y00160725
X-00160725Y00178686
X-00235254Y00217294
X-00217294Y00235254
X00217294Y00235254
X00235254Y00217294
X00160725Y00178686
X00178686Y00160725
X00104157Y00122117
X00122117Y00104157
X00047588Y00065549
X00065549Y00047588
M30
